<svg width="296" height="69" viewBox="0 0 296 69" fill="none" xmlns="http://www.w3.org/2000/svg">
<mask id="mask0_3_37" style="mask-type:alpha" maskUnits="userSpaceOnUse" x="0" y="0" width="296" height="69">
<rect width="296" height="69" fill="#D9D9D9"/>
</mask>
<g mask="url(#mask0_3_37)">
<g filter="url(#filter0_d_3_37)">
<mask id="path-2-outside-1_3_37" maskUnits="userSpaceOnUse" x="8" y="4" width="174" height="55" fill="black">
<rect fill="white" x="8" y="4" width="174" height="55"/>
<path d="M33.775 37.853C33.3283 38.2997 32.6807 38.657 31.832 38.925C30.9833 39.193 29.755 39.4833 28.147 39.796C25.6457 40.2873 23.926 40.9127 22.988 41.672C22.05 42.4313 21.581 43.5257 21.581 44.955C21.581 47.4117 22.988 48.64 25.802 48.64C26.9187 48.64 27.946 48.4613 28.884 48.104C29.8667 47.702 30.693 47.1883 31.363 46.563C32.0777 45.893 32.636 45.1337 33.038 44.285C33.4847 43.3917 33.708 42.4537 33.708 41.471L33.775 37.853ZM34.378 54C34.11 53.1513 33.9313 52.1687 33.842 51.052C32.8147 52.2133 31.4523 53.1513 29.755 53.866C28.0577 54.536 26.0923 54.871 23.859 54.871C20.0623 54.871 17.2707 54.0447 15.484 52.392C13.742 50.6947 12.871 48.506 12.871 45.826C12.871 43.4587 13.2507 41.5827 14.01 40.198C14.7693 38.7687 15.819 37.652 17.159 36.848C18.499 36.044 20.0847 35.4633 21.916 35.106C23.792 34.704 25.8243 34.3467 28.013 34.034C30.2017 33.7213 31.6757 33.3193 32.435 32.828C33.1943 32.292 33.574 31.4433 33.574 30.282C33.574 29.21 33.0603 28.3837 32.033 27.803C31.0503 27.1777 29.7103 26.865 28.013 26.865C26.003 26.865 24.5513 27.3117 23.658 28.205C22.8093 29.0983 22.2733 30.282 22.05 31.756H13.943C13.9877 30.0587 14.2557 28.4953 14.747 27.066C15.283 25.6367 16.1093 24.4083 17.226 23.381C18.3873 22.3537 19.8837 21.572 21.715 21.036C23.5463 20.4553 25.7797 20.165 28.415 20.165C31.0057 20.165 33.1943 20.4553 34.981 21.036C36.8123 21.6167 38.264 22.4653 39.336 23.582C40.4527 24.654 41.2567 26.0163 41.748 27.669C42.2393 29.277 42.485 31.1083 42.485 33.163V54H34.378ZM61.937 47.769C64.1257 47.769 65.9123 46.8533 67.297 45.022C68.6817 43.146 69.374 40.734 69.374 37.786C69.374 30.9967 66.8727 27.602 61.87 27.602C57.0013 27.602 54.567 31.1753 54.567 38.322C54.567 41.136 55.2593 43.414 56.644 45.156C58.0733 46.898 59.8377 47.769 61.937 47.769ZM46.326 54V8.976H54.902V25.324C57.3587 21.8847 60.6193 20.165 64.684 20.165C66.828 20.165 68.7263 20.5893 70.379 21.438C72.0763 22.242 73.5057 23.4033 74.667 24.922C75.8283 26.4407 76.6993 28.2497 77.28 30.349C77.9053 32.4037 78.218 34.6817 78.218 37.183C78.218 39.9523 77.8607 42.4313 77.146 44.62C76.4313 46.8087 75.4487 48.6623 74.198 50.181C72.9473 51.6997 71.4287 52.861 69.642 53.665C67.9 54.469 66.0017 54.871 63.947 54.871C59.8377 54.871 56.778 53.2407 54.768 49.98L54.701 54H46.326ZM97.6757 47.568C102.991 47.568 105.649 44.218 105.649 37.518C105.649 30.8627 102.991 27.535 97.6757 27.535C92.3604 27.535 89.7027 30.8627 89.7027 37.518C89.7027 44.218 92.3604 47.568 97.6757 47.568ZM97.6757 54.871C94.9957 54.871 92.6061 54.4467 90.5067 53.598C88.4074 52.7493 86.6207 51.5657 85.1467 50.047C83.7174 48.5283 82.6231 46.697 81.8637 44.553C81.1044 42.409 80.7247 40.064 80.7247 37.518C80.7247 34.9273 81.1044 32.56 81.8637 30.416C82.6677 28.272 83.8067 26.4407 85.2807 24.922C86.7547 23.4033 88.5191 22.242 90.5737 21.438C92.6731 20.5893 95.0404 20.165 97.6757 20.165C100.266 20.165 102.589 20.5893 104.644 21.438C106.698 22.242 108.44 23.4033 109.87 24.922C111.344 26.396 112.46 28.205 113.22 30.349C114.024 32.493 114.426 34.8827 114.426 37.518C114.426 40.1533 114.024 42.543 113.22 44.687C112.46 46.7863 111.344 48.5953 109.87 50.114C108.44 51.6327 106.676 52.8163 104.577 53.665C102.522 54.469 100.222 54.871 97.6757 54.871ZM139.019 54V49.377C136.786 53.0397 133.369 54.871 128.768 54.871C127.115 54.871 125.597 54.5807 124.212 54C122.872 53.4193 121.711 52.593 120.728 51.521C119.745 50.449 118.964 49.176 118.383 47.702C117.847 46.228 117.579 44.5753 117.579 42.744V21.036H126.289V41.404C126.289 45.5133 128.143 47.568 131.85 47.568C134.083 47.568 135.758 46.8757 136.875 45.491C138.036 44.0617 138.617 42.2527 138.617 40.064V21.036H147.26V54H139.019ZM169.772 32.292H177.879V41.672C177.879 43.414 177.611 45.089 177.075 46.697C176.584 48.2603 175.78 49.6673 174.663 50.918C173.591 52.124 172.206 53.0843 170.509 53.799C168.856 54.5137 166.869 54.871 164.546 54.871C162.134 54.871 160.079 54.5137 158.382 53.799C156.685 53.0843 155.278 52.124 154.161 50.918C153.089 49.712 152.307 48.305 151.816 46.697C151.325 45.089 151.079 43.3917 151.079 41.605V12.125H159.655V21.036H177.879V27.2H159.655V40.734C159.655 42.8333 160.035 44.4637 160.794 45.625C161.598 46.7417 162.893 47.3 164.68 47.3C166.422 47.3 167.695 46.7417 168.499 45.625C169.348 44.5083 169.772 42.9227 169.772 40.868V32.292Z"/>
</mask>
<path d="M33.775 37.853C33.3283 38.2997 32.6807 38.657 31.832 38.925C30.9833 39.193 29.755 39.4833 28.147 39.796C25.6457 40.2873 23.926 40.9127 22.988 41.672C22.05 42.4313 21.581 43.5257 21.581 44.955C21.581 47.4117 22.988 48.64 25.802 48.64C26.9187 48.64 27.946 48.4613 28.884 48.104C29.8667 47.702 30.693 47.1883 31.363 46.563C32.0777 45.893 32.636 45.1337 33.038 44.285C33.4847 43.3917 33.708 42.4537 33.708 41.471L33.775 37.853ZM34.378 54C34.11 53.1513 33.9313 52.1687 33.842 51.052C32.8147 52.2133 31.4523 53.1513 29.755 53.866C28.0577 54.536 26.0923 54.871 23.859 54.871C20.0623 54.871 17.2707 54.0447 15.484 52.392C13.742 50.6947 12.871 48.506 12.871 45.826C12.871 43.4587 13.2507 41.5827 14.01 40.198C14.7693 38.7687 15.819 37.652 17.159 36.848C18.499 36.044 20.0847 35.4633 21.916 35.106C23.792 34.704 25.8243 34.3467 28.013 34.034C30.2017 33.7213 31.6757 33.3193 32.435 32.828C33.1943 32.292 33.574 31.4433 33.574 30.282C33.574 29.21 33.0603 28.3837 32.033 27.803C31.0503 27.1777 29.7103 26.865 28.013 26.865C26.003 26.865 24.5513 27.3117 23.658 28.205C22.8093 29.0983 22.2733 30.282 22.05 31.756H13.943C13.9877 30.0587 14.2557 28.4953 14.747 27.066C15.283 25.6367 16.1093 24.4083 17.226 23.381C18.3873 22.3537 19.8837 21.572 21.715 21.036C23.5463 20.4553 25.7797 20.165 28.415 20.165C31.0057 20.165 33.1943 20.4553 34.981 21.036C36.8123 21.6167 38.264 22.4653 39.336 23.582C40.4527 24.654 41.2567 26.0163 41.748 27.669C42.2393 29.277 42.485 31.1083 42.485 33.163V54H34.378ZM61.937 47.769C64.1257 47.769 65.9123 46.8533 67.297 45.022C68.6817 43.146 69.374 40.734 69.374 37.786C69.374 30.9967 66.8727 27.602 61.87 27.602C57.0013 27.602 54.567 31.1753 54.567 38.322C54.567 41.136 55.2593 43.414 56.644 45.156C58.0733 46.898 59.8377 47.769 61.937 47.769ZM46.326 54V8.976H54.902V25.324C57.3587 21.8847 60.6193 20.165 64.684 20.165C66.828 20.165 68.7263 20.5893 70.379 21.438C72.0763 22.242 73.5057 23.4033 74.667 24.922C75.8283 26.4407 76.6993 28.2497 77.28 30.349C77.9053 32.4037 78.218 34.6817 78.218 37.183C78.218 39.9523 77.8607 42.4313 77.146 44.62C76.4313 46.8087 75.4487 48.6623 74.198 50.181C72.9473 51.6997 71.4287 52.861 69.642 53.665C67.9 54.469 66.0017 54.871 63.947 54.871C59.8377 54.871 56.778 53.2407 54.768 49.98L54.701 54H46.326ZM97.6757 47.568C102.991 47.568 105.649 44.218 105.649 37.518C105.649 30.8627 102.991 27.535 97.6757 27.535C92.3604 27.535 89.7027 30.8627 89.7027 37.518C89.7027 44.218 92.3604 47.568 97.6757 47.568ZM97.6757 54.871C94.9957 54.871 92.6061 54.4467 90.5067 53.598C88.4074 52.7493 86.6207 51.5657 85.1467 50.047C83.7174 48.5283 82.6231 46.697 81.8637 44.553C81.1044 42.409 80.7247 40.064 80.7247 37.518C80.7247 34.9273 81.1044 32.56 81.8637 30.416C82.6677 28.272 83.8067 26.4407 85.2807 24.922C86.7547 23.4033 88.5191 22.242 90.5737 21.438C92.6731 20.5893 95.0404 20.165 97.6757 20.165C100.266 20.165 102.589 20.5893 104.644 21.438C106.698 22.242 108.44 23.4033 109.87 24.922C111.344 26.396 112.46 28.205 113.22 30.349C114.024 32.493 114.426 34.8827 114.426 37.518C114.426 40.1533 114.024 42.543 113.22 44.687C112.46 46.7863 111.344 48.5953 109.87 50.114C108.44 51.6327 106.676 52.8163 104.577 53.665C102.522 54.469 100.222 54.871 97.6757 54.871ZM139.019 54V49.377C136.786 53.0397 133.369 54.871 128.768 54.871C127.115 54.871 125.597 54.5807 124.212 54C122.872 53.4193 121.711 52.593 120.728 51.521C119.745 50.449 118.964 49.176 118.383 47.702C117.847 46.228 117.579 44.5753 117.579 42.744V21.036H126.289V41.404C126.289 45.5133 128.143 47.568 131.85 47.568C134.083 47.568 135.758 46.8757 136.875 45.491C138.036 44.0617 138.617 42.2527 138.617 40.064V21.036H147.26V54H139.019ZM169.772 32.292H177.879V41.672C177.879 43.414 177.611 45.089 177.075 46.697C176.584 48.2603 175.78 49.6673 174.663 50.918C173.591 52.124 172.206 53.0843 170.509 53.799C168.856 54.5137 166.869 54.871 164.546 54.871C162.134 54.871 160.079 54.5137 158.382 53.799C156.685 53.0843 155.278 52.124 154.161 50.918C153.089 49.712 152.307 48.305 151.816 46.697C151.325 45.089 151.079 43.3917 151.079 41.605V12.125H159.655V21.036H177.879V27.2H159.655V40.734C159.655 42.8333 160.035 44.4637 160.794 45.625C161.598 46.7417 162.893 47.3 164.68 47.3C166.422 47.3 167.695 46.7417 168.499 45.625C169.348 44.5083 169.772 42.9227 169.772 40.868V32.292Z" fill="white"/>
<path d="M33.775 37.853L37.7743 37.9271L37.9579 28.0132L30.9466 35.0246L33.775 37.853ZM31.832 38.925L30.6275 35.1107L30.6275 35.1107L31.832 38.925ZM28.147 39.796L27.3835 35.8695L27.376 35.871L28.147 39.796ZM22.988 41.672L20.4712 38.563L20.4712 38.563L22.988 41.672ZM28.884 48.104L30.308 51.842L30.3535 51.8246L30.3985 51.8062L28.884 48.104ZM31.363 46.563L34.0923 49.4872L34.0988 49.4811L31.363 46.563ZM33.038 44.285L29.4603 42.4961L29.4413 42.5342L29.423 42.5727L33.038 44.285ZM33.708 41.471L29.7087 41.3969L29.708 41.434V41.471H33.708ZM34.378 54L30.5637 55.2045L31.4465 58H34.378V54ZM33.842 51.052L37.8293 50.733L37.0791 41.3556L30.846 48.4017L33.842 51.052ZM29.755 53.866L31.2237 57.5866L31.2656 57.5701L31.3072 57.5525L29.755 53.866ZM15.484 52.392L12.6925 55.2569L12.7297 55.2931L12.7678 55.3284L15.484 52.392ZM14.01 40.198L17.5172 42.1213L17.53 42.0981L17.5425 42.0746L14.01 40.198ZM17.159 36.848L19.217 40.278L19.217 40.278L17.159 36.848ZM21.916 35.106L22.682 39.032L22.7181 39.0249L22.7541 39.0172L21.916 35.106ZM28.013 34.034L27.4473 30.0742L27.4473 30.0742L28.013 34.034ZM32.435 32.828L34.608 36.1863L34.6758 36.1424L34.7417 36.0959L32.435 32.828ZM32.033 27.803L29.8855 31.1776L29.9737 31.2338L30.0648 31.2852L32.033 27.803ZM23.658 28.205L20.8296 25.3766L20.7933 25.4128L20.758 25.45L23.658 28.205ZM22.05 31.756V35.756H25.4896L26.0049 32.3552L22.05 31.756ZM13.943 31.756L9.94438 31.6508L9.83635 35.756H13.943V31.756ZM14.747 27.066L11.0017 25.6615L10.9822 25.7133L10.9643 25.7657L14.747 27.066ZM17.226 23.381L14.5757 20.385L14.5465 20.4109L14.5178 20.4373L17.226 23.381ZM21.715 21.036L22.8386 24.8749L22.8814 24.8624L22.924 24.8489L21.715 21.036ZM34.981 21.036L33.7447 24.8401L33.7583 24.8446L33.772 24.8489L34.981 21.036ZM39.336 23.582L36.4505 26.3521L36.507 26.411L36.5659 26.4675L39.336 23.582ZM41.748 27.669L37.9139 28.8089L37.9182 28.8234L37.9226 28.8379L41.748 27.669ZM42.485 54V58H46.485V54H42.485ZM33.775 37.853L30.9466 35.0246C31.0296 34.9415 31.0716 34.9263 31.0219 34.9537C30.9708 34.9819 30.8485 35.0409 30.6275 35.1107L31.832 38.925L33.0365 42.7393C34.2623 42.3522 35.5552 41.7297 36.6034 40.6814L33.775 37.853ZM31.832 38.925L30.6275 35.1107C29.9968 35.3098 28.944 35.5661 27.3835 35.8695L28.147 39.796L28.9105 43.7225C30.566 43.4006 31.9699 43.0762 33.0365 42.7393L31.832 38.925ZM28.147 39.796L27.376 35.871C24.7963 36.3777 22.226 37.1425 20.4712 38.563L22.988 41.672L25.5048 44.781C25.4997 44.7851 25.7127 44.6238 26.3482 44.3927C26.9552 44.172 27.7976 43.9411 28.918 43.721L28.147 39.796ZM22.988 41.672L20.4712 38.563C18.4181 40.2251 17.581 42.5664 17.581 44.955H21.581H25.581C25.581 44.6756 25.6265 44.5979 25.6093 44.6379C25.6011 44.6572 25.5845 44.6886 25.5586 44.7227C25.5328 44.7566 25.5111 44.7759 25.5048 44.781L22.988 41.672ZM21.581 44.955H17.581C17.581 46.9519 18.178 49.1364 20.0056 50.732C21.7295 52.237 23.9017 52.64 25.802 52.64V48.64V44.64C25.3766 44.64 25.1524 44.5921 25.073 44.569C25.006 44.5495 25.1097 44.5682 25.2669 44.7055C25.3428 44.7717 25.4127 44.85 25.4711 44.9349C25.5289 45.019 25.5632 45.0919 25.5817 45.1404C25.6166 45.2319 25.581 45.1969 25.581 44.955H21.581ZM25.802 48.64V52.64C27.3508 52.64 28.8669 52.3909 30.308 51.842L28.884 48.104L27.46 44.366C27.0251 44.5317 26.4866 44.64 25.802 44.64V48.64ZM28.884 48.104L30.3985 51.8062C31.7599 51.2493 33.0165 50.4913 34.0923 49.4872L31.363 46.563L28.6337 43.6388C28.3695 43.8854 27.9734 44.1547 27.3695 44.4018L28.884 48.104ZM31.363 46.563L34.0988 49.4811C35.1635 48.483 36.0269 47.319 36.653 45.9973L33.038 44.285L29.423 42.5727C29.2451 42.9483 28.9919 43.303 28.6272 43.6448L31.363 46.563ZM33.038 44.285L36.6157 46.0739C37.3354 44.6345 37.708 43.0851 37.708 41.471H33.708H29.708C29.708 41.8222 29.634 42.1488 29.4603 42.4961L33.038 44.285ZM33.708 41.471L37.7073 41.5451L37.7743 37.9271L33.775 37.853L29.7757 37.7789L29.7087 41.3969L33.708 41.471ZM34.378 54L38.1923 52.7955C38.035 52.2973 37.9004 51.6225 37.8293 50.733L33.842 51.052L29.8547 51.371C29.9623 52.7149 30.185 54.0054 30.5637 55.2045L34.378 54ZM33.842 51.052L30.846 48.4017C30.284 49.0371 29.45 49.6543 28.2028 50.1795L29.755 53.866L31.3072 57.5525C33.4546 56.6484 35.3454 55.3896 36.838 53.7023L33.842 51.052ZM29.755 53.866L28.2863 50.1454C27.1485 50.5945 25.6988 50.871 23.859 50.871V54.871V58.871C26.4859 58.871 28.9669 58.4775 31.2237 57.5866L29.755 53.866ZM23.859 54.871V50.871C20.5272 50.871 18.9279 50.1288 18.2002 49.4556L15.484 52.392L12.7678 55.3284C15.6134 57.9605 19.5975 58.871 23.859 58.871V54.871ZM15.484 52.392L18.2755 49.5271C17.3889 48.6632 16.871 47.5483 16.871 45.826H12.871H8.871C8.871 49.4637 10.0951 52.7261 12.6925 55.2569L15.484 52.392ZM12.871 45.826H16.871C16.871 43.8216 17.203 42.6944 17.5172 42.1213L14.01 40.198L10.5028 38.2747C9.29837 40.4709 8.871 43.0957 8.871 45.826H12.871ZM14.01 40.198L17.5425 42.0746C17.9734 41.2634 18.5235 40.6941 19.217 40.278L17.159 36.848L15.101 33.418C13.1145 34.6099 11.5653 36.2739 10.4775 38.3214L14.01 40.198ZM17.159 36.848L19.217 40.278C20.0895 39.7545 21.2207 39.3171 22.682 39.032L21.916 35.106L21.15 31.18C18.9486 31.6096 16.9085 32.3335 15.101 33.418L17.159 36.848ZM21.916 35.106L22.7541 39.0172C24.5276 38.6372 26.468 38.2953 28.5787 37.9938L28.013 34.034L27.4473 30.0742C25.1807 30.398 23.0564 30.7708 21.0779 31.1948L21.916 35.106ZM28.013 34.034L28.5787 37.9938C30.7408 37.6849 33.0302 37.2072 34.608 36.1863L32.435 32.828L30.262 29.4697C30.3849 29.3902 30.281 29.4825 29.7075 29.6389C29.1838 29.7818 28.4431 29.9319 27.4473 30.0742L28.013 34.034ZM32.435 32.828L34.7417 36.0959C36.8288 34.6226 37.574 32.3793 37.574 30.282H33.574H29.574C29.574 30.4358 29.5482 30.3567 29.638 30.156C29.6836 30.0541 29.7511 29.9394 29.8442 29.8263C29.9372 29.7132 30.0368 29.6247 30.1283 29.5601L32.435 32.828ZM33.574 30.282H37.574C37.574 27.5992 36.13 25.5239 34.0012 24.3207L32.033 27.803L30.0648 31.2852C30.1182 31.3154 29.9567 31.2355 29.7916 30.97C29.6149 30.6857 29.574 30.4138 29.574 30.282H33.574ZM32.033 27.803L34.1805 24.4284C32.326 23.2482 30.1426 22.865 28.013 22.865V26.865V30.865C29.2781 30.865 29.7746 31.1071 29.8855 31.1776L32.033 27.803ZM28.013 26.865V22.865C25.5469 22.865 22.8133 23.3928 20.8296 25.3766L23.658 28.205L26.4864 31.0334C26.3872 31.1326 26.3656 31.0931 26.5931 31.0231C26.8375 30.9479 27.286 30.865 28.013 30.865V26.865ZM23.658 28.205L20.758 25.45C19.2358 27.0523 18.4149 29.046 18.0951 31.1568L22.05 31.756L26.0049 32.3552C26.1317 31.518 26.3828 31.1444 26.558 30.96L23.658 28.205ZM22.05 31.756V27.756H13.943V31.756V35.756H22.05V31.756ZM13.943 31.756L17.9416 31.8612C17.9769 30.5214 18.186 29.3664 18.5297 28.3663L14.747 27.066L10.9643 25.7657C10.3254 27.6243 9.99846 29.5959 9.94438 31.6508L13.943 31.756ZM14.747 27.066L18.4923 28.4705C18.8095 27.6248 19.2821 26.9247 19.9342 26.3247L17.226 23.381L14.5178 20.4373C12.9366 21.8919 11.7565 23.6486 11.0017 25.6615L14.747 27.066ZM17.226 23.381L19.8763 26.377C20.5073 25.8188 21.4446 25.2829 22.8386 24.8749L21.715 21.036L20.5914 17.197C18.3227 17.8611 16.2674 18.8885 14.5757 20.385L17.226 23.381ZM21.715 21.036L22.924 24.8489C24.2493 24.4287 26.0488 24.165 28.415 24.165V20.165V16.165C25.5106 16.165 22.8433 16.482 20.506 17.2231L21.715 21.036ZM28.415 20.165V24.165C30.7329 24.165 32.4765 24.428 33.7447 24.8401L34.981 21.036L36.2173 17.2319C33.9121 16.4827 31.2784 16.165 28.415 16.165V20.165ZM34.981 21.036L33.772 24.8489C35.1176 25.2756 35.9402 25.8206 36.4505 26.3521L39.336 23.582L42.2216 20.8119C40.5878 19.1101 38.5071 17.9578 36.19 17.2231L34.981 21.036ZM39.336 23.582L36.5659 26.4675C37.1275 27.0067 37.597 27.7432 37.9139 28.8089L41.748 27.669L45.5821 26.5291C44.9163 24.2895 43.7778 22.3013 42.1061 20.6964L39.336 23.582ZM41.748 27.669L37.9226 28.8379C38.2758 29.9939 38.485 31.42 38.485 33.163H42.485H46.485C46.485 30.7967 46.2028 28.5601 45.5734 26.5001L41.748 27.669ZM42.485 33.163H38.485V54H42.485H46.485V33.163H42.485ZM42.485 54V50H34.378V54V58H42.485V54ZM67.297 45.022L70.4876 47.4344L70.5016 47.416L70.5153 47.3974L67.297 45.022ZM56.644 45.156L53.5127 47.645L53.532 47.6693L53.5517 47.6933L56.644 45.156ZM46.326 54H42.326V58H46.326V54ZM46.326 8.976V4.976H42.326V8.976H46.326ZM54.902 8.976H58.902V4.976H54.902V8.976ZM54.902 25.324H50.902V37.8059L58.1569 27.649L54.902 25.324ZM70.379 21.438L68.5518 24.9963L68.6088 25.0255L68.6666 25.0529L70.379 21.438ZM74.667 24.922L77.8444 22.4922L77.8444 22.4922L74.667 24.922ZM77.28 30.349L73.4247 31.4153L73.4384 31.4647L73.4533 31.5136L77.28 30.349ZM77.146 44.62L80.9484 45.8616L80.9484 45.8616L77.146 44.62ZM69.642 53.665L68.0005 50.0173L67.9831 50.0252L67.9658 50.0332L69.642 53.665ZM54.768 49.98L58.173 47.881L50.9964 36.239L50.7685 49.9133L54.768 49.98ZM54.701 54V58H58.6349L58.7004 54.0667L54.701 54ZM61.937 47.769V51.769C65.4492 51.769 68.3902 50.2085 70.4876 47.4344L67.297 45.022L64.1063 42.6096C63.4345 43.4982 62.8021 43.769 61.937 43.769V47.769ZM67.297 45.022L70.5153 47.3974C72.5282 44.6702 73.374 41.3609 73.374 37.786H69.374H65.374C65.374 40.1071 64.8351 41.6218 64.0787 42.6466L67.297 45.022ZM69.374 37.786H73.374C73.374 34.0176 72.7007 30.4657 70.7182 27.7752C68.5675 24.8564 65.3741 23.602 61.87 23.602V27.602V31.602C63.3685 31.602 63.9271 32.0449 64.2778 32.5208C64.7966 33.2249 65.374 34.7651 65.374 37.786H69.374ZM61.87 27.602V23.602C58.3071 23.602 55.1524 24.9981 53.087 28.0299C51.209 30.7866 50.567 34.4194 50.567 38.322H54.567H58.567C58.567 35.078 59.1421 33.3508 59.6985 32.5341C60.0674 31.9925 60.5643 31.602 61.87 31.602V27.602ZM54.567 38.322H50.567C50.567 41.7964 51.4307 45.0257 53.5127 47.645L56.644 45.156L59.7753 42.667C59.088 41.8023 58.567 40.4756 58.567 38.322H54.567ZM56.644 45.156L53.5517 47.6933C55.6771 50.2836 58.5429 51.769 61.937 51.769V47.769V43.769C61.1324 43.769 60.4696 43.5124 59.7363 42.6187L56.644 45.156ZM46.326 54H50.326V8.976H46.326H42.326V54H46.326ZM46.326 8.976V12.976H54.902V8.976V4.976H46.326V8.976ZM54.902 8.976H50.902V25.324H54.902H58.902V8.976H54.902ZM54.902 25.324L58.1569 27.649C59.8981 25.2113 61.9708 24.165 64.684 24.165V20.165V16.165C59.2678 16.165 54.8192 18.5581 51.6471 22.999L54.902 25.324ZM64.684 20.165V24.165C66.2907 24.165 67.5458 24.4797 68.5518 24.9963L70.379 21.438L72.2062 17.8797C69.9069 16.699 67.3653 16.165 64.684 16.165V20.165ZM70.379 21.438L68.6666 25.0529C69.7776 25.5792 70.708 26.3298 71.4896 27.3518L74.667 24.922L77.8444 22.4922C76.3033 20.4769 74.3751 18.9048 72.0913 17.823L70.379 21.438ZM74.667 24.922L71.4896 27.3518C72.2994 28.4109 72.9618 29.7415 73.4247 31.4153L77.28 30.349L81.1352 29.2827C80.4369 26.7579 79.3572 24.4705 77.8444 22.4922L74.667 24.922ZM77.28 30.349L73.4533 31.5136C73.9466 33.1346 74.218 35.013 74.218 37.183H78.218H82.218C82.218 34.3504 81.864 31.6727 81.1067 29.1844L77.28 30.349ZM78.218 37.183H74.218C74.218 39.6134 73.9039 41.6623 73.3436 43.3784L77.146 44.62L80.9484 45.8616C81.8174 43.2003 82.218 40.2913 82.218 37.183H78.218ZM77.146 44.62L73.3436 43.3784C72.7579 45.172 71.9945 46.5645 71.1103 47.6382L74.198 50.181L77.2857 52.7238C78.9028 50.7602 80.1047 48.4454 80.9484 45.8616L77.146 44.62ZM74.198 50.181L71.1103 47.6382C70.2487 48.6844 69.2242 49.4667 68.0005 50.0173L69.642 53.665L71.2834 57.3127C73.6331 56.2553 75.6459 54.715 77.2857 52.7238L74.198 50.181ZM69.642 53.665L67.9658 50.0332C66.7859 50.5777 65.4646 50.871 63.947 50.871V54.871V58.871C66.5387 58.871 69.014 58.3603 71.3182 57.2968L69.642 53.665ZM63.947 54.871V50.871C61.1037 50.871 59.3929 49.86 58.173 47.881L54.768 49.98L51.363 52.079C54.163 56.6213 58.5716 58.871 63.947 58.871V54.871ZM54.768 49.98L50.7685 49.9133L50.7015 53.9333L54.701 54L58.7004 54.0667L58.7674 50.0467L54.768 49.98ZM54.701 54V50H46.326V54V58H54.701V54ZM90.5067 53.598L92.0059 49.8896L92.0059 49.8896L90.5067 53.598ZM85.1467 50.047L82.2339 52.7885L82.255 52.8108L82.2764 52.8329L85.1467 50.047ZM81.8637 44.553L78.0932 45.8884L78.0932 45.8884L81.8637 44.553ZM81.8637 30.416L78.1184 29.0115L78.1055 29.0459L78.0932 29.0806L81.8637 30.416ZM85.2807 24.922L88.151 27.7079L88.1511 27.7079L85.2807 24.922ZM90.5737 21.438L92.0313 25.163L92.0521 25.1548L92.0729 25.1464L90.5737 21.438ZM104.644 21.438L103.117 25.135L103.151 25.1493L103.186 25.163L104.644 21.438ZM109.87 24.922L106.957 27.6635L106.998 27.7076L107.041 27.7504L109.87 24.922ZM113.22 30.349L109.449 31.6844L109.461 31.7191L109.474 31.7535L113.22 30.349ZM113.22 44.687L109.474 43.2825L109.466 43.3044L109.458 43.3265L113.22 44.687ZM109.87 50.114L106.999 47.3281L106.978 47.3502L106.957 47.3725L109.87 50.114ZM104.577 53.665L106.034 57.39L106.055 57.3818L106.076 57.3734L104.577 53.665ZM97.6757 47.568V51.568C101.228 51.568 104.52 50.4024 106.789 47.5415C108.919 44.8573 109.649 41.2896 109.649 37.518H105.649H101.649C101.649 40.4464 101.05 41.9037 100.522 42.5695C100.134 43.0586 99.4389 43.568 97.6757 43.568V47.568ZM105.649 37.518H109.649C109.649 33.7641 108.917 30.2088 106.781 27.5345C104.508 24.6886 101.219 23.535 97.6757 23.535V27.535V31.535C99.4482 31.535 100.145 32.0452 100.53 32.527C101.052 33.1804 101.649 34.6165 101.649 37.518H105.649ZM97.6757 27.535V23.535C94.1329 23.535 90.8434 24.6886 88.5705 27.5345C86.4347 30.2088 85.7027 33.7641 85.7027 37.518H89.7027H93.7027C93.7027 34.6165 94.2996 33.1804 94.8215 32.527C95.2063 32.0452 95.9032 31.535 97.6757 31.535V27.535ZM89.7027 37.518H85.7027C85.7027 41.2896 86.4328 44.8573 88.5623 47.5415C90.832 50.4024 94.1236 51.568 97.6757 51.568V47.568V43.568C95.9125 43.568 95.2177 43.0586 94.8296 42.5695C94.3015 41.9037 93.7027 40.4464 93.7027 37.518H89.7027ZM97.6757 54.871V50.871C95.417 50.871 93.55 50.5138 92.0059 49.8896L90.5067 53.598L89.0076 57.3064C91.6621 58.3796 94.5745 58.871 97.6757 58.871V54.871ZM90.5067 53.598L92.0059 49.8896C90.3862 49.2348 89.0766 48.3527 88.017 47.2611L85.1467 50.047L82.2764 52.8329C84.1649 54.7786 86.4286 56.2639 89.0076 57.3064L90.5067 53.598ZM85.1467 50.047L88.0595 47.3055C87.0439 46.2264 86.2253 44.8864 85.6342 43.2176L81.8637 44.553L78.0932 45.8884C79.0209 48.5076 80.3909 50.8303 82.2339 52.7885L85.1467 50.047ZM81.8637 44.553L85.6342 43.2176C85.0438 41.5504 84.7247 39.6629 84.7247 37.518H80.7247H76.7247C76.7247 40.4651 77.165 43.2676 78.0932 45.8884L81.8637 44.553ZM80.7247 37.518H84.7247C84.7247 35.3199 85.0463 33.4114 85.6342 31.7514L81.8637 30.416L78.0932 29.0806C77.1625 31.7086 76.7247 34.5348 76.7247 37.518H80.7247ZM81.8637 30.416L85.609 31.8205C86.2356 30.1496 87.0913 28.7998 88.151 27.7079L85.2807 24.922L82.4104 22.1361C80.5222 24.0816 79.0998 26.3944 78.1184 29.0115L81.8637 30.416ZM85.2807 24.922L88.1511 27.7079C89.2097 26.6172 90.4861 25.7676 92.0313 25.163L90.5737 21.438L89.1161 17.713C86.552 18.7164 84.2997 20.1895 82.4104 22.1361L85.2807 24.922ZM90.5737 21.438L92.0729 25.1464C93.6245 24.5192 95.4712 24.165 97.6757 24.165V20.165V16.165C94.6096 16.165 91.7216 16.6595 89.0746 17.7296L90.5737 21.438ZM97.6757 20.165V24.165C99.828 24.165 101.62 24.5166 103.117 25.135L104.644 21.438L106.171 17.741C103.559 16.662 100.705 16.165 97.6757 16.165V20.165ZM104.644 21.438L103.186 25.163C104.722 25.7638 105.957 26.6013 106.957 27.6635L109.87 24.922L112.783 22.1805C110.924 20.2054 108.675 18.7202 106.101 17.713L104.644 21.438ZM109.87 24.922L107.041 27.7504C108.057 28.7658 108.87 30.0501 109.449 31.6844L113.22 30.349L116.99 29.0136C116.05 26.3599 114.631 24.0262 112.698 22.0936L109.87 24.922ZM113.22 30.349L109.474 31.7535C110.087 33.3861 110.426 35.2909 110.426 37.518H114.426H118.426C118.426 34.4744 117.961 31.5999 116.965 28.9445L113.22 30.349ZM114.426 37.518H110.426C110.426 39.7451 110.087 41.6499 109.474 43.2825L113.22 44.687L116.965 46.0915C117.961 43.4361 118.426 40.5616 118.426 37.518H114.426ZM113.22 44.687L109.458 43.3265C108.881 44.9227 108.057 46.2382 106.999 47.3281L109.87 50.114L112.74 52.8999C114.63 50.9524 116.04 48.6499 116.981 46.0475L113.22 44.687ZM109.87 50.114L106.957 47.3725C105.956 48.4355 104.688 49.3056 103.078 49.9566L104.577 53.665L106.076 57.3734C108.664 56.3271 110.924 54.8298 112.783 52.8555L109.87 50.114ZM104.577 53.665L103.119 49.94C101.595 50.5366 99.7988 50.871 97.6757 50.871V54.871V58.871C100.645 58.871 103.449 58.4014 106.034 57.39L104.577 53.665ZM139.019 54H135.019V58H139.019V54ZM139.019 49.377H143.019V35.1337L135.604 47.2946L139.019 49.377ZM124.212 54L122.621 57.6702L122.643 57.6796L122.665 57.6888L124.212 54ZM120.728 51.521L123.677 48.8181L120.728 51.521ZM118.383 47.702L114.624 49.069L114.642 49.1188L114.661 49.1681L118.383 47.702ZM117.579 21.036V17.036H113.579V21.036H117.579ZM126.289 21.036H130.289V17.036H126.289V21.036ZM136.875 45.491L133.77 42.9686L133.766 42.9743L133.761 42.98L136.875 45.491ZM138.617 21.036V17.036H134.617V21.036H138.617ZM147.26 21.036H151.26V17.036H147.26V21.036ZM147.26 54V58H151.26V54H147.26ZM139.019 54H143.019V49.377H139.019H135.019V54H139.019ZM139.019 49.377L135.604 47.2946C134.158 49.6656 132.096 50.871 128.768 50.871V54.871V58.871C134.641 58.871 139.413 56.4137 142.434 51.4594L139.019 49.377ZM128.768 54.871V50.871C127.593 50.871 126.606 50.6667 125.759 50.3112L124.212 54L122.665 57.6888C124.587 58.4947 126.638 58.871 128.768 58.871V54.871ZM124.212 54L125.802 50.3298C124.976 49.9716 124.278 49.474 123.677 48.8181L120.728 51.521L117.779 54.2239C119.143 55.712 120.768 56.8671 122.621 57.6702L124.212 54ZM120.728 51.521L123.677 48.8181C123.054 48.1386 122.522 47.2946 122.105 46.2359L118.383 47.702L114.661 49.1681C115.406 51.0574 116.437 52.7594 117.779 54.2239L120.728 51.521ZM118.383 47.702L122.142 46.335C121.79 45.3658 121.579 44.1857 121.579 42.744H117.579H113.579C113.579 44.9649 113.904 47.0902 114.624 49.069L118.383 47.702ZM117.579 42.744H121.579V21.036H117.579H113.579V42.744H117.579ZM117.579 21.036V25.036H126.289V21.036V17.036H117.579V21.036ZM126.289 21.036H122.289V41.404H126.289H130.289V21.036H126.289ZM126.289 41.404H122.289C122.289 43.9793 122.861 46.6577 124.709 48.7064C126.628 50.8334 129.267 51.568 131.85 51.568V47.568V43.568C131.282 43.568 130.959 43.4882 130.803 43.4307C130.729 43.403 130.691 43.3801 130.676 43.3705C130.663 43.3616 130.656 43.3553 130.649 43.3476C130.644 43.3417 130.289 42.938 130.289 41.404H126.289ZM131.85 47.568V51.568C134.955 51.568 137.923 50.5631 139.989 48.002L136.875 45.491L133.761 42.98C133.593 43.1882 133.211 43.568 131.85 43.568V47.568ZM136.875 45.491L139.979 48.0134C141.824 45.7426 142.617 42.991 142.617 40.064H138.617H134.617C134.617 41.5144 134.248 42.3807 133.77 42.9686L136.875 45.491ZM138.617 40.064H142.617V21.036H138.617H134.617V40.064H138.617ZM138.617 21.036V25.036H147.26V21.036V17.036H138.617V21.036ZM147.26 21.036H143.26V54H147.26H151.26V21.036H147.26ZM147.26 54V50H139.019V54V58H147.26V54ZM169.772 32.292V28.292H165.772V32.292H169.772ZM177.879 32.292H181.879V28.292H177.879V32.292ZM177.075 46.697L173.28 45.4321L173.269 45.4648L173.259 45.4977L177.075 46.697ZM174.663 50.918L171.679 48.2539L171.673 48.2605L174.663 50.918ZM170.509 53.799L168.957 50.1125L168.939 50.1199L168.921 50.1276L170.509 53.799ZM158.382 53.799L156.83 57.4855L158.382 53.799ZM154.161 50.918L151.171 53.5755L151.198 53.6058L151.226 53.6356L154.161 50.918ZM151.816 46.697L147.991 47.8659L147.991 47.8659L151.816 46.697ZM151.079 12.125V8.125H147.079V12.125H151.079ZM159.655 12.125H163.655V8.125H159.655V12.125ZM159.655 21.036H155.655V25.036H159.655V21.036ZM177.879 21.036H181.879V17.036H177.879V21.036ZM177.879 27.2V31.2H181.879V27.2H177.879ZM159.655 27.2V23.2H155.655V27.2H159.655ZM160.794 45.625L157.446 47.814L157.495 47.8893L157.548 47.9622L160.794 45.625ZM168.499 45.625L165.314 43.2047L165.283 43.2458L165.253 43.2878L168.499 45.625ZM169.772 32.292V36.292H177.879V32.292V28.292H169.772V32.292ZM177.879 32.292H173.879V41.672H177.879H181.879V32.292H177.879ZM177.879 41.672H173.879C173.879 42.9961 173.676 44.2433 173.28 45.4321L177.075 46.697L180.87 47.9619C181.545 45.9347 181.879 43.8319 181.879 41.672H177.879ZM177.075 46.697L173.259 45.4977C172.942 46.5065 172.427 47.4168 171.679 48.2539L174.663 50.918L177.647 53.5821C179.133 51.9178 180.225 50.0142 180.891 47.8963L177.075 46.697ZM174.663 50.918L171.673 48.2605C171.05 48.9615 170.182 49.5965 168.957 50.1125L170.509 53.799L172.061 57.4855C174.231 56.5721 176.132 55.2865 177.653 53.5755L174.663 50.918ZM170.509 53.799L168.921 50.1276C167.893 50.5724 166.474 50.871 164.546 50.871V54.871V58.871C167.263 58.871 169.82 58.4549 172.097 57.4704L170.509 53.799ZM164.546 54.871V50.871C162.51 50.871 161.013 50.5669 159.934 50.1125L158.382 53.799L156.83 57.4855C159.145 58.4604 161.758 58.871 164.546 58.871V54.871ZM158.382 53.799L159.934 50.1125C158.698 49.592 157.782 48.941 157.096 48.2004L154.161 50.918L151.226 53.6356C152.773 55.307 154.671 56.5767 156.83 57.4855L158.382 53.799ZM154.161 50.918L157.151 48.2605C156.477 47.503 155.972 46.6093 155.641 45.5281L151.816 46.697L147.991 47.8659C148.643 50.0007 149.701 51.921 151.171 53.5755L154.161 50.918ZM151.816 46.697L155.641 45.5281C155.273 44.322 155.079 43.0204 155.079 41.605H151.079H147.079C147.079 43.763 147.376 45.856 147.991 47.8659L151.816 46.697ZM151.079 41.605H155.079V12.125H151.079H147.079V41.605H151.079ZM151.079 12.125V16.125H159.655V12.125V8.125H151.079V12.125ZM159.655 12.125H155.655V21.036H159.655H163.655V12.125H159.655ZM159.655 21.036V25.036H177.879V21.036V17.036H159.655V21.036ZM177.879 21.036H173.879V27.2H177.879H181.879V21.036H177.879ZM177.879 27.2V23.2H159.655V27.2V31.2H177.879V27.2ZM159.655 27.2H155.655V40.734H159.655H163.655V27.2H159.655ZM159.655 40.734H155.655C155.655 43.2386 156.095 45.748 157.446 47.814L160.794 45.625L164.142 43.436C163.974 43.1793 163.655 42.428 163.655 40.734H159.655ZM160.794 45.625L157.548 47.9622C159.321 50.4247 162.03 51.3 164.68 51.3V47.3V43.3C164.191 43.3 163.985 43.2224 163.952 43.208C163.938 43.2021 163.954 43.2076 163.984 43.2311C164.014 43.255 164.033 43.2781 164.04 43.2878L160.794 45.625ZM164.68 47.3V51.3C167.328 51.3 169.992 50.3977 171.745 47.9622L168.499 45.625L165.253 43.2878C165.253 43.288 165.257 43.2826 165.265 43.2735C165.274 43.2644 165.285 43.2542 165.297 43.2442C165.324 43.222 165.342 43.2148 165.335 43.2181C165.315 43.2265 165.133 43.3 164.68 43.3V47.3ZM168.499 45.625L171.684 48.0453C173.257 45.9753 173.772 43.4064 173.772 40.868H169.772H165.772C165.772 42.439 165.438 43.0414 165.314 43.2047L168.499 45.625ZM169.772 40.868H173.772V32.292H169.772H165.772V40.868H169.772Z" fill="url(#paint0_linear_3_37)" mask="url(#path-2-outside-1_3_37)"/>
</g>
<g filter="url(#filter1_d_3_37)">
<mask id="path-4-outside-2_3_37" maskUnits="userSpaceOnUse" x="196" y="16" width="91" height="43" fill="black">
<rect fill="white" x="196" y="16" width="91" height="43"/>
<path d="M239.401 54V34.034C239.401 32.024 238.932 30.3937 237.994 29.143C237.056 27.8923 235.805 27.267 234.242 27.267C232.634 27.267 231.294 27.937 230.222 29.277C229.195 30.617 228.681 32.292 228.681 34.302V54H219.971V34.168C219.971 32.828 219.882 31.7337 219.703 30.885C219.524 30.0363 219.212 29.3663 218.765 28.875C218.363 28.3837 217.827 28.0487 217.157 27.87C216.487 27.6467 215.683 27.535 214.745 27.535C211.216 27.535 209.452 29.679 209.452 33.967V54H200.742V21.036H208.916V25.86C210.033 23.6713 211.373 22.175 212.936 21.371C214.499 20.567 216.375 20.165 218.564 20.165C219.681 20.165 220.663 20.2543 221.512 20.433C222.405 20.6117 223.187 20.9243 223.857 21.371C224.572 21.773 225.242 22.309 225.867 22.979C226.492 23.649 227.118 24.453 227.743 25.391C228.636 23.5597 229.82 22.242 231.294 21.438C232.768 20.5893 234.555 20.165 236.654 20.165C238.307 20.165 239.825 20.4553 241.21 21.036C242.595 21.572 243.778 22.3537 244.761 23.381C245.744 24.3637 246.503 25.525 247.039 26.865C247.62 28.205 247.91 29.6343 247.91 31.153V54H239.401ZM272.962 34.302C272.917 33.096 272.694 32.0463 272.292 31.153C271.934 30.215 271.443 29.4557 270.818 28.875C270.192 28.2497 269.478 27.803 268.674 27.535C267.87 27.2223 267.043 27.066 266.195 27.066C264.453 27.066 262.934 27.7137 261.639 29.009C260.388 30.2597 259.673 32.024 259.495 34.302H272.962ZM259.227 39.796C259.361 42.2973 260.075 44.285 261.371 45.759C262.711 47.233 264.453 47.97 266.597 47.97C268.026 47.97 269.277 47.6573 270.349 47.032C271.465 46.362 272.18 45.4463 272.493 44.285H281.471C280.443 47.6797 278.657 50.2927 276.111 52.124C273.565 53.9553 270.527 54.871 266.999 54.871C256.011 54.871 250.517 48.8857 250.517 36.915C250.517 34.369 250.874 32.0687 251.589 30.014C252.303 27.9593 253.331 26.195 254.671 24.721C256.055 23.247 257.73 22.1303 259.696 21.371C261.661 20.567 263.917 20.165 266.463 20.165C271.555 20.165 275.396 21.7953 277.987 25.056C280.622 28.3167 281.94 33.23 281.94 39.796H259.227Z"/>
</mask>
<path d="M239.401 54V34.034C239.401 32.024 238.932 30.3937 237.994 29.143C237.056 27.8923 235.805 27.267 234.242 27.267C232.634 27.267 231.294 27.937 230.222 29.277C229.195 30.617 228.681 32.292 228.681 34.302V54H219.971V34.168C219.971 32.828 219.882 31.7337 219.703 30.885C219.524 30.0363 219.212 29.3663 218.765 28.875C218.363 28.3837 217.827 28.0487 217.157 27.87C216.487 27.6467 215.683 27.535 214.745 27.535C211.216 27.535 209.452 29.679 209.452 33.967V54H200.742V21.036H208.916V25.86C210.033 23.6713 211.373 22.175 212.936 21.371C214.499 20.567 216.375 20.165 218.564 20.165C219.681 20.165 220.663 20.2543 221.512 20.433C222.405 20.6117 223.187 20.9243 223.857 21.371C224.572 21.773 225.242 22.309 225.867 22.979C226.492 23.649 227.118 24.453 227.743 25.391C228.636 23.5597 229.82 22.242 231.294 21.438C232.768 20.5893 234.555 20.165 236.654 20.165C238.307 20.165 239.825 20.4553 241.21 21.036C242.595 21.572 243.778 22.3537 244.761 23.381C245.744 24.3637 246.503 25.525 247.039 26.865C247.62 28.205 247.91 29.6343 247.91 31.153V54H239.401ZM272.962 34.302C272.917 33.096 272.694 32.0463 272.292 31.153C271.934 30.215 271.443 29.4557 270.818 28.875C270.192 28.2497 269.478 27.803 268.674 27.535C267.87 27.2223 267.043 27.066 266.195 27.066C264.453 27.066 262.934 27.7137 261.639 29.009C260.388 30.2597 259.673 32.024 259.495 34.302H272.962ZM259.227 39.796C259.361 42.2973 260.075 44.285 261.371 45.759C262.711 47.233 264.453 47.97 266.597 47.97C268.026 47.97 269.277 47.6573 270.349 47.032C271.465 46.362 272.18 45.4463 272.493 44.285H281.471C280.443 47.6797 278.657 50.2927 276.111 52.124C273.565 53.9553 270.527 54.871 266.999 54.871C256.011 54.871 250.517 48.8857 250.517 36.915C250.517 34.369 250.874 32.0687 251.589 30.014C252.303 27.9593 253.331 26.195 254.671 24.721C256.055 23.247 257.73 22.1303 259.696 21.371C261.661 20.567 263.917 20.165 266.463 20.165C271.555 20.165 275.396 21.7953 277.987 25.056C280.622 28.3167 281.94 33.23 281.94 39.796H259.227Z" fill="url(#paint1_linear_3_37)"/>
<path d="M239.401 54H235.401V58H239.401V54ZM237.994 29.143L234.794 31.543L234.794 31.543L237.994 29.143ZM230.222 29.277L227.099 26.7782L227.073 26.8105L227.048 26.8433L230.222 29.277ZM228.681 54V58H232.681V54H228.681ZM219.971 54H215.971V58H219.971V54ZM219.703 30.885L223.617 30.061L223.617 30.061L219.703 30.885ZM218.765 28.875L215.669 31.408L215.735 31.4886L215.805 31.5657L218.765 28.875ZM217.157 27.87L215.892 31.6647L216.008 31.7034L216.126 31.7349L217.157 27.87ZM209.452 54V58H213.452V54H209.452ZM200.742 54H196.742V58H200.742V54ZM200.742 21.036V17.036H196.742V21.036H200.742ZM208.916 21.036H212.916V17.036H208.916V21.036ZM208.916 25.86H204.916L212.479 27.6779L208.916 25.86ZM212.936 21.371L211.107 17.8138L211.107 17.8138L212.936 21.371ZM221.512 20.433L220.688 24.3472L220.708 24.3514L220.728 24.3553L221.512 20.433ZM223.857 21.371L221.638 24.6992L221.764 24.7831L221.896 24.8573L223.857 21.371ZM225.867 22.979L228.791 20.2497L228.791 20.2497L225.867 22.979ZM227.743 25.391L224.415 27.6098L228.282 33.4102L231.338 27.1447L227.743 25.391ZM231.294 21.438L233.209 24.9496L233.25 24.9275L233.29 24.9045L231.294 21.438ZM241.21 21.036L239.663 24.7248L239.714 24.7462L239.766 24.7663L241.21 21.036ZM244.761 23.381L241.87 26.1459L241.901 26.178L241.933 26.2094L244.761 23.381ZM247.039 26.865L243.325 28.3506L243.346 28.4033L243.369 28.4554L247.039 26.865ZM247.91 54V58H251.91V54H247.91ZM239.401 54H243.401V34.034H239.401H235.401V54H239.401ZM239.401 34.034H243.401C243.401 31.4072 242.783 28.8616 241.194 26.743L237.994 29.143L234.794 31.543C235.081 31.9257 235.401 32.6408 235.401 34.034H239.401ZM237.994 29.143L241.194 26.743C239.501 24.4851 237.064 23.267 234.242 23.267V27.267V31.267C234.477 31.267 234.556 31.3101 234.564 31.3137C234.571 31.3173 234.653 31.3552 234.794 31.543L237.994 29.143ZM234.242 27.267V23.267C231.328 23.267 228.871 24.5627 227.099 26.7782L230.222 29.277L233.345 31.7758C233.717 31.3113 233.94 31.267 234.242 31.267V27.267ZM230.222 29.277L227.048 26.8433C225.388 29.0076 224.681 31.5852 224.681 34.302H228.681H232.681C232.681 32.9988 233.001 32.2264 233.396 31.7107L230.222 29.277ZM228.681 34.302H224.681V54H228.681H232.681V34.302H228.681ZM228.681 54V50H219.971V54V58H228.681V54ZM219.971 54H223.971V34.168H219.971H215.971V54H219.971ZM219.971 34.168H223.971C223.971 32.6834 223.875 31.285 223.617 30.061L219.703 30.885L215.789 31.709C215.888 32.1823 215.971 32.9726 215.971 34.168H219.971ZM219.703 30.885L223.617 30.061C223.336 28.724 222.775 27.3395 221.725 26.1843L218.765 28.875L215.805 31.5657C215.729 31.482 215.704 31.4262 215.71 31.4375C215.717 31.4526 215.752 31.534 215.789 31.709L219.703 30.885ZM218.765 28.875L221.861 26.342C220.878 25.1406 219.59 24.379 218.188 24.0051L217.157 27.87L216.126 31.7349C216.114 31.7316 216.042 31.7101 215.942 31.6472C215.838 31.5825 215.743 31.4984 215.669 31.408L218.765 28.875ZM217.157 27.87L218.422 24.0753C217.235 23.6797 215.981 23.535 214.745 23.535V27.535V31.535C215.385 31.535 215.739 31.6137 215.892 31.6647L217.157 27.87ZM214.745 27.535V23.535C212.136 23.535 209.527 24.3652 207.687 26.6013C205.969 28.6882 205.452 31.3754 205.452 33.967H209.452H213.452C213.452 32.2706 213.817 31.7418 213.864 31.6847C213.869 31.6784 213.869 31.6695 213.931 31.6444C214.018 31.6093 214.26 31.535 214.745 31.535V27.535ZM209.452 33.967H205.452V54H209.452H213.452V33.967H209.452ZM209.452 54V50H200.742V54V58H209.452V54ZM200.742 54H204.742V21.036H200.742H196.742V54H200.742ZM200.742 21.036V25.036H208.916V21.036V17.036H200.742V21.036ZM208.916 21.036H204.916V25.86H208.916H212.916V21.036H208.916ZM208.916 25.86L212.479 27.6779C213.362 25.9477 214.192 25.2229 214.765 24.9281L212.936 21.371L211.107 17.8138C208.553 19.1271 206.704 21.395 205.353 24.0421L208.916 25.86ZM212.936 21.371L214.765 24.9282C215.641 24.4778 216.859 24.165 218.564 24.165V20.165V16.165C215.892 16.165 213.358 16.6562 211.107 17.8138L212.936 21.371ZM218.564 20.165V24.165C219.478 24.165 220.175 24.2391 220.688 24.3472L221.512 20.433L222.336 16.5188C221.152 16.2695 219.883 16.165 218.564 16.165V20.165ZM221.512 20.433L220.728 24.3553C221.176 24.4449 221.456 24.578 221.638 24.6992L223.857 21.371L226.076 18.0428C224.918 17.2707 223.635 16.7784 222.296 16.5107L221.512 20.433ZM223.857 21.371L221.896 24.8573C222.213 25.0358 222.565 25.3037 222.943 25.7083L225.867 22.979L228.791 20.2497C227.918 19.3143 226.93 18.5102 225.818 17.8847L223.857 21.371ZM225.867 22.979L222.943 25.7083C223.391 26.1881 223.884 26.8132 224.415 27.6098L227.743 25.391L231.071 23.1722C230.352 22.0928 229.594 21.1099 228.791 20.2497L225.867 22.979ZM227.743 25.391L231.338 27.1447C231.947 25.8972 232.608 25.2776 233.209 24.9496L231.294 21.438L229.379 17.9264C227.032 19.2064 225.326 21.2222 224.148 23.6373L227.743 25.391ZM231.294 21.438L233.29 24.9045C234.03 24.4785 235.092 24.165 236.654 24.165V20.165V16.165C234.017 16.165 231.506 16.7002 229.298 17.9715L231.294 21.438ZM236.654 20.165V24.165C237.829 24.165 238.816 24.3693 239.663 24.7248L241.21 21.036L242.757 17.3472C240.835 16.5413 238.784 16.165 236.654 16.165V20.165ZM241.21 21.036L239.766 24.7663C240.628 25.1001 241.311 25.5614 241.87 26.1459L244.761 23.381L247.652 20.6161C246.245 19.1459 244.561 18.0439 242.654 17.3057L241.21 21.036ZM244.761 23.381L241.933 26.2094C242.517 26.7943 242.982 27.4937 243.325 28.3506L247.039 26.865L250.753 25.3794C250.024 23.5563 248.97 21.9331 247.589 20.5526L244.761 23.381ZM247.039 26.865L243.369 28.4554C243.723 29.2733 243.91 30.1591 243.91 31.153H247.91H251.91C251.91 29.1095 251.516 27.1366 250.709 25.2746L247.039 26.865ZM247.91 31.153H243.91V54H247.91H251.91V31.153H247.91ZM247.91 54V50H239.401V54V58H247.91V54ZM272.962 34.302V38.302H277.113L276.959 34.154L272.962 34.302ZM272.292 31.153L268.554 32.577L268.596 32.687L268.644 32.7945L272.292 31.153ZM270.818 28.875L267.989 31.7034L268.042 31.7558L268.096 31.8062L270.818 28.875ZM268.674 27.535L267.224 31.263L267.316 31.2986L267.409 31.3297L268.674 27.535ZM261.639 29.009L258.81 26.1806L258.81 26.1806L261.639 29.009ZM259.495 34.302L255.507 33.9892L255.169 38.302H259.495V34.302ZM259.227 39.796V35.796H255.007L255.232 40.01L259.227 39.796ZM261.371 45.759L258.366 48.3995L258.388 48.4248L258.411 48.4497L261.371 45.759ZM270.349 47.032L272.364 50.4871L272.386 50.4747L272.407 50.462L270.349 47.032ZM272.493 44.285V40.285H269.427L268.63 43.2451L272.493 44.285ZM281.471 44.285L285.299 45.4436L286.86 40.285H281.471V44.285ZM276.111 52.124L278.446 55.3712L278.446 55.3712L276.111 52.124ZM254.671 24.721L251.755 21.9823L251.733 22.0061L251.711 22.0303L254.671 24.721ZM259.696 21.371L261.137 25.1022L261.174 25.088L261.21 25.0732L259.696 21.371ZM277.987 25.056L274.855 27.5443L274.865 27.5574L274.876 27.5703L277.987 25.056ZM281.94 39.796V43.796H285.94V39.796H281.94ZM272.962 34.302L276.959 34.154C276.9 32.5482 276.596 30.9708 275.939 29.5115L272.292 31.153L268.644 32.7945C268.791 33.1218 268.935 33.6438 268.964 34.45L272.962 34.302ZM272.292 31.153L276.03 29.729C275.492 28.3179 274.688 27.0098 273.54 25.9438L270.818 28.875L268.096 31.8062C268.199 31.9015 268.377 32.1121 268.554 32.577L272.292 31.153ZM270.818 28.875L273.646 26.0466C272.601 25.0018 271.358 24.2133 269.939 23.7403L268.674 27.535L267.409 31.3297C267.598 31.3927 267.783 31.4975 267.989 31.7034L270.818 28.875ZM268.674 27.535L270.124 23.807C268.865 23.3176 267.548 23.066 266.195 23.066V27.066V31.066C266.539 31.066 266.874 31.1271 267.224 31.263L268.674 27.535ZM266.195 27.066V23.066C263.332 23.066 260.813 24.1781 258.81 26.1806L261.639 29.009L264.467 31.8374C265.055 31.2492 265.573 31.066 266.195 31.066V27.066ZM261.639 29.009L258.81 26.1806C256.709 28.2817 255.738 31.0444 255.507 33.9892L259.495 34.302L263.482 34.6148C263.609 33.0036 264.067 32.2376 264.467 31.8374L261.639 29.009ZM259.495 34.302V38.302H272.962V34.302V30.302H259.495V34.302ZM259.227 39.796L255.232 40.01C255.401 43.1567 256.33 46.0831 258.366 48.3995L261.371 45.759L264.375 43.1185C263.82 42.4869 263.32 41.4379 263.221 39.582L259.227 39.796ZM261.371 45.759L258.411 48.4497C260.572 50.8264 263.422 51.97 266.597 51.97V47.97V43.97C265.483 43.97 264.85 43.6396 264.33 43.0683L261.371 45.759ZM266.597 47.97V51.97C268.625 51.97 270.593 51.5205 272.364 50.4871L270.349 47.032L268.333 43.5769C267.961 43.7942 267.427 43.97 266.597 43.97V47.97ZM270.349 47.032L272.407 50.462C274.331 49.3074 275.75 47.5739 276.355 45.3249L272.493 44.285L268.63 43.2451C268.608 43.3281 268.586 43.3604 268.569 43.3817C268.549 43.4079 268.478 43.4895 268.291 43.602L270.349 47.032ZM272.493 44.285V48.285H281.471V44.285V40.285H272.493V44.285ZM281.471 44.285L277.642 43.1264C276.834 45.7953 275.515 47.625 273.775 48.8768L276.111 52.124L278.446 55.3712C281.798 52.9603 284.052 49.564 285.299 45.4436L281.471 44.285ZM276.111 52.124L273.775 48.8768C271.993 50.1584 269.799 50.871 266.999 50.871V54.871V58.871C271.256 58.871 275.136 57.7523 278.446 55.3712L276.111 52.124ZM266.999 54.871V50.871C262.214 50.871 259.334 49.5836 257.584 47.6771C255.775 45.7058 254.517 42.3646 254.517 36.915H250.517H246.517C246.517 43.436 248.006 49.0729 251.69 53.0869C255.434 57.1658 260.796 58.871 266.999 58.871V54.871ZM250.517 36.915H254.517C254.517 34.7418 254.822 32.8951 255.367 31.3281L251.589 30.014L247.811 28.6999C246.926 31.2422 246.517 33.9962 246.517 36.915H250.517ZM251.589 30.014L255.367 31.3281C255.921 29.7355 256.685 28.4513 257.63 27.4117L254.671 24.721L251.711 22.0303C249.976 23.9387 248.686 26.1831 247.811 28.6999L251.589 30.014ZM254.671 24.721L257.586 27.4597C258.543 26.4412 259.707 25.6547 261.137 25.1022L259.696 21.371L258.254 17.6398C255.753 18.606 253.568 20.0528 251.755 21.9823L254.671 24.721ZM259.696 21.371L261.21 25.0732C262.609 24.5008 264.335 24.165 266.463 24.165V20.165V16.165C263.498 16.165 260.713 16.6332 258.181 17.6688L259.696 21.371ZM266.463 20.165V24.165C270.635 24.165 273.192 25.4515 274.855 27.5443L277.987 25.056L281.119 22.5677C277.6 18.1392 272.474 16.165 266.463 16.165V20.165ZM277.987 25.056L274.876 27.5703C276.69 29.8148 277.94 33.6567 277.94 39.796H281.94H285.94C285.94 32.8033 284.554 26.8185 281.098 22.5417L277.987 25.056ZM281.94 39.796V35.796H259.227V39.796V43.796H281.94V39.796Z" fill="white" mask="url(#path-4-outside-2_3_37)"/>
</g>
</g>
<defs>
<filter id="filter0_d_3_37" x="4.871" y="4.976" width="181.008" height="61.895" filterUnits="userSpaceOnUse" color-interpolation-filters="sRGB">
<feFlood flood-opacity="0" result="BackgroundImageFix"/>
<feColorMatrix in="SourceAlpha" type="matrix" values="0 0 0 0 0 0 0 0 0 0 0 0 0 0 0 0 0 0 127 0" result="hardAlpha"/>
<feOffset dy="4"/>
<feGaussianBlur stdDeviation="2"/>
<feComposite in2="hardAlpha" operator="out"/>
<feColorMatrix type="matrix" values="0 0 0 0 0 0 0 0 0 0 0 0 0 0 0 0 0 0 0.25 0"/>
<feBlend mode="normal" in2="BackgroundImageFix" result="effect1_dropShadow_3_37"/>
<feBlend mode="normal" in="SourceGraphic" in2="effect1_dropShadow_3_37" result="shape"/>
</filter>
<filter id="filter1_d_3_37" x="192.742" y="16.165" width="98.1184" height="50.706" filterUnits="userSpaceOnUse" color-interpolation-filters="sRGB">
<feFlood flood-opacity="0" result="BackgroundImageFix"/>
<feColorMatrix in="SourceAlpha" type="matrix" values="0 0 0 0 0 0 0 0 0 0 0 0 0 0 0 0 0 0 127 0" result="hardAlpha"/>
<feOffset dy="4"/>
<feGaussianBlur stdDeviation="2"/>
<feComposite in2="hardAlpha" operator="out"/>
<feColorMatrix type="matrix" values="0 0 0 0 0 0 0 0 0 0 0 0 0 0 0 0 0 0 0.25 0"/>
<feBlend mode="normal" in2="BackgroundImageFix" result="effect1_dropShadow_3_37"/>
<feBlend mode="normal" in="SourceGraphic" in2="effect1_dropShadow_3_37" result="shape"/>
</filter>
<linearGradient id="paint0_linear_3_37" x1="3.65217" y1="-11" x2="114.147" y2="114.687" gradientUnits="userSpaceOnUse">
<stop stop-color="#3AB9FF"/>
<stop offset="1" stop-color="#1C66C9"/>
</linearGradient>
<linearGradient id="paint1_linear_3_37" x1="194.776" y1="-11" x2="291.109" y2="44.4408" gradientUnits="userSpaceOnUse">
<stop stop-color="#3AB9FF"/>
<stop offset="1" stop-color="#1C66C9"/>
</linearGradient>
</defs>
</svg>
