<svg width="369" height="117" viewBox="0 0 369 117" fill="none" xmlns="http://www.w3.org/2000/svg">
<mask id="mask0_1_39" style="mask-type:alpha" maskUnits="userSpaceOnUse" x="0" y="0" width="369" height="117">
<rect width="369" height="117" fill="#D9D9D9"/>
</mask>
<g mask="url(#mask0_1_39)">
<g filter="url(#filter0_d_1_39)">
<mask id="path-2-outside-1_1_39" maskUnits="userSpaceOnUse" x="15" y="11" width="146" height="49" fill="black">
<rect fill="white" x="15" y="11" width="146" height="49"/>
<path d="M39.864 25.16H39.808L35.048 39.944H44.512L39.864 25.16ZM49.104 54L46.752 46.328H33.032L30.4 54H22.168L35.44 16.816H44.456L57.56 54H49.104ZM58.4884 54V48.4L72.5444 32.216H59.4404V26.448H81.8404V32.328L67.7844 48.064H82.2324V54H58.4884ZM101.428 37.536C101.391 36.528 101.204 35.6507 100.868 34.904C100.569 34.12 100.159 33.4853 99.6361 33C99.1135 32.4773 98.5161 32.104 97.8441 31.88C97.1721 31.6187 96.4815 31.488 95.7721 31.488C94.3161 31.488 93.0468 32.0293 91.9641 33.112C90.9188 34.1573 90.3215 35.632 90.1721 37.536H101.428ZM89.9481 42.128C90.0601 44.2187 90.6575 45.88 91.7401 47.112C92.8601 48.344 94.3161 48.96 96.1081 48.96C97.3028 48.96 98.3481 48.6987 99.2441 48.176C100.177 47.616 100.775 46.8507 101.036 45.88H108.54C107.681 48.7173 106.188 50.9013 104.06 52.432C101.932 53.9627 99.3935 54.728 96.4441 54.728C87.2601 54.728 82.6681 49.7253 82.6681 39.72C82.6681 37.592 82.9668 35.6693 83.5641 33.952C84.1615 32.2347 85.0201 30.76 86.1401 29.528C87.2975 28.296 88.6975 27.3627 90.3401 26.728C91.9828 26.056 93.8681 25.72 95.9961 25.72C100.252 25.72 103.463 27.0827 105.628 29.808C107.831 32.5333 108.932 36.64 108.932 42.128H89.9481ZM111.448 54V26.448H118.28V29.752C118.878 28.8187 119.494 28.0907 120.128 27.568C120.8 27.0453 121.472 26.6533 122.144 26.392C122.854 26.0933 123.563 25.9067 124.272 25.832C124.982 25.7573 125.71 25.72 126.456 25.72H127.408V33.168C126.736 33.056 126.064 33 125.392 33C120.95 33 118.728 35.2213 118.728 39.664V54H111.448ZM141.297 48.624C145.74 48.624 147.961 45.824 147.961 40.224C147.961 34.6613 145.74 31.88 141.297 31.88C136.854 31.88 134.633 34.6613 134.633 40.224C134.633 45.824 136.854 48.624 141.297 48.624ZM141.297 54.728C139.057 54.728 137.06 54.3733 135.305 53.664C133.55 52.9547 132.057 51.9653 130.825 50.696C129.63 49.4267 128.716 47.896 128.081 46.104C127.446 44.312 127.129 42.352 127.129 40.224C127.129 38.0587 127.446 36.08 128.081 34.288C128.753 32.496 129.705 30.9653 130.937 29.696C132.169 28.4267 133.644 27.456 135.361 26.784C137.116 26.0747 139.094 25.72 141.297 25.72C143.462 25.72 145.404 26.0747 147.121 26.784C148.838 27.456 150.294 28.4267 151.489 29.696C152.721 30.928 153.654 32.44 154.289 34.232C154.961 36.024 155.297 38.0213 155.297 40.224C155.297 42.4267 154.961 44.424 154.289 46.216C153.654 47.9707 152.721 49.4827 151.489 50.752C150.294 52.0213 148.82 53.0107 147.065 53.72C145.348 54.392 143.425 54.728 141.297 54.728Z"/>
</mask>
<path d="M39.864 25.16H39.808L35.048 39.944H44.512L39.864 25.16ZM49.104 54L46.752 46.328H33.032L30.4 54H22.168L35.44 16.816H44.456L57.56 54H49.104ZM58.4884 54V48.4L72.5444 32.216H59.4404V26.448H81.8404V32.328L67.7844 48.064H82.2324V54H58.4884ZM101.428 37.536C101.391 36.528 101.204 35.6507 100.868 34.904C100.569 34.12 100.159 33.4853 99.6361 33C99.1135 32.4773 98.5161 32.104 97.8441 31.88C97.1721 31.6187 96.4815 31.488 95.7721 31.488C94.3161 31.488 93.0468 32.0293 91.9641 33.112C90.9188 34.1573 90.3215 35.632 90.1721 37.536H101.428ZM89.9481 42.128C90.0601 44.2187 90.6575 45.88 91.7401 47.112C92.8601 48.344 94.3161 48.96 96.1081 48.96C97.3028 48.96 98.3481 48.6987 99.2441 48.176C100.177 47.616 100.775 46.8507 101.036 45.88H108.54C107.681 48.7173 106.188 50.9013 104.06 52.432C101.932 53.9627 99.3935 54.728 96.4441 54.728C87.2601 54.728 82.6681 49.7253 82.6681 39.72C82.6681 37.592 82.9668 35.6693 83.5641 33.952C84.1615 32.2347 85.0201 30.76 86.1401 29.528C87.2975 28.296 88.6975 27.3627 90.3401 26.728C91.9828 26.056 93.8681 25.72 95.9961 25.72C100.252 25.72 103.463 27.0827 105.628 29.808C107.831 32.5333 108.932 36.64 108.932 42.128H89.9481ZM111.448 54V26.448H118.28V29.752C118.878 28.8187 119.494 28.0907 120.128 27.568C120.8 27.0453 121.472 26.6533 122.144 26.392C122.854 26.0933 123.563 25.9067 124.272 25.832C124.982 25.7573 125.71 25.72 126.456 25.72H127.408V33.168C126.736 33.056 126.064 33 125.392 33C120.95 33 118.728 35.2213 118.728 39.664V54H111.448ZM141.297 48.624C145.74 48.624 147.961 45.824 147.961 40.224C147.961 34.6613 145.74 31.88 141.297 31.88C136.854 31.88 134.633 34.6613 134.633 40.224C134.633 45.824 136.854 48.624 141.297 48.624ZM141.297 54.728C139.057 54.728 137.06 54.3733 135.305 53.664C133.55 52.9547 132.057 51.9653 130.825 50.696C129.63 49.4267 128.716 47.896 128.081 46.104C127.446 44.312 127.129 42.352 127.129 40.224C127.129 38.0587 127.446 36.08 128.081 34.288C128.753 32.496 129.705 30.9653 130.937 29.696C132.169 28.4267 133.644 27.456 135.361 26.784C137.116 26.0747 139.094 25.72 141.297 25.72C143.462 25.72 145.404 26.0747 147.121 26.784C148.838 27.456 150.294 28.4267 151.489 29.696C152.721 30.928 153.654 32.44 154.289 34.232C154.961 36.024 155.297 38.0213 155.297 40.224C155.297 42.4267 154.961 44.424 154.289 46.216C153.654 47.9707 152.721 49.4827 151.489 50.752C150.294 52.0213 148.82 53.0107 147.065 53.72C145.348 54.392 143.425 54.728 141.297 54.728Z" fill="white"/>
<path d="M39.864 25.16L44.6338 23.6604L43.5333 20.16H39.864V25.16ZM39.808 25.16V20.16H36.1651L35.0486 23.6276L39.808 25.16ZM35.048 39.944L30.2886 38.4116L28.1854 44.944H35.048V39.944ZM44.512 39.944V44.944H51.3253L49.2818 38.4444L44.512 39.944ZM49.104 54L44.3236 55.4655L45.4072 59H49.104V54ZM46.752 46.328L51.5324 44.8625L50.4488 41.328H46.752V46.328ZM33.032 46.328V41.328H29.4613L28.3026 44.7055L33.032 46.328ZM30.4 54V59H33.9707L35.1294 55.6225L30.4 54ZM22.168 54L17.459 52.3192L15.0744 59H22.168V54ZM35.44 16.816V11.816H31.9157L30.731 15.1352L35.44 16.816ZM44.456 16.816L49.1717 15.1541L47.9954 11.816H44.456V16.816ZM57.56 54V59H64.6234L62.2757 52.3381L57.56 54ZM39.864 25.16V20.16H39.808V25.16V30.16H39.864V25.16ZM39.808 25.16L35.0486 23.6276L30.2886 38.4116L35.048 39.944L39.8074 41.4764L44.5674 26.6924L39.808 25.16ZM35.048 39.944V44.944H44.512V39.944V34.944H35.048V39.944ZM44.512 39.944L49.2818 38.4444L44.6338 23.6604L39.864 25.16L35.0942 26.6596L39.7422 41.4436L44.512 39.944ZM49.104 54L53.8844 52.5345L51.5324 44.8625L46.752 46.328L41.9716 47.7935L44.3236 55.4655L49.104 54ZM46.752 46.328V41.328H33.032V46.328V51.328H46.752V46.328ZM33.032 46.328L28.3026 44.7055L25.6706 52.3775L30.4 54L35.1294 55.6225L37.7614 47.9505L33.032 46.328ZM30.4 54V49H22.168V54V59H30.4V54ZM22.168 54L26.877 55.6808L40.149 18.4968L35.44 16.816L30.731 15.1352L17.459 52.3192L22.168 54ZM35.44 16.816V21.816H44.456V16.816V11.816H35.44V16.816ZM44.456 16.816L39.7403 18.4779L52.8443 55.6619L57.56 54L62.2757 52.3381L49.1717 15.1541L44.456 16.816ZM57.56 54V49H49.104V54V59H57.56V54ZM58.4884 54H53.4884V59H58.4884V54ZM58.4884 48.4L54.7134 45.1214L53.4884 46.5318V48.4H58.4884ZM72.5444 32.216L76.3194 35.4946L83.5095 27.216H72.5444V32.216ZM59.4404 32.216H54.4404V37.216H59.4404V32.216ZM59.4404 26.448V21.448H54.4404V26.448H59.4404ZM81.8404 26.448H86.8404V21.448H81.8404V26.448ZM81.8404 32.328L85.5694 35.6589L86.8404 34.2359V32.328H81.8404ZM67.7844 48.064L64.0554 44.7331L56.6139 53.064H67.7844V48.064ZM82.2324 48.064H87.2324V43.064H82.2324V48.064ZM82.2324 54V59H87.2324V54H82.2324ZM58.4884 54H63.4884V48.4H58.4884H53.4884V54H58.4884ZM58.4884 48.4L62.2634 51.6786L76.3194 35.4946L72.5444 32.216L68.7694 28.9374L54.7134 45.1214L58.4884 48.4ZM72.5444 32.216V27.216H59.4404V32.216V37.216H72.5444V32.216ZM59.4404 32.216H64.4404V26.448H59.4404H54.4404V32.216H59.4404ZM59.4404 26.448V31.448H81.8404V26.448V21.448H59.4404V26.448ZM81.8404 26.448H76.8404V32.328H81.8404H86.8404V26.448H81.8404ZM81.8404 32.328L78.1114 28.9971L64.0554 44.7331L67.7844 48.064L71.5134 51.3949L85.5694 35.6589L81.8404 32.328ZM67.7844 48.064V53.064H82.2324V48.064V43.064H67.7844V48.064ZM82.2324 48.064H77.2324V54H82.2324H87.2324V48.064H82.2324ZM82.2324 54V49H58.4884V54V59H82.2324V54ZM101.428 37.536V42.536H106.617L106.425 37.3509L101.428 37.536ZM100.868 34.904L96.1957 36.684L96.2481 36.8216L96.3085 36.9558L100.868 34.904ZM99.6361 33L96.1006 36.5355L96.166 36.601L96.2339 36.664L99.6361 33ZM97.8441 31.88L96.0319 36.54L96.1464 36.5846L96.263 36.6234L97.8441 31.88ZM91.9641 33.112L88.4286 29.5765L88.4286 29.5765L91.9641 33.112ZM90.1721 37.536L85.1874 37.145L84.7646 42.536H90.1721V37.536ZM89.9481 42.128V37.128H84.6731L84.9553 42.3955L89.9481 42.128ZM91.7401 47.112L87.9843 50.4126L88.0121 50.4442L88.0404 50.4754L91.7401 47.112ZM99.2441 48.176L101.763 52.4949L101.79 52.4793L101.817 52.4635L99.2441 48.176ZM101.036 45.88V40.88H97.2042L96.208 44.5801L101.036 45.88ZM108.54 45.88L113.326 47.3283L115.277 40.88H108.54V45.88ZM104.06 52.432L106.98 56.491L106.98 56.491L104.06 52.432ZM86.1401 29.528L82.4959 26.1046L82.4679 26.1344L82.4404 26.1646L86.1401 29.528ZM90.3401 26.728L92.1421 31.392L92.1879 31.3743L92.2333 31.3557L90.3401 26.728ZM105.628 29.808L101.713 32.9184L101.726 32.9347L101.739 32.9509L105.628 29.808ZM108.932 42.128V47.128H113.932V42.128H108.932ZM101.428 37.536L106.425 37.3509C106.369 35.8432 106.082 34.3063 105.428 32.8522L100.868 34.904L96.3085 36.9558C96.3262 36.9951 96.4127 37.2128 96.4316 37.7211L101.428 37.536ZM100.868 34.904L105.541 33.124C105.017 31.7486 104.214 30.428 103.038 29.336L99.6361 33L96.2339 36.664C96.2052 36.6373 96.1826 36.6129 96.166 36.5929C96.1495 36.5731 96.1407 36.56 96.1383 36.5563C96.1335 36.5489 96.1578 36.5845 96.1957 36.684L100.868 34.904ZM99.6361 33L103.172 29.4645C102.125 28.4175 100.866 27.6168 99.4253 27.1366L97.8441 31.88L96.263 36.6234C96.2262 36.6111 96.1845 36.592 96.1461 36.568C96.1085 36.5445 96.0937 36.5286 96.1006 36.5355L99.6361 33ZM97.8441 31.88L99.6564 27.22C98.4163 26.7377 97.1117 26.488 95.7721 26.488V31.488V36.488C95.8512 36.488 95.9279 36.4996 96.0319 36.54L97.8441 31.88ZM95.7721 31.488V26.488C92.9158 26.488 90.3951 27.6099 88.4286 29.5765L91.9641 33.112L95.4997 36.6475C95.5718 36.5754 95.6236 36.5357 95.6521 36.516C95.6666 36.506 95.6765 36.5001 95.682 36.4971C95.6848 36.4955 95.6868 36.4945 95.6879 36.494C95.6885 36.4937 95.6889 36.4935 95.6892 36.4934C95.6894 36.4933 95.6896 36.4932 95.6896 36.4932C95.6896 36.4932 95.6895 36.4933 95.6893 36.4933C95.6891 36.4934 95.6889 36.4935 95.6886 36.4936C95.688 36.4938 95.6874 36.494 95.6869 36.4942C95.6856 36.4946 95.6861 36.4943 95.6892 36.4937C95.6941 36.4927 95.7196 36.488 95.7721 36.488V31.488ZM91.9641 33.112L88.4286 29.5765C86.3202 31.6849 85.4021 34.4075 85.1874 37.145L90.1721 37.536L95.1568 37.927C95.1992 37.3865 95.2939 37.058 95.3664 36.8792C95.433 36.7148 95.4858 36.6614 95.4997 36.6475L91.9641 33.112ZM90.1721 37.536V42.536H101.428V37.536V32.536H90.1721V37.536ZM89.9481 42.128L84.9553 42.3955C85.1105 45.2929 85.9763 48.1276 87.9843 50.4126L91.7401 47.112L95.4959 43.8114C95.3386 43.6324 95.0097 43.1444 94.941 41.8605L89.9481 42.128ZM91.7401 47.112L88.0404 50.4754C90.1863 52.8358 93.028 53.96 96.1081 53.96V48.96V43.96C95.7924 43.96 95.6549 43.9078 95.6203 43.8932C95.5945 43.8822 95.5392 43.858 95.4398 43.7486L91.7401 47.112ZM96.1081 48.96V53.96C98.0518 53.96 99.9931 53.5276 101.763 52.4949L99.2441 48.176L96.7248 43.8571C96.7031 43.8697 96.5538 43.96 96.1081 43.96V48.96ZM99.2441 48.176L101.817 52.4635C103.759 51.2978 105.237 49.5101 105.864 47.1799L101.036 45.88L96.208 44.5801C96.2449 44.4434 96.3233 44.2687 96.4505 44.1056C96.573 43.9488 96.6749 43.8866 96.6716 43.8885L99.2441 48.176ZM101.036 45.88V50.88H108.54V45.88V40.88H101.036V45.88ZM108.54 45.88L103.754 44.4317C103.17 46.3619 102.261 47.5668 101.14 48.373L104.06 52.432L106.98 56.491C110.115 54.2359 112.193 51.0728 113.326 47.3283L108.54 45.88ZM104.06 52.432L101.14 48.373C99.9678 49.2165 98.4825 49.728 96.4441 49.728V54.728V59.728C100.304 59.728 103.896 58.7088 106.98 56.491L104.06 52.432ZM96.4441 54.728V49.728C92.7382 49.728 90.8453 48.7385 89.7956 47.5949C88.6715 46.3703 87.6681 44.053 87.6681 39.72H82.6681H77.6681C77.6681 45.3923 78.9607 50.5791 82.4286 54.3571C85.9709 58.2162 90.966 59.728 96.4441 59.728V54.728ZM82.6681 39.72H87.6681C87.6681 38.058 87.9013 36.7024 88.2866 35.5946L83.5641 33.952L78.8416 32.3094C78.0323 34.6362 77.6681 37.126 77.6681 39.72H82.6681ZM83.5641 33.952L88.2866 35.5946C88.683 34.4549 89.2135 33.5803 89.8398 32.8914L86.1401 29.528L82.4404 26.1646C80.8268 27.9397 79.6399 30.0144 78.8416 32.3094L83.5641 33.952ZM86.1401 29.528L89.7844 32.9514C90.4068 32.2888 91.1687 31.7681 92.1421 31.392L90.3401 26.728L88.5381 22.064C86.2262 22.9573 84.1881 24.3032 82.4959 26.1046L86.1401 29.528ZM90.3401 26.728L92.2333 31.3557C93.1682 30.9733 94.391 30.72 95.9961 30.72V25.72V20.72C93.3452 20.72 90.7974 21.1387 88.447 22.1003L90.3401 26.728ZM95.9961 25.72V30.72C99.1028 30.72 100.708 31.6529 101.713 32.9184L105.628 29.808L109.543 26.6976C106.218 22.5125 101.401 20.72 95.9961 20.72V25.72ZM105.628 29.808L101.739 32.9509C102.915 34.406 103.932 37.1734 103.932 42.128H108.932H113.932C113.932 36.1066 112.746 30.6607 109.517 26.6651L105.628 29.808ZM108.932 42.128V37.128H89.9481V42.128V47.128H108.932V42.128ZM111.448 54H106.448V59H111.448V54ZM111.448 26.448V21.448H106.448V26.448H111.448ZM118.28 26.448H123.28V21.448H118.28V26.448ZM118.28 29.752H113.28V46.84L122.492 32.4473L118.28 29.752ZM120.128 27.568L117.058 23.6212L117.003 23.664L116.95 23.7083L120.128 27.568ZM122.144 26.392L123.956 31.052L124.021 31.027L124.084 31.0002L122.144 26.392ZM124.272 25.832L124.796 30.8045L124.796 30.8045L124.272 25.832ZM127.408 25.72H132.408V20.72H127.408V25.72ZM127.408 33.168L126.586 38.1L132.408 39.0703V33.168H127.408ZM118.728 54V59H123.728V54H118.728ZM111.448 54H116.448V26.448H111.448H106.448V54H111.448ZM111.448 26.448V31.448H118.28V26.448V21.448H111.448V26.448ZM118.28 26.448H113.28V29.752H118.28H123.28V26.448H118.28ZM118.28 29.752L122.492 32.4473C122.899 31.8111 123.188 31.5258 123.307 31.4276L120.128 27.568L116.95 23.7083C115.799 24.6555 114.856 25.8262 114.069 27.0567L118.28 29.752ZM120.128 27.568L123.198 31.5148C123.555 31.2374 123.809 31.1094 123.956 31.052L122.144 26.392L120.332 21.732C119.136 22.1972 118.046 22.8533 117.058 23.6212L120.128 27.568ZM122.144 26.392L124.084 31.0002C124.378 30.8768 124.611 30.824 124.796 30.8045L124.272 25.832L123.749 20.8595C122.515 20.9894 121.33 21.3099 120.204 21.7838L122.144 26.392ZM124.272 25.832L124.796 30.8045C125.323 30.749 125.876 30.72 126.456 30.72V25.72V20.72C125.543 20.72 124.64 20.7657 123.749 20.8595L124.272 25.832ZM126.456 25.72V30.72H127.408V25.72V20.72H126.456V25.72ZM127.408 25.72H122.408V33.168H127.408H132.408V25.72H127.408ZM127.408 33.168L128.23 28.236C127.29 28.0794 126.343 28 125.392 28V33V38C125.785 38 126.182 38.0326 126.586 38.1L127.408 33.168ZM125.392 33V28C122.4 28 119.238 28.7514 116.859 31.1305C114.48 33.5095 113.728 36.6719 113.728 39.664H118.728H123.728C123.728 38.2134 124.087 38.0438 123.93 38.2015C123.772 38.3593 123.942 38 125.392 38V33ZM118.728 39.664H113.728V54H118.728H123.728V39.664H118.728ZM118.728 54V49H111.448V54V59H118.728V54ZM135.305 53.664L137.179 49.0284L137.179 49.0284L135.305 53.664ZM130.825 50.696L127.184 54.1228L127.21 54.1508L127.237 54.1784L130.825 50.696ZM128.081 46.104L123.368 47.7732L123.368 47.7732L128.081 46.104ZM128.081 34.288L123.399 32.5324L123.383 32.5754L123.368 32.6188L128.081 34.288ZM130.937 29.696L134.525 33.1784L134.525 33.1784L130.937 29.696ZM135.361 26.784L137.183 31.4402L137.209 31.43L137.235 31.4195L135.361 26.784ZM147.121 26.784L145.212 31.4053L145.256 31.4232L145.299 31.4402L147.121 26.784ZM151.489 29.696L147.848 33.1228L147.9 33.178L147.954 33.2315L151.489 29.696ZM154.289 34.232L149.576 35.9012L149.591 35.9446L149.607 35.9876L154.289 34.232ZM154.289 46.216L149.607 44.4604L149.597 44.4878L149.587 44.5153L154.289 46.216ZM151.489 50.752L147.901 47.2696L147.874 47.2972L147.848 47.3252L151.489 50.752ZM147.065 53.72L148.887 58.3762L148.913 58.366L148.939 58.3556L147.065 53.72ZM141.297 48.624V53.624C144.636 53.624 147.925 52.5138 150.212 49.6315C152.324 46.97 152.961 43.5509 152.961 40.224H147.961H142.961C142.961 42.4971 142.488 43.278 142.378 43.4165C142.352 43.4494 142.342 43.4616 142.276 43.4894C142.179 43.5299 141.891 43.624 141.297 43.624V48.624ZM147.961 40.224H152.961C152.961 36.9099 152.321 33.4994 150.202 30.8457C147.911 27.9775 144.625 26.88 141.297 26.88V31.88V36.88C141.895 36.88 142.187 36.9741 142.287 37.0157C142.356 37.0446 142.365 37.0572 142.388 37.0863C142.49 37.214 142.961 37.9754 142.961 40.224H147.961ZM141.297 31.88V26.88C137.969 26.88 134.683 27.9775 132.392 30.8457C130.273 33.4994 129.633 36.9099 129.633 40.224H134.633H139.633C139.633 37.9754 140.104 37.214 140.206 37.0863C140.229 37.0572 140.238 37.0446 140.307 37.0157C140.407 36.9741 140.7 36.88 141.297 36.88V31.88ZM134.633 40.224H129.633C129.633 43.5509 130.271 46.97 132.382 49.6315C134.669 52.5138 137.958 53.624 141.297 53.624V48.624V43.624C140.703 43.624 140.415 43.5299 140.318 43.4894C140.252 43.4616 140.242 43.4494 140.216 43.4165C140.106 43.278 139.633 42.4971 139.633 40.224H134.633ZM141.297 54.728V49.728C139.584 49.728 138.24 49.4572 137.179 49.0284L135.305 53.664L133.431 58.2996C135.88 59.2895 138.53 59.728 141.297 59.728V54.728ZM135.305 53.664L137.179 49.0284C136.024 48.5615 135.127 47.9492 134.413 47.2136L130.825 50.696L127.237 54.1784C128.987 55.9815 131.077 57.3478 133.431 58.2996L135.305 53.664ZM130.825 50.696L134.466 47.2692C133.788 46.5492 133.218 45.6327 132.794 44.4348L128.081 46.104L123.368 47.7732C124.213 50.1593 125.472 52.3041 127.184 54.1228L130.825 50.696ZM128.081 46.104L132.794 44.4348C132.371 43.2388 132.129 41.8506 132.129 40.224H127.129H122.129C122.129 42.8534 122.522 45.3852 123.368 47.7732L128.081 46.104ZM127.129 40.224H132.129C132.129 38.5493 132.374 37.1443 132.794 35.9572L128.081 34.288L123.368 32.6188C122.519 35.0157 122.129 37.568 122.129 40.224H127.129ZM128.081 34.288L132.763 36.0436C133.213 34.8429 133.811 33.9142 134.525 33.1784L130.937 29.696L127.349 26.2136C125.599 28.0165 124.293 30.1491 123.399 32.5324L128.081 34.288ZM130.937 29.696L134.525 33.1784C135.238 32.444 136.103 31.863 137.183 31.4402L135.361 26.784L133.539 22.1278C131.185 23.049 129.1 24.4094 127.349 26.2136L130.937 29.696ZM135.361 26.784L137.235 31.4195C138.305 30.987 139.633 30.72 141.297 30.72V25.72V20.72C138.556 20.72 135.926 21.1623 133.487 22.1484L135.361 26.784ZM141.297 25.72V30.72C142.914 30.72 144.192 30.9838 145.212 31.4053L147.121 26.784L149.03 22.1627C146.616 21.1655 144.01 20.72 141.297 20.72V25.72ZM147.121 26.784L145.299 31.4402C146.367 31.8582 147.19 32.4241 147.848 33.1228L151.489 29.696L155.13 26.2692C153.398 24.4293 151.309 23.0538 148.943 22.1278L147.121 26.784ZM151.489 29.696L147.954 33.2315C148.612 33.8903 149.167 34.7464 149.576 35.9012L154.289 34.232L159.002 32.5628C158.142 30.1336 156.83 27.9657 155.025 26.1605L151.489 29.696ZM154.289 34.232L149.607 35.9876C150.04 37.1404 150.297 38.5317 150.297 40.224H155.297H160.297C160.297 37.511 159.882 34.9076 158.971 32.4764L154.289 34.232ZM155.297 40.224H150.297C150.297 41.9163 150.04 43.3076 149.607 44.4604L154.289 46.216L158.971 47.9716C159.882 45.5404 160.297 42.937 160.297 40.224H155.297ZM154.289 46.216L149.587 44.5153C149.18 45.6412 148.613 46.5363 147.901 47.2696L151.489 50.752L155.077 54.2344C156.829 52.4291 158.129 50.3002 158.991 47.9167L154.289 46.216ZM151.489 50.752L147.848 47.3252C147.19 48.0249 146.335 48.6222 145.191 49.0844L147.065 53.72L148.939 58.3556C151.305 57.3991 153.399 56.0178 155.13 54.1788L151.489 50.752ZM147.065 53.72L145.243 49.0638C144.188 49.4765 142.896 49.728 141.297 49.728V54.728V59.728C143.954 59.728 146.507 59.3075 148.887 58.3762L147.065 53.72Z" fill="url(#paint0_linear_1_39)" mask="url(#path-2-outside-1_1_39)"/>
</g>
<g filter="url(#filter1_d_1_39)">
<mask id="path-4-outside-2_1_39" maskUnits="userSpaceOnUse" x="170" y="10" width="168" height="64" fill="black">
<rect fill="white" x="170" y="10" width="168" height="64"/>
<path d="M190.796 47.672C194.193 47.672 196.657 46.6267 198.188 44.536C199.718 42.408 200.484 39.2347 200.484 35.016C200.484 32.9253 200.297 31.1333 199.924 29.64C199.55 28.1467 198.934 26.9333 198.076 26C197.254 25.0293 196.19 24.3387 194.884 23.928C193.577 23.48 191.99 23.256 190.124 23.256H184.356V47.672H190.796ZM176.796 54V16.816H191.188C193.689 16.816 196.004 17.2453 198.132 18.104C200.26 18.9253 202.07 20.12 203.564 21.688C205.094 23.256 206.289 25.16 207.148 27.4C208.006 29.64 208.436 32.1787 208.436 35.016C208.436 37.8533 208.044 40.448 207.26 42.8C206.513 45.1147 205.43 47.112 204.012 48.792C202.593 50.4347 200.894 51.7227 198.916 52.656C196.937 53.552 194.753 54 192.364 54H176.796ZM229.123 37.536C229.086 36.528 228.899 35.6507 228.563 34.904C228.265 34.12 227.854 33.4853 227.331 33C226.809 32.4773 226.211 32.104 225.539 31.88C224.867 31.6187 224.177 31.488 223.467 31.488C222.011 31.488 220.742 32.0293 219.659 33.112C218.614 34.1573 218.017 35.632 217.867 37.536H229.123ZM217.643 42.128C217.755 44.2187 218.353 45.88 219.435 47.112C220.555 48.344 222.011 48.96 223.803 48.96C224.998 48.96 226.043 48.6987 226.939 48.176C227.873 47.616 228.47 46.8507 228.731 45.88H236.235C235.377 48.7173 233.883 50.9013 231.755 52.432C229.627 53.9627 227.089 54.728 224.139 54.728C214.955 54.728 210.363 49.7253 210.363 39.72C210.363 37.592 210.662 35.6693 211.259 33.952C211.857 32.2347 212.715 30.76 213.835 29.528C214.993 28.296 216.393 27.3627 218.035 26.728C219.678 26.056 221.563 25.72 223.691 25.72C227.947 25.72 231.158 27.0827 233.323 29.808C235.526 32.5333 236.627 36.64 236.627 42.128H217.643ZM255.72 34.792C255.533 33.448 255.048 32.5147 254.264 31.992C253.48 31.432 252.248 31.152 250.568 31.152C249.186 31.152 248.122 31.3387 247.376 31.712C246.629 32.048 246.256 32.6267 246.256 33.448C246.256 34.2693 246.629 34.904 247.376 35.352C248.122 35.7627 249.242 36.1733 250.736 36.584C252.304 37.032 253.797 37.4427 255.216 37.816C256.634 38.152 257.885 38.5253 258.968 38.936C260.424 39.5333 261.544 40.3547 262.328 41.4C263.112 42.408 263.504 43.808 263.504 45.6C263.504 48.4747 262.477 50.7147 260.424 52.32C258.408 53.9253 255.421 54.728 251.464 54.728C247.208 54.728 243.941 53.832 241.664 52.04C239.424 50.248 238.266 47.952 238.192 45.152H245.696C245.696 46.4587 246.2 47.4667 247.208 48.176C248.216 48.8853 249.616 49.24 251.408 49.24C252.714 49.24 253.853 49.0347 254.824 48.624C255.794 48.176 256.28 47.4293 256.28 46.384C256.28 45.4133 255.832 44.7227 254.936 44.312C254.077 43.9013 253.05 43.5467 251.856 43.248C249.541 42.688 247.674 42.184 246.256 41.736C244.837 41.288 243.642 40.7467 242.672 40.112C241.365 39.2907 240.45 38.3573 239.928 37.312C239.442 36.2667 239.2 35.128 239.2 33.896C239.2 32.7387 239.405 31.656 239.816 30.648C240.226 29.64 240.898 28.7813 241.832 28.072C242.765 27.3253 243.96 26.7467 245.416 26.336C246.909 25.9253 248.701 25.72 250.792 25.72C254.786 25.72 257.717 26.4853 259.584 28.016C261.488 29.5467 262.533 31.8053 262.72 34.792H255.72ZM265.726 54V26.448H273.006V54H265.726ZM265.726 23.144V16.368H273.006V23.144H265.726ZM289.547 48.512C291.339 48.512 292.814 47.84 293.971 46.496C295.166 45.1147 295.763 43.248 295.763 40.896C295.763 34.9973 293.691 32.048 289.547 32.048C285.403 32.048 283.331 34.848 283.331 40.448C283.331 42.912 283.91 44.872 285.067 46.328C286.262 47.784 287.755 48.512 289.547 48.512ZM295.539 50.304C295.016 51.536 294.064 52.5067 292.683 53.216C291.339 53.888 289.771 54.224 287.979 54.224C285.702 54.224 283.779 53.832 282.211 53.048C280.68 52.2267 279.43 51.1627 278.459 49.856C277.526 48.5493 276.835 47.0373 276.387 45.32C275.976 43.6027 275.771 41.848 275.771 40.056C275.771 37.928 276.088 35.9867 276.723 34.232C277.358 32.44 278.216 30.928 279.299 29.696C280.382 28.4267 281.651 27.456 283.107 26.784C284.563 26.0747 286.131 25.72 287.811 25.72C291.246 25.72 293.822 27.1013 295.539 29.864V26.448H302.819V54.28C302.819 56.3707 302.464 58.2 301.755 59.768C301.046 61.3733 300.075 62.6987 298.843 63.744C297.611 64.8267 296.155 65.648 294.475 66.208C292.795 66.768 291.003 67.048 289.099 67.048C287.195 67.048 285.422 66.768 283.779 66.208C282.136 65.6853 280.718 64.92 279.523 63.912C278.366 62.9413 277.451 61.7467 276.779 60.328C276.107 58.9093 275.771 57.304 275.771 55.512H282.547C282.547 57.192 283.088 58.48 284.171 59.376C285.291 60.3093 286.766 60.776 288.595 60.776C290.536 60.776 292.179 60.2347 293.523 59.152C294.867 58.1067 295.539 56.6693 295.539 54.84V50.304ZM323.666 54V37.312C323.666 35.184 323.312 33.7467 322.602 33C321.893 32.2533 320.68 31.88 318.962 31.88C315.192 31.88 313.306 33.9893 313.306 38.208V54H306.026V26.448H312.97V30.48C313.829 28.912 314.968 27.736 316.386 26.952C317.805 26.1307 319.634 25.72 321.874 25.72C323.181 25.72 324.394 25.9253 325.514 26.336C326.634 26.7093 327.586 27.288 328.37 28.072C329.192 28.856 329.826 29.8267 330.274 30.984C330.76 32.104 331.002 33.4107 331.002 34.904V54H323.666Z"/>
</mask>
<path d="M190.796 47.672C194.193 47.672 196.657 46.6267 198.188 44.536C199.718 42.408 200.484 39.2347 200.484 35.016C200.484 32.9253 200.297 31.1333 199.924 29.64C199.55 28.1467 198.934 26.9333 198.076 26C197.254 25.0293 196.19 24.3387 194.884 23.928C193.577 23.48 191.99 23.256 190.124 23.256H184.356V47.672H190.796ZM176.796 54V16.816H191.188C193.689 16.816 196.004 17.2453 198.132 18.104C200.26 18.9253 202.07 20.12 203.564 21.688C205.094 23.256 206.289 25.16 207.148 27.4C208.006 29.64 208.436 32.1787 208.436 35.016C208.436 37.8533 208.044 40.448 207.26 42.8C206.513 45.1147 205.43 47.112 204.012 48.792C202.593 50.4347 200.894 51.7227 198.916 52.656C196.937 53.552 194.753 54 192.364 54H176.796ZM229.123 37.536C229.086 36.528 228.899 35.6507 228.563 34.904C228.265 34.12 227.854 33.4853 227.331 33C226.809 32.4773 226.211 32.104 225.539 31.88C224.867 31.6187 224.177 31.488 223.467 31.488C222.011 31.488 220.742 32.0293 219.659 33.112C218.614 34.1573 218.017 35.632 217.867 37.536H229.123ZM217.643 42.128C217.755 44.2187 218.353 45.88 219.435 47.112C220.555 48.344 222.011 48.96 223.803 48.96C224.998 48.96 226.043 48.6987 226.939 48.176C227.873 47.616 228.47 46.8507 228.731 45.88H236.235C235.377 48.7173 233.883 50.9013 231.755 52.432C229.627 53.9627 227.089 54.728 224.139 54.728C214.955 54.728 210.363 49.7253 210.363 39.72C210.363 37.592 210.662 35.6693 211.259 33.952C211.857 32.2347 212.715 30.76 213.835 29.528C214.993 28.296 216.393 27.3627 218.035 26.728C219.678 26.056 221.563 25.72 223.691 25.72C227.947 25.72 231.158 27.0827 233.323 29.808C235.526 32.5333 236.627 36.64 236.627 42.128H217.643ZM255.72 34.792C255.533 33.448 255.048 32.5147 254.264 31.992C253.48 31.432 252.248 31.152 250.568 31.152C249.186 31.152 248.122 31.3387 247.376 31.712C246.629 32.048 246.256 32.6267 246.256 33.448C246.256 34.2693 246.629 34.904 247.376 35.352C248.122 35.7627 249.242 36.1733 250.736 36.584C252.304 37.032 253.797 37.4427 255.216 37.816C256.634 38.152 257.885 38.5253 258.968 38.936C260.424 39.5333 261.544 40.3547 262.328 41.4C263.112 42.408 263.504 43.808 263.504 45.6C263.504 48.4747 262.477 50.7147 260.424 52.32C258.408 53.9253 255.421 54.728 251.464 54.728C247.208 54.728 243.941 53.832 241.664 52.04C239.424 50.248 238.266 47.952 238.192 45.152H245.696C245.696 46.4587 246.2 47.4667 247.208 48.176C248.216 48.8853 249.616 49.24 251.408 49.24C252.714 49.24 253.853 49.0347 254.824 48.624C255.794 48.176 256.28 47.4293 256.28 46.384C256.28 45.4133 255.832 44.7227 254.936 44.312C254.077 43.9013 253.05 43.5467 251.856 43.248C249.541 42.688 247.674 42.184 246.256 41.736C244.837 41.288 243.642 40.7467 242.672 40.112C241.365 39.2907 240.45 38.3573 239.928 37.312C239.442 36.2667 239.2 35.128 239.2 33.896C239.2 32.7387 239.405 31.656 239.816 30.648C240.226 29.64 240.898 28.7813 241.832 28.072C242.765 27.3253 243.96 26.7467 245.416 26.336C246.909 25.9253 248.701 25.72 250.792 25.72C254.786 25.72 257.717 26.4853 259.584 28.016C261.488 29.5467 262.533 31.8053 262.72 34.792H255.72ZM265.726 54V26.448H273.006V54H265.726ZM265.726 23.144V16.368H273.006V23.144H265.726ZM289.547 48.512C291.339 48.512 292.814 47.84 293.971 46.496C295.166 45.1147 295.763 43.248 295.763 40.896C295.763 34.9973 293.691 32.048 289.547 32.048C285.403 32.048 283.331 34.848 283.331 40.448C283.331 42.912 283.91 44.872 285.067 46.328C286.262 47.784 287.755 48.512 289.547 48.512ZM295.539 50.304C295.016 51.536 294.064 52.5067 292.683 53.216C291.339 53.888 289.771 54.224 287.979 54.224C285.702 54.224 283.779 53.832 282.211 53.048C280.68 52.2267 279.43 51.1627 278.459 49.856C277.526 48.5493 276.835 47.0373 276.387 45.32C275.976 43.6027 275.771 41.848 275.771 40.056C275.771 37.928 276.088 35.9867 276.723 34.232C277.358 32.44 278.216 30.928 279.299 29.696C280.382 28.4267 281.651 27.456 283.107 26.784C284.563 26.0747 286.131 25.72 287.811 25.72C291.246 25.72 293.822 27.1013 295.539 29.864V26.448H302.819V54.28C302.819 56.3707 302.464 58.2 301.755 59.768C301.046 61.3733 300.075 62.6987 298.843 63.744C297.611 64.8267 296.155 65.648 294.475 66.208C292.795 66.768 291.003 67.048 289.099 67.048C287.195 67.048 285.422 66.768 283.779 66.208C282.136 65.6853 280.718 64.92 279.523 63.912C278.366 62.9413 277.451 61.7467 276.779 60.328C276.107 58.9093 275.771 57.304 275.771 55.512H282.547C282.547 57.192 283.088 58.48 284.171 59.376C285.291 60.3093 286.766 60.776 288.595 60.776C290.536 60.776 292.179 60.2347 293.523 59.152C294.867 58.1067 295.539 56.6693 295.539 54.84V50.304ZM323.666 54V37.312C323.666 35.184 323.312 33.7467 322.602 33C321.893 32.2533 320.68 31.88 318.962 31.88C315.192 31.88 313.306 33.9893 313.306 38.208V54H306.026V26.448H312.97V30.48C313.829 28.912 314.968 27.736 316.386 26.952C317.805 26.1307 319.634 25.72 321.874 25.72C323.181 25.72 324.394 25.9253 325.514 26.336C326.634 26.7093 327.586 27.288 328.37 28.072C329.192 28.856 329.826 29.8267 330.274 30.984C330.76 32.104 331.002 33.4107 331.002 34.904V54H323.666Z" fill="url(#paint1_linear_1_39)"/>
<path d="M198.188 44.536L203.029 48.0804L203.044 48.0601L203.059 48.0396L198.188 44.536ZM199.924 29.64L205.745 28.1848L205.745 28.1848L199.924 29.64ZM198.076 26L193.495 29.8757L193.576 29.9707L193.66 30.0623L198.076 26ZM194.884 23.928L192.938 29.6037L193.011 29.6288L193.085 29.652L194.884 23.928ZM184.356 23.256V17.256H178.356V23.256H184.356ZM184.356 47.672H178.356V53.672H184.356V47.672ZM176.796 54H170.796V60H176.796V54ZM176.796 16.816V10.816H170.796V16.816H176.796ZM198.132 18.104L195.887 23.6681L195.929 23.6851L195.971 23.7015L198.132 18.104ZM203.564 21.688L199.219 25.8259L199.245 25.8527L199.27 25.8792L203.564 21.688ZM207.148 27.4L201.545 29.5476L201.545 29.5476L207.148 27.4ZM207.26 42.8L201.568 40.9026L201.559 40.9303L201.55 40.958L207.26 42.8ZM204.012 48.792L208.553 52.7137L208.575 52.6885L208.596 52.6631L204.012 48.792ZM198.916 52.656L201.391 58.1217L201.433 58.1025L201.476 58.0826L198.916 52.656ZM190.796 47.672V53.672C195.454 53.672 200.032 52.1745 203.029 48.0804L198.188 44.536L193.347 40.9916C193.283 41.0788 192.932 41.672 190.796 41.672V47.672ZM198.188 44.536L203.059 48.0396C205.649 44.4385 206.484 39.7876 206.484 35.016H200.484H194.484C194.484 38.6817 193.788 40.3775 193.317 41.0324L198.188 44.536ZM200.484 35.016H206.484C206.484 32.5969 206.271 30.2891 205.745 28.1848L199.924 29.64L194.103 31.0952C194.324 31.9775 194.484 33.2538 194.484 35.016H200.484ZM199.924 29.64L205.745 28.1848C205.18 25.925 204.16 23.7511 202.491 21.9377L198.076 26L193.66 30.0623C193.709 30.1156 193.921 30.3683 194.103 31.0952L199.924 29.64ZM198.076 26L202.656 22.1243C201.044 20.2196 198.986 18.9278 196.683 18.204L194.884 23.928L193.085 29.652C193.395 29.7495 193.465 29.8391 193.495 29.8757L198.076 26ZM194.884 23.928L196.83 18.2523C194.72 17.529 192.436 17.256 190.124 17.256V23.256V29.256C191.545 29.256 192.434 29.431 192.938 29.6037L194.884 23.928ZM190.124 23.256V17.256H184.356V23.256V29.256H190.124V23.256ZM184.356 23.256H178.356V47.672H184.356H190.356V23.256H184.356ZM184.356 47.672V53.672H190.796V47.672V41.672H184.356V47.672ZM176.796 54H182.796V16.816H176.796H170.796V54H176.796ZM176.796 16.816V22.816H191.188V16.816V10.816H176.796V16.816ZM191.188 16.816V22.816C192.989 22.816 194.534 23.1223 195.887 23.6681L198.132 18.104L200.377 12.5399C197.474 11.3684 194.389 10.816 191.188 10.816V16.816ZM198.132 18.104L195.971 23.7015C197.318 24.2211 198.37 24.9341 199.219 25.8259L203.564 21.688L207.909 17.5501C205.771 15.3059 203.202 13.6295 200.292 12.5065L198.132 18.104ZM203.564 21.688L199.27 25.8792C200.178 26.8089 200.951 27.998 201.545 29.5476L207.148 27.4L212.75 25.2524C211.627 22.322 210.011 19.7031 207.857 17.4968L203.564 21.688ZM207.148 27.4L201.545 29.5476C202.098 30.9893 202.436 32.7815 202.436 35.016H208.436H214.436C214.436 31.5758 213.915 28.2907 212.75 25.2524L207.148 27.4ZM208.436 35.016H202.436C202.436 37.3 202.121 39.2436 201.568 40.9026L207.26 42.8L212.952 44.6974C213.967 41.6524 214.436 38.4067 214.436 35.016H208.436ZM207.26 42.8L201.55 40.958C201.017 42.6084 200.292 43.8978 199.428 44.9209L204.012 48.792L208.596 52.6631C210.569 50.3262 212.009 47.6209 212.97 44.642L207.26 42.8ZM204.012 48.792L199.471 44.8703C198.605 45.8732 197.583 46.6508 196.356 47.2294L198.916 52.656L201.476 58.0826C204.206 56.7945 206.582 54.9961 208.553 52.7137L204.012 48.792ZM198.916 52.656L196.441 47.1903C195.315 47.7003 193.986 48 192.364 48V54V60C195.521 60 198.56 59.4037 201.391 58.1217L198.916 52.656ZM192.364 54V48H176.796V54V60H192.364V54ZM229.123 37.536V43.536H235.35L235.119 37.3139L229.123 37.536ZM228.563 34.904L222.957 37.04L223.019 37.2051L223.092 37.3662L228.563 34.904ZM227.331 33L223.089 37.2426L223.167 37.3212L223.249 37.3968L227.331 33ZM225.539 31.88L223.365 37.472L223.502 37.5255L223.642 37.5721L225.539 31.88ZM219.659 33.112L215.417 28.8694L215.417 28.8694L219.659 33.112ZM217.867 37.536L211.886 37.0669L211.378 43.536H217.867V37.536ZM217.643 42.128V36.128H211.313L211.652 42.449L217.643 42.128ZM219.435 47.112L214.928 51.0727L214.962 51.1106L214.996 51.148L219.435 47.112ZM226.939 48.176L229.963 53.3587L229.995 53.34L230.026 53.321L226.939 48.176ZM228.731 45.88V39.88H224.133L222.938 44.3202L228.731 45.88ZM236.235 45.88L241.978 47.6179L244.32 39.88H236.235V45.88ZM231.755 52.432L235.259 57.3028L235.259 57.3028L231.755 52.432ZM213.835 29.528L209.462 25.4199L209.429 25.4557L209.396 25.492L213.835 29.528ZM218.035 26.728L220.198 32.3248L220.253 32.3036L220.307 32.2813L218.035 26.728ZM233.323 29.808L228.626 33.5405L228.641 33.56L228.657 33.5795L233.323 29.808ZM236.627 42.128V48.128H242.627V42.128H236.627ZM229.123 37.536L235.119 37.3139C235.06 35.7063 234.753 34.0374 234.035 32.4418L228.563 34.904L223.092 37.3662C223.046 37.2639 223.112 37.3497 223.128 37.7581L229.123 37.536ZM228.563 34.904L234.17 32.768C233.601 31.2744 232.721 29.8165 231.414 28.6032L227.331 33L223.249 37.3968C223.125 37.2817 223.043 37.1744 222.994 37.0995C222.947 37.0272 222.941 36.999 222.957 37.04L228.563 34.904ZM227.331 33L231.574 28.7574C230.422 27.6056 229.031 26.7194 227.437 26.1879L225.539 31.88L223.642 37.5721C223.531 37.535 223.417 37.4821 223.311 37.416C223.207 37.3504 223.133 37.2866 223.089 37.2426L227.331 33ZM225.539 31.88L227.714 26.288C226.36 25.7616 224.933 25.488 223.467 25.488V31.488V37.488C223.451 37.488 223.428 37.4863 223.402 37.4814C223.377 37.4766 223.363 37.4713 223.365 37.472L225.539 31.88ZM223.467 31.488V25.488C220.331 25.488 217.56 26.7261 215.417 28.8694L219.659 33.112L223.902 37.3546C223.961 37.2962 223.921 37.3516 223.777 37.4131C223.711 37.4414 223.642 37.462 223.579 37.4745C223.517 37.4869 223.477 37.488 223.467 37.488V31.488ZM219.659 33.112L215.417 28.8694C213.096 31.1904 212.114 34.1626 211.886 37.0669L217.867 37.536L223.849 38.0051C223.885 37.547 223.961 37.3217 223.989 37.2546C224.009 37.2048 223.99 37.2667 223.902 37.3546L219.659 33.112ZM217.867 37.536V43.536H229.123V37.536V31.536H217.867V37.536ZM217.643 42.128L211.652 42.449C211.816 45.5078 212.735 48.5772 214.928 51.0727L219.435 47.112L223.942 43.1513C223.936 43.1436 223.885 43.0878 223.822 42.9119C223.753 42.7221 223.665 42.374 223.635 41.807L217.643 42.128ZM219.435 47.112L214.996 51.148C217.347 53.7341 220.466 54.96 223.803 54.96V48.96V42.96C223.699 42.96 223.649 42.9511 223.64 42.9496C223.634 42.9484 223.659 42.9528 223.705 42.9722C223.752 42.9919 223.798 43.0178 223.836 43.0453C223.873 43.0721 223.886 43.0875 223.875 43.076L219.435 47.112ZM223.803 48.96V54.96C225.897 54.96 228.017 54.4934 229.963 53.3587L226.939 48.176L223.916 42.9933C223.944 42.9772 223.97 42.9646 223.993 42.9555C224.004 42.9512 224.012 42.9481 224.019 42.946C224.025 42.9439 224.028 42.9431 224.028 42.9431C224.028 42.9432 224.024 42.9442 224.016 42.9457C224.007 42.9472 223.994 42.9493 223.976 42.9514C223.94 42.9556 223.883 42.96 223.803 42.96V48.96ZM226.939 48.176L230.026 53.321C232.171 52.0341 233.825 50.0419 234.525 47.4398L228.731 45.88L222.938 44.3202C223.008 44.059 223.145 43.7625 223.358 43.4904C223.564 43.2256 223.763 43.0847 223.852 43.031L226.939 48.176ZM228.731 45.88V51.88H236.235V45.88V39.88H228.731V45.88ZM236.235 45.88L230.493 44.1421C229.963 45.8908 229.171 46.8999 228.252 47.5612L231.755 52.432L235.259 57.3028C238.596 54.9028 240.79 51.5439 241.978 47.6179L236.235 45.88ZM231.755 52.432L228.252 47.5612C227.27 48.2673 225.996 48.728 224.139 48.728V54.728V60.728C228.182 60.728 231.985 59.6581 235.259 57.3028L231.755 52.432ZM224.139 54.728V48.728C220.611 48.728 219.028 47.7907 218.228 46.9187C217.338 45.9494 216.363 43.9191 216.363 39.72H210.363H204.363C204.363 45.5262 205.685 51 209.387 55.0333C213.179 59.164 218.484 60.728 224.139 60.728V54.728ZM210.363 39.72H216.363C216.363 38.1512 216.583 36.909 216.926 35.9231L211.259 33.952L205.592 31.9809C204.741 34.4296 204.363 37.0328 204.363 39.72H210.363ZM211.259 33.952L216.926 35.9231C217.283 34.8989 217.747 34.1444 218.275 33.564L213.835 29.528L209.396 25.492C207.683 27.3756 206.431 29.5704 205.592 31.9809L211.259 33.952ZM213.835 29.528L218.209 33.6361C218.724 33.0874 219.358 32.6492 220.198 32.3248L218.035 26.728L215.873 21.1312C213.427 22.0762 211.262 23.5046 209.462 25.4199L213.835 29.528ZM218.035 26.728L220.307 32.2813C221.101 31.9567 222.191 31.72 223.691 31.72V25.72V19.72C220.936 19.72 218.256 20.1553 215.764 21.1747L218.035 26.728ZM223.691 25.72V31.72C226.568 31.72 227.852 32.5669 228.626 33.5405L233.323 29.808L238.021 26.0755C234.464 21.5984 229.327 19.72 223.691 19.72V25.72ZM233.323 29.808L228.657 33.5795C229.628 34.7805 230.627 37.2801 230.627 42.128H236.627H242.627C242.627 35.9999 241.425 30.2861 237.99 26.0365L233.323 29.808ZM236.627 42.128V36.128H217.643V42.128V48.128H236.627V42.128ZM255.72 34.792L249.777 35.6174L250.495 40.792H255.72V34.792ZM254.264 31.992L250.776 36.8744L250.855 36.9306L250.935 36.9843L254.264 31.992ZM247.376 31.712L249.838 37.1835L249.949 37.1333L250.059 37.0786L247.376 31.712ZM247.376 35.352L244.289 40.497L244.385 40.555L244.484 40.6093L247.376 35.352ZM250.736 36.584L252.384 30.8149L252.355 30.8067L252.326 30.7988L250.736 36.584ZM255.216 37.816L253.689 43.6184L253.76 43.6374L253.833 43.6545L255.216 37.816ZM258.968 38.936L261.245 33.385L261.171 33.3545L261.095 33.326L258.968 38.936ZM262.328 41.4L257.528 45L257.559 45.0421L257.591 45.0836L262.328 41.4ZM260.424 52.32L256.728 47.5932L256.707 47.6096L256.686 47.6263L260.424 52.32ZM241.664 52.04L237.915 56.7252L237.934 56.7403L237.953 56.7552L241.664 52.04ZM238.192 45.152V39.152H232.029L232.194 45.3119L238.192 45.152ZM245.696 45.152H251.696V39.152H245.696V45.152ZM247.208 48.176L243.755 53.0828L243.755 53.0828L247.208 48.176ZM254.824 48.624L257.161 54.1498L257.25 54.1122L257.338 54.0718L254.824 48.624ZM254.936 44.312L252.347 49.7248L252.391 49.746L252.436 49.7664L254.936 44.312ZM251.856 43.248L253.311 37.4271L253.289 37.4216L253.266 37.4162L251.856 43.248ZM246.256 41.736L248.062 36.0145L248.062 36.0145L246.256 41.736ZM242.672 40.112L245.955 35.0902L245.91 35.0608L245.865 35.0322L242.672 40.112ZM239.928 37.312L234.485 39.8387L234.522 39.9175L234.561 39.9953L239.928 37.312ZM239.816 30.648L245.372 32.9118L245.372 32.9118L239.816 30.648ZM241.832 28.072L245.462 32.849L245.521 32.8038L245.58 32.7572L241.832 28.072ZM245.416 26.336L243.825 20.5508L243.806 20.556L243.787 20.5613L245.416 26.336ZM259.584 28.016L255.779 32.6556L255.802 32.674L255.824 32.6923L259.584 28.016ZM262.72 34.792V40.792H269.106L268.708 34.4177L262.72 34.792ZM255.72 34.792L261.662 33.9666C261.346 31.6888 260.339 28.8314 257.592 26.9997L254.264 31.992L250.935 36.9843C250.391 36.6213 250.061 36.1767 249.892 35.8521C249.742 35.5641 249.751 35.437 249.777 35.6174L255.72 34.792ZM254.264 31.992L257.751 27.1096C255.438 25.4573 252.673 25.152 250.568 25.152V31.152V37.152C250.823 37.152 251.022 37.1628 251.169 37.177C251.318 37.1912 251.398 37.2074 251.422 37.2128C251.446 37.2183 251.393 37.2084 251.284 37.163C251.173 37.117 250.992 37.0289 250.776 36.8744L254.264 31.992ZM250.568 31.152V25.152C248.791 25.152 246.647 25.3682 244.692 26.3454L247.376 31.712L250.059 37.0786C249.786 37.215 249.652 37.2225 249.77 37.2017C249.881 37.1823 250.134 37.152 250.568 37.152V31.152ZM247.376 31.712L244.913 26.2405C243.687 26.7925 242.419 27.7117 241.494 29.1452C240.57 30.5775 240.256 32.1088 240.256 33.448H246.256H252.256C252.256 33.9659 252.128 34.7971 251.577 35.6508C251.026 36.5056 250.318 36.9675 249.838 37.1835L247.376 31.712ZM246.256 33.448H240.256C240.256 36.5267 241.867 39.044 244.289 40.497L247.376 35.352L250.462 30.207C250.792 30.4046 251.3 30.8059 251.707 31.4979C252.124 32.2059 252.256 32.9155 252.256 33.448H246.256ZM247.376 35.352L244.484 40.6093C245.848 41.3596 247.502 41.9176 249.145 42.3692L250.736 36.584L252.326 30.7988C250.982 30.4291 250.396 30.1658 250.267 30.0947L247.376 35.352ZM250.736 36.584L249.087 42.3531C250.691 42.8114 252.225 43.2333 253.689 43.6184L255.216 37.816L256.742 32.0136C255.369 31.652 253.916 31.2526 252.384 30.8149L250.736 36.584ZM255.216 37.816L253.833 43.6545C255.06 43.9451 256.053 44.2476 256.84 44.546L258.968 38.936L261.095 33.326C259.717 32.8031 258.208 32.3589 256.598 31.9775L255.216 37.816ZM258.968 38.936L256.69 44.487C257.35 44.7577 257.514 44.9824 257.528 45L262.328 41.4L267.128 37.8C265.573 35.7269 263.497 34.309 261.245 33.385L258.968 38.936ZM262.328 41.4L257.591 45.0836C257.444 44.8939 257.417 44.7703 257.432 44.8238C257.451 44.8917 257.504 45.1293 257.504 45.6H263.504H269.504C269.504 43.0007 268.94 40.1291 267.064 37.7164L262.328 41.4ZM263.504 45.6H257.504C257.504 46.8459 257.164 47.2525 256.728 47.5932L260.424 52.32L264.119 57.0468C267.79 54.1768 269.504 50.1034 269.504 45.6H263.504ZM260.424 52.32L256.686 47.6263C256.169 48.0382 254.753 48.728 251.464 48.728V54.728V60.728C256.089 60.728 260.646 59.8125 264.161 57.0137L260.424 52.32ZM251.464 54.728V48.728C247.945 48.728 246.198 47.9736 245.374 47.3248L241.664 52.04L237.953 56.7552C241.683 59.6904 246.47 60.728 251.464 60.728V54.728ZM241.664 52.04L245.412 47.3548C244.513 46.6357 244.216 45.9775 244.189 44.9921L238.192 45.152L232.194 45.3119C232.317 49.9265 234.334 53.8603 237.915 56.7252L241.664 52.04ZM238.192 45.152V51.152H245.696V45.152V39.152H238.192V45.152ZM245.696 45.152H239.696C239.696 48.2728 241.04 51.1724 243.755 53.0828L247.208 48.176L250.66 43.2692C250.891 43.4312 251.207 43.7392 251.44 44.2047C251.666 44.6572 251.696 45.0224 251.696 45.152H245.696ZM247.208 48.176L243.755 53.0828C246.138 54.7598 248.915 55.24 251.408 55.24V49.24V43.24C250.895 43.24 250.606 43.1879 250.487 43.1577C250.377 43.1299 250.472 43.1368 250.66 43.2692L247.208 48.176ZM251.408 49.24V55.24C253.331 55.24 255.297 54.9388 257.161 54.1498L254.824 48.624L252.486 43.0982C252.409 43.1306 252.098 43.24 251.408 43.24V49.24ZM254.824 48.624L257.338 54.0718C258.643 53.4695 259.973 52.4951 260.946 50.9979C261.925 49.4922 262.28 47.8618 262.28 46.384H256.28H250.28C250.28 45.9515 250.391 45.2172 250.885 44.4581C251.373 43.7076 251.975 43.3305 252.309 43.1762L254.824 48.624ZM256.28 46.384H262.28C262.28 44.951 261.938 43.3536 260.977 41.8729C260.021 40.398 258.712 39.4429 257.435 38.8576L254.936 44.312L252.436 49.7664C252.055 49.5918 251.418 49.1873 250.91 48.4031C250.397 47.6131 250.28 46.8464 250.28 46.384H256.28ZM254.936 44.312L257.524 38.8992C256.215 38.2729 254.789 37.7966 253.311 37.4271L251.856 43.248L250.4 49.0689C251.312 49.2967 251.939 49.5298 252.347 49.7248L254.936 44.312ZM251.856 43.248L253.266 37.4162C251.016 36.8718 249.297 36.4044 248.062 36.0145L246.256 41.736L244.449 47.4575C246.051 47.9636 248.065 48.5041 250.445 49.0798L251.856 43.248ZM246.256 41.736L248.062 36.0145C247.026 35.6873 246.36 35.3548 245.955 35.0902L242.672 40.112L239.388 45.1338C240.925 46.1385 242.647 46.8887 244.449 47.4575L246.256 41.736ZM242.672 40.112L245.865 35.0322C245.198 34.6129 245.192 34.4239 245.294 34.6287L239.928 37.312L234.561 39.9953C235.709 42.2908 237.532 43.9684 239.478 45.1918L242.672 40.112ZM239.928 37.312L245.37 34.7853C245.277 34.5854 245.2 34.3165 245.2 33.896H239.2H233.2C233.2 35.9395 233.608 37.9479 234.485 39.8387L239.928 37.312ZM239.2 33.896H245.2C245.2 33.4651 245.272 33.1563 245.372 32.9118L239.816 30.648L234.259 28.3842C233.537 30.1557 233.2 32.0122 233.2 33.896H239.2ZM239.816 30.648L245.372 32.9118C245.371 32.9145 245.368 32.9215 245.363 32.9303C245.358 32.9391 245.353 32.9447 245.353 32.9458C245.352 32.9469 245.357 32.9395 245.373 32.9243C245.389 32.9088 245.417 32.8831 245.462 32.849L241.832 28.072L238.201 23.295C236.48 24.6027 235.106 26.3047 234.259 28.3842L239.816 30.648ZM241.832 28.072L245.58 32.7572C245.744 32.6258 246.163 32.3593 247.044 32.1107L245.416 26.336L243.787 20.5613C241.756 21.1341 239.786 22.0249 238.083 23.3868L241.832 28.072ZM245.416 26.336L247.006 32.1212C247.837 31.8929 249.064 31.72 250.792 31.72V25.72V19.72C248.338 19.72 245.981 19.9578 243.825 20.5508L245.416 26.336ZM250.792 25.72V31.72C254.237 31.72 255.491 32.4196 255.779 32.6556L259.584 28.016L263.388 23.3764C259.942 20.551 255.335 19.72 250.792 19.72V25.72ZM259.584 28.016L255.824 32.6923C256.125 32.9341 256.624 33.4545 256.731 35.1663L262.72 34.792L268.708 34.4177C268.441 30.1562 266.85 26.1592 263.343 23.3397L259.584 28.016ZM262.72 34.792V28.792H255.72V34.792V40.792H262.72V34.792ZM265.726 54H259.726V60H265.726V54ZM265.726 26.448V20.448H259.726V26.448H265.726ZM273.006 26.448H279.006V20.448H273.006V26.448ZM273.006 54V60H279.006V54H273.006ZM265.726 23.144H259.726V29.144H265.726V23.144ZM265.726 16.368V10.368H259.726V16.368H265.726ZM273.006 16.368H279.006V10.368H273.006V16.368ZM273.006 23.144V29.144H279.006V23.144H273.006ZM265.726 54H271.726V26.448H265.726H259.726V54H265.726ZM265.726 26.448V32.448H273.006V26.448V20.448H265.726V26.448ZM273.006 26.448H267.006V54H273.006H279.006V26.448H273.006ZM273.006 54V48H265.726V54V60H273.006V54ZM265.726 23.144H271.726V16.368H265.726H259.726V23.144H265.726ZM265.726 16.368V22.368H273.006V16.368V10.368H265.726V16.368ZM273.006 16.368H267.006V23.144H273.006H279.006V16.368H273.006ZM273.006 23.144V17.144H265.726V23.144V29.144H273.006V23.144ZM293.971 46.496L289.433 42.5711L289.424 42.5809L293.971 46.496ZM285.067 46.328L280.37 50.0615L280.399 50.0979L280.429 50.1339L285.067 46.328ZM295.539 50.304H301.539L290.016 47.9607L295.539 50.304ZM292.683 53.216L295.366 58.5826L295.395 58.5681L295.424 58.5534L292.683 53.216ZM282.211 53.048L279.374 58.335L279.45 58.3759L279.528 58.4146L282.211 53.048ZM278.459 49.856L273.577 53.3434L273.609 53.389L273.643 53.4339L278.459 49.856ZM276.387 45.32L270.552 46.7154L270.566 46.7751L270.581 46.8345L276.387 45.32ZM276.723 34.232L282.365 36.2728L282.372 36.254L282.379 36.2351L276.723 34.232ZM279.299 29.696L283.806 33.6567L283.835 33.6234L283.864 33.5897L279.299 29.696ZM283.107 26.784L285.621 32.2318L285.678 32.2054L285.735 32.1779L283.107 26.784ZM295.539 29.864L290.443 33.0316L301.539 50.8812V29.864H295.539ZM295.539 26.448V20.448H289.539V26.448H295.539ZM302.819 26.448H308.819V20.448H302.819V26.448ZM301.755 59.768L296.288 57.295L296.278 57.319L296.267 57.343L301.755 59.768ZM298.843 63.744L294.961 59.1689L294.921 59.2026L294.882 59.237L298.843 63.744ZM294.475 66.208L296.372 71.9001L296.372 71.9001L294.475 66.208ZM283.779 66.208L285.715 60.5289L285.657 60.5091L285.598 60.4904L283.779 66.208ZM279.523 63.912L283.392 59.3263L283.385 59.3205L283.379 59.3149L279.523 63.912ZM276.779 60.328L282.201 57.7595L282.201 57.7595L276.779 60.328ZM275.771 55.512V49.512H269.771V55.512H275.771ZM282.547 55.512H288.547V49.512H282.547V55.512ZM284.171 59.376L288.012 54.7667L288.004 54.7601L287.996 54.7536L284.171 59.376ZM293.523 59.152L289.839 54.4159L289.799 54.4473L289.759 54.4795L293.523 59.152ZM289.547 48.512V54.512C293.065 54.512 296.207 53.0945 298.518 50.4111L293.971 46.496L289.424 42.5809C289.386 42.6257 289.374 42.6306 289.395 42.6147C289.417 42.5978 289.456 42.5721 289.509 42.5482C289.561 42.5243 289.603 42.5131 289.623 42.5091C289.64 42.5054 289.619 42.512 289.547 42.512V48.512ZM293.971 46.496L298.509 50.4209C300.892 47.6661 301.763 44.2647 301.763 40.896H295.763H289.763C289.763 42.2313 289.44 42.5632 289.433 42.5711L293.971 46.496ZM295.763 40.896H301.763C301.763 37.4277 301.187 33.7552 299.119 30.8109C296.778 27.4797 293.236 26.048 289.547 26.048V32.048V38.048C289.873 38.048 289.869 38.1045 289.694 38.0218C289.49 37.9246 289.348 37.7778 289.299 37.7091C289.278 37.6786 289.405 37.8468 289.533 38.3931C289.661 38.9407 289.763 39.7534 289.763 40.896H295.763ZM289.547 32.048V26.048C285.981 26.048 282.452 27.3494 280.062 30.5789C277.922 33.4704 277.331 37.0835 277.331 40.448H283.331H289.331C289.331 39.3985 289.43 38.6756 289.545 38.2099C289.658 37.7496 289.761 37.6456 289.708 37.7171C289.629 37.8234 289.472 37.9625 289.292 38.0436C289.146 38.1094 289.181 38.048 289.547 38.048V32.048ZM283.331 40.448H277.331C277.331 43.8265 278.13 47.2435 280.37 50.0615L285.067 46.328L289.764 42.5945C289.689 42.5005 289.331 41.9975 289.331 40.448H283.331ZM285.067 46.328L280.429 50.1339C282.696 52.8974 285.856 54.512 289.547 54.512V48.512V42.512C289.507 42.512 289.515 42.5082 289.557 42.5176C289.601 42.5273 289.656 42.5454 289.712 42.5727C289.768 42.5997 289.798 42.6233 289.803 42.6268C289.805 42.629 289.771 42.6014 289.705 42.5221L285.067 46.328ZM295.539 50.304L290.016 47.9607C290.031 47.9244 290.053 47.8827 290.081 47.8411C290.108 47.7996 290.134 47.7706 290.149 47.7547C290.182 47.7211 290.141 47.7765 289.942 47.8786L292.683 53.216L295.424 58.5534C297.844 57.3108 299.905 55.375 301.062 52.6473L295.539 50.304ZM292.683 53.216L290 47.8494C289.635 48.032 289.017 48.224 287.979 48.224V54.224V60.224C290.525 60.224 293.043 59.744 295.366 58.5826L292.683 53.216ZM287.979 54.224V48.224C286.364 48.224 285.418 47.9434 284.894 47.6814L282.211 53.048L279.528 58.4146C282.14 59.7206 285.039 60.224 287.979 60.224V54.224ZM282.211 53.048L285.048 47.761C284.241 47.3283 283.685 46.8295 283.275 46.2781L278.459 49.856L273.643 53.4339C275.174 55.4959 277.119 57.125 279.374 58.335L282.211 53.048ZM278.459 49.856L283.341 46.3686C282.876 45.7173 282.475 44.8888 282.193 43.8055L276.387 45.32L270.581 46.8345C271.195 49.1859 272.175 51.3814 273.577 53.3434L278.459 49.856ZM276.387 45.32L282.222 43.9246C281.923 42.6711 281.771 41.385 281.771 40.056H275.771H269.771C269.771 42.311 270.03 44.5342 270.552 46.7154L276.387 45.32ZM275.771 40.056H281.771C281.771 38.5274 281.998 37.2881 282.365 36.2728L276.723 34.232L271.081 32.1912C270.179 34.6852 269.771 37.3286 269.771 40.056H275.771ZM276.723 34.232L282.379 36.2351C282.799 35.0497 283.301 34.2315 283.806 33.6567L279.299 29.696L274.792 25.7353C273.132 27.6245 271.917 29.8302 271.067 32.2289L276.723 34.232ZM279.299 29.696L283.864 33.5897C284.407 32.9532 284.985 32.5254 285.621 32.2318L283.107 26.784L280.593 21.3362C278.317 22.3866 276.356 23.9001 274.734 25.8023L279.299 29.696ZM283.107 26.784L285.735 32.1779C286.341 31.8825 287.007 31.72 287.811 31.72V25.72V19.72C285.255 19.72 282.785 20.2669 280.479 21.3901L283.107 26.784ZM287.811 25.72V31.72C289.312 31.72 289.893 32.1461 290.443 33.0316L295.539 29.864L300.635 26.6964C297.75 22.0566 293.179 19.72 287.811 19.72V25.72ZM295.539 29.864H301.539V26.448H295.539H289.539V29.864H295.539ZM295.539 26.448V32.448H302.819V26.448V20.448H295.539V26.448ZM302.819 26.448H296.819V54.28H302.819H308.819V26.448H302.819ZM302.819 54.28H296.819C296.819 55.6972 296.579 56.6524 296.288 57.295L301.755 59.768L307.222 62.241C308.35 59.7476 308.819 57.0441 308.819 54.28H302.819ZM301.755 59.768L296.267 57.343C295.892 58.1923 295.444 58.7592 294.961 59.1689L298.843 63.744L302.725 68.3191C304.706 66.6382 306.2 64.5544 307.243 62.193L301.755 59.768ZM298.843 63.744L294.882 59.237C294.299 59.7499 293.559 60.1888 292.578 60.5159L294.475 66.208L296.372 71.9001C298.751 71.1072 300.923 69.9035 302.804 68.251L298.843 63.744ZM294.475 66.208L292.578 60.5159C291.554 60.8572 290.407 61.048 289.099 61.048V67.048V73.048C291.599 73.048 294.036 72.6788 296.372 71.9001L294.475 66.208ZM289.099 67.048V61.048C287.79 61.048 286.677 60.8568 285.715 60.5289L283.779 66.208L281.843 71.8871C284.167 72.6792 286.6 73.048 289.099 73.048V67.048ZM283.779 66.208L285.598 60.4904C284.629 60.1821 283.925 59.7761 283.392 59.3263L279.523 63.912L275.654 68.4977C277.51 70.0639 279.644 71.1886 281.96 71.9256L283.779 66.208ZM279.523 63.912L283.379 59.3149C282.91 58.9216 282.518 58.4284 282.201 57.7595L276.779 60.328L271.357 62.8965C272.384 65.0649 273.822 66.9611 275.667 68.5092L279.523 63.912ZM276.779 60.328L282.201 57.7595C281.96 57.2502 281.771 56.5415 281.771 55.512H275.771H269.771C269.771 58.0665 270.254 60.5685 271.357 62.8965L276.779 60.328ZM275.771 55.512V61.512H282.547V55.512V49.512H275.771V55.512ZM282.547 55.512H276.547C276.547 58.5934 277.613 61.7371 280.346 63.9984L284.171 59.376L287.996 54.7536C288.084 54.8261 288.182 54.9251 288.275 55.0503C288.368 55.1756 288.437 55.3014 288.484 55.4132C288.579 55.6383 288.547 55.7118 288.547 55.512H282.547ZM284.171 59.376L280.33 63.9853C282.78 66.0273 285.729 66.776 288.595 66.776V60.776V54.776C288.185 54.776 287.983 54.7234 287.927 54.7056C287.887 54.6928 287.938 54.7048 288.012 54.7667L284.171 59.376ZM288.595 60.776V66.776C291.725 66.776 294.744 65.8733 297.287 63.8245L293.523 59.152L289.759 54.4795C289.614 54.5961 289.348 54.776 288.595 54.776V60.776ZM293.523 59.152L297.207 63.8881C300.133 61.6119 301.539 58.3619 301.539 54.84H295.539H289.539C289.539 55.0104 289.511 54.9387 289.6 54.7488C289.641 54.6608 289.693 54.5793 289.747 54.5123C289.773 54.4804 289.796 54.4563 289.813 54.4397C289.83 54.4231 289.84 54.4155 289.839 54.4159L293.523 59.152ZM295.539 54.84H301.539V50.304H295.539H289.539V54.84H295.539ZM323.666 54H317.666V60H323.666V54ZM322.602 33L326.952 28.8675L326.952 28.8675L322.602 33ZM313.306 54V60H319.306V54H313.306ZM306.026 54H300.026V60H306.026V54ZM306.026 26.448V20.448H300.026V26.448H306.026ZM312.97 26.448H318.97V20.448H312.97V26.448ZM312.97 30.48H306.97L318.233 33.3619L312.97 30.48ZM316.386 26.952L319.288 32.2034L319.341 32.1745L319.393 32.1446L316.386 26.952ZM325.514 26.336L323.449 31.9693L323.532 31.9999L323.617 32.0281L325.514 26.336ZM328.37 28.072L324.128 32.3146L324.177 32.364L324.227 32.4121L328.37 28.072ZM330.274 30.984L324.679 33.15L324.722 33.2607L324.769 33.3696L330.274 30.984ZM331.002 54V60H337.002V54H331.002ZM323.666 54H329.666V37.312H323.666H317.666V54H323.666ZM323.666 37.312H329.666C329.666 35.9551 329.557 34.5449 329.226 33.2006C328.901 31.8865 328.271 30.2553 326.952 28.8675L322.602 33L318.252 37.1325C317.939 36.8024 317.763 36.5 317.674 36.3173C317.586 36.1379 317.567 36.0412 317.575 36.0754C317.583 36.107 317.608 36.2212 317.629 36.4394C317.651 36.6552 317.666 36.9428 317.666 37.312H323.666ZM322.602 33L326.952 28.8675C324.55 26.3384 321.278 25.88 318.962 25.88V31.88V37.88C319.419 37.88 319.522 37.9335 319.396 37.8947C319.244 37.8481 318.755 37.6615 318.252 37.1325L322.602 33ZM318.962 31.88V25.88C315.967 25.88 312.673 26.7487 310.247 29.4635C307.935 32.0501 307.306 35.3295 307.306 38.208H313.306H319.306C319.306 37.581 319.379 37.2583 319.41 37.1527C319.435 37.0676 319.402 37.2281 319.194 37.4605C319.094 37.5716 318.98 37.6709 318.86 37.7515C318.741 37.8311 318.643 37.8756 318.584 37.8973C318.477 37.9374 318.564 37.88 318.962 37.88V31.88ZM313.306 38.208H307.306V54H313.306H319.306V38.208H313.306ZM313.306 54V48H306.026V54V60H313.306V54ZM306.026 54H312.026V26.448H306.026H300.026V54H306.026ZM306.026 26.448V32.448H312.97V26.448V20.448H306.026V26.448ZM312.97 26.448H306.97V30.48H312.97H318.97V26.448H312.97ZM312.97 30.48L318.233 33.3619C318.603 32.6852 318.966 32.3815 319.288 32.2034L316.386 26.952L313.484 21.7006C310.969 23.0905 309.055 25.1388 307.708 27.5981L312.97 30.48ZM316.386 26.952L319.393 32.1446C319.623 32.0113 320.319 31.72 321.874 31.72V25.72V19.72C318.95 19.72 315.987 20.2501 313.38 21.7594L316.386 26.952ZM321.874 25.72V31.72C322.543 31.72 323.051 31.8233 323.449 31.9693L325.514 26.336L327.58 20.7027C325.738 20.0274 323.819 19.72 321.874 19.72V25.72ZM325.514 26.336L323.617 32.0281C323.912 32.1264 324.045 32.2317 324.128 32.3146L328.37 28.072L332.613 23.8294C331.128 22.3443 329.357 21.2922 327.412 20.6439L325.514 26.336ZM328.37 28.072L324.227 32.4121C324.353 32.5321 324.519 32.7378 324.679 33.15L330.274 30.984L335.87 28.818C335.133 26.9155 334.03 25.1799 332.513 23.7319L328.37 28.072ZM330.274 30.984L324.769 33.3696C324.864 33.5883 325.002 34.0526 325.002 34.904H331.002H337.002C337.002 32.7687 336.656 30.6197 335.78 28.5984L330.274 30.984ZM331.002 34.904H325.002V54H331.002H337.002V34.904H331.002ZM331.002 54V48H323.666V54V60H331.002V54Z" fill="white" mask="url(#path-4-outside-2_1_39)"/>
</g>
<mask id="mask1_1_39" style="mask-type:alpha" maskUnits="userSpaceOnUse" x="105" y="66" width="156" height="29">
<rect x="105.5" y="66.5" width="155" height="28" rx="4.5" fill="#D9D9D9" stroke="white"/>
</mask>
<g mask="url(#mask1_1_39)">
<path d="M115 66.5H256C258.485 66.5 260.5 68.5147 260.5 71V90C260.5 92.4853 258.485 94.5 256 94.5H115C112.515 94.5 110.5 92.4853 110.5 90V71C110.5 68.5147 112.515 66.5 115 66.5Z" fill="url(#paint2_linear_1_39)" stroke="white"/>
<path d="M328.23 152H278.199C277.388 152 276.59 151.803 275.872 151.425L243.207 134.249C242.297 133.77 241.556 133.023 241.086 132.108L194.274 40.9541C191.784 36.1047 197.749 31.3371 201.93 34.8348L331.438 143.165C335.021 146.162 332.902 152 328.23 152Z" fill="url(#paint3_linear_1_39)" fill-opacity="0.5"/>
<path d="M242.711 178H220.861C219.747 178 218.665 177.628 217.787 176.943L191.299 156.292C190.414 155.602 189.787 154.635 189.518 153.545L176.51 100.753L168.067 41.5263C167.275 35.9729 174.823 33.5266 177.439 38.4886L247.134 170.668C248.89 173.998 246.475 178 242.711 178Z" fill="url(#paint4_linear_1_39)" fill-opacity="0.3"/>
</g>
<path d="M126.031 77.6328H127.422V78.8203C127.755 78.4089 128.057 78.1094 128.328 77.9219C128.792 77.6042 129.318 77.4453 129.906 77.4453C130.573 77.4453 131.109 77.6094 131.516 77.9375C131.745 78.125 131.953 78.401 132.141 78.7656C132.453 78.3177 132.82 77.987 133.242 77.7734C133.664 77.5547 134.138 77.4453 134.664 77.4453C135.789 77.4453 136.555 77.8516 136.961 78.6641C137.18 79.1016 137.289 79.6901 137.289 80.4297V86H135.828V80.1875C135.828 79.6302 135.688 79.2474 135.406 79.0391C135.13 78.8307 134.792 78.7266 134.391 78.7266C133.839 78.7266 133.362 78.9115 132.961 79.2812C132.565 79.651 132.367 80.2682 132.367 81.1328V86H130.938V80.5391C130.938 79.9714 130.87 79.5573 130.734 79.2969C130.521 78.9062 130.122 78.7109 129.539 78.7109C129.008 78.7109 128.523 78.9167 128.086 79.3281C127.654 79.7396 127.438 80.4844 127.438 81.5625V86H126.031V77.6328ZM142.68 85.0938C143.612 85.0938 144.25 84.7422 144.594 84.0391C144.943 83.3307 145.117 82.5443 145.117 81.6797C145.117 80.8984 144.992 80.263 144.742 79.7734C144.346 79.0026 143.664 78.6172 142.695 78.6172C141.836 78.6172 141.211 78.9453 140.82 79.6016C140.43 80.2578 140.234 81.0495 140.234 81.9766C140.234 82.8672 140.43 83.6094 140.82 84.2031C141.211 84.7969 141.831 85.0938 142.68 85.0938ZM142.734 77.3906C143.812 77.3906 144.724 77.75 145.469 78.4688C146.214 79.1875 146.586 80.2448 146.586 81.6406C146.586 82.9896 146.258 84.1042 145.602 84.9844C144.945 85.8646 143.927 86.3047 142.547 86.3047C141.396 86.3047 140.482 85.9167 139.805 85.1406C139.128 84.3594 138.789 83.3125 138.789 82C138.789 80.5938 139.146 79.474 139.859 78.6406C140.573 77.8073 141.531 77.3906 142.734 77.3906ZM148.547 75.2969H149.969V77.6328H151.305V78.7812H149.969V84.2422C149.969 84.5339 150.068 84.7292 150.266 84.8281C150.375 84.8854 150.557 84.9141 150.812 84.9141C150.88 84.9141 150.953 84.9141 151.031 84.9141C151.109 84.9089 151.201 84.901 151.305 84.8906V86C151.143 86.0469 150.974 86.0807 150.797 86.1016C150.625 86.1224 150.438 86.1328 150.234 86.1328C149.578 86.1328 149.133 85.9661 148.898 85.6328C148.664 85.2943 148.547 84.8568 148.547 84.3203V78.7812H147.414V77.6328H148.547V75.2969ZM152.719 77.6719H154.148V86H152.719V77.6719ZM152.719 74.5234H154.148V76.1172H152.719V74.5234ZM159.602 85.0938C160.534 85.0938 161.172 84.7422 161.516 84.0391C161.865 83.3307 162.039 82.5443 162.039 81.6797C162.039 80.8984 161.914 80.263 161.664 79.7734C161.268 79.0026 160.586 78.6172 159.617 78.6172C158.758 78.6172 158.133 78.9453 157.742 79.6016C157.352 80.2578 157.156 81.0495 157.156 81.9766C157.156 82.8672 157.352 83.6094 157.742 84.2031C158.133 84.7969 158.753 85.0938 159.602 85.0938ZM159.656 77.3906C160.734 77.3906 161.646 77.75 162.391 78.4688C163.135 79.1875 163.508 80.2448 163.508 81.6406C163.508 82.9896 163.18 84.1042 162.523 84.9844C161.867 85.8646 160.849 86.3047 159.469 86.3047C158.318 86.3047 157.404 85.9167 156.727 85.1406C156.049 84.3594 155.711 83.3125 155.711 82C155.711 80.5938 156.068 79.474 156.781 78.6406C157.495 77.8073 158.453 77.3906 159.656 77.3906ZM165.188 77.6328H166.523V78.8203C166.919 78.3307 167.339 77.9792 167.781 77.7656C168.224 77.5521 168.716 77.4453 169.258 77.4453C170.445 77.4453 171.247 77.8594 171.664 78.6875C171.893 79.1406 172.008 79.7891 172.008 80.6328V86H170.578V80.7266C170.578 80.2161 170.503 79.8047 170.352 79.4922C170.102 78.9714 169.648 78.7109 168.992 78.7109C168.659 78.7109 168.385 78.7448 168.172 78.8125C167.786 78.9271 167.448 79.1562 167.156 79.5C166.922 79.776 166.768 80.0625 166.695 80.3594C166.628 80.651 166.594 81.0703 166.594 81.6172V86H165.188V77.6328ZM182.086 78.9844C182.581 78.6354 182.922 78.3516 183.109 78.1328C183.417 77.7786 183.57 77.3854 183.57 76.9531C183.57 76.6146 183.458 76.3229 183.234 76.0781C183.01 75.8333 182.708 75.7109 182.328 75.7109C181.75 75.7109 181.349 75.9036 181.125 76.2891C181.01 76.487 180.953 76.7031 180.953 76.9375C180.953 77.2552 181.039 77.5599 181.211 77.8516C181.388 78.1432 181.68 78.5208 182.086 78.9844ZM181.727 85.0312C182.305 85.0312 182.802 84.8984 183.219 84.6328C183.635 84.3672 183.956 84.0703 184.18 83.7422L181.586 80.5781C180.852 81.0677 180.372 81.4427 180.148 81.7031C179.805 82.0938 179.633 82.5703 179.633 83.1328C179.633 83.7422 179.854 84.2109 180.297 84.5391C180.745 84.8672 181.221 85.0312 181.727 85.0312ZM180.805 79.6172C180.32 79.0599 179.995 78.5911 179.828 78.2109C179.667 77.8307 179.586 77.4635 179.586 77.1094C179.586 76.3698 179.836 75.7578 180.336 75.2734C180.836 74.7839 181.505 74.5391 182.344 74.5391C183.141 74.5391 183.763 74.7656 184.211 75.2188C184.659 75.6719 184.883 76.2135 184.883 76.8438C184.883 77.5781 184.651 78.2214 184.188 78.7734C183.917 79.0964 183.464 79.4688 182.828 79.8906L184.922 82.3906C185.062 81.974 185.159 81.6641 185.211 81.4609C185.268 81.2526 185.326 80.9635 185.383 80.5938H186.719C186.63 81.3281 186.453 82.0339 186.188 82.7109C185.922 83.3828 185.789 83.6536 185.789 83.5234L187.828 86H186.016L184.938 84.6875C184.51 85.151 184.12 85.4896 183.766 85.7031C183.146 86.0781 182.432 86.2656 181.625 86.2656C180.432 86.2656 179.565 85.9453 179.023 85.3047C178.482 84.6589 178.211 83.9323 178.211 83.125C178.211 82.2552 178.474 81.5286 179 80.9453C179.323 80.5911 179.924 80.1484 180.805 79.6172ZM196.625 77.4844C197.281 77.4844 197.854 77.6458 198.344 77.9688C198.609 78.151 198.88 78.4167 199.156 78.7656V77.7109H200.453V85.3203C200.453 86.3828 200.297 87.2214 199.984 87.8359C199.401 88.9714 198.299 89.5391 196.68 89.5391C195.779 89.5391 195.021 89.3359 194.406 88.9297C193.792 88.5286 193.448 87.8984 193.375 87.0391H194.805C194.872 87.4141 195.008 87.7031 195.211 87.9062C195.529 88.2188 196.029 88.375 196.711 88.375C197.789 88.375 198.495 87.9948 198.828 87.2344C199.026 86.7865 199.117 85.987 199.102 84.8359C198.82 85.263 198.482 85.5807 198.086 85.7891C197.69 85.9974 197.167 86.1016 196.516 86.1016C195.609 86.1016 194.815 85.7812 194.133 85.1406C193.456 84.4948 193.117 83.4297 193.117 81.9453C193.117 80.5443 193.458 79.4505 194.141 78.6641C194.828 77.8776 195.656 77.4844 196.625 77.4844ZM199.156 81.7812C199.156 80.7448 198.943 79.9766 198.516 79.4766C198.089 78.9766 197.544 78.7266 196.883 78.7266C195.893 78.7266 195.216 79.1901 194.852 80.1172C194.659 80.612 194.562 81.2604 194.562 82.0625C194.562 83.0052 194.753 83.724 195.133 84.2188C195.518 84.7083 196.034 84.9531 196.68 84.9531C197.69 84.9531 198.401 84.4974 198.812 83.5859C199.042 83.0703 199.156 82.4688 199.156 81.7812ZM202.617 77.6328H203.953V79.0781C204.062 78.7969 204.331 78.4557 204.758 78.0547C205.185 77.6484 205.677 77.4453 206.234 77.4453C206.26 77.4453 206.305 77.4479 206.367 77.4531C206.43 77.4583 206.536 77.4688 206.688 77.4844V78.9688C206.604 78.9531 206.526 78.9427 206.453 78.9375C206.385 78.9323 206.31 78.9297 206.227 78.9297C205.518 78.9297 204.974 79.1589 204.594 79.6172C204.214 80.0703 204.023 80.5938 204.023 81.1875V86H202.617V77.6328ZM208.984 83.7734C208.984 84.1797 209.133 84.5 209.43 84.7344C209.727 84.9688 210.078 85.0859 210.484 85.0859C210.979 85.0859 211.458 84.9714 211.922 84.7422C212.703 84.362 213.094 83.7396 213.094 82.875V81.7422C212.922 81.8516 212.701 81.9427 212.43 82.0156C212.159 82.0885 211.893 82.1406 211.633 82.1719L210.781 82.2812C210.271 82.349 209.888 82.4557 209.633 82.6016C209.201 82.8464 208.984 83.237 208.984 83.7734ZM212.391 80.9297C212.714 80.888 212.93 80.7526 213.039 80.5234C213.102 80.3984 213.133 80.2188 213.133 79.9844C213.133 79.5052 212.961 79.1589 212.617 78.9453C212.279 78.7266 211.792 78.6172 211.156 78.6172C210.422 78.6172 209.901 78.8151 209.594 79.2109C209.422 79.4297 209.31 79.7552 209.258 80.1875H207.945C207.971 79.1562 208.305 78.4401 208.945 78.0391C209.591 77.6328 210.339 77.4297 211.188 77.4297C212.172 77.4297 212.971 77.6172 213.586 77.9922C214.195 78.3672 214.5 78.9505 214.5 79.7422V84.5625C214.5 84.7083 214.529 84.8255 214.586 84.9141C214.648 85.0026 214.776 85.0469 214.969 85.0469C215.031 85.0469 215.102 85.0443 215.18 85.0391C215.258 85.0286 215.341 85.0156 215.43 85V86.0391C215.211 86.1016 215.044 86.1406 214.93 86.1562C214.815 86.1719 214.659 86.1797 214.461 86.1797C213.977 86.1797 213.625 86.0078 213.406 85.6641C213.292 85.4818 213.211 85.224 213.164 84.8906C212.878 85.2656 212.466 85.5911 211.93 85.8672C211.393 86.1432 210.802 86.2812 210.156 86.2812C209.38 86.2812 208.745 86.0469 208.25 85.5781C207.76 85.1042 207.516 84.513 207.516 83.8047C207.516 83.0286 207.758 82.4271 208.242 82C208.727 81.5729 209.362 81.3099 210.148 81.2109L212.391 80.9297ZM220.344 85.0547C221 85.0547 221.544 84.7812 221.977 84.2344C222.414 83.6823 222.633 82.8594 222.633 81.7656C222.633 81.099 222.536 80.526 222.344 80.0469C221.979 79.125 221.312 78.6641 220.344 78.6641C219.37 78.6641 218.703 79.151 218.344 80.125C218.151 80.6458 218.055 81.3073 218.055 82.1094C218.055 82.7552 218.151 83.3047 218.344 83.7578C218.708 84.6224 219.375 85.0547 220.344 85.0547ZM216.703 77.6719H218.07V78.7812C218.352 78.401 218.659 78.1068 218.992 77.8984C219.466 77.5859 220.023 77.4297 220.664 77.4297C221.612 77.4297 222.417 77.7943 223.078 78.5234C223.74 79.2474 224.07 80.2839 224.07 81.6328C224.07 83.4557 223.594 84.7578 222.641 85.5391C222.036 86.0339 221.333 86.2812 220.531 86.2812C219.901 86.2812 219.372 86.1432 218.945 85.8672C218.695 85.7109 218.417 85.4427 218.109 85.0625V89.3359H216.703V77.6719ZM225.719 74.4844H227.125V78.7656C227.458 78.3438 227.758 78.0469 228.023 77.875C228.477 77.5781 229.042 77.4297 229.719 77.4297C230.932 77.4297 231.755 77.8542 232.188 78.7031C232.422 79.1667 232.539 79.8099 232.539 80.6328V86H231.094V80.7266C231.094 80.112 231.016 79.6615 230.859 79.375C230.604 78.9167 230.125 78.6875 229.422 78.6875C228.839 78.6875 228.31 78.888 227.836 79.2891C227.362 79.6901 227.125 80.4479 227.125 81.5625V86H225.719V74.4844ZM234.625 77.6719H236.055V86H234.625V77.6719ZM234.625 74.5234H236.055V76.1172H234.625V74.5234ZM241.414 77.3906C242.357 77.3906 243.122 77.6198 243.711 78.0781C244.305 78.5365 244.661 79.3255 244.781 80.4453H243.414C243.331 79.9297 243.141 79.5026 242.844 79.1641C242.547 78.8203 242.07 78.6484 241.414 78.6484C240.518 78.6484 239.878 79.0859 239.492 79.9609C239.242 80.5286 239.117 81.2292 239.117 82.0625C239.117 82.901 239.294 83.6068 239.648 84.1797C240.003 84.7526 240.56 85.0391 241.32 85.0391C241.904 85.0391 242.365 84.862 242.703 84.5078C243.047 84.1484 243.284 83.6589 243.414 83.0391H244.781C244.625 84.1484 244.234 84.9609 243.609 85.4766C242.984 85.987 242.185 86.2422 241.211 86.2422C240.117 86.2422 239.245 85.8438 238.594 85.0469C237.943 84.2448 237.617 83.2448 237.617 82.0469C237.617 80.5781 237.974 79.4349 238.688 78.6172C239.401 77.7995 240.31 77.3906 241.414 77.3906Z" fill="white"/>
</g>
<defs>
<filter id="filter0_d_1_39" x="11.0745" y="11.816" width="153.223" height="55.912" filterUnits="userSpaceOnUse" color-interpolation-filters="sRGB">
<feFlood flood-opacity="0" result="BackgroundImageFix"/>
<feColorMatrix in="SourceAlpha" type="matrix" values="0 0 0 0 0 0 0 0 0 0 0 0 0 0 0 0 0 0 127 0" result="hardAlpha"/>
<feOffset dy="4"/>
<feGaussianBlur stdDeviation="2"/>
<feComposite in2="hardAlpha" operator="out"/>
<feColorMatrix type="matrix" values="0 0 0 0 0 0 0 0 0 0 0 0 0 0 0 0 0 0 0.25 0"/>
<feBlend mode="normal" in2="BackgroundImageFix" result="effect1_dropShadow_1_39"/>
<feBlend mode="normal" in="SourceGraphic" in2="effect1_dropShadow_1_39" result="shape"/>
</filter>
<filter id="filter1_d_1_39" x="166.796" y="10.368" width="174.206" height="70.68" filterUnits="userSpaceOnUse" color-interpolation-filters="sRGB">
<feFlood flood-opacity="0" result="BackgroundImageFix"/>
<feColorMatrix in="SourceAlpha" type="matrix" values="0 0 0 0 0 0 0 0 0 0 0 0 0 0 0 0 0 0 127 0" result="hardAlpha"/>
<feOffset dy="4"/>
<feGaussianBlur stdDeviation="2"/>
<feComposite in2="hardAlpha" operator="out"/>
<feColorMatrix type="matrix" values="0 0 0 0 0 0 0 0 0 0 0 0 0 0 0 0 0 0 0.25 0"/>
<feBlend mode="normal" in2="BackgroundImageFix" result="effect1_dropShadow_1_39"/>
<feBlend mode="normal" in="SourceGraphic" in2="effect1_dropShadow_1_39" result="shape"/>
</filter>
<linearGradient id="paint0_linear_1_39" x1="65.3019" y1="14.07" x2="85.5531" y2="59.3016" gradientUnits="userSpaceOnUse">
<stop stop-color="#2CA6E9"/>
<stop offset="1" stop-color="#1C66C9"/>
</linearGradient>
<linearGradient id="paint1_linear_1_39" x1="216.849" y1="14.07" x2="233.91" y2="62.338" gradientUnits="userSpaceOnUse">
<stop stop-color="#2CA6E9"/>
<stop offset="1" stop-color="#1C66C9"/>
</linearGradient>
<linearGradient id="paint2_linear_1_39" x1="158.434" y1="72.09" x2="162.387" y2="94.9074" gradientUnits="userSpaceOnUse">
<stop stop-color="#2CA6E9"/>
<stop offset="1" stop-color="#1C66C9"/>
</linearGradient>
<linearGradient id="paint3_linear_1_39" x1="267.401" y1="21.5676" x2="267.401" y2="152" gradientUnits="userSpaceOnUse">
<stop stop-color="white" stop-opacity="0.26"/>
<stop offset="1" stop-color="white"/>
</linearGradient>
<linearGradient id="paint4_linear_1_39" x1="211.196" y1="17.3258" x2="211.196" y2="178" gradientUnits="userSpaceOnUse">
<stop stop-color="white" stop-opacity="0.26"/>
<stop offset="1" stop-color="white"/>
</linearGradient>
</defs>
</svg>
