<svg width="284" height="69" viewBox="0 0 284 69" fill="none" xmlns="http://www.w3.org/2000/svg">
<mask id="mask0_4_38" style="mask-type:alpha" maskUnits="userSpaceOnUse" x="0" y="0" width="284" height="69">
<rect width="284" height="69" fill="#D9D9D9"/>
</mask>
<g mask="url(#mask0_4_38)">
<g filter="url(#filter0_d_4_38)">
<mask id="path-2-outside-1_4_38" maskUnits="userSpaceOnUse" x="8.51352" y="4" width="272" height="70" fill="black">
<rect fill="white" x="8.51352" y="4" width="272" height="70"/>
<path d="M34.9635 34.302C34.9189 33.096 34.6955 32.0463 34.2935 31.153C33.9362 30.215 33.4449 29.4557 32.8195 28.875C32.1942 28.2497 31.4795 27.803 30.6755 27.535C29.8715 27.2223 29.0452 27.066 28.1965 27.066C26.4545 27.066 24.9359 27.7137 23.6405 29.009C22.3899 30.2597 21.6752 32.024 21.4965 34.302H34.9635ZM21.2285 39.796C21.3625 42.2973 22.0772 44.285 23.3725 45.759C24.7125 47.233 26.4545 47.97 28.5985 47.97C30.0279 47.97 31.2785 47.6573 32.3505 47.032C33.4672 46.362 34.1819 45.4463 34.4945 44.285H43.4725C42.4452 47.6797 40.6585 50.2927 38.1125 52.124C35.5665 53.9553 32.5292 54.871 29.0005 54.871C18.0125 54.871 12.5185 48.8857 12.5185 36.915C12.5185 34.369 12.8759 32.0687 13.5905 30.014C14.3052 27.9593 15.3325 26.195 16.6725 24.721C18.0572 23.247 19.7322 22.1303 21.6975 21.371C23.6629 20.567 25.9185 20.165 28.4645 20.165C33.5565 20.165 37.3979 21.7953 39.9885 25.056C42.6239 28.3167 43.9415 33.23 43.9415 39.796H21.2285ZM62.2802 54L56.5182 44.084L50.8902 54H40.4382L51.4932 37.183L40.7732 21.036H51.2922L56.8532 30.617L62.4812 21.036H72.5982L61.6772 37.183L72.9332 54H62.2802ZM90.7614 47.434C95.7641 47.434 98.2654 44.0393 98.2654 37.25C98.2654 34.302 97.5731 31.9123 96.1884 30.081C94.8038 28.205 93.0171 27.267 90.8284 27.267C88.7291 27.267 86.9648 28.138 85.5354 29.88C84.1508 31.622 83.4584 33.9 83.4584 36.714C83.4584 43.8607 85.8928 47.434 90.7614 47.434ZM75.2174 69.611V21.036H83.5924L83.6594 25.056C85.6694 21.7953 88.7291 20.165 92.8384 20.165C94.8931 20.165 96.7914 20.567 98.5334 21.371C100.32 22.175 101.839 23.3363 103.089 24.855C104.34 26.3737 105.323 28.2273 106.037 30.416C106.752 32.6047 107.109 35.0837 107.109 37.853C107.109 40.3543 106.797 42.6547 106.171 44.754C105.591 46.8087 104.72 48.5953 103.558 50.114C102.397 51.6327 100.968 52.8163 99.2704 53.665C97.6178 54.469 95.7194 54.871 93.5754 54.871C89.5108 54.871 86.2501 53.1513 83.7934 49.712V69.611H75.2174ZM110.288 54V21.036H118.462V24.989C119.176 23.8723 119.913 23.0013 120.673 22.376C121.477 21.7507 122.281 21.2817 123.085 20.969C123.933 20.6117 124.782 20.3883 125.631 20.299C126.479 20.2097 127.35 20.165 128.244 20.165H129.383V29.076C128.579 28.942 127.775 28.875 126.971 28.875C121.655 28.875 118.998 31.5327 118.998 36.848V54H110.288ZM132.015 54V21.036H140.725V54H132.015ZM132.015 17.083V8.976H140.725V17.083H132.015ZM166.412 34.302C166.367 33.096 166.144 32.0463 165.742 31.153C165.384 30.215 164.893 29.4557 164.268 28.875C163.642 28.2497 162.928 27.803 162.124 27.535C161.32 27.2223 160.493 27.066 159.645 27.066C157.903 27.066 156.384 27.7137 155.089 29.009C153.838 30.2597 153.123 32.024 152.945 34.302H166.412ZM152.677 39.796C152.811 42.2973 153.525 44.285 154.821 45.759C156.161 47.233 157.903 47.97 160.047 47.97C161.476 47.97 162.727 47.6573 163.799 47.032C164.915 46.362 165.63 45.4463 165.943 44.285H174.921C173.893 47.6797 172.107 50.2927 169.561 52.124C167.015 53.9553 163.977 54.871 160.449 54.871C149.461 54.871 143.967 48.8857 143.967 36.915C143.967 34.369 144.324 32.0687 145.039 30.014C145.753 27.9593 146.781 26.195 148.121 24.721C149.505 23.247 151.18 22.1303 153.146 21.371C155.111 20.567 157.367 20.165 159.913 20.165C165.005 20.165 168.846 21.7953 171.437 25.056C174.072 28.3167 175.39 33.23 175.39 39.796H152.677ZM199.505 54V34.034C199.505 31.488 199.081 29.7683 198.232 28.875C197.383 27.9817 195.932 27.535 193.877 27.535C189.366 27.535 187.11 30.0587 187.11 35.106V54H178.4V21.036H186.708V25.86C187.735 23.984 189.098 22.577 190.795 21.639C192.492 20.6563 194.681 20.165 197.361 20.165C198.924 20.165 200.376 20.4107 201.716 20.902C203.056 21.3487 204.195 22.041 205.133 22.979C206.116 23.917 206.875 25.0783 207.411 26.463C207.992 27.803 208.282 29.3663 208.282 31.153V54H199.505ZM241.777 42.074C241.554 43.9947 240.996 45.7367 240.102 47.3C239.254 48.8633 238.159 50.2033 236.819 51.32C235.479 52.4367 233.938 53.3077 232.196 53.933C230.499 54.5583 228.645 54.871 226.635 54.871C224.402 54.871 222.347 54.5137 220.471 53.799C218.64 53.0397 217.054 51.923 215.714 50.449C214.374 48.9303 213.325 47.0767 212.565 44.888C211.851 42.6547 211.493 40.064 211.493 37.116C211.493 34.168 211.851 31.622 212.565 29.478C213.325 27.334 214.374 25.592 215.714 24.252C217.054 22.8673 218.662 21.84 220.538 21.17C222.459 20.5 224.581 20.165 226.903 20.165C229.047 20.165 230.99 20.4553 232.732 21.036C234.519 21.6167 236.06 22.4653 237.355 23.582C238.695 24.6987 239.745 26.0387 240.504 27.602C241.264 29.1653 241.71 30.9073 241.844 32.828H233.067C232.844 31.1307 232.152 29.813 230.99 28.875C229.874 27.8923 228.489 27.401 226.836 27.401C225.898 27.401 225.027 27.5573 224.223 27.87C223.419 28.1827 222.705 28.7187 222.079 29.478C221.499 30.1927 221.03 31.1753 220.672 32.426C220.315 33.632 220.136 35.1283 220.136 36.915C220.136 40.533 220.784 43.213 222.079 44.955C223.375 46.697 224.871 47.568 226.568 47.568C228.266 47.568 229.717 47.099 230.923 46.161C232.129 45.223 232.822 43.8607 233 42.074H241.777ZM266.061 34.302C266.017 33.096 265.793 32.0463 265.391 31.153C265.034 30.215 264.543 29.4557 263.917 28.875C263.292 28.2497 262.577 27.803 261.773 27.535C260.969 27.2223 260.143 27.066 259.294 27.066C257.552 27.066 256.034 27.7137 254.738 29.009C253.488 30.2597 252.773 32.024 252.594 34.302H266.061ZM252.326 39.796C252.46 42.2973 253.175 44.285 254.47 45.759C255.81 47.233 257.552 47.97 259.696 47.97C261.126 47.97 262.376 47.6573 263.448 47.032C264.565 46.362 265.28 45.4463 265.592 44.285H274.57C273.543 47.6797 271.756 50.2927 269.21 52.124C266.664 53.9553 263.627 54.871 260.098 54.871C249.11 54.871 243.616 48.8857 243.616 36.915C243.616 34.369 243.974 32.0687 244.688 30.014C245.403 27.9593 246.43 26.195 247.77 24.721C249.155 23.247 250.83 22.1303 252.795 21.371C254.761 20.567 257.016 20.165 259.562 20.165C264.654 20.165 268.496 21.7953 271.086 25.056C273.722 28.3167 275.039 33.23 275.039 39.796H252.326Z"/>
</mask>
<path d="M34.9635 34.302C34.9189 33.096 34.6955 32.0463 34.2935 31.153C33.9362 30.215 33.4449 29.4557 32.8195 28.875C32.1942 28.2497 31.4795 27.803 30.6755 27.535C29.8715 27.2223 29.0452 27.066 28.1965 27.066C26.4545 27.066 24.9359 27.7137 23.6405 29.009C22.3899 30.2597 21.6752 32.024 21.4965 34.302H34.9635ZM21.2285 39.796C21.3625 42.2973 22.0772 44.285 23.3725 45.759C24.7125 47.233 26.4545 47.97 28.5985 47.97C30.0279 47.97 31.2785 47.6573 32.3505 47.032C33.4672 46.362 34.1819 45.4463 34.4945 44.285H43.4725C42.4452 47.6797 40.6585 50.2927 38.1125 52.124C35.5665 53.9553 32.5292 54.871 29.0005 54.871C18.0125 54.871 12.5185 48.8857 12.5185 36.915C12.5185 34.369 12.8759 32.0687 13.5905 30.014C14.3052 27.9593 15.3325 26.195 16.6725 24.721C18.0572 23.247 19.7322 22.1303 21.6975 21.371C23.6629 20.567 25.9185 20.165 28.4645 20.165C33.5565 20.165 37.3979 21.7953 39.9885 25.056C42.6239 28.3167 43.9415 33.23 43.9415 39.796H21.2285ZM62.2802 54L56.5182 44.084L50.8902 54H40.4382L51.4932 37.183L40.7732 21.036H51.2922L56.8532 30.617L62.4812 21.036H72.5982L61.6772 37.183L72.9332 54H62.2802ZM90.7614 47.434C95.7641 47.434 98.2654 44.0393 98.2654 37.25C98.2654 34.302 97.5731 31.9123 96.1884 30.081C94.8038 28.205 93.0171 27.267 90.8284 27.267C88.7291 27.267 86.9648 28.138 85.5354 29.88C84.1508 31.622 83.4584 33.9 83.4584 36.714C83.4584 43.8607 85.8928 47.434 90.7614 47.434ZM75.2174 69.611V21.036H83.5924L83.6594 25.056C85.6694 21.7953 88.7291 20.165 92.8384 20.165C94.8931 20.165 96.7914 20.567 98.5334 21.371C100.32 22.175 101.839 23.3363 103.089 24.855C104.34 26.3737 105.323 28.2273 106.037 30.416C106.752 32.6047 107.109 35.0837 107.109 37.853C107.109 40.3543 106.797 42.6547 106.171 44.754C105.591 46.8087 104.72 48.5953 103.558 50.114C102.397 51.6327 100.968 52.8163 99.2704 53.665C97.6178 54.469 95.7194 54.871 93.5754 54.871C89.5108 54.871 86.2501 53.1513 83.7934 49.712V69.611H75.2174ZM110.288 54V21.036H118.462V24.989C119.176 23.8723 119.913 23.0013 120.673 22.376C121.477 21.7507 122.281 21.2817 123.085 20.969C123.933 20.6117 124.782 20.3883 125.631 20.299C126.479 20.2097 127.35 20.165 128.244 20.165H129.383V29.076C128.579 28.942 127.775 28.875 126.971 28.875C121.655 28.875 118.998 31.5327 118.998 36.848V54H110.288ZM132.015 54V21.036H140.725V54H132.015ZM132.015 17.083V8.976H140.725V17.083H132.015ZM166.412 34.302C166.367 33.096 166.144 32.0463 165.742 31.153C165.384 30.215 164.893 29.4557 164.268 28.875C163.642 28.2497 162.928 27.803 162.124 27.535C161.32 27.2223 160.493 27.066 159.645 27.066C157.903 27.066 156.384 27.7137 155.089 29.009C153.838 30.2597 153.123 32.024 152.945 34.302H166.412ZM152.677 39.796C152.811 42.2973 153.525 44.285 154.821 45.759C156.161 47.233 157.903 47.97 160.047 47.97C161.476 47.97 162.727 47.6573 163.799 47.032C164.915 46.362 165.63 45.4463 165.943 44.285H174.921C173.893 47.6797 172.107 50.2927 169.561 52.124C167.015 53.9553 163.977 54.871 160.449 54.871C149.461 54.871 143.967 48.8857 143.967 36.915C143.967 34.369 144.324 32.0687 145.039 30.014C145.753 27.9593 146.781 26.195 148.121 24.721C149.505 23.247 151.18 22.1303 153.146 21.371C155.111 20.567 157.367 20.165 159.913 20.165C165.005 20.165 168.846 21.7953 171.437 25.056C174.072 28.3167 175.39 33.23 175.39 39.796H152.677ZM199.505 54V34.034C199.505 31.488 199.081 29.7683 198.232 28.875C197.383 27.9817 195.932 27.535 193.877 27.535C189.366 27.535 187.11 30.0587 187.11 35.106V54H178.4V21.036H186.708V25.86C187.735 23.984 189.098 22.577 190.795 21.639C192.492 20.6563 194.681 20.165 197.361 20.165C198.924 20.165 200.376 20.4107 201.716 20.902C203.056 21.3487 204.195 22.041 205.133 22.979C206.116 23.917 206.875 25.0783 207.411 26.463C207.992 27.803 208.282 29.3663 208.282 31.153V54H199.505ZM241.777 42.074C241.554 43.9947 240.996 45.7367 240.102 47.3C239.254 48.8633 238.159 50.2033 236.819 51.32C235.479 52.4367 233.938 53.3077 232.196 53.933C230.499 54.5583 228.645 54.871 226.635 54.871C224.402 54.871 222.347 54.5137 220.471 53.799C218.64 53.0397 217.054 51.923 215.714 50.449C214.374 48.9303 213.325 47.0767 212.565 44.888C211.851 42.6547 211.493 40.064 211.493 37.116C211.493 34.168 211.851 31.622 212.565 29.478C213.325 27.334 214.374 25.592 215.714 24.252C217.054 22.8673 218.662 21.84 220.538 21.17C222.459 20.5 224.581 20.165 226.903 20.165C229.047 20.165 230.99 20.4553 232.732 21.036C234.519 21.6167 236.06 22.4653 237.355 23.582C238.695 24.6987 239.745 26.0387 240.504 27.602C241.264 29.1653 241.71 30.9073 241.844 32.828H233.067C232.844 31.1307 232.152 29.813 230.99 28.875C229.874 27.8923 228.489 27.401 226.836 27.401C225.898 27.401 225.027 27.5573 224.223 27.87C223.419 28.1827 222.705 28.7187 222.079 29.478C221.499 30.1927 221.03 31.1753 220.672 32.426C220.315 33.632 220.136 35.1283 220.136 36.915C220.136 40.533 220.784 43.213 222.079 44.955C223.375 46.697 224.871 47.568 226.568 47.568C228.266 47.568 229.717 47.099 230.923 46.161C232.129 45.223 232.822 43.8607 233 42.074H241.777ZM266.061 34.302C266.017 33.096 265.793 32.0463 265.391 31.153C265.034 30.215 264.543 29.4557 263.917 28.875C263.292 28.2497 262.577 27.803 261.773 27.535C260.969 27.2223 260.143 27.066 259.294 27.066C257.552 27.066 256.034 27.7137 254.738 29.009C253.488 30.2597 252.773 32.024 252.594 34.302H266.061ZM252.326 39.796C252.46 42.2973 253.175 44.285 254.47 45.759C255.81 47.233 257.552 47.97 259.696 47.97C261.126 47.97 262.376 47.6573 263.448 47.032C264.565 46.362 265.28 45.4463 265.592 44.285H274.57C273.543 47.6797 271.756 50.2927 269.21 52.124C266.664 53.9553 263.627 54.871 260.098 54.871C249.11 54.871 243.616 48.8857 243.616 36.915C243.616 34.369 243.974 32.0687 244.688 30.014C245.403 27.9593 246.43 26.195 247.77 24.721C249.155 23.247 250.83 22.1303 252.795 21.371C254.761 20.567 257.016 20.165 259.562 20.165C264.654 20.165 268.496 21.7953 271.086 25.056C273.722 28.3167 275.039 33.23 275.039 39.796H252.326Z" fill="white"/>
<path d="M34.9635 34.302V38.302H39.1144L38.9608 34.154L34.9635 34.302ZM34.2935 31.153L30.5556 32.577L30.5975 32.687L30.6458 32.7945L34.2935 31.153ZM32.8195 28.875L29.9911 31.7034L30.0435 31.7558L30.0977 31.8062L32.8195 28.875ZM30.6755 27.535L29.2257 31.263L29.3174 31.2986L29.4106 31.3297L30.6755 27.535ZM23.6405 29.009L20.8121 26.1806L20.8121 26.1806L23.6405 29.009ZM21.4965 34.302L17.5088 33.9892L17.1705 38.302H21.4965V34.302ZM21.2285 39.796V35.796H17.0085L17.2342 40.01L21.2285 39.796ZM23.3725 45.759L20.3679 48.3995L20.3901 48.4248L20.4128 48.4497L23.3725 45.759ZM32.3505 47.032L34.366 50.4871L34.3873 50.4747L34.4085 50.462L32.3505 47.032ZM34.4945 44.285V40.285H31.429L30.6321 43.2451L34.4945 44.285ZM43.4725 44.285L47.301 45.4436L48.8622 40.285H43.4725V44.285ZM38.1125 52.124L40.4482 55.3712L40.4482 55.3712L38.1125 52.124ZM16.6725 24.721L13.7571 21.9823L13.7347 22.0061L13.7128 22.0303L16.6725 24.721ZM21.6975 21.371L23.1391 25.1022L23.1757 25.088L23.212 25.0732L21.6975 21.371ZM39.9885 25.056L36.8567 27.5443L36.8671 27.5574L36.8776 27.5703L39.9885 25.056ZM43.9415 39.796V43.796H47.9415V39.796H43.9415ZM34.9635 34.302L38.9608 34.154C38.9013 32.5482 38.5979 30.9708 37.9412 29.5115L34.2935 31.153L30.6458 32.7945C30.7932 33.1218 30.9364 33.6438 30.9663 34.45L34.9635 34.302ZM34.2935 31.153L38.0315 29.729C37.4939 28.3179 36.6893 27.0098 35.5413 25.9438L32.8195 28.875L30.0977 31.8062C30.2004 31.9015 30.3785 32.1121 30.5556 32.577L34.2935 31.153ZM32.8195 28.875L35.6479 26.0466C34.6032 25.0018 33.3594 24.2133 31.9404 23.7403L30.6755 27.535L29.4106 31.3297C29.5997 31.3927 29.7852 31.4975 29.9911 31.7034L32.8195 28.875ZM30.6755 27.535L32.1253 23.807C30.8669 23.3176 29.5494 23.066 28.1965 23.066V27.066V31.066C28.541 31.066 28.8762 31.1271 29.2257 31.263L30.6755 27.535ZM28.1965 27.066V23.066C25.3343 23.066 22.8145 24.1781 20.8121 26.1806L23.6405 29.009L26.4689 31.8374C27.0572 31.2492 27.5748 31.066 28.1965 31.066V27.066ZM23.6405 29.009L20.8121 26.1806C18.711 28.2817 17.7397 31.0444 17.5088 33.9892L21.4965 34.302L25.4843 34.6148C25.6106 33.0036 26.0687 32.2376 26.4689 31.8374L23.6405 29.009ZM21.4965 34.302V38.302H34.9635V34.302V30.302H21.4965V34.302ZM21.2285 39.796L17.2342 40.01C17.4028 43.1567 18.3323 46.0831 20.3679 48.3995L23.3725 45.759L26.3772 43.1185C25.8221 42.4869 25.3222 41.4379 25.2228 39.582L21.2285 39.796ZM23.3725 45.759L20.4128 48.4497C22.5734 50.8264 25.424 51.97 28.5985 51.97V47.97V43.97C27.485 43.97 26.8516 43.6396 26.3323 43.0683L23.3725 45.759ZM28.5985 47.97V51.97C30.6271 51.97 32.5945 51.5205 34.366 50.4871L32.3505 47.032L30.335 43.5769C29.9625 43.7942 29.4286 43.97 28.5985 43.97V47.97ZM32.3505 47.032L34.4085 50.462C36.3328 49.3074 37.7515 47.5739 38.357 45.3249L34.4945 44.285L30.6321 43.2451C30.6097 43.3281 30.5874 43.3604 30.5708 43.3817C30.5503 43.4079 30.4801 43.4895 30.2925 43.602L32.3505 47.032ZM34.4945 44.285V48.285H43.4725V44.285V40.285H34.4945V44.285ZM43.4725 44.285L39.644 43.1264C38.8363 45.7953 37.517 47.625 35.7768 48.8768L38.1125 52.124L40.4482 55.3712C43.8 52.9603 46.0541 49.564 47.301 45.4436L43.4725 44.285ZM38.1125 52.124L35.7768 48.8768C33.995 50.1584 31.8004 50.871 29.0005 50.871V54.871V58.871C33.258 58.871 37.138 57.7523 40.4482 55.3712L38.1125 52.124ZM29.0005 54.871V50.871C24.2154 50.871 21.3358 49.5836 19.5858 47.6771C17.7763 45.7058 16.5185 42.3646 16.5185 36.915H12.5185H8.51852C8.51852 43.436 10.0077 49.0729 13.6922 53.0869C17.4363 57.1658 22.7976 58.871 29.0005 58.871V54.871ZM12.5185 36.915H16.5185C16.5185 34.7418 16.8234 32.8951 17.3685 31.3281L13.5905 30.014L9.81253 28.6999C8.92826 31.2422 8.51852 33.9962 8.51852 36.915H12.5185ZM13.5905 30.014L17.3685 31.3281C17.9224 29.7355 18.6872 28.4513 19.6323 27.4117L16.6725 24.721L13.7128 22.0303C11.9778 23.9387 10.6879 26.1831 9.81253 28.6999L13.5905 30.014ZM16.6725 24.721L19.5879 27.4597C20.5446 26.4412 21.7092 25.6547 23.1391 25.1022L21.6975 21.371L20.2559 17.6398C17.7552 18.606 15.5697 20.0528 13.7571 21.9823L16.6725 24.721ZM21.6975 21.371L23.212 25.0732C24.6112 24.5008 26.3368 24.165 28.4645 24.165V20.165V16.165C25.5002 16.165 22.7145 16.6332 20.183 17.6688L21.6975 21.371ZM28.4645 20.165V24.165C32.6371 24.165 35.1939 25.4515 36.8567 27.5443L39.9885 25.056L43.1203 22.5677C39.6018 18.1392 34.476 16.165 28.4645 16.165V20.165ZM39.9885 25.056L36.8776 27.5703C38.6916 29.8148 39.9415 33.6567 39.9415 39.796H43.9415H47.9415C47.9415 32.8033 46.5561 26.8185 43.0995 22.5417L39.9885 25.056ZM43.9415 39.796V35.796H21.2285V39.796V43.796H43.9415V39.796ZM62.2802 54L58.8217 56.0097L59.9782 58H62.2802V54ZM56.5182 44.084L59.9767 42.0743L56.4773 36.0523L53.0394 42.1096L56.5182 44.084ZM50.8902 54V58H53.2192L54.3689 55.9744L50.8902 54ZM40.4382 54L37.0957 51.8028L33.0218 58H40.4382V54ZM51.4932 37.183L54.8356 39.3802L56.2872 37.1721L54.8256 34.9706L51.4932 37.183ZM40.7732 21.036V17.036H33.3163L37.4407 23.2484L40.7732 21.036ZM51.2922 21.036L54.7516 19.028L53.5954 17.036H51.2922V21.036ZM56.8532 30.617L53.3937 32.625L56.8325 38.5497L60.3021 32.643L56.8532 30.617ZM62.4812 21.036V17.036H60.1917L59.0322 19.01L62.4812 21.036ZM72.5982 21.036L75.9115 23.277L80.1325 17.036H72.5982V21.036ZM61.6772 37.183L58.3638 34.942L56.856 37.1713L58.353 39.4079L61.6772 37.183ZM72.9332 54V58H80.4237L76.2573 51.7751L72.9332 54ZM62.2802 54L65.7387 51.9903L59.9767 42.0743L56.5182 44.084L53.0597 46.0937L58.8217 56.0097L62.2802 54ZM56.5182 44.084L53.0394 42.1096L47.4114 52.0256L50.8902 54L54.3689 55.9744L59.9969 46.0584L56.5182 44.084ZM50.8902 54V50H40.4382V54V58H50.8902V54ZM40.4382 54L43.7806 56.1972L54.8356 39.3802L51.4932 37.183L48.1507 34.9858L37.0957 51.8028L40.4382 54ZM51.4932 37.183L54.8256 34.9706L44.1056 18.8236L40.7732 21.036L37.4407 23.2484L48.1607 39.3954L51.4932 37.183ZM40.7732 21.036V25.036H51.2922V21.036V17.036H40.7732V21.036ZM51.2922 21.036L47.8327 23.044L53.3937 32.625L56.8532 30.617L60.3126 28.609L54.7516 19.028L51.2922 21.036ZM56.8532 30.617L60.3021 32.643L65.9301 23.062L62.4812 21.036L59.0322 19.01L53.4042 28.591L56.8532 30.617ZM62.4812 21.036V25.036H72.5982V21.036V17.036H62.4812V21.036ZM72.5982 21.036L69.2848 18.795L58.3638 34.942L61.6772 37.183L64.9905 39.424L75.9115 23.277L72.5982 21.036ZM61.6772 37.183L58.353 39.4079L69.609 56.2249L72.9332 54L76.2573 51.7751L65.0013 34.9581L61.6772 37.183ZM72.9332 54V50H62.2802V54V58H72.9332V54ZM96.1884 30.081L92.9701 32.4564L92.9839 32.475L92.9978 32.4934L96.1884 30.081ZM85.5354 29.88L82.4431 27.3427L82.4235 27.3667L82.4041 27.391L85.5354 29.88ZM75.2174 69.611H71.2174V73.611H75.2174V69.611ZM75.2174 21.036V17.036H71.2174V21.036H75.2174ZM83.5924 21.036L87.5919 20.9693L87.5263 17.036H83.5924V21.036ZM83.6594 25.056L79.66 25.1227L79.8879 38.797L87.0645 27.155L83.6594 25.056ZM98.5334 21.371L96.8572 25.0028L96.8746 25.0108L96.892 25.0187L98.5334 21.371ZM103.089 24.855L106.177 22.3122L106.177 22.3122L103.089 24.855ZM106.037 30.416L109.84 29.1744L109.84 29.1744L106.037 30.416ZM106.171 44.754L102.338 43.6121L102.33 43.6391L102.322 43.6662L106.171 44.754ZM103.558 50.114L106.736 52.5438L106.736 52.5438L103.558 50.114ZM99.2704 53.665L101.02 57.2619L101.04 57.2524L101.059 57.2427L99.2704 53.665ZM83.7934 49.712L87.0484 47.387L79.7934 37.2301V49.712H83.7934ZM83.7934 69.611V73.611H87.7934V69.611H83.7934ZM90.7614 47.434V51.434C94.2656 51.434 97.459 50.1796 99.6097 47.2608C101.592 44.5703 102.265 41.0184 102.265 37.25H98.2654H94.2654C94.2654 40.2709 93.6881 41.8111 93.1692 42.5152C92.8185 42.9911 92.2599 43.434 90.7614 43.434V47.434ZM98.2654 37.25H102.265C102.265 33.6803 101.422 30.3699 99.3791 27.6686L96.1884 30.081L92.9978 32.4934C93.7246 33.4547 94.2654 34.9237 94.2654 37.25H98.2654ZM96.1884 30.081L99.4067 27.7056C97.3255 24.8859 94.3808 23.267 90.8284 23.267V27.267V31.267C91.6534 31.267 92.282 31.5241 92.9701 32.4564L96.1884 30.081ZM90.8284 27.267V23.267C87.4343 23.267 84.5685 24.7524 82.4431 27.3427L85.5354 29.88L88.6277 32.4173C89.361 31.5236 90.0239 31.267 90.8284 31.267V27.267ZM85.5354 29.88L82.4041 27.391C80.3221 30.0103 79.4584 33.2396 79.4584 36.714H83.4584H87.4584C87.4584 34.5604 87.9794 33.2337 88.6667 32.369L85.5354 29.88ZM83.4584 36.714H79.4584C79.4584 40.6166 80.1004 44.2494 81.9784 47.0061C84.0438 50.0379 87.1985 51.434 90.7614 51.434V47.434V43.434C89.4557 43.434 88.9589 43.0435 88.59 42.5019C88.0336 41.6852 87.4584 39.958 87.4584 36.714H83.4584ZM75.2174 69.611H79.2174V21.036H75.2174H71.2174V69.611H75.2174ZM75.2174 21.036V25.036H83.5924V21.036V17.036H75.2174V21.036ZM83.5924 21.036L79.593 21.1027L79.66 25.1227L83.6594 25.056L87.6589 24.9893L87.5919 20.9693L83.5924 21.036ZM83.6594 25.056L87.0645 27.155C88.2844 25.176 89.9952 24.165 92.8384 24.165V20.165V16.165C87.463 16.165 83.0545 18.4147 80.2544 22.957L83.6594 25.056ZM92.8384 20.165V24.165C94.3561 24.165 95.6774 24.4583 96.8572 25.0028L98.5334 21.371L100.21 17.7392C97.9055 16.6757 95.4301 16.165 92.8384 16.165V20.165ZM98.5334 21.371L96.892 25.0187C98.1157 25.5693 99.1401 26.3516 100.002 27.3978L103.089 24.855L106.177 22.3122C104.537 20.321 102.525 18.7807 100.175 17.7233L98.5334 21.371ZM103.089 24.855L100.002 27.3978C100.886 28.4715 101.649 29.864 102.235 31.6576L106.037 30.416L109.84 29.1744C108.996 26.5906 107.794 24.2758 106.177 22.3122L103.089 24.855ZM106.037 30.416L102.235 31.6576C102.795 33.3737 103.109 35.4226 103.109 37.853H107.109H111.109C111.109 34.7447 110.709 31.8357 109.84 29.1744L106.037 30.416ZM107.109 37.853H103.109C103.109 40.0214 102.838 41.9316 102.338 43.6121L106.171 44.754L110.005 45.8959C110.755 43.3778 111.109 40.6872 111.109 37.853H107.109ZM106.171 44.754L102.322 43.6662C101.863 45.2917 101.202 46.6107 100.381 47.6842L103.558 50.114L106.736 52.5438C108.238 50.58 109.319 48.3256 110.021 45.8418L106.171 44.754ZM103.558 50.114L100.381 47.6842C99.5864 48.7234 98.6306 49.5128 97.4816 50.0873L99.2704 53.665L101.059 57.2427C103.305 56.1199 105.208 54.542 106.736 52.5438L103.558 50.114ZM99.2704 53.665L97.5206 50.0681C96.4969 50.5661 95.2138 50.871 93.5754 50.871V54.871V58.871C96.2251 58.871 98.7386 58.3719 101.02 57.2619L99.2704 53.665ZM93.5754 54.871V50.871C90.8623 50.871 88.7896 49.8247 87.0484 47.387L83.7934 49.712L80.5385 52.037C83.7106 56.4779 88.1593 58.871 93.5754 58.871V54.871ZM83.7934 49.712H79.7934V69.611H83.7934H87.7934V49.712H83.7934ZM83.7934 69.611V65.611H75.2174V69.611V73.611H83.7934V69.611ZM110.288 54H106.288V58H110.288V54ZM110.288 21.036V17.036H106.288V21.036H110.288ZM118.462 21.036H122.462V17.036H118.462V21.036ZM118.462 24.989H114.462V38.6594L121.831 27.1452L118.462 24.989ZM120.673 22.376L118.217 19.2186L118.173 19.2528L118.13 19.2883L120.673 22.376ZM123.085 20.969L124.535 24.697L124.586 24.677L124.637 24.6555L123.085 20.969ZM125.631 20.299L126.049 24.277L126.049 24.277L125.631 20.299ZM129.383 20.165H133.383V16.165H129.383V20.165ZM129.383 29.076L128.725 33.0216L133.383 33.7978V29.076H129.383ZM118.998 54V58H122.998V54H118.998ZM110.288 54H114.288V21.036H110.288H106.288V54H110.288ZM110.288 21.036V25.036H118.462V21.036V17.036H110.288V21.036ZM118.462 21.036H114.462V24.989H118.462H122.462V21.036H118.462ZM118.462 24.989L121.831 27.1452C122.393 26.2663 122.869 25.7494 123.216 25.4637L120.673 22.376L118.13 19.2883C116.958 20.2532 115.959 21.4784 115.093 22.8328L118.462 24.989ZM120.673 22.376L123.129 25.5334C123.68 25.1043 124.15 24.8465 124.535 24.697L123.085 20.969L121.635 17.241C120.411 17.7168 119.273 18.397 118.217 19.2186L120.673 22.376ZM123.085 20.969L124.637 24.6555C125.153 24.4384 125.62 24.3222 126.049 24.277L125.631 20.299L125.212 16.321C123.944 16.4545 122.714 16.7849 121.533 17.2825L123.085 20.969ZM125.631 20.299L126.049 24.277C126.753 24.203 127.484 24.165 128.244 24.165V20.165V16.165C127.217 16.165 126.206 16.2163 125.212 16.321L125.631 20.299ZM128.244 20.165V24.165H129.383V20.165V16.165H128.244V20.165ZM129.383 20.165H125.383V29.076H129.383H133.383V20.165H129.383ZM129.383 29.076L130.04 25.1304C129.022 24.9607 127.998 24.875 126.971 24.875V28.875V32.875C127.551 32.875 128.135 32.9233 128.725 33.0216L129.383 29.076ZM126.971 28.875V24.875C123.697 24.875 120.506 25.6963 118.163 28.0398C115.819 30.3834 114.998 33.5738 114.998 36.848H118.998H122.998C122.998 34.8069 123.505 34.0108 123.819 33.6967C124.134 33.3826 124.93 32.875 126.971 32.875V28.875ZM118.998 36.848H114.998V54H118.998H122.998V36.848H118.998ZM118.998 54V50H110.288V54V58H118.998V54ZM132.015 54H128.015V58H132.015V54ZM132.015 21.036V17.036H128.015V21.036H132.015ZM140.725 21.036H144.725V17.036H140.725V21.036ZM140.725 54V58H144.725V54H140.725ZM132.015 17.083H128.015V21.083H132.015V17.083ZM132.015 8.976V4.976H128.015V8.976H132.015ZM140.725 8.976H144.725V4.976H140.725V8.976ZM140.725 17.083V21.083H144.725V17.083H140.725ZM132.015 54H136.015V21.036H132.015H128.015V54H132.015ZM132.015 21.036V25.036H140.725V21.036V17.036H132.015V21.036ZM140.725 21.036H136.725V54H140.725H144.725V21.036H140.725ZM140.725 54V50H132.015V54V58H140.725V54ZM132.015 17.083H136.015V8.976H132.015H128.015V17.083H132.015ZM132.015 8.976V12.976H140.725V8.976V4.976H132.015V8.976ZM140.725 8.976H136.725V17.083H140.725H144.725V8.976H140.725ZM140.725 17.083V13.083H132.015V17.083V21.083H140.725V17.083ZM166.412 34.302V38.302H170.563L170.409 34.154L166.412 34.302ZM165.742 31.153L162.004 32.577L162.046 32.687L162.094 32.7945L165.742 31.153ZM164.268 28.875L161.439 31.7034L161.492 31.7558L161.546 31.8062L164.268 28.875ZM162.124 27.535L160.674 31.263L160.766 31.2986L160.859 31.3297L162.124 27.535ZM155.089 29.009L152.26 26.1806L152.26 26.1806L155.089 29.009ZM152.945 34.302L148.957 33.9892L148.619 38.302H152.945V34.302ZM152.677 39.796V35.796H148.457L148.682 40.01L152.677 39.796ZM154.821 45.759L151.816 48.3995L151.838 48.4248L151.861 48.4497L154.821 45.759ZM163.799 47.032L165.814 50.4871L165.836 50.4747L165.857 50.462L163.799 47.032ZM165.943 44.285V40.285H162.877L162.08 43.2451L165.943 44.285ZM174.921 44.285L178.749 45.4436L180.31 40.285H174.921V44.285ZM169.561 52.124L171.896 55.3712L171.896 55.3712L169.561 52.124ZM148.121 24.721L145.205 21.9823L145.183 22.0061L145.161 22.0303L148.121 24.721ZM153.146 21.371L154.587 25.1022L154.624 25.088L154.66 25.0732L153.146 21.371ZM171.437 25.056L168.305 27.5443L168.315 27.5574L168.326 27.5703L171.437 25.056ZM175.39 39.796V43.796H179.39V39.796H175.39ZM166.412 34.302L170.409 34.154C170.35 32.5482 170.046 30.9708 169.389 29.5115L165.742 31.153L162.094 32.7945C162.241 33.1218 162.385 33.6438 162.415 34.45L166.412 34.302ZM165.742 31.153L169.48 29.729C168.942 28.3179 168.138 27.0098 166.99 25.9438L164.268 28.875L161.546 31.8062C161.649 31.9015 161.827 32.1121 162.004 32.577L165.742 31.153ZM164.268 28.875L167.096 26.0466C166.051 25.0018 164.808 24.2133 163.389 23.7403L162.124 27.535L160.859 31.3297C161.048 31.3927 161.233 31.4975 161.439 31.7034L164.268 28.875ZM162.124 27.535L163.574 23.807C162.315 23.3176 160.998 23.066 159.645 23.066V27.066V31.066C159.989 31.066 160.324 31.1271 160.674 31.263L162.124 27.535ZM159.645 27.066V23.066C156.783 23.066 154.263 24.1781 152.26 26.1806L155.089 29.009L157.917 31.8374C158.505 31.2492 159.023 31.066 159.645 31.066V27.066ZM155.089 29.009L152.26 26.1806C150.159 28.2817 149.188 31.0444 148.957 33.9892L152.945 34.302L156.933 34.6148C157.059 33.0036 157.517 32.2376 157.917 31.8374L155.089 29.009ZM152.945 34.302V38.302H166.412V34.302V30.302H152.945V34.302ZM152.677 39.796L148.682 40.01C148.851 43.1567 149.781 46.0831 151.816 48.3995L154.821 45.759L157.825 43.1185C157.27 42.4869 156.77 41.4379 156.671 39.582L152.677 39.796ZM154.821 45.759L151.861 48.4497C154.022 50.8264 156.872 51.97 160.047 51.97V47.97V43.97C158.933 43.97 158.3 43.6396 157.781 43.0683L154.821 45.759ZM160.047 47.97V51.97C162.075 51.97 164.043 51.5205 165.814 50.4871L163.799 47.032L161.783 43.5769C161.411 43.7942 160.877 43.97 160.047 43.97V47.97ZM163.799 47.032L165.857 50.462C167.781 49.3074 169.2 47.5739 169.805 45.3249L165.943 44.285L162.08 43.2451C162.058 43.3281 162.036 43.3604 162.019 43.3817C161.999 43.4079 161.928 43.4895 161.741 43.602L163.799 47.032ZM165.943 44.285V48.285H174.921V44.285V40.285H165.943V44.285ZM174.921 44.285L171.092 43.1264C170.285 45.7953 168.965 47.625 167.225 48.8768L169.561 52.124L171.896 55.3712C175.248 52.9603 177.502 49.564 178.749 45.4436L174.921 44.285ZM169.561 52.124L167.225 48.8768C165.443 50.1584 163.249 50.871 160.449 50.871V54.871V58.871C164.706 58.871 168.586 57.7523 171.896 55.3712L169.561 52.124ZM160.449 54.871V50.871C155.664 50.871 152.784 49.5836 151.034 47.6771C149.225 45.7058 147.967 42.3646 147.967 36.915H143.967H139.967C139.967 43.436 141.456 49.0729 145.14 53.0869C148.885 57.1658 154.246 58.871 160.449 58.871V54.871ZM143.967 36.915H147.967C147.967 34.7418 148.272 32.8951 148.817 31.3281L145.039 30.014L141.261 28.6999C140.377 31.2422 139.967 33.9962 139.967 36.915H143.967ZM145.039 30.014L148.817 31.3281C149.371 29.7355 150.135 28.4513 151.081 27.4117L148.121 24.721L145.161 22.0303C143.426 23.9387 142.136 26.1831 141.261 28.6999L145.039 30.014ZM148.121 24.721L151.036 27.4597C151.993 26.4412 153.157 25.6547 154.587 25.1022L153.146 21.371L151.704 17.6398C149.203 18.606 147.018 20.0528 145.205 21.9823L148.121 24.721ZM153.146 21.371L154.66 25.0732C156.059 24.5008 157.785 24.165 159.913 24.165V20.165V16.165C156.948 16.165 154.163 16.6332 151.631 17.6688L153.146 21.371ZM159.913 20.165V24.165C164.085 24.165 166.642 25.4515 168.305 27.5443L171.437 25.056L174.569 22.5677C171.05 18.1392 165.924 16.165 159.913 16.165V20.165ZM171.437 25.056L168.326 27.5703C170.14 29.8148 171.39 33.6567 171.39 39.796H175.39H179.39C179.39 32.8033 178.004 26.8185 174.548 22.5417L171.437 25.056ZM175.39 39.796V35.796H152.677V39.796V43.796H175.39V39.796ZM199.505 54H195.505V58H199.505V54ZM198.232 28.875L201.132 26.12L201.132 26.12L198.232 28.875ZM187.11 54V58H191.11V54H187.11ZM178.4 54H174.4V58H178.4V54ZM178.4 21.036V17.036H174.4V21.036H178.4ZM186.708 21.036H190.708V17.036H186.708V21.036ZM186.708 25.86H182.708L190.216 27.7813L186.708 25.86ZM190.795 21.639L192.73 25.14L192.765 25.1207L192.799 25.1007L190.795 21.639ZM201.716 20.902L200.339 24.6575L200.395 24.678L200.451 24.6967L201.716 20.902ZM205.133 22.979L202.305 25.8074L202.338 25.8403L202.371 25.8724L205.133 22.979ZM207.411 26.463L203.681 27.907L203.709 27.9808L203.741 28.0534L207.411 26.463ZM208.282 54V58H212.282V54H208.282ZM199.505 54H203.505V34.034H199.505H195.505V54H199.505ZM199.505 34.034H203.505C203.505 32.5657 203.385 31.1534 203.07 29.8765C202.76 28.6197 202.199 27.243 201.132 26.12L198.232 28.875L195.332 31.63C195.114 31.4004 195.189 31.3301 195.303 31.793C195.413 32.2358 195.505 32.9563 195.505 34.034H199.505ZM198.232 28.875L201.132 26.12C199.154 24.0384 196.331 23.535 193.877 23.535V27.535V31.535C194.636 31.535 195.093 31.6201 195.33 31.6931C195.551 31.7609 195.479 31.7849 195.332 31.63L198.232 28.875ZM193.877 27.535V23.535C190.881 23.535 187.937 24.3935 185.819 26.7621C183.779 29.0452 183.11 32.0696 183.11 35.106H187.11H191.11C191.11 33.0951 191.569 32.334 191.784 32.0934C191.923 31.9383 192.361 31.535 193.877 31.535V27.535ZM187.11 35.106H183.11V54H187.11H191.11V35.106H187.11ZM187.11 54V50H178.4V54V58H187.11V54ZM178.4 54H182.4V21.036H178.4H174.4V54H178.4ZM178.4 21.036V25.036H186.708V21.036V17.036H178.4V21.036ZM186.708 21.036H182.708V25.86H186.708H190.708V21.036H186.708ZM186.708 25.86L190.216 27.7813C190.918 26.4995 191.763 25.674 192.73 25.14L190.795 21.639L188.86 18.138C186.432 19.48 184.552 21.4685 183.2 23.9387L186.708 25.86ZM190.795 21.639L192.799 25.1007C193.704 24.5767 195.138 24.165 197.361 24.165V20.165V16.165C194.225 16.165 191.281 16.7359 188.791 18.1773L190.795 21.639ZM197.361 20.165V24.165C198.499 24.165 199.48 24.3426 200.339 24.6575L201.716 20.902L203.093 17.1465C201.272 16.4787 199.349 16.165 197.361 16.165V20.165ZM201.716 20.902L200.451 24.6967C201.241 24.9601 201.834 25.3368 202.305 25.8074L205.133 22.979L207.961 20.1506C206.556 18.7452 204.871 17.7373 202.981 17.1073L201.716 20.902ZM205.133 22.979L202.371 25.8724C202.89 26.3677 203.337 27.0191 203.681 27.907L207.411 26.463L211.141 25.019C210.413 23.1376 209.341 21.4662 207.895 20.0856L205.133 22.979ZM207.411 26.463L203.741 28.0534C204.061 28.7925 204.282 29.7943 204.282 31.153H208.282H212.282C212.282 28.9384 211.922 26.8135 211.081 24.8726L207.411 26.463ZM208.282 31.153H204.282V54H208.282H212.282V31.153H208.282ZM208.282 54V50H199.505V54V58H208.282V54ZM241.777 42.074L245.751 42.536L246.269 38.074H241.777V42.074ZM240.102 47.3L236.629 45.3154L236.608 45.3533L236.587 45.3916L240.102 47.3ZM232.196 53.933L230.845 50.1682L230.829 50.1739L230.814 50.1796L232.196 53.933ZM220.471 53.799L218.939 57.494L218.993 57.5162L219.047 57.537L220.471 53.799ZM215.714 50.449L212.715 53.0955L212.735 53.1177L212.755 53.1397L215.714 50.449ZM212.565 44.888L208.756 46.1071L208.77 46.1533L208.786 46.1991L212.565 44.888ZM212.565 29.478L208.795 28.1426L208.782 28.1777L208.771 28.2131L212.565 29.478ZM215.714 24.252L218.543 27.0804L218.566 27.0572L218.589 27.0337L215.714 24.252ZM220.538 21.17L219.221 17.3932L219.207 17.3981L219.193 17.403L220.538 21.17ZM232.732 21.036L231.467 24.8307L231.482 24.8355L231.496 24.8401L232.732 21.036ZM237.355 23.582L234.744 26.6116L234.769 26.6335L234.795 26.6549L237.355 23.582ZM241.844 32.828V36.828H246.133L245.835 32.5496L241.844 32.828ZM233.067 32.828L229.102 33.3498L229.559 36.828H233.067V32.828ZM230.99 28.875L228.348 31.8779L228.411 31.9337L228.477 31.9868L230.99 28.875ZM224.223 27.87L225.673 31.598L225.673 31.598L224.223 27.87ZM222.079 29.478L218.992 26.9352L218.983 26.9454L218.975 26.9556L222.079 29.478ZM220.672 32.426L224.508 33.5624L224.513 33.5436L224.518 33.5249L220.672 32.426ZM233 42.074V38.074H229.38L229.02 41.676L233 42.074ZM241.777 42.074L237.804 41.612C237.638 43.0367 237.236 44.2545 236.629 45.3154L240.102 47.3L243.575 49.2846C244.756 47.2188 245.47 44.9526 245.751 42.536L241.777 42.074ZM240.102 47.3L236.587 45.3916C235.975 46.5189 235.202 47.4612 234.259 48.2471L236.819 51.32L239.38 54.3929C241.117 52.9455 242.532 51.2078 243.618 49.2084L240.102 47.3ZM236.819 51.32L234.259 48.2471C233.3 49.0463 232.174 49.6913 230.845 50.1682L232.196 53.933L233.548 57.6978C235.703 56.9241 237.659 55.8271 239.38 54.3929L236.819 51.32ZM232.196 53.933L230.814 50.1796C229.605 50.6247 228.226 50.871 226.635 50.871V54.871V58.871C229.065 58.871 231.393 58.492 233.579 57.6864L232.196 53.933ZM226.635 54.871V50.871C224.834 50.871 223.268 50.5841 221.895 50.061L220.471 53.799L219.047 57.537C221.426 58.4433 223.97 58.871 226.635 58.871V54.871ZM220.471 53.799L222.003 50.104C220.719 49.5714 219.62 48.7987 218.674 47.7583L215.714 50.449L212.755 53.1397C214.489 55.0473 216.561 56.5079 218.939 57.494L220.471 53.799ZM215.714 50.449L218.714 47.8025C217.764 46.7261 216.957 45.3441 216.344 43.5769L212.565 44.888L208.786 46.1991C209.692 48.8092 210.985 51.1346 212.715 53.0955L215.714 50.449ZM212.565 44.888L216.375 43.6689C215.814 41.9159 215.493 39.7517 215.493 37.116H211.493H207.493C207.493 40.3763 207.887 43.3935 208.756 46.1071L212.565 44.888ZM211.493 37.116H215.493C215.493 34.4745 215.816 32.3764 216.36 30.7429L212.565 29.478L208.771 28.2131C207.886 30.8676 207.493 33.8615 207.493 37.116H211.493ZM212.565 29.478L216.336 30.8134C216.936 29.1201 217.7 27.9231 218.543 27.0804L215.714 24.252L212.886 21.4236C211.049 23.2609 209.714 25.5479 208.795 28.1426L212.565 29.478ZM215.714 24.252L218.589 27.0337C219.487 26.1057 220.566 25.4075 221.884 24.937L220.538 21.17L219.193 17.403C216.759 18.2725 214.622 19.629 212.84 21.4703L215.714 24.252ZM220.538 21.17L221.856 24.9468C223.298 24.4439 224.967 24.165 226.903 24.165V20.165V16.165C224.195 16.165 221.62 16.5561 219.221 17.3932L220.538 21.17ZM226.903 20.165V24.165C228.688 24.165 230.195 24.4066 231.467 24.8307L232.732 21.036L233.997 17.2413C231.786 16.504 229.407 16.165 226.903 16.165V20.165ZM232.732 21.036L231.496 24.8401C232.827 25.2728 233.889 25.8747 234.744 26.6116L237.355 23.582L239.967 20.5524C238.231 19.056 236.211 17.9605 233.969 17.2319L232.732 21.036ZM237.355 23.582L234.795 26.6549C235.7 27.4097 236.396 28.2985 236.906 29.3496L240.504 27.602L244.102 25.8544C243.094 23.7788 241.69 21.9876 239.916 20.5091L237.355 23.582ZM240.504 27.602L236.906 29.3496C237.419 30.4057 237.752 31.641 237.854 33.1064L241.844 32.828L245.835 32.5496C245.669 30.1736 245.108 27.925 244.102 25.8544L240.504 27.602ZM241.844 32.828V28.828H233.067V32.828V36.828H241.844V32.828ZM233.067 32.828L237.033 32.3062C236.697 29.7521 235.581 27.4414 233.504 25.7632L230.99 28.875L228.477 31.9868C228.722 32.1846 228.991 32.5093 229.102 33.3498L233.067 32.828ZM230.99 28.875L233.633 25.8721C231.703 24.1741 229.346 23.401 226.836 23.401V27.401V31.401C227.632 31.401 228.044 31.6106 228.348 31.8779L230.99 28.875ZM226.836 27.401V23.401C225.446 23.401 224.079 23.6344 222.774 24.142L224.223 27.87L225.673 31.598C225.976 31.4802 226.351 31.401 226.836 31.401V27.401ZM224.223 27.87L222.774 24.142C221.246 24.736 219.99 25.7223 218.992 26.9352L222.079 29.478L225.167 32.0208C225.419 31.7151 225.593 31.6293 225.673 31.598L224.223 27.87ZM222.079 29.478L218.975 26.9556C217.943 28.225 217.275 29.7556 216.826 31.3271L220.672 32.426L224.518 33.5249C224.784 32.5951 225.054 32.1603 225.184 32.0004L222.079 29.478ZM220.672 32.426L216.837 31.2896C216.335 32.9834 216.136 34.8911 216.136 36.915H220.136H224.136C224.136 35.3656 224.295 34.2806 224.508 33.5624L220.672 32.426ZM220.136 36.915H216.136C216.136 40.8717 216.819 44.5844 218.869 47.3418L222.079 44.955L225.289 42.5682C224.749 41.8416 224.136 40.1943 224.136 36.915H220.136ZM222.079 44.955L218.869 47.3418C220.687 49.7867 223.262 51.568 226.568 51.568V47.568V43.568C226.48 43.568 226.062 43.6073 225.289 42.5682L222.079 44.955ZM226.568 47.568V51.568C229.051 51.568 231.393 50.8633 233.379 49.3184L230.923 46.161L228.468 43.0036C228.042 43.3347 227.48 43.568 226.568 43.568V47.568ZM230.923 46.161L233.379 49.3184C235.601 47.59 236.714 45.141 236.98 42.472L233 42.074L229.02 41.676C228.93 42.5803 228.657 42.856 228.468 43.0036L230.923 46.161ZM233 42.074V46.074H241.777V42.074V38.074H233V42.074ZM266.061 34.302V38.302H270.212L270.058 34.154L266.061 34.302ZM265.391 31.153L261.653 32.577L261.695 32.687L261.743 32.7945L265.391 31.153ZM263.917 28.875L261.089 31.7034L261.141 31.7558L261.195 31.8062L263.917 28.875ZM261.773 27.535L260.323 31.263L260.415 31.2986L260.508 31.3297L261.773 27.535ZM254.738 29.009L251.91 26.1806L251.91 26.1806L254.738 29.009ZM252.594 34.302L248.606 33.9892L248.268 38.302H252.594V34.302ZM252.326 39.796V35.796H248.106L248.332 40.01L252.326 39.796ZM254.47 45.759L251.466 48.3995L251.488 48.4248L251.51 48.4497L254.47 45.759ZM263.448 47.032L265.464 50.4871L265.485 50.4747L265.506 50.462L263.448 47.032ZM265.592 44.285V40.285H262.527L261.73 43.2451L265.592 44.285ZM274.57 44.285L278.399 45.4436L279.96 40.285H274.57V44.285ZM269.21 52.124L271.546 55.3712L271.546 55.3712L269.21 52.124ZM247.77 24.721L244.855 21.9823L244.832 22.0061L244.81 22.0303L247.77 24.721ZM252.795 21.371L254.237 25.1022L254.273 25.088L254.31 25.0732L252.795 21.371ZM271.086 25.056L267.954 27.5443L267.965 27.5574L267.975 27.5703L271.086 25.056ZM275.039 39.796V43.796H279.039V39.796H275.039ZM266.061 34.302L270.058 34.154C269.999 32.5482 269.696 30.9708 269.039 29.5115L265.391 31.153L261.743 32.7945C261.891 33.1218 262.034 33.6438 262.064 34.45L266.061 34.302ZM265.391 31.153L269.129 29.729C268.592 28.3179 267.787 27.0098 266.639 25.9438L263.917 28.875L261.195 31.8062C261.298 31.9015 261.476 32.1121 261.653 32.577L265.391 31.153ZM263.917 28.875L266.746 26.0466C265.701 25.0018 264.457 24.2133 263.038 23.7403L261.773 27.535L260.508 31.3297C260.697 31.3927 260.883 31.4975 261.089 31.7034L263.917 28.875ZM261.773 27.535L263.223 23.807C261.965 23.3176 260.647 23.066 259.294 23.066V27.066V31.066C259.639 31.066 259.974 31.1271 260.323 31.263L261.773 27.535ZM259.294 27.066V23.066C256.432 23.066 253.912 24.1781 251.91 26.1806L254.738 29.009L257.567 31.8374C258.155 31.2492 258.672 31.066 259.294 31.066V27.066ZM254.738 29.009L251.91 26.1806C249.809 28.2817 248.837 31.0444 248.606 33.9892L252.594 34.302L256.582 34.6148C256.708 33.0036 257.166 32.2376 257.567 31.8374L254.738 29.009ZM252.594 34.302V38.302H266.061V34.302V30.302H252.594V34.302ZM252.326 39.796L248.332 40.01C248.5 43.1567 249.43 46.0831 251.466 48.3995L254.47 45.759L257.475 43.1185C256.92 42.4869 256.42 41.4379 256.32 39.582L252.326 39.796ZM254.47 45.759L251.51 48.4497C253.671 50.8264 256.522 51.97 259.696 51.97V47.97V43.97C258.583 43.97 257.949 43.6396 257.43 43.0683L254.47 45.759ZM259.696 47.97V51.97C261.725 51.97 263.692 51.5205 265.464 50.4871L263.448 47.032L261.433 43.5769C261.06 43.7942 260.526 43.97 259.696 43.97V47.97ZM263.448 47.032L265.506 50.462C267.43 49.3074 268.849 47.5739 269.455 45.3249L265.592 44.285L261.73 43.2451C261.707 43.3281 261.685 43.3604 261.668 43.3817C261.648 43.4079 261.578 43.4895 261.39 43.602L263.448 47.032ZM265.592 44.285V48.285H274.57V44.285V40.285H265.592V44.285ZM274.57 44.285L270.742 43.1264C269.934 45.7953 268.615 47.625 266.874 48.8768L269.21 52.124L271.546 55.3712C274.898 52.9603 277.152 49.564 278.399 45.4436L274.57 44.285ZM269.21 52.124L266.874 48.8768C265.093 50.1584 262.898 50.871 260.098 50.871V54.871V58.871C264.356 58.871 268.236 57.7523 271.546 55.3712L269.21 52.124ZM260.098 54.871V50.871C255.313 50.871 252.433 49.5836 250.683 47.6771C248.874 45.7058 247.616 42.3646 247.616 36.915H243.616H239.616C239.616 43.436 241.105 49.0729 244.79 53.0869C248.534 57.1658 253.895 58.871 260.098 58.871V54.871ZM243.616 36.915H247.616C247.616 34.7418 247.921 32.8951 248.466 31.3281L244.688 30.014L240.91 28.6999C240.026 31.2422 239.616 33.9962 239.616 36.915H243.616ZM244.688 30.014L248.466 31.3281C249.02 29.7355 249.785 28.4513 250.73 27.4117L247.77 24.721L244.81 22.0303C243.075 23.9387 241.786 26.1831 240.91 28.6999L244.688 30.014ZM247.77 24.721L250.686 27.4597C251.642 26.4412 252.807 25.6547 254.237 25.1022L252.795 21.371L251.354 17.6398C248.853 18.606 246.667 20.0528 244.855 21.9823L247.77 24.721ZM252.795 21.371L254.31 25.0732C255.709 24.5008 257.434 24.165 259.562 24.165V20.165V16.165C256.598 16.165 253.812 16.6332 251.281 17.6688L252.795 21.371ZM259.562 20.165V24.165C263.735 24.165 266.292 25.4515 267.954 27.5443L271.086 25.056L274.218 22.5677C270.699 18.1392 265.574 16.165 259.562 16.165V20.165ZM271.086 25.056L267.975 27.5703C269.789 29.8148 271.039 33.6567 271.039 39.796H275.039H279.039C279.039 32.8033 277.654 26.8185 274.197 22.5417L271.086 25.056ZM275.039 39.796V35.796H252.326V39.796V43.796H275.039V39.796Z" fill="url(#paint0_linear_4_38)" mask="url(#path-2-outside-1_4_38)"/>
</g>
</g>
<defs>
<filter id="filter0_d_4_38" x="4.51852" y="4.976" width="279.441" height="76.635" filterUnits="userSpaceOnUse" color-interpolation-filters="sRGB">
<feFlood flood-opacity="0" result="BackgroundImageFix"/>
<feColorMatrix in="SourceAlpha" type="matrix" values="0 0 0 0 0 0 0 0 0 0 0 0 0 0 0 0 0 0 127 0" result="hardAlpha"/>
<feOffset dy="4"/>
<feGaussianBlur stdDeviation="2"/>
<feComposite in2="hardAlpha" operator="out"/>
<feColorMatrix type="matrix" values="0 0 0 0 0 0 0 0 0 0 0 0 0 0 0 0 0 0 0.25 0"/>
<feBlend mode="normal" in2="BackgroundImageFix" result="effect1_dropShadow_4_38"/>
<feBlend mode="normal" in="SourceGraphic" in2="effect1_dropShadow_4_38" result="shape"/>
</filter>
<linearGradient id="paint0_linear_4_38" x1="-2.74131" y1="-11" x2="87.9413" y2="165.14" gradientUnits="userSpaceOnUse">
<stop stop-color="#3AB9FF"/>
<stop offset="1" stop-color="#1C66C9"/>
</linearGradient>
</defs>
</svg>
