<svg width="228" height="82" viewBox="0 0 228 82" fill="none" xmlns="http://www.w3.org/2000/svg">
<mask id="mask0_5_53" style="mask-type:alpha" maskUnits="userSpaceOnUse" x="0" y="0" width="228" height="82">
<rect width="228" height="82" fill="#D9D9D9"/>
</mask>
<g mask="url(#mask0_5_53)">
<g filter="url(#filter0_d_5_53)">
<mask id="path-2-outside-1_5_53" maskUnits="userSpaceOnUse" x="9" y="4" width="206" height="70" fill="black">
<rect fill="white" x="9" y="4" width="206" height="70"/>
<path d="M29.286 47.434C34.2887 47.434 36.79 44.0393 36.79 37.25C36.79 34.302 36.0977 31.9123 34.713 30.081C33.3283 28.205 31.5417 27.267 29.353 27.267C27.2537 27.267 25.4893 28.138 24.06 29.88C22.6753 31.622 21.983 33.9 21.983 36.714C21.983 43.8607 24.4173 47.434 29.286 47.434ZM13.742 69.611V21.036H22.117L22.184 25.056C24.194 21.7953 27.2537 20.165 31.363 20.165C33.4177 20.165 35.316 20.567 37.058 21.371C38.8447 22.175 40.3633 23.3363 41.614 24.855C42.8647 26.3737 43.8473 28.2273 44.562 30.416C45.2767 32.6047 45.634 35.0837 45.634 37.853C45.634 40.3543 45.3213 42.6547 44.696 44.754C44.1153 46.8087 43.2443 48.5953 42.083 50.114C40.9217 51.6327 39.4923 52.8163 37.795 53.665C36.1423 54.469 34.244 54.871 32.1 54.871C28.0353 54.871 24.7747 53.1513 22.318 49.712V69.611H13.742ZM48.8123 54V21.036H56.9863V24.989C57.701 23.8723 58.438 23.0013 59.1973 22.376C60.0013 21.7507 60.8053 21.2817 61.6093 20.969C62.458 20.6117 63.3066 20.3883 64.1553 20.299C65.004 20.2097 65.875 20.165 66.7683 20.165H67.9073V29.076C67.1033 28.942 66.2993 28.875 65.4953 28.875C60.18 28.875 57.5223 31.5327 57.5223 36.848V54H48.8123ZM84.5244 47.568C89.8397 47.568 92.4974 44.218 92.4974 37.518C92.4974 30.8627 89.8397 27.535 84.5244 27.535C79.209 27.535 76.5514 30.8627 76.5514 37.518C76.5514 44.218 79.209 47.568 84.5244 47.568ZM84.5244 54.871C81.8444 54.871 79.4547 54.4467 77.3554 53.598C75.256 52.7493 73.4694 51.5657 71.9954 50.047C70.566 48.5283 69.4717 46.697 68.7124 44.553C67.953 42.409 67.5734 40.064 67.5734 37.518C67.5734 34.9273 67.953 32.56 68.7124 30.416C69.5164 28.272 70.6554 26.4407 72.1294 24.922C73.6034 23.4033 75.3677 22.242 77.4224 21.438C79.5217 20.5893 81.889 20.165 84.5244 20.165C87.115 20.165 89.4377 20.5893 91.4924 21.438C93.547 22.242 95.289 23.4033 96.7184 24.922C98.1924 26.396 99.309 28.205 100.068 30.349C100.872 32.493 101.274 34.8827 101.274 37.518C101.274 40.1533 100.872 42.543 100.068 44.687C99.309 46.7863 98.1924 48.5953 96.7184 50.114C95.289 51.6327 93.5247 52.8163 91.4254 53.665C89.3707 54.469 87.0704 54.871 84.5244 54.871ZM104.428 21.036H113.205V56.211C113.205 58.221 112.87 60.03 112.2 61.638C111.53 63.2907 110.614 64.6977 109.453 65.859C108.291 67.065 106.907 67.9807 105.299 68.606C103.735 69.276 102.038 69.611 100.207 69.611C95.6952 69.611 92.3675 68.3603 90.2235 65.859C88.0349 63.4023 86.9405 60.0523 86.9405 55.809H95.1145C95.1145 57.685 95.4719 59.159 96.1865 60.231C96.8565 61.3477 98.0402 61.906 99.7375 61.906C101.48 61.906 102.686 61.37 103.356 60.298C104.07 59.226 104.428 57.752 104.428 55.876V21.036ZM104.428 17.083V8.976H113.205V17.083H104.428ZM139.221 34.302C139.177 33.096 138.953 32.0463 138.551 31.153C138.194 30.215 137.703 29.4557 137.077 28.875C136.452 28.2497 135.737 27.803 134.933 27.535C134.129 27.2223 133.303 27.066 132.454 27.066C130.712 27.066 129.194 27.7137 127.898 29.009C126.648 30.2597 125.933 32.024 125.754 34.302H139.221ZM125.486 39.796C125.62 42.2973 126.335 44.285 127.63 45.759C128.97 47.233 130.712 47.97 132.856 47.97C134.286 47.97 135.536 47.6573 136.608 47.032C137.725 46.362 138.44 45.4463 138.752 44.285H147.73C146.703 47.6797 144.916 50.2927 142.37 52.124C139.824 53.9553 136.787 54.871 133.258 54.871C122.27 54.871 116.776 48.8857 116.776 36.915C116.776 34.369 117.134 32.0687 117.848 30.014C118.563 27.9593 119.59 26.195 120.93 24.721C122.315 23.247 123.99 22.1303 125.955 21.371C127.921 20.567 130.176 20.165 132.722 20.165C137.814 20.165 141.656 21.7953 144.246 25.056C146.882 28.3167 148.199 33.23 148.199 39.796H125.486ZM180.891 42.074C180.667 43.9947 180.109 45.7367 179.216 47.3C178.367 48.8633 177.273 50.2033 175.933 51.32C174.593 52.4367 173.052 53.3077 171.31 53.933C169.612 54.5583 167.759 54.871 165.749 54.871C163.515 54.871 161.461 54.5137 159.585 53.799C157.753 53.0397 156.168 51.923 154.828 50.449C153.488 48.9303 152.438 47.0767 151.679 44.888C150.964 42.6547 150.607 40.064 150.607 37.116C150.607 34.168 150.964 31.622 151.679 29.478C152.438 27.334 153.488 25.592 154.828 24.252C156.168 22.8673 157.776 21.84 159.652 21.17C161.572 20.5 163.694 20.165 166.017 20.165C168.161 20.165 170.104 20.4553 171.846 21.036C173.632 21.6167 175.173 22.4653 176.469 23.582C177.809 24.6987 178.858 26.0387 179.618 27.602C180.377 29.1653 180.824 30.9073 180.958 32.828H172.181C171.957 31.1307 171.265 29.813 170.104 28.875C168.987 27.8923 167.602 27.401 165.95 27.401C165.012 27.401 164.141 27.5573 163.337 27.87C162.533 28.1827 161.818 28.7187 161.193 29.478C160.612 30.1927 160.143 31.1753 159.786 32.426C159.428 33.632 159.25 35.1283 159.25 36.915C159.25 40.533 159.897 43.213 161.193 44.955C162.488 46.697 163.984 47.568 165.682 47.568C167.379 47.568 168.831 47.099 170.037 46.161C171.243 45.223 171.935 43.8607 172.114 42.074H180.891ZM202.16 32.292H210.267V41.672C210.267 43.414 209.999 45.089 209.463 46.697C208.971 48.2603 208.167 49.6673 207.051 50.918C205.979 52.124 204.594 53.0843 202.897 53.799C201.244 54.5137 199.256 54.871 196.934 54.871C194.522 54.871 192.467 54.5137 190.77 53.799C189.072 53.0843 187.665 52.124 186.549 50.918C185.477 49.712 184.695 48.305 184.204 46.697C183.712 45.089 183.467 43.3917 183.467 41.605V12.125H192.043V21.036H210.267V27.2H192.043V40.734C192.043 42.8333 192.422 44.4637 193.182 45.625C193.986 46.7417 195.281 47.3 197.068 47.3C198.81 47.3 200.083 46.7417 200.887 45.625C201.735 44.5083 202.16 42.9227 202.16 40.868V32.292Z"/>
</mask>
<path d="M29.286 47.434C34.2887 47.434 36.79 44.0393 36.79 37.25C36.79 34.302 36.0977 31.9123 34.713 30.081C33.3283 28.205 31.5417 27.267 29.353 27.267C27.2537 27.267 25.4893 28.138 24.06 29.88C22.6753 31.622 21.983 33.9 21.983 36.714C21.983 43.8607 24.4173 47.434 29.286 47.434ZM13.742 69.611V21.036H22.117L22.184 25.056C24.194 21.7953 27.2537 20.165 31.363 20.165C33.4177 20.165 35.316 20.567 37.058 21.371C38.8447 22.175 40.3633 23.3363 41.614 24.855C42.8647 26.3737 43.8473 28.2273 44.562 30.416C45.2767 32.6047 45.634 35.0837 45.634 37.853C45.634 40.3543 45.3213 42.6547 44.696 44.754C44.1153 46.8087 43.2443 48.5953 42.083 50.114C40.9217 51.6327 39.4923 52.8163 37.795 53.665C36.1423 54.469 34.244 54.871 32.1 54.871C28.0353 54.871 24.7747 53.1513 22.318 49.712V69.611H13.742ZM48.8123 54V21.036H56.9863V24.989C57.701 23.8723 58.438 23.0013 59.1973 22.376C60.0013 21.7507 60.8053 21.2817 61.6093 20.969C62.458 20.6117 63.3066 20.3883 64.1553 20.299C65.004 20.2097 65.875 20.165 66.7683 20.165H67.9073V29.076C67.1033 28.942 66.2993 28.875 65.4953 28.875C60.18 28.875 57.5223 31.5327 57.5223 36.848V54H48.8123ZM84.5244 47.568C89.8397 47.568 92.4974 44.218 92.4974 37.518C92.4974 30.8627 89.8397 27.535 84.5244 27.535C79.209 27.535 76.5514 30.8627 76.5514 37.518C76.5514 44.218 79.209 47.568 84.5244 47.568ZM84.5244 54.871C81.8444 54.871 79.4547 54.4467 77.3554 53.598C75.256 52.7493 73.4694 51.5657 71.9954 50.047C70.566 48.5283 69.4717 46.697 68.7124 44.553C67.953 42.409 67.5734 40.064 67.5734 37.518C67.5734 34.9273 67.953 32.56 68.7124 30.416C69.5164 28.272 70.6554 26.4407 72.1294 24.922C73.6034 23.4033 75.3677 22.242 77.4224 21.438C79.5217 20.5893 81.889 20.165 84.5244 20.165C87.115 20.165 89.4377 20.5893 91.4924 21.438C93.547 22.242 95.289 23.4033 96.7184 24.922C98.1924 26.396 99.309 28.205 100.068 30.349C100.872 32.493 101.274 34.8827 101.274 37.518C101.274 40.1533 100.872 42.543 100.068 44.687C99.309 46.7863 98.1924 48.5953 96.7184 50.114C95.289 51.6327 93.5247 52.8163 91.4254 53.665C89.3707 54.469 87.0704 54.871 84.5244 54.871ZM104.428 21.036H113.205V56.211C113.205 58.221 112.87 60.03 112.2 61.638C111.53 63.2907 110.614 64.6977 109.453 65.859C108.291 67.065 106.907 67.9807 105.299 68.606C103.735 69.276 102.038 69.611 100.207 69.611C95.6952 69.611 92.3675 68.3603 90.2235 65.859C88.0349 63.4023 86.9405 60.0523 86.9405 55.809H95.1145C95.1145 57.685 95.4719 59.159 96.1865 60.231C96.8565 61.3477 98.0402 61.906 99.7375 61.906C101.48 61.906 102.686 61.37 103.356 60.298C104.07 59.226 104.428 57.752 104.428 55.876V21.036ZM104.428 17.083V8.976H113.205V17.083H104.428ZM139.221 34.302C139.177 33.096 138.953 32.0463 138.551 31.153C138.194 30.215 137.703 29.4557 137.077 28.875C136.452 28.2497 135.737 27.803 134.933 27.535C134.129 27.2223 133.303 27.066 132.454 27.066C130.712 27.066 129.194 27.7137 127.898 29.009C126.648 30.2597 125.933 32.024 125.754 34.302H139.221ZM125.486 39.796C125.62 42.2973 126.335 44.285 127.63 45.759C128.97 47.233 130.712 47.97 132.856 47.97C134.286 47.97 135.536 47.6573 136.608 47.032C137.725 46.362 138.44 45.4463 138.752 44.285H147.73C146.703 47.6797 144.916 50.2927 142.37 52.124C139.824 53.9553 136.787 54.871 133.258 54.871C122.27 54.871 116.776 48.8857 116.776 36.915C116.776 34.369 117.134 32.0687 117.848 30.014C118.563 27.9593 119.59 26.195 120.93 24.721C122.315 23.247 123.99 22.1303 125.955 21.371C127.921 20.567 130.176 20.165 132.722 20.165C137.814 20.165 141.656 21.7953 144.246 25.056C146.882 28.3167 148.199 33.23 148.199 39.796H125.486ZM180.891 42.074C180.667 43.9947 180.109 45.7367 179.216 47.3C178.367 48.8633 177.273 50.2033 175.933 51.32C174.593 52.4367 173.052 53.3077 171.31 53.933C169.612 54.5583 167.759 54.871 165.749 54.871C163.515 54.871 161.461 54.5137 159.585 53.799C157.753 53.0397 156.168 51.923 154.828 50.449C153.488 48.9303 152.438 47.0767 151.679 44.888C150.964 42.6547 150.607 40.064 150.607 37.116C150.607 34.168 150.964 31.622 151.679 29.478C152.438 27.334 153.488 25.592 154.828 24.252C156.168 22.8673 157.776 21.84 159.652 21.17C161.572 20.5 163.694 20.165 166.017 20.165C168.161 20.165 170.104 20.4553 171.846 21.036C173.632 21.6167 175.173 22.4653 176.469 23.582C177.809 24.6987 178.858 26.0387 179.618 27.602C180.377 29.1653 180.824 30.9073 180.958 32.828H172.181C171.957 31.1307 171.265 29.813 170.104 28.875C168.987 27.8923 167.602 27.401 165.95 27.401C165.012 27.401 164.141 27.5573 163.337 27.87C162.533 28.1827 161.818 28.7187 161.193 29.478C160.612 30.1927 160.143 31.1753 159.786 32.426C159.428 33.632 159.25 35.1283 159.25 36.915C159.25 40.533 159.897 43.213 161.193 44.955C162.488 46.697 163.984 47.568 165.682 47.568C167.379 47.568 168.831 47.099 170.037 46.161C171.243 45.223 171.935 43.8607 172.114 42.074H180.891ZM202.16 32.292H210.267V41.672C210.267 43.414 209.999 45.089 209.463 46.697C208.971 48.2603 208.167 49.6673 207.051 50.918C205.979 52.124 204.594 53.0843 202.897 53.799C201.244 54.5137 199.256 54.871 196.934 54.871C194.522 54.871 192.467 54.5137 190.77 53.799C189.072 53.0843 187.665 52.124 186.549 50.918C185.477 49.712 184.695 48.305 184.204 46.697C183.712 45.089 183.467 43.3917 183.467 41.605V12.125H192.043V21.036H210.267V27.2H192.043V40.734C192.043 42.8333 192.422 44.4637 193.182 45.625C193.986 46.7417 195.281 47.3 197.068 47.3C198.81 47.3 200.083 46.7417 200.887 45.625C201.735 44.5083 202.16 42.9227 202.16 40.868V32.292Z" fill="white"/>
<path d="M34.713 30.081L31.4947 32.4564L31.5084 32.475L31.5224 32.4934L34.713 30.081ZM24.06 29.88L20.9677 27.3427L20.948 27.3667L20.9287 27.391L24.06 29.88ZM13.742 69.611H9.742V73.611H13.742V69.611ZM13.742 21.036V17.036H9.742V21.036H13.742ZM22.117 21.036L26.1164 20.9693L26.0509 17.036H22.117V21.036ZM22.184 25.056L18.1846 25.1227L18.4125 38.797L25.589 27.155L22.184 25.056ZM37.058 21.371L35.3818 25.0028L35.3991 25.0108L35.4165 25.0187L37.058 21.371ZM41.614 24.855L44.7017 22.3122L44.7017 22.3122L41.614 24.855ZM44.562 30.416L48.3644 29.1744L48.3644 29.1744L44.562 30.416ZM44.696 44.754L40.8625 43.6121L40.8544 43.6391L40.8468 43.6662L44.696 44.754ZM42.083 50.114L45.2604 52.5438L45.2604 52.5438L42.083 50.114ZM37.795 53.665L39.5449 57.2619L39.5644 57.2524L39.5839 57.2427L37.795 53.665ZM22.318 49.712L25.5729 47.387L18.318 37.2301V49.712H22.318ZM22.318 69.611V73.611H26.318V69.611H22.318ZM29.286 47.434V51.434C32.7902 51.434 35.9836 50.1796 38.1342 47.2608C40.1167 44.5703 40.79 41.0184 40.79 37.25H36.79H32.79C32.79 40.2709 32.2126 41.8111 31.6938 42.5152C31.3431 42.9911 30.7845 43.434 29.286 43.434V47.434ZM36.79 37.25H40.79C40.79 33.6803 39.9461 30.3699 37.9036 27.6686L34.713 30.081L31.5224 32.4934C32.2492 33.4547 32.79 34.9237 32.79 37.25H36.79ZM34.713 30.081L37.9313 27.7056C35.8501 24.8859 32.9054 23.267 29.353 23.267V27.267V31.267C30.178 31.267 30.8066 31.5241 31.4947 32.4564L34.713 30.081ZM29.353 27.267V23.267C25.9589 23.267 23.0931 24.7524 20.9677 27.3427L24.06 29.88L27.1523 32.4173C27.8856 31.5236 28.5484 31.267 29.353 31.267V27.267ZM24.06 29.88L20.9287 27.391C18.8467 30.0103 17.983 33.2396 17.983 36.714H21.983H25.983C25.983 34.5604 26.504 33.2337 27.1913 32.369L24.06 29.88ZM21.983 36.714H17.983C17.983 40.6166 18.625 44.2494 20.503 47.0061C22.5684 50.0379 25.7231 51.434 29.286 51.434V47.434V43.434C27.9803 43.434 27.4835 43.0435 27.1145 42.5019C26.5582 41.6852 25.983 39.958 25.983 36.714H21.983ZM13.742 69.611H17.742V21.036H13.742H9.742V69.611H13.742ZM13.742 21.036V25.036H22.117V21.036V17.036H13.742V21.036ZM22.117 21.036L18.1176 21.1027L18.1846 25.1227L22.184 25.056L26.1834 24.9893L26.1164 20.9693L22.117 21.036ZM22.184 25.056L25.589 27.155C26.809 25.176 28.5197 24.165 31.363 24.165V20.165V16.165C25.9876 16.165 21.579 18.4147 18.779 22.957L22.184 25.056ZM31.363 20.165V24.165C32.8806 24.165 34.202 24.4583 35.3818 25.0028L37.058 21.371L38.7342 17.7392C36.4301 16.6757 33.9547 16.165 31.363 16.165V20.165ZM37.058 21.371L35.4165 25.0187C36.6402 25.5693 37.6647 26.3516 38.5263 27.3978L41.614 24.855L44.7017 22.3122C43.062 20.321 41.0491 18.7807 38.6995 17.7233L37.058 21.371ZM41.614 24.855L38.5263 27.3978C39.4105 28.4715 40.1739 29.864 40.7596 31.6576L44.562 30.416L48.3644 29.1744C47.5207 26.5906 46.3188 24.2758 44.7017 22.3122L41.614 24.855ZM44.562 30.416L40.7596 31.6576C41.3199 33.3737 41.634 35.4226 41.634 37.853H45.634H49.634C49.634 34.7447 49.2334 31.8357 48.3644 29.1744L44.562 30.416ZM45.634 37.853H41.634C41.634 40.0214 41.363 41.9316 40.8625 43.6121L44.696 44.754L48.5295 45.8959C49.2796 43.3778 49.634 40.6872 49.634 37.853H45.634ZM44.696 44.754L40.8468 43.6662C40.3874 45.2917 39.7265 46.6107 38.9056 47.6842L42.083 50.114L45.2604 52.5438C46.7622 50.58 47.8433 48.3256 48.5452 45.8418L44.696 44.754ZM42.083 50.114L38.9056 47.6842C38.1109 48.7234 37.1552 49.5128 36.0061 50.0873L37.795 53.665L39.5839 57.2427C41.8295 56.1199 43.7324 54.542 45.2604 52.5438L42.083 50.114ZM37.795 53.665L36.0451 50.0681C35.0215 50.5661 33.7383 50.871 32.1 50.871V54.871V58.871C34.7497 58.871 37.2632 58.3719 39.5449 57.2619L37.795 53.665ZM32.1 54.871V50.871C29.3868 50.871 27.3141 49.8247 25.5729 47.387L22.318 49.712L19.0631 52.037C22.2352 56.4779 26.6838 58.871 32.1 58.871V54.871ZM22.318 49.712H18.318V69.611H22.318H26.318V49.712H22.318ZM22.318 69.611V65.611H13.742V69.611V73.611H22.318V69.611ZM48.8123 54H44.8123V58H48.8123V54ZM48.8123 21.036V17.036H44.8123V21.036H48.8123ZM56.9863 21.036H60.9863V17.036H56.9863V21.036ZM56.9863 24.989H52.9863V38.6594L60.3554 27.1452L56.9863 24.989ZM59.1973 22.376L56.7416 19.2186L56.6975 19.2528L56.6545 19.2883L59.1973 22.376ZM61.6093 20.969L63.0591 24.697L63.1106 24.677L63.1615 24.6555L61.6093 20.969ZM64.1553 20.299L64.574 24.277L64.574 24.277L64.1553 20.299ZM67.9073 20.165H71.9073V16.165H67.9073V20.165ZM67.9073 29.076L67.2497 33.0216L71.9073 33.7978V29.076H67.9073ZM57.5223 54V58H61.5223V54H57.5223ZM48.8123 54H52.8123V21.036H48.8123H44.8123V54H48.8123ZM48.8123 21.036V25.036H56.9863V21.036V17.036H48.8123V21.036ZM56.9863 21.036H52.9863V24.989H56.9863H60.9863V21.036H56.9863ZM56.9863 24.989L60.3554 27.1452C60.9179 26.2663 61.3932 25.7494 61.7401 25.4637L59.1973 22.376L56.6545 19.2883C55.4827 20.2532 54.4841 21.4784 53.6172 22.8328L56.9863 24.989ZM59.1973 22.376L61.6531 25.5334C62.2048 25.1043 62.6746 24.8465 63.0591 24.697L61.6093 20.969L60.1595 17.241C58.936 17.7168 57.7978 18.397 56.7416 19.2186L59.1973 22.376ZM61.6093 20.969L63.1615 24.6555C63.6772 24.4384 64.145 24.3222 64.574 24.277L64.1553 20.299L63.7366 16.321C62.4683 16.4545 61.2388 16.7849 60.0571 17.2825L61.6093 20.969ZM64.1553 20.299L64.574 24.277C65.2773 24.203 66.0084 24.165 66.7683 24.165V20.165V16.165C65.7416 16.165 64.7307 16.2163 63.7366 16.321L64.1553 20.299ZM66.7683 20.165V24.165H67.9073V20.165V16.165H66.7683V20.165ZM67.9073 20.165H63.9073V29.076H67.9073H71.9073V20.165H67.9073ZM67.9073 29.076L68.5649 25.1304C67.5466 24.9607 66.5227 24.875 65.4953 24.875V28.875V32.875C66.076 32.875 66.66 32.9233 67.2497 33.0216L67.9073 29.076ZM65.4953 28.875V24.875C62.2211 24.875 59.0307 25.6963 56.6871 28.0398C54.3436 30.3834 53.5223 33.5738 53.5223 36.848H57.5223H61.5223C61.5223 34.8069 62.0299 34.0108 62.344 33.6967C62.6581 33.3826 63.4542 32.875 65.4953 32.875V28.875ZM57.5223 36.848H53.5223V54H57.5223H61.5223V36.848H57.5223ZM57.5223 54V50H48.8123V54V58H57.5223V54ZM77.3554 53.598L78.8545 49.8896L78.8545 49.8896L77.3554 53.598ZM71.9954 50.047L69.0826 52.7885L69.1036 52.8108L69.125 52.8329L71.9954 50.047ZM68.7124 44.553L64.9419 45.8884L64.9419 45.8884L68.7124 44.553ZM68.7124 30.416L64.967 29.0115L64.9541 29.0459L64.9419 29.0806L68.7124 30.416ZM72.1294 24.922L74.9997 27.7079L74.9997 27.7079L72.1294 24.922ZM77.4224 21.438L78.88 25.163L78.9008 25.1548L78.9215 25.1464L77.4224 21.438ZM91.4924 21.438L89.9653 25.135L89.9999 25.1493L90.0348 25.163L91.4924 21.438ZM96.7184 24.922L93.8056 27.6635L93.8471 27.7076L93.8899 27.7504L96.7184 24.922ZM100.068 30.349L96.2979 31.6844L96.3101 31.7191L96.323 31.7535L100.068 30.349ZM100.068 44.687L96.323 43.2825L96.3148 43.3044L96.3069 43.3265L100.068 44.687ZM96.7184 50.114L93.848 47.3281L93.8266 47.3502L93.8056 47.3725L96.7184 50.114ZM91.4254 53.665L92.883 57.39L92.9038 57.3818L92.9245 57.3734L91.4254 53.665ZM84.5244 47.568V51.568C88.0765 51.568 91.3681 50.4024 93.6378 47.5415C95.7673 44.8573 96.4974 41.2896 96.4974 37.518H92.4974H88.4974C88.4974 40.4464 87.8986 41.9037 87.3705 42.5695C86.9824 43.0586 86.2875 43.568 84.5244 43.568V47.568ZM92.4974 37.518H96.4974C96.4974 33.7641 95.7654 30.2088 93.6296 27.5345C91.3567 24.6886 88.0672 23.535 84.5244 23.535V27.535V31.535C86.2969 31.535 86.9938 32.0452 87.3786 32.527C87.9005 33.1804 88.4974 34.6165 88.4974 37.518H92.4974ZM84.5244 27.535V23.535C80.9815 23.535 77.692 24.6886 75.4191 27.5345C73.2833 30.2088 72.5514 33.7641 72.5514 37.518H76.5514H80.5514C80.5514 34.6165 81.1483 33.1804 81.6701 32.527C82.0549 32.0452 82.7518 31.535 84.5244 31.535V27.535ZM76.5514 37.518H72.5514C72.5514 41.2896 73.2815 44.8573 75.411 47.5415C77.6806 50.4024 80.9722 51.568 84.5244 51.568V47.568V43.568C82.7612 43.568 82.0663 43.0586 81.6782 42.5695C81.1501 41.9037 80.5514 40.4464 80.5514 37.518H76.5514ZM84.5244 54.871V50.871C82.2656 50.871 80.3986 50.5138 78.8545 49.8896L77.3554 53.598L75.8562 57.3064C78.5108 58.3796 81.4231 58.871 84.5244 58.871V54.871ZM77.3554 53.598L78.8545 49.8896C77.2348 49.2348 75.9252 48.3527 74.8657 47.2611L71.9954 50.047L69.125 52.8329C71.0135 54.7786 73.2772 56.2639 75.8562 57.3064L77.3554 53.598ZM71.9954 50.047L74.9082 47.3055C73.8925 46.2264 73.0739 44.8864 72.4829 43.2176L68.7124 44.553L64.9419 45.8884C65.8695 48.5076 67.2396 50.8303 69.0826 52.7885L71.9954 50.047ZM68.7124 44.553L72.4829 43.2176C71.8924 41.5504 71.5734 39.6629 71.5734 37.518H67.5734H63.5734C63.5734 40.4651 64.0136 43.2676 64.9419 45.8884L68.7124 44.553ZM67.5734 37.518H71.5734C71.5734 35.3199 71.8949 33.4114 72.4829 31.7514L68.7124 30.416L64.9419 29.0806C64.0111 31.7086 63.5734 34.5348 63.5734 37.518H67.5734ZM68.7124 30.416L72.4577 31.8205C73.0843 30.1496 73.9399 28.7998 74.9997 27.7079L72.1294 24.922L69.259 22.1361C67.3708 24.0816 65.9484 26.3944 64.967 29.0115L68.7124 30.416ZM72.1294 24.922L74.9997 27.7079C76.0583 26.6172 77.3347 25.7676 78.88 25.163L77.4224 21.438L75.9648 17.713C73.4007 18.7164 71.1484 20.1895 69.259 22.1361L72.1294 24.922ZM77.4224 21.438L78.9215 25.1464C80.4731 24.5192 82.3198 24.165 84.5244 24.165V20.165V16.165C81.4582 16.165 78.5702 16.6595 75.9232 17.7296L77.4224 21.438ZM84.5244 20.165V24.165C86.6766 24.165 88.4681 24.5166 89.9653 25.135L91.4924 21.438L93.0194 17.741C90.4072 16.662 87.5534 16.165 84.5244 16.165V20.165ZM91.4924 21.438L90.0348 25.163C91.5702 25.7638 92.8058 26.6013 93.8056 27.6635L96.7184 24.922L99.6312 22.1805C97.7722 20.2054 95.5239 18.7202 92.95 17.713L91.4924 21.438ZM96.7184 24.922L93.8899 27.7504C94.9053 28.7658 95.719 30.0501 96.2979 31.6844L100.068 30.349L103.839 29.0136C102.899 26.3599 101.479 24.0262 99.5468 22.0936L96.7184 24.922ZM100.068 30.349L96.323 31.7535C96.9353 33.3861 97.2744 35.2909 97.2744 37.518H101.274H105.274C105.274 34.4744 104.809 31.5999 103.814 28.9445L100.068 30.349ZM101.274 37.518H97.2744C97.2744 39.7451 96.9353 41.6499 96.323 43.2825L100.068 44.687L103.814 46.0915C104.809 43.4361 105.274 40.5616 105.274 37.518H101.274ZM100.068 44.687L96.3069 43.3265C95.7295 44.9227 94.9059 46.2382 93.848 47.3281L96.7184 50.114L99.5887 52.8999C101.479 50.9524 102.889 48.6499 103.83 46.0475L100.068 44.687ZM96.7184 50.114L93.8056 47.3725C92.8051 48.4355 91.5366 49.3056 89.9262 49.9566L91.4254 53.665L92.9245 57.3734C95.5128 56.3271 97.7729 54.8298 99.6312 52.8555L96.7184 50.114ZM91.4254 53.665L89.9678 49.94C88.4433 50.5366 86.6474 50.871 84.5244 50.871V54.871V58.871C87.4933 58.871 90.2981 58.4014 92.883 57.39L91.4254 53.665ZM104.428 21.036V17.036H100.428V21.036H104.428ZM113.205 21.036H117.205V17.036H113.205V21.036ZM112.2 61.638L108.507 60.0995L108.5 60.1173L108.493 60.1352L112.2 61.638ZM109.453 65.859L106.624 63.0306L106.597 63.0573L106.571 63.0844L109.453 65.859ZM105.299 68.606L103.849 64.878L103.785 64.9026L103.723 64.9294L105.299 68.606ZM90.2235 65.859L93.2606 63.2558L93.2357 63.2268L93.2102 63.1982L90.2235 65.859ZM86.9405 55.809V51.809H82.9405V55.809H86.9405ZM95.1145 55.809H99.1145V51.809H95.1145V55.809ZM96.1865 60.231L99.6165 58.173L99.5675 58.0914L99.5147 58.0122L96.1865 60.231ZM103.356 60.298L100.027 58.0792L99.9947 58.1281L99.9636 58.178L103.356 60.298ZM104.428 17.083H100.428V21.083H104.428V17.083ZM104.428 8.976V4.976H100.428V8.976H104.428ZM113.205 8.976H117.205V4.976H113.205V8.976ZM113.205 17.083V21.083H117.205V17.083H113.205ZM104.428 21.036V25.036H113.205V21.036V17.036H104.428V21.036ZM113.205 21.036H109.205V56.211H113.205H117.205V21.036H113.205ZM113.205 56.211H109.205C109.205 57.7734 108.945 59.0482 108.507 60.0995L112.2 61.638L115.892 63.1765C116.794 61.0118 117.205 58.6686 117.205 56.211H113.205ZM112.2 61.638L108.493 60.1352C108.006 61.3346 107.375 62.2793 106.624 63.0306L109.453 65.859L112.281 68.6874C113.852 67.116 115.053 65.2468 115.907 63.1408L112.2 61.638ZM109.453 65.859L106.571 63.0844C105.825 63.8597 104.933 64.4563 103.849 64.878L105.299 68.606L106.748 72.334C108.88 71.505 110.758 70.2703 112.334 68.6336L109.453 65.859ZM105.299 68.606L103.723 64.9294C102.695 65.3701 101.538 65.611 100.207 65.611V69.611V73.611C102.538 73.611 104.776 73.1819 106.874 72.2826L105.299 68.606ZM100.207 69.611V65.611C96.4104 65.611 94.3927 64.5766 93.2606 63.2558L90.2235 65.859L87.1865 68.4622C90.3424 72.144 94.98 73.611 100.207 73.611V69.611ZM90.2235 65.859L93.2102 63.1982C91.8454 61.6663 90.9405 59.3632 90.9405 55.809H86.9405H82.9405C82.9405 60.7415 84.2244 65.1384 87.2369 68.5198L90.2235 65.859ZM86.9405 55.809V59.809H95.1145V55.809V51.809H86.9405V55.809ZM95.1145 55.809H91.1145C91.1145 58.1329 91.5482 60.4846 92.8583 62.4498L96.1865 60.231L99.5147 58.0122C99.3955 57.8334 99.1145 57.2371 99.1145 55.809H95.1145ZM96.1865 60.231L92.7566 62.289C94.3686 64.9756 97.1209 65.906 99.7375 65.906V61.906V57.906C99.3105 57.906 99.2076 57.8338 99.2833 57.8695C99.3256 57.8895 99.3938 57.9297 99.4671 57.996C99.5406 58.0624 99.5896 58.1281 99.6165 58.173L96.1865 60.231ZM99.7375 61.906V65.906C102.281 65.906 105.085 65.0773 106.748 62.418L103.356 60.298L99.9636 58.178C100.006 58.1102 100.069 58.0335 100.149 57.9645C100.229 57.8964 100.295 57.8616 100.324 57.8488C100.349 57.8375 100.325 57.8524 100.228 57.87C100.13 57.8878 99.9708 57.906 99.7375 57.906V61.906ZM103.356 60.298L106.684 62.5168C107.994 60.5516 108.428 58.1999 108.428 55.876H104.428H100.428C100.428 57.3041 100.147 57.9004 100.027 58.0792L103.356 60.298ZM104.428 55.876H108.428V21.036H104.428H100.428V55.876H104.428ZM104.428 17.083H108.428V8.976H104.428H100.428V17.083H104.428ZM104.428 8.976V12.976H113.205V8.976V4.976H104.428V8.976ZM113.205 8.976H109.205V17.083H113.205H117.205V8.976H113.205ZM113.205 17.083V13.083H104.428V17.083V21.083H113.205V17.083ZM139.221 34.302V38.302H143.372L143.219 34.154L139.221 34.302ZM138.551 31.153L134.814 32.577L134.855 32.687L134.904 32.7945L138.551 31.153ZM137.077 28.875L134.249 31.7034L134.301 31.7558L134.356 31.8062L137.077 28.875ZM134.933 27.535L133.484 31.263L133.575 31.2986L133.669 31.3297L134.933 27.535ZM127.898 29.009L125.07 26.1806L125.07 26.1806L127.898 29.009ZM125.754 34.302L121.767 33.9892L121.428 38.302H125.754V34.302ZM125.486 39.796V35.796H121.266L121.492 40.01L125.486 39.796ZM127.63 45.759L124.626 48.3995L124.648 48.4248L124.671 48.4497L127.63 45.759ZM136.608 47.032L138.624 50.4871L138.645 50.4747L138.666 50.462L136.608 47.032ZM138.752 44.285V40.285H135.687L134.89 43.2451L138.752 44.285ZM147.73 44.285L151.559 45.4436L153.12 40.285H147.73V44.285ZM142.37 52.124L144.706 55.3712L144.706 55.3712L142.37 52.124ZM120.93 24.721L118.015 21.9823L117.993 22.0061L117.971 22.0303L120.93 24.721ZM125.955 21.371L127.397 25.1022L127.434 25.088L127.47 25.0732L125.955 21.371ZM144.246 25.056L141.115 27.5443L141.125 27.5574L141.136 27.5703L144.246 25.056ZM148.199 39.796V43.796H152.199V39.796H148.199ZM139.221 34.302L143.219 34.154C143.159 32.5482 142.856 30.9708 142.199 29.5115L138.551 31.153L134.904 32.7945C135.051 33.1218 135.194 33.6438 135.224 34.45L139.221 34.302ZM138.551 31.153L142.289 29.729C141.752 28.3179 140.947 27.0098 139.799 25.9438L137.077 28.875L134.356 31.8062C134.458 31.9015 134.636 32.1121 134.814 32.577L138.551 31.153ZM137.077 28.875L139.906 26.0466C138.861 25.0018 137.617 24.2133 136.198 23.7403L134.933 27.535L133.669 31.3297C133.858 31.3927 134.043 31.4975 134.249 31.7034L137.077 28.875ZM134.933 27.535L136.383 23.807C135.125 23.3176 133.807 23.066 132.454 23.066V27.066V31.066C132.799 31.066 133.134 31.1271 133.484 31.263L134.933 27.535ZM132.454 27.066V23.066C129.592 23.066 127.072 24.1781 125.07 26.1806L127.898 29.009L130.727 31.8374C131.315 31.2492 131.833 31.066 132.454 31.066V27.066ZM127.898 29.009L125.07 26.1806C122.969 28.2817 121.998 31.0444 121.767 33.9892L125.754 34.302L129.742 34.6148C129.869 33.0036 130.327 32.2376 130.727 31.8374L127.898 29.009ZM125.754 34.302V38.302H139.221V34.302V30.302H125.754V34.302ZM125.486 39.796L121.492 40.01C121.661 43.1567 122.59 46.0831 124.626 48.3995L127.63 45.759L130.635 43.1185C130.08 42.4869 129.58 41.4379 129.481 39.582L125.486 39.796ZM127.63 45.759L124.671 48.4497C126.831 50.8264 129.682 51.97 132.856 51.97V47.97V43.97C131.743 43.97 131.11 43.6396 130.59 43.0683L127.63 45.759ZM132.856 47.97V51.97C134.885 51.97 136.852 51.5205 138.624 50.4871L136.608 47.032L134.593 43.5769C134.22 43.7942 133.687 43.97 132.856 43.97V47.97ZM136.608 47.032L138.666 50.462C140.591 49.3074 142.009 47.5739 142.615 45.3249L138.752 44.285L134.89 43.2451C134.868 43.3281 134.845 43.3604 134.829 43.3817C134.808 43.4079 134.738 43.4895 134.551 43.602L136.608 47.032ZM138.752 44.285V48.285H147.73V44.285V40.285H138.752V44.285ZM147.73 44.285L143.902 43.1264C143.094 45.7953 141.775 47.625 140.035 48.8768L142.37 52.124L144.706 55.3712C148.058 52.9603 150.312 49.564 151.559 45.4436L147.73 44.285ZM142.37 52.124L140.035 48.8768C138.253 50.1584 136.058 50.871 133.258 50.871V54.871V58.871C137.516 58.871 141.396 57.7523 144.706 55.3712L142.37 52.124ZM133.258 54.871V50.871C128.473 50.871 125.594 49.5836 123.844 47.6771C122.034 45.7058 120.776 42.3646 120.776 36.915H116.776H112.776C112.776 43.436 114.266 49.0729 117.95 53.0869C121.694 57.1658 127.056 58.871 133.258 58.871V54.871ZM116.776 36.915H120.776C120.776 34.7418 121.081 32.8951 121.626 31.3281L117.848 30.014L114.07 28.6999C113.186 31.2422 112.776 33.9962 112.776 36.915H116.776ZM117.848 30.014L121.626 31.3281C122.18 29.7355 122.945 28.4513 123.89 27.4117L120.93 24.721L117.971 22.0303C116.236 23.9387 114.946 26.1831 114.07 28.6999L117.848 30.014ZM120.93 24.721L123.846 27.4597C124.803 26.4412 125.967 25.6547 127.397 25.1022L125.955 21.371L124.514 17.6398C122.013 18.606 119.828 20.0528 118.015 21.9823L120.93 24.721ZM125.955 21.371L127.47 25.0732C128.869 24.5008 130.595 24.165 132.722 24.165V20.165V16.165C129.758 16.165 126.972 16.6332 124.441 17.6688L125.955 21.371ZM132.722 20.165V24.165C136.895 24.165 139.452 25.4515 141.115 27.5443L144.246 25.056L147.378 22.5677C143.86 18.1392 138.734 16.165 132.722 16.165V20.165ZM144.246 25.056L141.136 27.5703C142.95 29.8148 144.199 33.6567 144.199 39.796H148.199H152.199C152.199 32.8033 150.814 26.8185 147.357 22.5417L144.246 25.056ZM148.199 39.796V35.796H125.486V39.796V43.796H148.199V39.796ZM180.891 42.074L184.864 42.536L185.383 38.074H180.891V42.074ZM179.216 47.3L175.743 45.3154L175.721 45.3533L175.7 45.3916L179.216 47.3ZM171.31 53.933L169.958 50.1682L169.943 50.1739L169.927 50.1796L171.31 53.933ZM159.585 53.799L158.053 57.494L158.106 57.5162L158.161 57.537L159.585 53.799ZM154.828 50.449L151.828 53.0955L151.848 53.1177L151.868 53.1397L154.828 50.449ZM151.679 44.888L147.869 46.1071L147.884 46.1533L147.9 46.1991L151.679 44.888ZM151.679 29.478L147.908 28.1426L147.896 28.1777L147.884 28.2131L151.679 29.478ZM154.828 24.252L157.656 27.0804L157.679 27.0572L157.702 27.0337L154.828 24.252ZM159.652 21.17L158.334 17.3932L158.32 17.3981L158.306 17.403L159.652 21.17ZM171.846 21.036L170.581 24.8307L170.595 24.8355L170.609 24.8401L171.846 21.036ZM176.469 23.582L173.857 26.6116L173.882 26.6335L173.908 26.6549L176.469 23.582ZM180.958 32.828V36.828H185.247L184.948 32.5496L180.958 32.828ZM172.181 32.828L168.215 33.3498L168.673 36.828H172.181V32.828ZM170.104 28.875L167.461 31.8779L167.525 31.9337L167.59 31.9868L170.104 28.875ZM163.337 27.87L164.787 31.598L164.787 31.598L163.337 27.87ZM161.193 29.478L158.105 26.9352L158.097 26.9454L158.088 26.9556L161.193 29.478ZM159.786 32.426L163.621 33.5624L163.627 33.5436L163.632 33.5249L159.786 32.426ZM172.114 42.074V38.074H168.494L168.134 41.676L172.114 42.074ZM180.891 42.074L176.918 41.612C176.752 43.0367 176.349 44.2545 175.743 45.3154L179.216 47.3L182.689 49.2846C183.869 47.2188 184.583 44.9526 184.864 42.536L180.891 42.074ZM179.216 47.3L175.7 45.3916C175.088 46.5189 174.315 47.4612 173.372 48.2471L175.933 51.32L178.494 54.3929C180.23 52.9455 181.646 51.2078 182.731 49.2084L179.216 47.3ZM175.933 51.32L173.372 48.2471C172.413 49.0463 171.287 49.6913 169.958 50.1682L171.31 53.933L172.661 57.6978C174.817 56.9241 176.773 55.8271 178.494 54.3929L175.933 51.32ZM171.31 53.933L169.927 50.1796C168.719 50.6247 167.339 50.871 165.749 50.871V54.871V58.871C168.178 58.871 170.506 58.492 172.693 57.6864L171.31 53.933ZM165.749 54.871V50.871C163.948 50.871 162.382 50.5841 161.009 50.061L159.585 53.799L158.161 57.537C160.54 58.4433 163.083 58.871 165.749 58.871V54.871ZM159.585 53.799L161.117 50.104C159.832 49.5714 158.733 48.7987 157.788 47.7583L154.828 50.449L151.868 53.1397C153.602 55.0473 155.675 56.5079 158.053 57.494L159.585 53.799ZM154.828 50.449L157.827 47.8025C156.877 46.7261 156.071 45.3441 155.458 43.5769L151.679 44.888L147.9 46.1991C148.805 48.8092 150.098 51.1346 151.828 53.0955L154.828 50.449ZM151.679 44.888L155.488 43.6689C154.927 41.9159 154.607 39.7517 154.607 37.116H150.607H146.607C146.607 40.3763 147.001 43.3935 147.869 46.1071L151.679 44.888ZM150.607 37.116H154.607C154.607 34.4745 154.929 32.3764 155.474 30.7429L151.679 29.478L147.884 28.2131C146.999 30.8676 146.607 33.8615 146.607 37.116H150.607ZM151.679 29.478L155.449 30.8134C156.049 29.1201 156.813 27.9231 157.656 27.0804L154.828 24.252L151.999 21.4236C150.162 23.2609 148.827 25.5479 147.908 28.1426L151.679 29.478ZM154.828 24.252L157.702 27.0337C158.6 26.1057 159.68 25.4075 160.997 24.937L159.652 21.17L158.306 17.403C155.872 18.2725 153.735 19.629 151.953 21.4703L154.828 24.252ZM159.652 21.17L160.969 24.9468C162.411 24.4439 164.08 24.165 166.017 24.165V20.165V16.165C163.308 16.165 160.734 16.5561 158.334 17.3932L159.652 21.17ZM166.017 20.165V24.165C167.801 24.165 169.309 24.4066 170.581 24.8307L171.846 21.036L173.111 17.2413C170.899 16.504 168.52 16.165 166.017 16.165V20.165ZM171.846 21.036L170.609 24.8401C171.941 25.2728 173.002 25.8747 173.857 26.6116L176.469 23.582L179.081 20.5524C177.345 19.056 175.324 17.9605 173.082 17.2319L171.846 21.036ZM176.469 23.582L173.908 26.6549C174.814 27.4097 175.509 28.2985 176.02 29.3496L179.618 27.602L183.216 25.8544C182.208 23.7788 180.804 21.9876 179.03 20.5091L176.469 23.582ZM179.618 27.602L176.02 29.3496C176.533 30.4057 176.865 31.641 176.967 33.1064L180.958 32.828L184.948 32.5496C184.782 30.1736 184.222 27.925 183.216 25.8544L179.618 27.602ZM180.958 32.828V28.828H172.181V32.828V36.828H180.958V32.828ZM172.181 32.828L176.147 32.3062C175.811 29.7521 174.695 27.4414 172.617 25.7632L170.104 28.875L167.59 31.9868C167.835 32.1846 168.104 32.5093 168.215 33.3498L172.181 32.828ZM170.104 28.875L172.746 25.8721C170.817 24.1741 168.459 23.401 165.95 23.401V27.401V31.401C166.746 31.401 167.158 31.6106 167.461 31.8779L170.104 28.875ZM165.95 27.401V23.401C164.559 23.401 163.192 23.6344 161.887 24.142L163.337 27.87L164.787 31.598C165.089 31.4802 165.464 31.401 165.95 31.401V27.401ZM163.337 27.87L161.887 24.142C160.359 24.736 159.104 25.7223 158.105 26.9352L161.193 29.478L164.28 32.0208C164.532 31.7151 164.706 31.6293 164.787 31.598L163.337 27.87ZM161.193 29.478L158.088 26.9556C157.057 28.225 156.389 29.7556 155.94 31.3271L159.786 32.426L163.632 33.5249C163.898 32.5951 164.167 32.1603 164.297 32.0004L161.193 29.478ZM159.786 32.426L155.951 31.2896C155.449 32.9834 155.25 34.8911 155.25 36.915H159.25H163.25C163.25 35.3656 163.408 34.2806 163.621 33.5624L159.786 32.426ZM159.25 36.915H155.25C155.25 40.8717 155.933 44.5844 157.983 47.3418L161.193 44.955L164.403 42.5682C163.862 41.8416 163.25 40.1943 163.25 36.915H159.25ZM161.193 44.955L157.983 47.3418C159.801 49.7867 162.376 51.568 165.682 51.568V47.568V43.568C165.593 43.568 165.175 43.6073 164.403 42.5682L161.193 44.955ZM165.682 47.568V51.568C168.164 51.568 170.506 50.8633 172.493 49.3184L170.037 46.161L167.581 43.0036C167.155 43.3347 166.594 43.568 165.682 43.568V47.568ZM170.037 46.161L172.493 49.3184C174.715 47.59 175.827 45.141 176.094 42.472L172.114 42.074L168.134 41.676C168.043 42.5803 167.771 42.856 167.581 43.0036L170.037 46.161ZM172.114 42.074V46.074H180.891V42.074V38.074H172.114V42.074ZM202.16 32.292V28.292H198.16V32.292H202.16ZM210.267 32.292H214.267V28.292H210.267V32.292ZM209.463 46.697L205.668 45.4321L205.657 45.4648L205.647 45.4977L209.463 46.697ZM207.051 50.918L204.067 48.2539L204.061 48.2605L207.051 50.918ZM202.897 53.799L201.344 50.1125L201.327 50.1199L201.309 50.1276L202.897 53.799ZM190.77 53.799L189.217 57.4855L190.77 53.799ZM186.549 50.918L183.559 53.5755L183.586 53.6058L183.614 53.6356L186.549 50.918ZM184.204 46.697L180.378 47.8659L180.378 47.8659L184.204 46.697ZM183.467 12.125V8.125H179.467V12.125H183.467ZM192.043 12.125H196.043V8.125H192.043V12.125ZM192.043 21.036H188.043V25.036H192.043V21.036ZM210.267 21.036H214.267V17.036H210.267V21.036ZM210.267 27.2V31.2H214.267V27.2H210.267ZM192.043 27.2V23.2H188.043V27.2H192.043ZM193.182 45.625L189.834 47.814L189.883 47.8893L189.935 47.9622L193.182 45.625ZM200.887 45.625L197.702 43.2047L197.671 43.2458L197.64 43.2878L200.887 45.625ZM202.16 32.292V36.292H210.267V32.292V28.292H202.16V32.292ZM210.267 32.292H206.267V41.672H210.267H214.267V32.292H210.267ZM210.267 41.672H206.267C206.267 42.9961 206.064 44.2433 205.668 45.4321L209.463 46.697L213.257 47.9619C213.933 45.9347 214.267 43.8319 214.267 41.672H210.267ZM209.463 46.697L205.647 45.4977C205.33 46.5065 204.814 47.4168 204.067 48.2539L207.051 50.918L210.034 53.5821C211.52 51.9178 212.613 50.0142 213.279 47.8963L209.463 46.697ZM207.051 50.918L204.061 48.2605C203.438 48.9615 202.57 49.5965 201.344 50.1125L202.897 53.799L204.449 57.4855C206.618 56.5721 208.519 55.2865 210.04 53.5755L207.051 50.918ZM202.897 53.799L201.309 50.1276C200.28 50.5724 198.862 50.871 196.934 50.871V54.871V58.871C199.651 58.871 202.208 58.4549 204.484 57.4704L202.897 53.799ZM196.934 54.871V50.871C194.898 50.871 193.401 50.5669 192.322 50.1125L190.77 53.799L189.217 57.4855C191.533 58.4604 194.146 58.871 196.934 58.871V54.871ZM190.77 53.799L192.322 50.1125C191.086 49.592 190.169 48.941 189.484 48.2004L186.549 50.918L183.614 53.6356C185.161 55.307 187.059 56.5767 189.217 57.4855L190.77 53.799ZM186.549 50.918L189.538 48.2605C188.865 47.503 188.359 46.6093 188.029 45.5281L184.204 46.697L180.378 47.8659C181.031 50.0007 182.088 51.921 183.559 53.5755L186.549 50.918ZM184.204 46.697L188.029 45.5281C187.66 44.322 187.467 43.0204 187.467 41.605H183.467H179.467C179.467 43.763 179.764 45.856 180.378 47.8659L184.204 46.697ZM183.467 41.605H187.467V12.125H183.467H179.467V41.605H183.467ZM183.467 12.125V16.125H192.043V12.125V8.125H183.467V12.125ZM192.043 12.125H188.043V21.036H192.043H196.043V12.125H192.043ZM192.043 21.036V25.036H210.267V21.036V17.036H192.043V21.036ZM210.267 21.036H206.267V27.2H210.267H214.267V21.036H210.267ZM210.267 27.2V23.2H192.043V27.2V31.2H210.267V27.2ZM192.043 27.2H188.043V40.734H192.043H196.043V27.2H192.043ZM192.043 40.734H188.043C188.043 43.2386 188.483 45.748 189.834 47.814L193.182 45.625L196.529 43.436C196.362 43.1793 196.043 42.428 196.043 40.734H192.043ZM193.182 45.625L189.935 47.9622C191.708 50.4247 194.418 51.3 197.068 51.3V47.3V43.3C196.579 43.3 196.373 43.2224 196.339 43.208C196.326 43.2021 196.342 43.2076 196.371 43.2311C196.401 43.255 196.421 43.2781 196.428 43.2878L193.182 45.625ZM197.068 47.3V51.3C199.715 51.3 202.379 50.3977 204.133 47.9622L200.887 45.625L197.64 43.2878C197.64 43.288 197.644 43.2826 197.653 43.2735C197.661 43.2644 197.672 43.2542 197.685 43.2442C197.712 43.222 197.73 43.2148 197.722 43.2181C197.703 43.2265 197.521 43.3 197.068 43.3V47.3ZM200.887 45.625L204.071 48.0453C205.644 45.9753 206.16 43.4064 206.16 40.868H202.16H198.16C198.16 42.439 197.826 43.0414 197.702 43.2047L200.887 45.625ZM202.16 40.868H206.16V32.292H202.16H198.16V40.868H202.16Z" fill="url(#paint0_linear_5_53)" mask="url(#path-2-outside-1_5_53)"/>
</g>
</g>
<defs>
<filter id="filter0_d_5_53" x="5.742" y="4.97598" width="212.525" height="76.635" filterUnits="userSpaceOnUse" color-interpolation-filters="sRGB">
<feFlood flood-opacity="0" result="BackgroundImageFix"/>
<feColorMatrix in="SourceAlpha" type="matrix" values="0 0 0 0 0 0 0 0 0 0 0 0 0 0 0 0 0 0 127 0" result="hardAlpha"/>
<feOffset dy="4"/>
<feGaussianBlur stdDeviation="2"/>
<feComposite in2="hardAlpha" operator="out"/>
<feColorMatrix type="matrix" values="0 0 0 0 0 0 0 0 0 0 0 0 0 0 0 0 0 0 0.25 0"/>
<feBlend mode="normal" in2="BackgroundImageFix" result="effect1_dropShadow_5_53"/>
<feBlend mode="normal" in="SourceGraphic" in2="effect1_dropShadow_5_53" result="shape"/>
</filter>
<linearGradient id="paint0_linear_5_53" x1="2.01242" y1="-11" x2="108.337" y2="133.699" gradientUnits="userSpaceOnUse">
<stop stop-color="#3AB9FF"/>
<stop offset="1" stop-color="#1C66C9"/>
</linearGradient>
</defs>
</svg>
