<svg width="270" height="119" viewBox="0 0 270 119" fill="none" xmlns="http://www.w3.org/2000/svg">
<mask id="mask0_5_48" style="mask-type:alpha" maskUnits="userSpaceOnUse" x="0" y="0" width="270" height="119">
<rect width="270" height="119" fill="#D9D9D9"/>
</mask>
<g mask="url(#mask0_5_48)">
<g filter="url(#filter0_d_5_48)">
<mask id="path-2-outside-1_5_48" maskUnits="userSpaceOnUse" x="8" y="4" width="254" height="55" fill="black">
<rect fill="white" x="8" y="4" width="254" height="55"/>
<path d="M33.574 31.019C33.3507 29.411 32.77 28.2943 31.832 27.669C30.894 26.999 29.42 26.664 27.41 26.664C25.7573 26.664 24.4843 26.8873 23.591 27.334C22.6977 27.736 22.251 28.4283 22.251 29.411C22.251 30.3937 22.6977 31.153 23.591 31.689C24.4843 32.1803 25.8243 32.6717 27.611 33.163C29.487 33.699 31.2737 34.1903 32.971 34.637C34.6683 35.039 36.1647 35.4857 37.46 35.977C39.202 36.6917 40.542 37.6743 41.48 38.925C42.418 40.131 42.887 41.806 42.887 43.95C42.887 47.3893 41.6587 50.0693 39.202 51.99C36.79 53.9107 33.2167 54.871 28.482 54.871C23.39 54.871 19.4817 53.799 16.757 51.655C14.077 49.511 12.6923 46.764 12.603 43.414H21.581C21.581 44.9773 22.184 46.1833 23.39 47.032C24.596 47.8807 26.271 48.305 28.415 48.305C29.9783 48.305 31.3407 48.0593 32.502 47.568C33.6633 47.032 34.244 46.1387 34.244 44.888C34.244 43.7267 33.708 42.9003 32.636 42.409C31.6087 41.9177 30.3803 41.4933 28.951 41.136C26.1817 40.466 23.9483 39.863 22.251 39.327C20.5537 38.791 19.1243 38.1433 17.963 37.384C16.3997 36.4013 15.3053 35.2847 14.68 34.034C14.0993 32.7833 13.809 31.421 13.809 29.947C13.809 28.5623 14.0547 27.267 14.546 26.061C15.0373 24.855 15.8413 23.8277 16.958 22.979C18.0747 22.0857 19.504 21.3933 21.246 20.902C23.0327 20.4107 25.1767 20.165 27.678 20.165C32.4573 20.165 35.9637 21.0807 38.197 22.912C40.475 24.7433 41.7257 27.4457 41.949 31.019H33.574ZM61.5585 47.568C66.8739 47.568 69.5315 44.218 69.5315 37.518C69.5315 30.8627 66.8739 27.535 61.5585 27.535C56.2432 27.535 53.5855 30.8627 53.5855 37.518C53.5855 44.218 56.2432 47.568 61.5585 47.568ZM61.5585 54.871C58.8785 54.871 56.4889 54.4467 54.3895 53.598C52.2902 52.7493 50.5035 51.5657 49.0295 50.047C47.6002 48.5283 46.5059 46.697 45.7465 44.553C44.9872 42.409 44.6075 40.064 44.6075 37.518C44.6075 34.9273 44.9872 32.56 45.7465 30.416C46.5505 28.272 47.6895 26.4407 49.1635 24.922C50.6375 23.4033 52.4019 22.242 54.4565 21.438C56.5559 20.5893 58.9232 20.165 61.5585 20.165C64.1492 20.165 66.4719 20.5893 68.5265 21.438C70.5812 22.242 72.3232 23.4033 73.7525 24.922C75.2265 26.396 76.3432 28.205 77.1025 30.349C77.9065 32.493 78.3085 34.8827 78.3085 37.518C78.3085 40.1533 77.9065 42.543 77.1025 44.687C76.3432 46.7863 75.2265 48.5953 73.7525 50.114C72.3232 51.6327 70.5589 52.8163 68.4595 53.665C66.4049 54.469 64.1045 54.871 61.5585 54.871ZM82.2615 54V27.2H77.3705V21.036H82.2615C82.2615 12.996 86.9292 8.976 96.2645 8.976V16.011C95.1479 16.011 94.2322 16.1003 93.5175 16.279C92.8475 16.413 92.3115 16.681 91.9095 17.083C91.5075 17.485 91.2172 18.021 91.0385 18.691C90.9045 19.3163 90.8375 20.098 90.8375 21.036H96.4655V27.2H90.8375V54H82.2615ZM117.297 32.292H125.404V41.672C125.404 43.414 125.136 45.089 124.6 46.697C124.109 48.2603 123.305 49.6673 122.188 50.918C121.116 52.124 119.732 53.0843 118.034 53.799C116.382 54.5137 114.394 54.871 112.071 54.871C109.659 54.871 107.605 54.5137 105.907 53.799C104.21 53.0843 102.803 52.124 101.686 50.918C100.614 49.712 99.8326 48.305 99.3413 46.697C98.85 45.089 98.6043 43.3917 98.6043 41.605V12.125H107.18V21.036H125.404V27.2H107.18V40.734C107.18 42.8333 107.56 44.4637 108.319 45.625C109.123 46.7417 110.419 47.3 112.205 47.3C113.947 47.3 115.22 46.7417 116.024 45.625C116.873 44.5083 117.297 42.9227 117.297 40.868V32.292ZM156.166 54L150.94 34.838L145.714 54H136.803L127.423 21.036H136.602L141.962 42.208L146.518 21.036H155.362L160.521 42.208L165.546 21.036H174.524L165.077 54H156.166ZM194.143 37.853C193.696 38.2997 193.049 38.657 192.2 38.925C191.351 39.193 190.123 39.4833 188.515 39.796C186.014 40.2873 184.294 40.9127 183.356 41.672C182.418 42.4313 181.949 43.5257 181.949 44.955C181.949 47.4117 183.356 48.64 186.17 48.64C187.287 48.64 188.314 48.4613 189.252 48.104C190.235 47.702 191.061 47.1883 191.731 46.563C192.446 45.893 193.004 45.1337 193.406 44.285C193.853 43.3917 194.076 42.4537 194.076 41.471L194.143 37.853ZM194.746 54C194.478 53.1513 194.299 52.1687 194.21 51.052C193.183 52.2133 191.82 53.1513 190.123 53.866C188.426 54.536 186.46 54.871 184.227 54.871C180.43 54.871 177.639 54.0447 175.852 52.392C174.11 50.6947 173.239 48.506 173.239 45.826C173.239 43.4587 173.619 41.5827 174.378 40.198C175.137 38.7687 176.187 37.652 177.527 36.848C178.867 36.044 180.453 35.4633 182.284 35.106C184.16 34.704 186.192 34.3467 188.381 34.034C190.57 33.7213 192.044 33.3193 192.803 32.828C193.562 32.292 193.942 31.4433 193.942 30.282C193.942 29.21 193.428 28.3837 192.401 27.803C191.418 27.1777 190.078 26.865 188.381 26.865C186.371 26.865 184.919 27.3117 184.026 28.205C183.177 29.0983 182.641 30.282 182.418 31.756H174.311C174.356 30.0587 174.624 28.4953 175.115 27.066C175.651 25.6367 176.477 24.4083 177.594 23.381C178.755 22.3537 180.252 21.572 182.083 21.036C183.914 20.4553 186.148 20.165 188.783 20.165C191.374 20.165 193.562 20.4553 195.349 21.036C197.18 21.6167 198.632 22.4653 199.704 23.582C200.821 24.654 201.625 26.0163 202.116 27.669C202.607 29.277 202.853 31.1083 202.853 33.163V54H194.746ZM206.694 54V21.036H214.868V24.989C215.583 23.8723 216.32 23.0013 217.079 22.376C217.883 21.7507 218.687 21.2817 219.491 20.969C220.34 20.6117 221.188 20.3883 222.037 20.299C222.886 20.2097 223.757 20.165 224.65 20.165H225.789V29.076C224.985 28.942 224.181 28.875 223.377 28.875C218.062 28.875 215.404 31.5327 215.404 36.848V54H206.694ZM247.9 34.302C247.856 33.096 247.632 32.0463 247.23 31.153C246.873 30.215 246.382 29.4557 245.756 28.875C245.131 28.2497 244.416 27.803 243.612 27.535C242.808 27.2223 241.982 27.066 241.133 27.066C239.391 27.066 237.873 27.7137 236.577 29.009C235.327 30.2597 234.612 32.024 234.433 34.302H247.9ZM234.165 39.796C234.299 42.2973 235.014 44.285 236.309 45.759C237.649 47.233 239.391 47.97 241.535 47.97C242.965 47.97 244.215 47.6573 245.287 47.032C246.404 46.362 247.119 45.4463 247.431 44.285H256.409C255.382 47.6797 253.595 50.2927 251.049 52.124C248.503 53.9553 245.466 54.871 241.937 54.871C230.949 54.871 225.455 48.8857 225.455 36.915C225.455 34.369 225.813 32.0687 226.527 30.014C227.242 27.9593 228.269 26.195 229.609 24.721C230.994 23.247 232.669 22.1303 234.634 21.371C236.6 20.567 238.855 20.165 241.401 20.165C246.493 20.165 250.335 21.7953 252.925 25.056C255.561 28.3167 256.878 33.23 256.878 39.796H234.165Z"/>
</mask>
<path d="M33.574 31.019C33.3507 29.411 32.77 28.2943 31.832 27.669C30.894 26.999 29.42 26.664 27.41 26.664C25.7573 26.664 24.4843 26.8873 23.591 27.334C22.6977 27.736 22.251 28.4283 22.251 29.411C22.251 30.3937 22.6977 31.153 23.591 31.689C24.4843 32.1803 25.8243 32.6717 27.611 33.163C29.487 33.699 31.2737 34.1903 32.971 34.637C34.6683 35.039 36.1647 35.4857 37.46 35.977C39.202 36.6917 40.542 37.6743 41.48 38.925C42.418 40.131 42.887 41.806 42.887 43.95C42.887 47.3893 41.6587 50.0693 39.202 51.99C36.79 53.9107 33.2167 54.871 28.482 54.871C23.39 54.871 19.4817 53.799 16.757 51.655C14.077 49.511 12.6923 46.764 12.603 43.414H21.581C21.581 44.9773 22.184 46.1833 23.39 47.032C24.596 47.8807 26.271 48.305 28.415 48.305C29.9783 48.305 31.3407 48.0593 32.502 47.568C33.6633 47.032 34.244 46.1387 34.244 44.888C34.244 43.7267 33.708 42.9003 32.636 42.409C31.6087 41.9177 30.3803 41.4933 28.951 41.136C26.1817 40.466 23.9483 39.863 22.251 39.327C20.5537 38.791 19.1243 38.1433 17.963 37.384C16.3997 36.4013 15.3053 35.2847 14.68 34.034C14.0993 32.7833 13.809 31.421 13.809 29.947C13.809 28.5623 14.0547 27.267 14.546 26.061C15.0373 24.855 15.8413 23.8277 16.958 22.979C18.0747 22.0857 19.504 21.3933 21.246 20.902C23.0327 20.4107 25.1767 20.165 27.678 20.165C32.4573 20.165 35.9637 21.0807 38.197 22.912C40.475 24.7433 41.7257 27.4457 41.949 31.019H33.574ZM61.5585 47.568C66.8739 47.568 69.5315 44.218 69.5315 37.518C69.5315 30.8627 66.8739 27.535 61.5585 27.535C56.2432 27.535 53.5855 30.8627 53.5855 37.518C53.5855 44.218 56.2432 47.568 61.5585 47.568ZM61.5585 54.871C58.8785 54.871 56.4889 54.4467 54.3895 53.598C52.2902 52.7493 50.5035 51.5657 49.0295 50.047C47.6002 48.5283 46.5059 46.697 45.7465 44.553C44.9872 42.409 44.6075 40.064 44.6075 37.518C44.6075 34.9273 44.9872 32.56 45.7465 30.416C46.5505 28.272 47.6895 26.4407 49.1635 24.922C50.6375 23.4033 52.4019 22.242 54.4565 21.438C56.5559 20.5893 58.9232 20.165 61.5585 20.165C64.1492 20.165 66.4719 20.5893 68.5265 21.438C70.5812 22.242 72.3232 23.4033 73.7525 24.922C75.2265 26.396 76.3432 28.205 77.1025 30.349C77.9065 32.493 78.3085 34.8827 78.3085 37.518C78.3085 40.1533 77.9065 42.543 77.1025 44.687C76.3432 46.7863 75.2265 48.5953 73.7525 50.114C72.3232 51.6327 70.5589 52.8163 68.4595 53.665C66.4049 54.469 64.1045 54.871 61.5585 54.871ZM82.2615 54V27.2H77.3705V21.036H82.2615C82.2615 12.996 86.9292 8.976 96.2645 8.976V16.011C95.1479 16.011 94.2322 16.1003 93.5175 16.279C92.8475 16.413 92.3115 16.681 91.9095 17.083C91.5075 17.485 91.2172 18.021 91.0385 18.691C90.9045 19.3163 90.8375 20.098 90.8375 21.036H96.4655V27.2H90.8375V54H82.2615ZM117.297 32.292H125.404V41.672C125.404 43.414 125.136 45.089 124.6 46.697C124.109 48.2603 123.305 49.6673 122.188 50.918C121.116 52.124 119.732 53.0843 118.034 53.799C116.382 54.5137 114.394 54.871 112.071 54.871C109.659 54.871 107.605 54.5137 105.907 53.799C104.21 53.0843 102.803 52.124 101.686 50.918C100.614 49.712 99.8326 48.305 99.3413 46.697C98.85 45.089 98.6043 43.3917 98.6043 41.605V12.125H107.18V21.036H125.404V27.2H107.18V40.734C107.18 42.8333 107.56 44.4637 108.319 45.625C109.123 46.7417 110.419 47.3 112.205 47.3C113.947 47.3 115.22 46.7417 116.024 45.625C116.873 44.5083 117.297 42.9227 117.297 40.868V32.292ZM156.166 54L150.94 34.838L145.714 54H136.803L127.423 21.036H136.602L141.962 42.208L146.518 21.036H155.362L160.521 42.208L165.546 21.036H174.524L165.077 54H156.166ZM194.143 37.853C193.696 38.2997 193.049 38.657 192.2 38.925C191.351 39.193 190.123 39.4833 188.515 39.796C186.014 40.2873 184.294 40.9127 183.356 41.672C182.418 42.4313 181.949 43.5257 181.949 44.955C181.949 47.4117 183.356 48.64 186.17 48.64C187.287 48.64 188.314 48.4613 189.252 48.104C190.235 47.702 191.061 47.1883 191.731 46.563C192.446 45.893 193.004 45.1337 193.406 44.285C193.853 43.3917 194.076 42.4537 194.076 41.471L194.143 37.853ZM194.746 54C194.478 53.1513 194.299 52.1687 194.21 51.052C193.183 52.2133 191.82 53.1513 190.123 53.866C188.426 54.536 186.46 54.871 184.227 54.871C180.43 54.871 177.639 54.0447 175.852 52.392C174.11 50.6947 173.239 48.506 173.239 45.826C173.239 43.4587 173.619 41.5827 174.378 40.198C175.137 38.7687 176.187 37.652 177.527 36.848C178.867 36.044 180.453 35.4633 182.284 35.106C184.16 34.704 186.192 34.3467 188.381 34.034C190.57 33.7213 192.044 33.3193 192.803 32.828C193.562 32.292 193.942 31.4433 193.942 30.282C193.942 29.21 193.428 28.3837 192.401 27.803C191.418 27.1777 190.078 26.865 188.381 26.865C186.371 26.865 184.919 27.3117 184.026 28.205C183.177 29.0983 182.641 30.282 182.418 31.756H174.311C174.356 30.0587 174.624 28.4953 175.115 27.066C175.651 25.6367 176.477 24.4083 177.594 23.381C178.755 22.3537 180.252 21.572 182.083 21.036C183.914 20.4553 186.148 20.165 188.783 20.165C191.374 20.165 193.562 20.4553 195.349 21.036C197.18 21.6167 198.632 22.4653 199.704 23.582C200.821 24.654 201.625 26.0163 202.116 27.669C202.607 29.277 202.853 31.1083 202.853 33.163V54H194.746ZM206.694 54V21.036H214.868V24.989C215.583 23.8723 216.32 23.0013 217.079 22.376C217.883 21.7507 218.687 21.2817 219.491 20.969C220.34 20.6117 221.188 20.3883 222.037 20.299C222.886 20.2097 223.757 20.165 224.65 20.165H225.789V29.076C224.985 28.942 224.181 28.875 223.377 28.875C218.062 28.875 215.404 31.5327 215.404 36.848V54H206.694ZM247.9 34.302C247.856 33.096 247.632 32.0463 247.23 31.153C246.873 30.215 246.382 29.4557 245.756 28.875C245.131 28.2497 244.416 27.803 243.612 27.535C242.808 27.2223 241.982 27.066 241.133 27.066C239.391 27.066 237.873 27.7137 236.577 29.009C235.327 30.2597 234.612 32.024 234.433 34.302H247.9ZM234.165 39.796C234.299 42.2973 235.014 44.285 236.309 45.759C237.649 47.233 239.391 47.97 241.535 47.97C242.965 47.97 244.215 47.6573 245.287 47.032C246.404 46.362 247.119 45.4463 247.431 44.285H256.409C255.382 47.6797 253.595 50.2927 251.049 52.124C248.503 53.9553 245.466 54.871 241.937 54.871C230.949 54.871 225.455 48.8857 225.455 36.915C225.455 34.369 225.813 32.0687 226.527 30.014C227.242 27.9593 228.269 26.195 229.609 24.721C230.994 23.247 232.669 22.1303 234.634 21.371C236.6 20.567 238.855 20.165 241.401 20.165C246.493 20.165 250.335 21.7953 252.925 25.056C255.561 28.3167 256.878 33.23 256.878 39.796H234.165Z" fill="white"/>
<path d="M33.574 31.019L29.612 31.5693L30.0912 35.019H33.574V31.019ZM31.832 27.669L29.507 30.9239L29.5595 30.9614L29.6132 30.9972L31.832 27.669ZM23.591 27.334L25.2325 30.9817L25.3069 30.9482L25.3799 30.9117L23.591 27.334ZM23.591 31.689L21.533 35.119L21.5975 35.1576L21.6633 35.1939L23.591 31.689ZM27.611 33.163L28.7099 29.3169L28.6908 29.3114L28.6716 29.3062L27.611 33.163ZM32.971 34.637L31.953 38.5053L32.0009 38.5179L32.0491 38.5293L32.971 34.637ZM37.46 35.977L38.9782 32.2763L38.9287 32.256L38.8786 32.237L37.46 35.977ZM41.48 38.925L38.28 41.325L38.3011 41.3531L38.3226 41.3808L41.48 38.925ZM39.202 51.99L36.7383 48.8388L36.7243 48.8498L36.7103 48.8609L39.202 51.99ZM16.757 51.655L14.2582 54.7785L14.2708 54.7885L14.2834 54.7985L16.757 51.655ZM12.603 43.414V39.414H8.49491L8.60442 43.5206L12.603 43.414ZM21.581 43.414H25.581V39.414H21.581V43.414ZM23.39 47.032L21.088 50.3032L21.088 50.3032L23.39 47.032ZM32.502 47.568L34.0606 51.2519L34.1198 51.2268L34.1782 51.1998L32.502 47.568ZM32.636 42.409L30.9102 46.0175L30.9397 46.0316L30.9694 46.0453L32.636 42.409ZM28.951 41.136L29.9211 37.2554L29.9064 37.2517L29.8916 37.2482L28.951 41.136ZM22.251 39.327L23.4555 35.5127L23.4555 35.5127L22.251 39.327ZM17.963 37.384L20.152 34.0361L20.122 34.0165L20.0917 33.9975L17.963 37.384ZM14.68 34.034L11.052 35.7184L11.0764 35.771L11.1023 35.8229L14.68 34.034ZM14.546 26.061L18.2504 27.5702L18.2504 27.5702L14.546 26.061ZM16.958 22.979L19.3783 26.1636L19.4179 26.1335L19.4568 26.1025L16.958 22.979ZM21.246 20.902L20.1854 17.0452L20.1728 17.0486L20.1602 17.0522L21.246 20.902ZM38.197 22.912L35.6607 26.0051L35.6757 26.0174L35.6908 26.0295L38.197 22.912ZM41.949 31.019V35.019H46.2068L45.9412 30.7695L41.949 31.019ZM33.574 31.019L37.536 30.4687C37.2262 28.2382 36.2979 25.8389 34.0508 24.3408L31.832 27.669L29.6132 30.9972C29.5451 30.9518 29.4909 30.9017 29.4534 30.8587C29.4173 30.8173 29.4103 30.7982 29.4221 30.8209C29.4508 30.8761 29.5459 31.093 29.612 31.5693L33.574 31.019ZM31.832 27.669L34.157 24.4141C32.1995 23.0159 29.7035 22.664 27.41 22.664V26.664V30.664C28.208 30.664 28.7676 30.7319 29.1365 30.8158C29.5092 30.9005 29.5817 30.9773 29.507 30.9239L31.832 27.669ZM27.41 26.664V22.664C25.4941 22.664 23.5007 22.907 21.8021 23.7563L23.591 27.334L25.3799 30.9117C25.468 30.8676 26.0206 30.664 27.41 30.664V26.664ZM23.591 27.334L21.9495 23.6863C20.9339 24.1433 19.9403 24.8773 19.2248 25.9862C18.5099 27.0944 18.251 28.3006 18.251 29.411H22.251H26.251C26.251 29.5387 26.2154 29.9075 25.9472 30.3233C25.6784 30.7399 25.3548 30.9267 25.2325 30.9817L23.591 27.334ZM22.251 29.411H18.251C18.251 31.8986 19.523 33.913 21.533 35.119L23.591 31.689L25.649 28.259C25.6707 28.2721 25.8613 28.3962 26.0337 28.6894C26.2125 28.9933 26.251 29.2735 26.251 29.411H22.251ZM23.591 31.689L21.6633 35.1939C22.9683 35.9116 24.6644 36.5012 26.5504 37.0198L27.611 33.163L28.6716 29.3062C26.9843 28.8422 26.0004 28.4491 25.5187 28.1841L23.591 31.689ZM27.611 33.163L26.5121 37.0091C28.4121 37.5519 30.2259 38.0508 31.953 38.5053L32.971 34.637L33.989 30.7687C32.3215 30.3299 30.5619 29.8461 28.7099 29.3169L27.611 33.163ZM32.971 34.637L32.0491 38.5293C33.6188 38.9011 34.9433 39.3005 36.0414 39.717L37.46 35.977L38.8786 32.237C37.386 31.6709 35.7179 31.1769 33.8929 30.7447L32.971 34.637ZM37.46 35.977L35.9418 39.6777C37.153 40.1746 37.8559 40.7595 38.28 41.325L41.48 38.925L44.68 36.525C43.2281 34.5891 41.251 33.2088 38.9782 32.2763L37.46 35.977ZM41.48 38.925L38.3226 41.3808C38.5322 41.6502 38.887 42.3442 38.887 43.95H42.887H46.887C46.887 41.2678 46.3038 38.6118 44.6374 36.4692L41.48 38.925ZM42.887 43.95H38.887C38.887 46.3035 38.1165 47.7612 36.7383 48.8388L39.202 51.99L41.6657 55.1412C45.2008 52.3774 46.887 48.4752 46.887 43.95H42.887ZM39.202 51.99L36.7103 48.8609C35.2975 49.9859 32.7713 50.871 28.482 50.871V54.871V58.871C33.662 58.871 38.2825 57.8354 41.6937 55.1191L39.202 51.99ZM28.482 54.871V50.871C23.8819 50.871 20.9867 49.8934 19.2306 48.5115L16.757 51.655L14.2834 54.7985C17.9766 57.7046 22.8981 58.871 28.482 58.871V54.871ZM16.757 51.655L19.2558 48.5315C17.4699 47.1028 16.6587 45.4476 16.6016 43.3074L12.603 43.414L8.60442 43.5206C8.72601 48.0804 10.6841 51.9192 14.2582 54.7785L16.757 51.655ZM12.603 43.414V47.414H21.581V43.414V39.414H12.603V43.414ZM21.581 43.414H17.581C17.581 46.1867 18.7441 48.6538 21.088 50.3032L23.39 47.032L25.692 43.7608C25.628 43.7158 25.6036 43.6885 25.6008 43.6853C25.599 43.6833 25.6052 43.6906 25.611 43.7021C25.6164 43.7131 25.6107 43.7061 25.6025 43.6685C25.5939 43.6289 25.581 43.5477 25.581 43.414H21.581ZM23.39 47.032L21.088 50.3032C23.2107 51.797 25.8042 52.305 28.415 52.305V48.305V44.305C26.7378 44.305 25.9813 43.9644 25.692 43.7608L23.39 47.032ZM28.415 48.305V52.305C30.3893 52.305 32.3031 51.9954 34.0606 51.2519L32.502 47.568L30.9434 43.8841C30.3782 44.1233 29.5673 44.305 28.415 44.305V48.305ZM32.502 47.568L34.1782 51.1998C35.3053 50.6797 36.3849 49.8719 37.1623 48.676C37.9433 47.4743 38.244 46.1501 38.244 44.888H34.244H30.244C30.244 44.8912 30.2437 44.826 30.2742 44.7133C30.3059 44.5963 30.3633 44.4567 30.4547 44.316C30.6514 44.0135 30.8601 43.9203 30.8258 43.9362L32.502 47.568ZM34.244 44.888H38.244C38.244 43.6755 37.9568 42.3906 37.1978 41.2205C36.4414 40.0543 35.3912 39.2717 34.3026 38.7727L32.636 42.409L30.9694 46.0453C30.9528 46.0377 30.7066 45.9139 30.4862 45.574C30.2632 45.2302 30.244 44.9391 30.244 44.888H34.244ZM32.636 42.409L34.3618 38.8005C33.0339 38.1654 31.5394 37.66 29.9211 37.2554L28.951 41.136L27.9809 45.0166C29.2213 45.3267 30.1835 45.67 30.9102 46.0175L32.636 42.409ZM28.951 41.136L29.8916 37.2482C27.1653 36.5886 25.0301 36.0099 23.4555 35.5127L22.251 39.327L21.0465 43.1413C22.8665 43.7161 25.1981 44.3434 28.0104 45.0238L28.951 41.136ZM22.251 39.327L23.4555 35.5127C22.0133 35.0572 20.936 34.5487 20.152 34.0361L17.963 37.384L15.774 40.7319C17.3127 41.7379 19.0941 42.5248 21.0465 43.1413L22.251 39.327ZM17.963 37.384L20.0917 33.9975C18.9548 33.2828 18.4663 32.6624 18.2577 32.2451L14.68 34.034L11.1023 35.8229C12.1443 37.907 13.8445 39.5198 15.8343 40.7705L17.963 37.384ZM14.68 34.034L18.308 32.3496C17.989 31.6625 17.809 30.88 17.809 29.947H13.809H9.809C9.809 31.962 10.2096 33.9042 11.052 35.7184L14.68 34.034ZM13.809 29.947H17.809C17.809 29.0466 17.9664 28.2672 18.2504 27.5702L14.546 26.061L10.8416 24.5518C10.1429 26.2668 9.809 28.078 9.809 29.947H13.809ZM14.546 26.061L18.2504 27.5702C18.4507 27.0786 18.7865 26.6134 19.3783 26.1636L16.958 22.979L14.5377 19.7943C12.8962 21.0419 11.624 22.6314 10.8416 24.5518L14.546 26.061ZM16.958 22.979L19.4568 26.1025C20.0607 25.6193 20.9729 25.1351 22.3318 24.7518L21.246 20.902L20.1602 17.0522C18.0351 17.6516 16.0886 18.552 14.4592 19.8555L16.958 22.979ZM21.246 20.902L22.3066 24.7588C23.6512 24.3891 25.4188 24.165 27.678 24.165V20.165V16.165C24.9345 16.165 22.4141 16.4323 20.1854 17.0452L21.246 20.902ZM27.678 20.165V24.165C32.0913 24.165 34.4799 25.0369 35.6607 26.0051L38.197 22.912L40.7333 19.8189C37.4474 17.1245 32.8233 16.165 27.678 16.165V20.165ZM38.197 22.912L35.6908 26.0295C36.9 27.0016 37.7866 28.5451 37.9568 31.2685L41.949 31.019L45.9412 30.7695C45.6648 26.3462 44.05 22.485 40.7032 19.7945L38.197 22.912ZM41.949 31.019V27.019H33.574V31.019V35.019H41.949V31.019ZM54.3895 53.598L55.8887 49.8896L55.8887 49.8896L54.3895 53.598ZM49.0295 50.047L46.1167 52.7885L46.1378 52.8108L46.1592 52.8329L49.0295 50.047ZM45.7465 44.553L41.976 45.8884L41.976 45.8884L45.7465 44.553ZM45.7465 30.416L42.0012 29.0115L41.9883 29.0459L41.976 29.0806L45.7465 30.416ZM49.1635 24.922L52.0339 27.7079L52.0339 27.7079L49.1635 24.922ZM54.4565 21.438L55.9141 25.163L55.935 25.1548L55.9557 25.1464L54.4565 21.438ZM68.5265 21.438L66.9995 25.135L67.0341 25.1493L67.0689 25.163L68.5265 21.438ZM73.7525 24.922L70.8397 27.6635L70.8813 27.7076L70.9241 27.7504L73.7525 24.922ZM77.1025 30.349L73.332 31.6844L73.3443 31.7191L73.3572 31.7535L77.1025 30.349ZM77.1025 44.687L73.3572 43.2825L73.349 43.3044L73.341 43.3265L77.1025 44.687ZM73.7525 50.114L70.8822 47.3281L70.8608 47.3502L70.8397 47.3725L73.7525 50.114ZM68.4595 53.665L69.9171 57.39L69.938 57.3818L69.9587 57.3734L68.4595 53.665ZM61.5585 47.568V51.568C65.1107 51.568 68.4023 50.4024 70.6719 47.5415C72.8014 44.8573 73.5315 41.2896 73.5315 37.518H69.5315H65.5315C65.5315 40.4464 64.9328 41.9037 64.4047 42.5695C64.0166 43.0586 63.3217 43.568 61.5585 43.568V47.568ZM69.5315 37.518H73.5315C73.5315 33.7641 72.7996 30.2088 70.6638 27.5345C68.3909 24.6886 65.1014 23.535 61.5585 23.535V27.535V31.535C63.3311 31.535 64.028 32.0452 64.4128 32.527C64.9346 33.1804 65.5315 34.6165 65.5315 37.518H69.5315ZM61.5585 27.535V23.535C58.0157 23.535 54.7262 24.6886 52.4533 27.5345C50.3175 30.2088 49.5855 33.7641 49.5855 37.518H53.5855H57.5855C57.5855 34.6165 58.1824 33.1804 58.7043 32.527C59.0891 32.0452 59.786 31.535 61.5585 31.535V27.535ZM53.5855 37.518H49.5855C49.5855 41.2896 50.3156 44.8573 52.4451 47.5415C54.7148 50.4024 58.0064 51.568 61.5585 51.568V47.568V43.568C59.7954 43.568 59.1005 43.0586 58.7124 42.5695C58.1843 41.9037 57.5855 40.4464 57.5855 37.518H53.5855ZM61.5585 54.871V50.871C59.2998 50.871 57.4328 50.5138 55.8887 49.8896L54.3895 53.598L52.8904 57.3064C55.5449 58.3796 58.4573 58.871 61.5585 58.871V54.871ZM54.3895 53.598L55.8887 49.8896C54.269 49.2348 52.9594 48.3527 51.8999 47.2611L49.0295 50.047L46.1592 52.8329C48.0477 54.7786 50.3114 56.2639 52.8904 57.3064L54.3895 53.598ZM49.0295 50.047L51.9423 47.3055C50.9267 46.2264 50.1081 44.8864 49.517 43.2176L45.7465 44.553L41.976 45.8884C42.9037 48.5076 44.2737 50.8303 46.1167 52.7885L49.0295 50.047ZM45.7465 44.553L49.517 43.2176C48.9266 41.5504 48.6075 39.6629 48.6075 37.518H44.6075H40.6075C40.6075 40.4651 41.0478 43.2676 41.976 45.8884L45.7465 44.553ZM44.6075 37.518H48.6075C48.6075 35.3199 48.9291 33.4114 49.517 31.7514L45.7465 30.416L41.976 29.0806C41.0453 31.7086 40.6075 34.5348 40.6075 37.518H44.6075ZM45.7465 30.416L49.4919 31.8205C50.1185 30.1496 50.9741 28.7998 52.0339 27.7079L49.1635 24.922L46.2932 22.1361C44.405 24.0816 42.9826 26.3944 42.0012 29.0115L45.7465 30.416ZM49.1635 24.922L52.0339 27.7079C53.0925 26.6172 54.3689 25.7676 55.9141 25.163L54.4565 21.438L52.9989 17.713C50.4348 18.7164 48.1826 20.1895 46.2932 22.1361L49.1635 24.922ZM54.4565 21.438L55.9557 25.1464C57.5073 24.5192 59.354 24.165 61.5585 24.165V20.165V16.165C58.4924 16.165 55.6044 16.6595 52.9574 17.7296L54.4565 21.438ZM61.5585 20.165V24.165C63.7108 24.165 65.5023 24.5166 66.9995 25.135L68.5265 21.438L70.0536 17.741C67.4414 16.662 64.5876 16.165 61.5585 16.165V20.165ZM68.5265 21.438L67.0689 25.163C68.6044 25.7638 69.84 26.6013 70.8397 27.6635L73.7525 24.922L76.6653 22.1805C74.8064 20.2054 72.558 18.7202 69.9841 17.713L68.5265 21.438ZM73.7525 24.922L70.9241 27.7504C71.9395 28.7658 72.7532 30.0501 73.332 31.6844L77.1025 30.349L80.873 29.0136C79.9332 26.3599 78.5136 24.0262 76.581 22.0936L73.7525 24.922ZM77.1025 30.349L73.3572 31.7535C73.9694 33.3861 74.3085 35.2909 74.3085 37.518H78.3085H82.3085C82.3085 34.4744 81.8436 31.5999 80.8479 28.9445L77.1025 30.349ZM78.3085 37.518H74.3085C74.3085 39.7451 73.9694 41.6499 73.3572 43.2825L77.1025 44.687L80.8479 46.0915C81.8436 43.4361 82.3085 40.5616 82.3085 37.518H78.3085ZM77.1025 44.687L73.341 43.3265C72.7637 44.9227 71.94 46.2382 70.8822 47.3281L73.7525 50.114L76.6229 52.8999C78.513 50.9524 79.9228 48.6499 80.864 46.0475L77.1025 44.687ZM73.7525 50.114L70.8397 47.3725C69.8393 48.4355 68.5708 49.3056 66.9604 49.9566L68.4595 53.665L69.9587 57.3734C72.547 56.3271 74.8071 54.8298 76.6653 52.8555L73.7525 50.114ZM68.4595 53.665L67.0019 49.94C65.4775 50.5366 63.6816 50.871 61.5585 50.871V54.871V58.871C64.5275 58.871 67.3323 58.4014 69.9171 57.39L68.4595 53.665ZM82.2615 54H78.2615V58H82.2615V54ZM82.2615 27.2H86.2615V23.2H82.2615V27.2ZM77.3705 27.2H73.3705V31.2H77.3705V27.2ZM77.3705 21.036V17.036H73.3705V21.036H77.3705ZM82.2615 21.036V25.036H86.2615V21.036H82.2615ZM96.2645 8.976H100.265V4.976H96.2645V8.976ZM96.2645 16.011V20.011H100.265V16.011H96.2645ZM93.5175 16.279L94.302 20.2013L94.3953 20.1827L94.4877 20.1596L93.5175 16.279ZM91.9095 17.083L94.738 19.9114L94.738 19.9114L91.9095 17.083ZM91.0385 18.691L87.1736 17.6603L87.1481 17.756L87.1273 17.8529L91.0385 18.691ZM90.8375 21.036H86.8375V25.036H90.8375V21.036ZM96.4655 21.036H100.466V17.036H96.4655V21.036ZM96.4655 27.2V31.2H100.466V27.2H96.4655ZM90.8375 27.2V23.2H86.8375V27.2H90.8375ZM90.8375 54V58H94.8375V54H90.8375ZM82.2615 54H86.2615V27.2H82.2615H78.2615V54H82.2615ZM82.2615 27.2V23.2H77.3705V27.2V31.2H82.2615V27.2ZM77.3705 27.2H81.3705V21.036H77.3705H73.3705V27.2H77.3705ZM77.3705 21.036V25.036H82.2615V21.036V17.036H77.3705V21.036ZM82.2615 21.036H86.2615C86.2615 17.8014 87.1726 16.0554 88.3726 15.0219C89.6869 13.8899 92.0793 12.976 96.2645 12.976V8.976V4.976C91.1145 4.976 86.5053 6.07208 83.152 8.96012C79.6843 11.9466 78.2615 16.2306 78.2615 21.036H82.2615ZM96.2645 8.976H92.2645V16.011H96.2645H100.265V8.976H96.2645ZM96.2645 16.011V12.011C94.9703 12.011 93.6974 12.1109 92.5474 12.3984L93.5175 16.279L94.4877 20.1596C94.767 20.0897 95.3254 20.011 96.2645 20.011V16.011ZM93.5175 16.279L92.7331 12.3567C91.4473 12.6138 90.1458 13.1899 89.0811 14.2546L91.9095 17.083L94.738 19.9114C94.6189 20.0305 94.4975 20.1104 94.4019 20.1582C94.3111 20.2036 94.2678 20.2082 94.302 20.2013L93.5175 16.279ZM91.9095 17.083L89.0811 14.2546C88.0828 15.2528 87.4939 16.4592 87.1736 17.6603L91.0385 18.691L94.9035 19.7216C94.9226 19.65 94.9311 19.648 94.9075 19.6916C94.882 19.7386 94.8289 19.8205 94.738 19.9114L91.9095 17.083ZM91.0385 18.691L87.1273 17.8529C86.9139 18.8488 86.8375 19.9339 86.8375 21.036H90.8375H94.8375C94.8375 20.2621 94.8952 19.7838 94.9497 19.5291L91.0385 18.691ZM90.8375 21.036V25.036H96.4655V21.036V17.036H90.8375V21.036ZM96.4655 21.036H92.4655V27.2H96.4655H100.466V21.036H96.4655ZM96.4655 27.2V23.2H90.8375V27.2V31.2H96.4655V27.2ZM90.8375 27.2H86.8375V54H90.8375H94.8375V27.2H90.8375ZM90.8375 54V50H82.2615V54V58H90.8375V54ZM117.297 32.292V28.292H113.297V32.292H117.297ZM125.404 32.292H129.404V28.292H125.404V32.292ZM124.6 46.697L120.806 45.4321L120.795 45.4648L120.784 45.4977L124.6 46.697ZM122.188 50.918L119.205 48.2539L119.199 48.2605L122.188 50.918ZM118.034 53.799L116.482 50.1125L116.464 50.1199L116.447 50.1276L118.034 53.799ZM105.907 53.799L104.355 57.4855L105.907 53.799ZM101.686 50.918L98.6967 53.5755L98.7237 53.6058L98.7513 53.6356L101.686 50.918ZM99.3413 46.697L95.5159 47.8659L95.5159 47.8659L99.3413 46.697ZM98.6043 12.125V8.125H94.6043V12.125H98.6043ZM107.18 12.125H111.18V8.125H107.18V12.125ZM107.18 21.036H103.18V25.036H107.18V21.036ZM125.404 21.036H129.404V17.036H125.404V21.036ZM125.404 27.2V31.2H129.404V27.2H125.404ZM107.18 27.2V23.2H103.18V27.2H107.18ZM108.319 45.625L104.971 47.814L105.021 47.8893L105.073 47.9622L108.319 45.625ZM116.024 45.625L112.84 43.2047L112.808 43.2458L112.778 43.2878L116.024 45.625ZM117.297 32.292V36.292H125.404V32.292V28.292H117.297V32.292ZM125.404 32.292H121.404V41.672H125.404H129.404V32.292H125.404ZM125.404 41.672H121.404C121.404 42.9961 121.202 44.2433 120.806 45.4321L124.6 46.697L128.395 47.9619C129.071 45.9347 129.404 43.8319 129.404 41.672H125.404ZM124.6 46.697L120.784 45.4977C120.467 46.5065 119.952 47.4168 119.205 48.2539L122.188 50.918L125.172 53.5821C126.658 51.9178 127.751 50.0142 128.416 47.8963L124.6 46.697ZM122.188 50.918L119.199 48.2605C118.576 48.9615 117.707 49.5965 116.482 50.1125L118.034 53.799L119.587 57.4855C121.756 56.5721 123.657 55.2865 125.178 53.5755L122.188 50.918ZM118.034 53.799L116.447 50.1276C115.418 50.5724 114 50.871 112.071 50.871V54.871V58.871C114.788 58.871 117.345 58.4549 119.622 57.4704L118.034 53.799ZM112.071 54.871V50.871C110.035 50.871 108.539 50.5669 107.46 50.1125L105.907 53.799L104.355 57.4855C106.67 58.4604 109.283 58.871 112.071 58.871V54.871ZM105.907 53.799L107.46 50.1125C106.223 49.592 105.307 48.941 104.621 48.2004L101.686 50.918L98.7513 53.6356C100.299 55.307 102.197 56.5767 104.355 57.4855L105.907 53.799ZM101.686 50.918L104.676 48.2605C104.003 47.503 103.497 46.6093 103.167 45.5281L99.3413 46.697L95.5159 47.8659C96.1682 50.0007 97.2261 51.921 98.6967 53.5755L101.686 50.918ZM99.3413 46.697L103.167 45.5281C102.798 44.322 102.604 43.0204 102.604 41.605H98.6043H94.6043C94.6043 43.763 94.9018 45.856 95.5159 47.8659L99.3413 46.697ZM98.6043 41.605H102.604V12.125H98.6043H94.6043V41.605H98.6043ZM98.6043 12.125V16.125H107.18V12.125V8.125H98.6043V12.125ZM107.18 12.125H103.18V21.036H107.18H111.18V12.125H107.18ZM107.18 21.036V25.036H125.404V21.036V17.036H107.18V21.036ZM125.404 21.036H121.404V27.2H125.404H129.404V21.036H125.404ZM125.404 27.2V23.2H107.18V27.2V31.2H125.404V27.2ZM107.18 27.2H103.18V40.734H107.18H111.18V27.2H107.18ZM107.18 40.734H103.18C103.18 43.2386 103.621 45.748 104.971 47.814L108.319 45.625L111.667 43.436C111.499 43.1793 111.18 42.428 111.18 40.734H107.18ZM108.319 45.625L105.073 47.9622C106.846 50.4247 109.556 51.3 112.205 51.3V47.3V43.3C111.717 43.3 111.511 43.2224 111.477 43.208C111.464 43.2021 111.48 43.2076 111.509 43.2311C111.539 43.255 111.558 43.2781 111.565 43.2878L108.319 45.625ZM112.205 47.3V51.3C114.853 51.3 117.517 50.3977 119.27 47.9622L116.024 45.625L112.778 43.2878C112.778 43.288 112.782 43.2826 112.79 43.2735C112.799 43.2644 112.81 43.2542 112.822 43.2442C112.85 43.222 112.867 43.2148 112.86 43.2181C112.841 43.2265 112.659 43.3 112.205 43.3V47.3ZM116.024 45.625L119.209 48.0453C120.782 45.9753 121.297 43.4064 121.297 40.868H117.297H113.297C113.297 42.439 112.964 43.0414 112.84 43.2047L116.024 45.625ZM117.297 40.868H121.297V32.292H117.297H113.297V40.868H117.297ZM156.166 54L152.307 55.0525L153.11 58H156.166V54ZM150.94 34.838L154.799 33.7855L150.94 19.6357L147.081 33.7855L150.94 34.838ZM145.714 54V58H148.769L149.573 55.0525L145.714 54ZM136.803 54L132.955 55.0948L133.782 58H136.803V54ZM127.423 21.036V17.036H122.126L123.575 22.1308L127.423 21.036ZM136.602 21.036L140.479 20.0543L139.715 17.036H136.602V21.036ZM141.962 42.208L138.084 43.1897L145.872 43.0495L141.962 42.208ZM146.518 21.036V17.036H143.287L142.607 20.1945L146.518 21.036ZM155.362 21.036L159.248 20.089L158.504 17.036H155.362V21.036ZM160.521 42.208L156.634 43.155L164.413 43.1317L160.521 42.208ZM165.546 21.036V17.036H162.384L161.654 20.1123L165.546 21.036ZM174.524 21.036L178.369 22.138L179.831 17.036H174.524V21.036ZM165.077 54V58H168.091L168.922 55.102L165.077 54ZM156.166 54L160.025 52.9475L154.799 33.7855L150.94 34.838L147.081 35.8905L152.307 55.0525L156.166 54ZM150.94 34.838L147.081 33.7855L141.855 52.9475L145.714 54L149.573 55.0525L154.799 35.8905L150.94 34.838ZM145.714 54V50H136.803V54V58H145.714V54ZM136.803 54L140.65 52.9052L131.27 19.9412L127.423 21.036L123.575 22.1308L132.955 55.0948L136.803 54ZM127.423 21.036V25.036H136.602V21.036V17.036H127.423V21.036ZM136.602 21.036L132.724 22.0177L138.084 43.1897L141.962 42.208L145.839 41.2263L140.479 20.0543L136.602 21.036ZM141.962 42.208L145.872 43.0495L150.428 21.8775L146.518 21.036L142.607 20.1945L138.051 41.3665L141.962 42.208ZM146.518 21.036V25.036H155.362V21.036V17.036H146.518V21.036ZM155.362 21.036L151.475 21.983L156.634 43.155L160.521 42.208L164.407 41.261L159.248 20.089L155.362 21.036ZM160.521 42.208L164.413 43.1317L169.438 21.9597L165.546 21.036L161.654 20.1123L156.629 41.2843L160.521 42.208ZM165.546 21.036V25.036H174.524V21.036V17.036H165.546V21.036ZM174.524 21.036L170.678 19.934L161.231 52.898L165.077 54L168.922 55.102L178.369 22.138L174.524 21.036ZM165.077 54V50H156.166V54V58H165.077V54ZM194.143 37.853L198.142 37.9271L198.326 28.0132L191.315 35.0246L194.143 37.853ZM192.2 38.925L190.996 35.1107L190.996 35.1107L192.2 38.925ZM188.515 39.796L187.752 35.8695L187.744 35.871L188.515 39.796ZM183.356 41.672L180.839 38.563L180.839 38.563L183.356 41.672ZM189.252 48.104L190.676 51.842L190.722 51.8246L190.767 51.8062L189.252 48.104ZM191.731 46.563L194.46 49.4872L194.467 49.4811L191.731 46.563ZM193.406 44.285L189.828 42.4961L189.809 42.5342L189.791 42.5727L193.406 44.285ZM194.076 41.471L190.077 41.3969L190.076 41.434V41.471H194.076ZM194.746 54L190.932 55.2045L191.815 58H194.746V54ZM194.21 51.052L198.197 50.733L197.447 41.3556L191.214 48.4017L194.21 51.052ZM190.123 53.866L191.592 57.5866L191.634 57.5701L191.675 57.5525L190.123 53.866ZM175.852 52.392L173.061 55.2569L173.098 55.2931L173.136 55.3284L175.852 52.392ZM174.378 40.198L177.885 42.1213L177.898 42.0981L177.911 42.0746L174.378 40.198ZM177.527 36.848L179.585 40.278L179.585 40.278L177.527 36.848ZM182.284 35.106L183.05 39.032L183.086 39.0249L183.122 39.0172L182.284 35.106ZM188.381 34.034L187.815 30.0742L187.815 30.0742L188.381 34.034ZM192.803 32.828L194.976 36.1863L195.044 36.1424L195.11 36.0959L192.803 32.828ZM192.401 27.803L190.254 31.1776L190.342 31.2338L190.433 31.2852L192.401 27.803ZM184.026 28.205L181.198 25.3766L181.161 25.4128L181.126 25.45L184.026 28.205ZM182.418 31.756V35.756H185.858L186.373 32.3552L182.418 31.756ZM174.311 31.756L170.313 31.6508L170.205 35.756H174.311V31.756ZM175.115 27.066L171.37 25.6615L171.35 25.7133L171.332 25.7657L175.115 27.066ZM177.594 23.381L174.944 20.385L174.915 20.4109L174.886 20.4373L177.594 23.381ZM182.083 21.036L183.207 24.8749L183.25 24.8624L183.292 24.8489L182.083 21.036ZM195.349 21.036L194.113 24.8401L194.126 24.8446L194.14 24.8489L195.349 21.036ZM199.704 23.582L196.819 26.3521L196.875 26.411L196.934 26.4675L199.704 23.582ZM202.116 27.669L198.282 28.8089L198.286 28.8234L198.291 28.8379L202.116 27.669ZM202.853 54V58H206.853V54H202.853ZM194.143 37.853L191.315 35.0246C191.398 34.9415 191.44 34.9263 191.39 34.9537C191.339 34.9819 191.217 35.0409 190.996 35.1107L192.2 38.925L193.405 42.7393C194.63 42.3522 195.923 41.7297 196.972 40.6814L194.143 37.853ZM192.2 38.925L190.996 35.1107C190.365 35.3098 189.312 35.5661 187.752 35.8695L188.515 39.796L189.279 43.7225C190.934 43.4006 192.338 43.0762 193.405 42.7393L192.2 38.925ZM188.515 39.796L187.744 35.871C185.164 36.3777 182.594 37.1425 180.839 38.563L183.356 41.672L185.873 44.781C185.868 44.7851 186.081 44.6238 186.716 44.3927C187.323 44.172 188.166 43.9411 189.286 43.721L188.515 39.796ZM183.356 41.672L180.839 38.563C178.786 40.2251 177.949 42.5664 177.949 44.955H181.949H185.949C185.949 44.6756 185.995 44.5979 185.977 44.6379C185.969 44.6572 185.953 44.6886 185.927 44.7227C185.901 44.7566 185.879 44.7759 185.873 44.781L183.356 41.672ZM181.949 44.955H177.949C177.949 46.9519 178.546 49.1364 180.374 50.732C182.098 52.237 184.27 52.64 186.17 52.64V48.64V44.64C185.745 44.64 185.521 44.5921 185.441 44.569C185.374 44.5495 185.478 44.5682 185.635 44.7055C185.711 44.7717 185.781 44.85 185.839 44.9349C185.897 45.019 185.931 45.0919 185.95 45.1404C185.985 45.2319 185.949 45.1969 185.949 44.955H181.949ZM186.17 48.64V52.64C187.719 52.64 189.235 52.3909 190.676 51.842L189.252 48.104L187.828 44.366C187.393 44.5317 186.855 44.64 186.17 44.64V48.64ZM189.252 48.104L190.767 51.8062C192.128 51.2493 193.385 50.4913 194.46 49.4872L191.731 46.563L189.002 43.6388C188.738 43.8854 188.342 44.1547 187.738 44.4018L189.252 48.104ZM191.731 46.563L194.467 49.4811C195.532 48.483 196.395 47.319 197.021 45.9973L193.406 44.285L189.791 42.5727C189.613 42.9483 189.36 43.303 188.995 43.6448L191.731 46.563ZM193.406 44.285L196.984 46.0739C197.704 44.6345 198.076 43.0851 198.076 41.471H194.076H190.076C190.076 41.8222 190.002 42.1488 189.828 42.4961L193.406 44.285ZM194.076 41.471L198.075 41.5451L198.142 37.9271L194.143 37.853L190.144 37.7789L190.077 41.3969L194.076 41.471ZM194.746 54L198.56 52.7955C198.403 52.2973 198.269 51.6225 198.197 50.733L194.21 51.052L190.223 51.371C190.33 52.7149 190.553 54.0054 190.932 55.2045L194.746 54ZM194.21 51.052L191.214 48.4017C190.652 49.0371 189.818 49.6543 188.571 50.1795L190.123 53.866L191.675 57.5525C193.823 56.6484 195.714 55.3896 197.206 53.7023L194.21 51.052ZM190.123 53.866L188.654 50.1454C187.517 50.5945 186.067 50.871 184.227 50.871V54.871V58.871C186.854 58.871 189.335 58.4775 191.592 57.5866L190.123 53.866ZM184.227 54.871V50.871C180.895 50.871 179.296 50.1288 178.568 49.4556L175.852 52.392L173.136 55.3284C175.982 57.9605 179.966 58.871 184.227 58.871V54.871ZM175.852 52.392L178.644 49.5271C177.757 48.6632 177.239 47.5483 177.239 45.826H173.239H169.239C169.239 49.4637 170.463 52.7261 173.061 55.2569L175.852 52.392ZM173.239 45.826H177.239C177.239 43.8216 177.571 42.6944 177.885 42.1213L174.378 40.198L170.871 38.2747C169.667 40.4709 169.239 43.0957 169.239 45.826H173.239ZM174.378 40.198L177.911 42.0746C178.342 41.2634 178.892 40.6941 179.585 40.278L177.527 36.848L175.469 33.418C173.483 34.6099 171.933 36.2739 170.846 38.3214L174.378 40.198ZM177.527 36.848L179.585 40.278C180.458 39.7545 181.589 39.3171 183.05 39.032L182.284 35.106L181.518 31.18C179.317 31.6096 177.277 32.3335 175.469 33.418L177.527 36.848ZM182.284 35.106L183.122 39.0172C184.896 38.6372 186.836 38.2953 188.947 37.9938L188.381 34.034L187.815 30.0742C185.549 30.398 183.425 30.7708 181.446 31.1948L182.284 35.106ZM188.381 34.034L188.947 37.9938C191.109 37.6849 193.398 37.2072 194.976 36.1863L192.803 32.828L190.63 29.4697C190.753 29.3902 190.649 29.4825 190.076 29.6389C189.552 29.7818 188.811 29.9319 187.815 30.0742L188.381 34.034ZM192.803 32.828L195.11 36.0959C197.197 34.6226 197.942 32.3793 197.942 30.282H193.942H189.942C189.942 30.4358 189.916 30.3567 190.006 30.156C190.052 30.0541 190.119 29.9394 190.212 29.8263C190.305 29.7132 190.405 29.6247 190.496 29.5601L192.803 32.828ZM193.942 30.282H197.942C197.942 27.5992 196.498 25.5239 194.369 24.3207L192.401 27.803L190.433 31.2852C190.486 31.3154 190.325 31.2355 190.16 30.97C189.983 30.6857 189.942 30.4138 189.942 30.282H193.942ZM192.401 27.803L194.549 24.4284C192.694 23.2482 190.511 22.865 188.381 22.865V26.865V30.865C189.646 30.865 190.143 31.1071 190.254 31.1776L192.401 27.803ZM188.381 26.865V22.865C185.915 22.865 183.181 23.3928 181.198 25.3766L184.026 28.205L186.855 31.0334C186.755 31.1326 186.734 31.0931 186.961 31.0231C187.206 30.9479 187.654 30.865 188.381 30.865V26.865ZM184.026 28.205L181.126 25.45C179.604 27.0523 178.783 29.046 178.463 31.1568L182.418 31.756L186.373 32.3552C186.5 31.518 186.751 31.1444 186.926 30.96L184.026 28.205ZM182.418 31.756V27.756H174.311V31.756V35.756H182.418V31.756ZM174.311 31.756L178.31 31.8612C178.345 30.5214 178.554 29.3664 178.898 28.3663L175.115 27.066L171.332 25.7657C170.694 27.6243 170.367 29.5959 170.313 31.6508L174.311 31.756ZM175.115 27.066L178.86 28.4705C179.178 27.6248 179.65 26.9247 180.302 26.3247L177.594 23.381L174.886 20.4373C173.305 21.8919 172.125 23.6486 171.37 25.6615L175.115 27.066ZM177.594 23.381L180.244 26.377C180.875 25.8188 181.813 25.2829 183.207 24.8749L182.083 21.036L180.96 17.197C178.691 17.8611 176.636 18.8885 174.944 20.385L177.594 23.381ZM182.083 21.036L183.292 24.8489C184.618 24.4287 186.417 24.165 188.783 24.165V20.165V16.165C185.879 16.165 183.211 16.482 180.874 17.2231L182.083 21.036ZM188.783 20.165V24.165C191.101 24.165 192.845 24.428 194.113 24.8401L195.349 21.036L196.586 17.2319C194.28 16.4827 191.647 16.165 188.783 16.165V20.165ZM195.349 21.036L194.14 24.8489C195.486 25.2756 196.308 25.8206 196.819 26.3521L199.704 23.582L202.59 20.8119C200.956 19.1101 198.875 17.9578 196.558 17.2231L195.349 21.036ZM199.704 23.582L196.934 26.4675C197.496 27.0067 197.965 27.7432 198.282 28.8089L202.116 27.669L205.95 26.5291C205.284 24.2895 204.146 22.3013 202.474 20.6964L199.704 23.582ZM202.116 27.669L198.291 28.8379C198.644 29.9939 198.853 31.42 198.853 33.163H202.853H206.853C206.853 30.7967 206.571 28.5601 205.942 26.5001L202.116 27.669ZM202.853 33.163H198.853V54H202.853H206.853V33.163H202.853ZM202.853 54V50H194.746V54V58H202.853V54ZM206.694 54H202.694V58H206.694V54ZM206.694 21.036V17.036H202.694V21.036H206.694ZM214.868 21.036H218.868V17.036H214.868V21.036ZM214.868 24.989H210.868V38.6594L218.237 27.1452L214.868 24.989ZM217.079 22.376L214.623 19.2186L214.579 19.2528L214.536 19.2883L217.079 22.376ZM219.491 20.969L220.941 24.697L220.992 24.677L221.043 24.6555L219.491 20.969ZM222.037 20.299L222.456 24.277L222.456 24.277L222.037 20.299ZM225.789 20.165H229.789V16.165H225.789V20.165ZM225.789 29.076L225.132 33.0216L229.789 33.7978V29.076H225.789ZM215.404 54V58H219.404V54H215.404ZM206.694 54H210.694V21.036H206.694H202.694V54H206.694ZM206.694 21.036V25.036H214.868V21.036V17.036H206.694V21.036ZM214.868 21.036H210.868V24.989H214.868H218.868V21.036H214.868ZM214.868 24.989L218.237 27.1452C218.8 26.2663 219.275 25.7494 219.622 25.4637L217.079 22.376L214.536 19.2883C213.365 20.2532 212.366 21.4784 211.499 22.8328L214.868 24.989ZM217.079 22.376L219.535 25.5334C220.087 25.1043 220.556 24.8465 220.941 24.697L219.491 20.969L218.041 17.241C216.818 17.7168 215.68 18.397 214.623 19.2186L217.079 22.376ZM219.491 20.969L221.043 24.6555C221.559 24.4384 222.027 24.3222 222.456 24.277L222.037 20.299L221.618 16.321C220.35 16.4545 219.121 16.7849 217.939 17.2825L219.491 20.969ZM222.037 20.299L222.456 24.277C223.159 24.203 223.89 24.165 224.65 24.165V20.165V16.165C223.623 16.165 222.612 16.2163 221.618 16.321L222.037 20.299ZM224.65 20.165V24.165H225.789V20.165V16.165H224.65V20.165ZM225.789 20.165H221.789V29.076H225.789H229.789V20.165H225.789ZM225.789 29.076L226.447 25.1304C225.428 24.9607 224.404 24.875 223.377 24.875V28.875V32.875C223.958 32.875 224.542 32.9233 225.132 33.0216L225.789 29.076ZM223.377 28.875V24.875C220.103 24.875 216.913 25.6963 214.569 28.0398C212.225 30.3834 211.404 33.5738 211.404 36.848H215.404H219.404C219.404 34.8069 219.912 34.0108 220.226 33.6967C220.54 33.3826 221.336 32.875 223.377 32.875V28.875ZM215.404 36.848H211.404V54H215.404H219.404V36.848H215.404ZM215.404 54V50H206.694V54V58H215.404V54ZM247.9 34.302V38.302H252.051L251.897 34.154L247.9 34.302ZM247.23 31.153L243.492 32.577L243.534 32.687L243.583 32.7945L247.23 31.153ZM245.756 28.875L242.928 31.7034L242.98 31.7558L243.034 31.8062L245.756 28.875ZM243.612 27.535L242.162 31.263L242.254 31.2986L242.347 31.3297L243.612 27.535ZM236.577 29.009L233.749 26.1806L233.749 26.1806L236.577 29.009ZM234.433 34.302L230.445 33.9892L230.107 38.302H234.433V34.302ZM234.165 39.796V35.796H229.945L230.171 40.01L234.165 39.796ZM236.309 45.759L233.305 48.3995L233.327 48.4248L233.349 48.4497L236.309 45.759ZM245.287 47.032L247.303 50.4871L247.324 50.4747L247.345 50.462L245.287 47.032ZM247.431 44.285V40.285H244.366L243.569 43.2451L247.431 44.285ZM256.409 44.285L260.238 45.4436L261.799 40.285H256.409V44.285ZM251.049 52.124L253.385 55.3712L253.385 55.3712L251.049 52.124ZM229.609 24.721L226.694 21.9823L226.671 22.0061L226.649 22.0303L229.609 24.721ZM234.634 21.371L236.076 25.1022L236.112 25.088L236.149 25.0732L234.634 21.371ZM252.925 25.056L249.793 27.5443L249.804 27.5574L249.814 27.5703L252.925 25.056ZM256.878 39.796V43.796H260.878V39.796H256.878ZM247.9 34.302L251.897 34.154C251.838 32.5482 251.535 30.9708 250.878 29.5115L247.23 31.153L243.583 32.7945C243.73 33.1218 243.873 33.6438 243.903 34.45L247.9 34.302ZM247.23 31.153L250.968 29.729C250.431 28.3179 249.626 27.0098 248.478 25.9438L245.756 28.875L243.034 31.8062C243.137 31.9015 243.315 32.1121 243.492 32.577L247.23 31.153ZM245.756 28.875L248.585 26.0466C247.54 25.0018 246.296 24.2133 244.877 23.7403L243.612 27.535L242.347 31.3297C242.536 31.3927 242.722 31.4975 242.928 31.7034L245.756 28.875ZM243.612 27.535L245.062 23.807C243.804 23.3176 242.486 23.066 241.133 23.066V27.066V31.066C241.478 31.066 241.813 31.1271 242.162 31.263L243.612 27.535ZM241.133 27.066V23.066C238.271 23.066 235.751 24.1781 233.749 26.1806L236.577 29.009L239.406 31.8374C239.994 31.2492 240.511 31.066 241.133 31.066V27.066ZM236.577 29.009L233.749 26.1806C231.648 28.2817 230.676 31.0444 230.445 33.9892L234.433 34.302L238.421 34.6148C238.547 33.0036 239.005 32.2376 239.406 31.8374L236.577 29.009ZM234.433 34.302V38.302H247.9V34.302V30.302H234.433V34.302ZM234.165 39.796L230.171 40.01C230.339 43.1567 231.269 46.0831 233.305 48.3995L236.309 45.759L239.314 43.1185C238.759 42.4869 238.259 41.4379 238.159 39.582L234.165 39.796ZM236.309 45.759L233.349 48.4497C235.51 50.8264 238.361 51.97 241.535 51.97V47.97V43.97C240.422 43.97 239.788 43.6396 239.269 43.0683L236.309 45.759ZM241.535 47.97V51.97C243.564 51.97 245.531 51.5205 247.303 50.4871L245.287 47.032L243.272 43.5769C242.899 43.7942 242.365 43.97 241.535 43.97V47.97ZM245.287 47.032L247.345 50.462C249.269 49.3074 250.688 47.5739 251.294 45.3249L247.431 44.285L243.569 43.2451C243.546 43.3281 243.524 43.3604 243.507 43.3817C243.487 43.4079 243.417 43.4895 243.229 43.602L245.287 47.032ZM247.431 44.285V48.285H256.409V44.285V40.285H247.431V44.285ZM256.409 44.285L252.581 43.1264C251.773 45.7953 250.454 47.625 248.713 48.8768L251.049 52.124L253.385 55.3712C256.737 52.9603 258.991 49.564 260.238 45.4436L256.409 44.285ZM251.049 52.124L248.713 48.8768C246.932 50.1584 244.737 50.871 241.937 50.871V54.871V58.871C246.195 58.871 250.075 57.7523 253.385 55.3712L251.049 52.124ZM241.937 54.871V50.871C237.152 50.871 234.272 49.5836 232.522 47.6771C230.713 45.7058 229.455 42.3646 229.455 36.915H225.455H221.455C221.455 43.436 222.944 49.0729 226.629 53.0869C230.373 57.1658 235.734 58.871 241.937 58.871V54.871ZM225.455 36.915H229.455C229.455 34.7418 229.76 32.8951 230.305 31.3281L226.527 30.014L222.749 28.6999C221.865 31.2422 221.455 33.9962 221.455 36.915H225.455ZM226.527 30.014L230.305 31.3281C230.859 29.7355 231.624 28.4513 232.569 27.4117L229.609 24.721L226.649 22.0303C224.914 23.9387 223.625 26.1831 222.749 28.6999L226.527 30.014ZM229.609 24.721L232.525 27.4597C233.481 26.4412 234.646 25.6547 236.076 25.1022L234.634 21.371L233.193 17.6398C230.692 18.606 228.506 20.0528 226.694 21.9823L229.609 24.721ZM234.634 21.371L236.149 25.0732C237.548 24.5008 239.274 24.165 241.401 24.165V20.165V16.165C238.437 16.165 235.651 16.6332 233.12 17.6688L234.634 21.371ZM241.401 20.165V24.165C245.574 24.165 248.131 25.4515 249.793 27.5443L252.925 25.056L256.057 22.5677C252.538 18.1392 247.413 16.165 241.401 16.165V20.165ZM252.925 25.056L249.814 27.5703C251.628 29.8148 252.878 33.6567 252.878 39.796H256.878H260.878C260.878 32.8033 259.493 26.8185 256.036 22.5417L252.925 25.056ZM256.878 39.796V35.796H234.165V39.796V43.796H256.878V39.796Z" fill="url(#paint0_linear_5_48)" mask="url(#path-2-outside-1_5_48)"/>
</g>
<g filter="url(#filter1_d_5_48)">
<mask id="path-4-outside-2_5_48" maskUnits="userSpaceOnUse" x="66.6261" y="34.8292" width="115.91" height="72.9184" fill="black">
<rect fill="white" x="66.6261" y="34.8292" width="115.91" height="72.9184"/>
<path d="M96.6705 65.8786C96.7297 64.2562 96.3518 63.0557 95.5366 62.277C94.7292 61.4542 93.3358 60.8684 91.3563 60.5193C89.7288 60.2324 88.4363 60.2313 87.479 60.516C86.5294 60.7568 85.9693 61.361 85.7987 62.3288C85.6281 63.2965 85.9361 64.1219 86.7228 64.8048C87.5172 65.4438 88.7515 66.1604 90.4257 66.9545C92.1802 67.8081 93.8544 68.6023 95.4484 69.3369C97.0501 70.0275 98.4461 70.7272 99.6365 71.436C101.228 72.4423 102.377 73.6428 103.083 75.0373C103.798 76.3879 103.969 78.1189 103.597 80.2303C102.999 83.6174 101.324 86.0434 98.5714 87.5082C95.8625 88.9809 92.1767 89.3061 87.514 88.484C82.4993 87.5998 78.8365 85.8654 76.5255 83.2808C74.2586 80.704 73.3719 77.7583 73.8657 74.4437L82.7073 76.0027C82.4358 77.5423 82.8202 78.8347 83.8605 79.8798C84.9009 80.925 86.4767 81.6338 88.5881 82.0061C90.1277 82.2776 91.512 82.2722 92.741 81.99C93.9778 81.6638 94.7048 80.8849 94.9219 79.6532C95.1236 78.5095 94.7392 77.6027 93.7689 76.9326C92.8424 76.2704 91.7065 75.6392 90.3609 75.0391C87.75 73.8984 85.6553 72.9167 84.0768 72.0941C82.4983 71.2715 81.2032 70.3855 80.1913 69.436C78.8224 68.1968 77.9386 66.9071 77.5399 65.5668C77.1853 64.2343 77.1359 62.8423 77.3919 61.3907C77.6323 60.0271 78.0992 58.7941 78.7925 57.6917C79.4858 56.5893 80.4559 55.7172 81.703 55.0754C82.9578 54.3895 84.4857 53.9559 86.2865 53.7745C88.1314 53.6009 90.2855 53.7313 92.7488 54.1656C97.4555 54.9955 100.75 56.5062 102.631 58.6975C104.556 60.8966 105.319 63.775 104.918 67.3329L96.6705 65.8786ZM124.198 94.068L119.643 78.2294L114.73 81.7853L112.915 92.0785L104.272 90.5544L112.09 46.2144L120.734 47.7385L116.464 71.9539L129.328 61.5L139.82 63.3499L126.827 73.373L133.832 95.7666L124.198 94.068ZM136.365 96.2133L142.089 63.7501L150.667 65.2626L144.943 97.7258L136.365 96.2133ZM142.776 59.8572L144.183 51.8733L152.761 53.3858L151.353 61.3697L142.776 59.8572ZM148.861 98.4167L156.679 54.0767L165.257 55.5892L157.439 99.9292L148.861 98.4167ZM161.039 100.564L168.858 56.2241L177.435 57.7365L169.617 102.077L161.039 100.564Z"/>
</mask>
<path d="M96.6705 65.8786C96.7297 64.2562 96.3518 63.0557 95.5366 62.277C94.7292 61.4542 93.3358 60.8684 91.3563 60.5193C89.7288 60.2324 88.4363 60.2313 87.479 60.516C86.5294 60.7568 85.9693 61.361 85.7987 62.3288C85.6281 63.2965 85.9361 64.1219 86.7228 64.8048C87.5172 65.4438 88.7515 66.1604 90.4257 66.9545C92.1802 67.8081 93.8544 68.6023 95.4484 69.3369C97.0501 70.0275 98.4461 70.7272 99.6365 71.436C101.228 72.4423 102.377 73.6428 103.083 75.0373C103.798 76.3879 103.969 78.1189 103.597 80.2303C102.999 83.6174 101.324 86.0434 98.5714 87.5082C95.8625 88.9809 92.1767 89.3061 87.514 88.484C82.4993 87.5998 78.8365 85.8654 76.5255 83.2808C74.2586 80.704 73.3719 77.7583 73.8657 74.4437L82.7073 76.0027C82.4358 77.5423 82.8202 78.8347 83.8605 79.8798C84.9009 80.925 86.4767 81.6338 88.5881 82.0061C90.1277 82.2776 91.512 82.2722 92.741 81.99C93.9778 81.6638 94.7048 80.8849 94.9219 79.6532C95.1236 78.5095 94.7392 77.6027 93.7689 76.9326C92.8424 76.2704 91.7065 75.6392 90.3609 75.0391C87.75 73.8984 85.6553 72.9167 84.0768 72.0941C82.4983 71.2715 81.2032 70.3855 80.1913 69.436C78.8224 68.1968 77.9386 66.9071 77.5399 65.5668C77.1853 64.2343 77.1359 62.8423 77.3919 61.3907C77.6323 60.0271 78.0992 58.7941 78.7925 57.6917C79.4858 56.5893 80.4559 55.7172 81.703 55.0754C82.9578 54.3895 84.4857 53.9559 86.2865 53.7745C88.1314 53.6009 90.2855 53.7313 92.7488 54.1656C97.4555 54.9955 100.75 56.5062 102.631 58.6975C104.556 60.8966 105.319 63.775 104.918 67.3329L96.6705 65.8786ZM124.198 94.068L119.643 78.2294L114.73 81.7853L112.915 92.0785L104.272 90.5544L112.09 46.2144L120.734 47.7385L116.464 71.9539L129.328 61.5L139.82 63.3499L126.827 73.373L133.832 95.7666L124.198 94.068ZM136.365 96.2133L142.089 63.7501L150.667 65.2626L144.943 97.7258L136.365 96.2133ZM142.776 59.8572L144.183 51.8733L152.761 53.3858L151.353 61.3697L142.776 59.8572ZM148.861 98.4167L156.679 54.0767L165.257 55.5892L157.439 99.9292L148.861 98.4167ZM161.039 100.564L168.858 56.2241L177.435 57.7365L169.617 102.077L161.039 100.564Z" fill="url(#paint1_linear_5_48)"/>
<path d="M96.6705 65.8786L92.6731 65.7325L92.5459 69.213L95.9759 69.8178L96.6705 65.8786ZM95.5366 62.277L92.6818 65.0787L92.727 65.1247L92.7736 65.1693L95.5366 62.277ZM87.479 60.516L88.4621 64.3933L88.5412 64.3733L88.6194 64.35L87.479 60.516ZM86.7228 64.8048L84.1004 67.8253L84.1572 67.8746L84.2158 67.9217L86.7228 64.8048ZM90.4257 66.9545L92.1758 63.3577L92.1579 63.349L92.14 63.3405L90.4257 66.9545ZM95.4484 69.3369L93.7741 72.9696L93.8191 72.9904L93.8646 73.01L95.4484 69.3369ZM99.6365 71.436L101.774 68.0552L101.729 68.0266L101.683 67.9992L99.6365 71.436ZM103.083 75.0373L99.5153 76.8452L99.5312 76.8765L99.5476 76.9075L103.083 75.0373ZM98.5714 87.5082L96.6923 83.9771L96.6766 83.9855L96.6609 83.994L98.5714 87.5082ZM76.5255 83.2808L73.5223 85.9229L73.533 85.935L73.5437 85.947L76.5255 83.2808ZM73.8657 74.4437L74.5603 70.5044L70.5146 69.7911L69.9093 73.8543L73.8657 74.4437ZM82.7073 76.0027L86.6465 76.6973L87.3411 72.758L83.4019 72.0635L82.7073 76.0027ZM83.8605 79.8798L81.0255 82.7016L81.0255 82.7016L83.8605 79.8798ZM92.741 81.99L93.6362 85.8885L93.6989 85.8741L93.7611 85.8577L92.741 81.99ZM93.7689 76.9326L91.4426 80.1867L91.4692 80.2057L91.4961 80.2242L93.7689 76.9326ZM90.3609 75.0391L91.9901 71.3859L91.9763 71.3797L91.9623 71.3736L90.3609 75.0391ZM84.0768 72.0941L85.9254 68.5469L85.9254 68.5469L84.0768 72.0941ZM80.1913 69.436L82.9284 66.5191L82.9023 66.4946L82.8758 66.4706L80.1913 69.436ZM77.5399 65.5668L73.6745 66.5957L73.6894 66.6517L73.706 66.7073L77.5399 65.5668ZM78.7925 57.6917L82.1785 59.8212L82.1785 59.8212L78.7925 57.6917ZM81.703 55.0754L83.5336 58.6319L83.5778 58.6091L83.6214 58.5853L81.703 55.0754ZM86.2865 53.7745L85.9118 49.7921L85.8987 49.7933L85.8857 49.7947L86.2865 53.7745ZM102.631 58.6975L99.5961 61.3031L99.6087 61.3179L99.6215 61.3324L102.631 58.6975ZM104.918 67.3329L104.224 71.2721L108.417 72.0114L108.893 67.7804L104.918 67.3329ZM96.6705 65.8786L100.668 66.0246C100.75 63.7742 100.252 61.2501 98.2997 59.3846L95.5366 62.277L92.7736 65.1693C92.7144 65.1127 92.6698 65.054 92.6403 65.0051C92.6119 64.9581 92.6084 64.9381 92.6161 64.9625C92.6347 65.0219 92.6907 65.252 92.6731 65.7325L96.6705 65.8786ZM95.5366 62.277L98.3915 59.4752C96.7066 57.7584 94.3095 56.9784 92.0509 56.5801L91.3563 60.5193L90.6617 64.4586C91.4476 64.5971 91.9869 64.7612 92.3357 64.9079C92.688 65.056 92.7461 65.1442 92.6818 65.0787L95.5366 62.277ZM91.3563 60.5193L92.0509 56.5801C90.1641 56.2474 88.1588 56.1406 86.3386 56.682L87.479 60.516L88.6194 64.35C88.7139 64.3219 89.2934 64.2173 90.6617 64.4586L91.3563 60.5193ZM87.479 60.516L86.4959 56.6387C85.4163 56.9124 84.3103 57.4627 83.4132 58.4305C82.5167 59.3977 82.0523 60.5407 81.8595 61.6342L85.7987 62.3288L89.7379 63.0234C89.7158 63.1491 89.6167 63.5061 89.2803 63.869C88.9433 64.2326 88.5921 64.3604 88.4621 64.3933L87.479 60.516ZM85.7987 62.3288L81.8595 61.6342C81.4275 64.084 82.3304 66.2886 84.1004 67.8253L86.7228 64.8048L89.3451 61.7844C89.3642 61.801 89.5303 61.9563 89.6493 62.275C89.7725 62.6053 89.7618 62.888 89.7379 63.0234L85.7987 62.3288ZM86.7228 64.8048L84.2158 67.9217C85.3763 68.8552 86.9442 69.7303 88.7115 70.5686L90.4257 66.9545L92.14 63.3405C90.5588 62.5905 89.6581 62.0325 89.2298 61.688L86.7228 64.8048ZM90.4257 66.9545L88.6757 70.5514C90.4525 71.4159 92.1521 72.2221 93.7741 72.9696L95.4484 69.3369L97.1226 65.7041C95.5566 64.9824 93.9078 64.2004 92.1758 63.3577L90.4257 66.9545ZM95.4484 69.3369L93.8646 73.01C95.3459 73.6487 96.5809 74.272 97.59 74.8729L99.6365 71.436L101.683 67.9992C100.311 67.1825 98.7543 66.4064 97.0321 65.6638L95.4484 69.3369ZM99.6365 71.436L97.4987 74.8168C98.6052 75.5165 99.1959 76.2146 99.5153 76.8452L103.083 75.0373L106.652 73.2294C105.558 71.0709 103.851 69.3681 101.774 68.0552L99.6365 71.436ZM103.083 75.0373L99.5476 76.9075C99.7072 77.2093 99.9361 77.9543 99.6573 79.5357L103.597 80.2303L107.536 80.9249C108.002 78.2834 107.888 75.5665 106.619 73.1671L103.083 75.0373ZM103.597 80.2303L99.6573 79.5357C99.2486 81.8535 98.2367 83.1553 96.6923 83.9771L98.5714 87.5082L100.45 91.0394C104.412 88.9315 106.75 85.3813 107.536 80.9249L103.597 80.2303ZM98.5714 87.5082L96.6609 83.994C95.0742 84.8566 92.4327 85.2896 88.2085 84.5447L87.514 88.484L86.8194 92.4232C91.9207 93.3227 96.6508 93.1052 100.482 91.0225L98.5714 87.5082ZM87.514 88.484L88.2085 84.5447C83.6783 83.7459 80.9969 82.2805 79.5074 80.6146L76.5255 83.2808L73.5437 85.947C76.6761 89.4503 81.3203 91.4536 86.8194 92.4232L87.514 88.484ZM76.5255 83.2808L79.5287 80.6387C78.0181 78.9216 77.5066 77.1507 77.822 75.033L73.8657 74.4437L69.9093 73.8543C69.2373 78.3659 70.499 82.4864 73.5223 85.9229L76.5255 83.2808ZM73.8657 74.4437L73.1711 78.3829L82.0127 79.9419L82.7073 76.0027L83.4019 72.0635L74.5603 70.5044L73.8657 74.4437ZM82.7073 76.0027L78.7681 75.3081C78.2866 78.0387 79.0036 80.6703 81.0255 82.7016L83.8605 79.8798L86.6956 77.0581C86.6404 77.0026 86.6211 76.9715 86.6189 76.9678C86.6175 76.9656 86.6223 76.9738 86.626 76.9862C86.6295 76.998 86.625 76.99 86.6235 76.9516C86.6219 76.9111 86.6233 76.829 86.6465 76.6973L82.7073 76.0027ZM83.8605 79.8798L81.0255 82.7016C82.8565 84.5413 85.3224 85.492 87.8936 85.9453L88.5881 82.0061L89.2827 78.0669C87.6311 77.7756 86.9452 77.3088 86.6956 77.0581L83.8605 79.8798ZM88.5881 82.0061L87.8936 85.9453C89.8379 86.2882 91.7764 86.3156 93.6362 85.8885L92.741 81.99L91.8459 78.0914C91.2477 78.2288 90.4176 78.267 89.2827 78.0669L88.5881 82.0061ZM92.741 81.99L93.7611 85.8577C94.9614 85.5412 96.1649 84.9331 97.1381 83.8904C98.116 82.8426 98.642 81.5907 98.8612 80.3478L94.9219 79.6532L90.9827 78.9586C90.9822 78.9618 90.9932 78.8975 91.0428 78.7918C91.0943 78.6821 91.1751 78.5546 91.2896 78.4319C91.5358 78.1681 91.7575 78.1126 91.7209 78.1223L92.741 81.99ZM94.9219 79.6532L98.8612 80.3478C99.0717 79.1538 99.012 77.8385 98.4678 76.5543C97.9253 75.2745 97.027 74.3214 96.0416 73.641L93.7689 76.9326L91.4961 80.2242C91.4811 80.2139 91.2601 80.0492 91.1021 79.6762C90.9422 79.299 90.9738 79.009 90.9827 78.9586L94.9219 79.6532ZM93.7689 76.9326L96.0951 73.6786C94.8976 72.8225 93.5135 72.0653 91.9901 71.3859L90.3609 75.0391L88.7316 78.6922C89.8994 79.213 90.7873 79.7182 91.4426 80.1867L93.7689 76.9326ZM90.3609 75.0391L91.9623 71.3736C89.3919 70.2506 87.3897 69.31 85.9254 68.5469L84.0768 72.0941L82.2282 75.6413C83.9208 76.5234 86.108 77.5461 88.7595 78.7045L90.3609 75.0391ZM84.0768 72.0941L85.9254 68.5469C84.5841 67.8479 83.6115 67.1601 82.9284 66.5191L80.1913 69.436L77.4543 72.3529C78.7948 73.6109 80.4125 74.6951 82.2282 75.6413L84.0768 72.0941ZM80.1913 69.436L82.8758 66.4706C81.8803 65.5694 81.5069 64.8735 81.3739 64.4264L77.5399 65.5668L73.706 66.7073C74.3703 68.9406 75.7646 70.8242 77.5069 72.4015L80.1913 69.436ZM77.5399 65.5668L81.4054 64.538C81.2105 63.806 81.1691 63.0041 81.3311 62.0853L77.3919 61.3907L73.4526 60.6961C73.1028 62.6805 73.16 64.6627 73.6745 66.5957L77.5399 65.5668ZM77.3919 61.3907L81.3311 62.0853C81.4875 61.1986 81.7778 60.4583 82.1785 59.8212L78.7925 57.6917L75.4065 55.5622C74.4206 57.1298 73.7772 58.8555 73.4526 60.6961L77.3919 61.3907ZM78.7925 57.6917L82.1785 59.8212C82.4611 59.3718 82.8726 58.9721 83.5336 58.6319L81.703 55.0754L79.8725 51.5188C78.0393 52.4623 76.5104 53.8068 75.4065 55.5622L78.7925 57.6917ZM81.703 55.0754L83.6214 58.5853C84.3001 58.2143 85.2826 57.8959 86.6874 57.7544L86.2865 53.7745L85.8857 49.7947C83.6888 50.0159 81.6155 50.5647 79.7846 51.5654L81.703 55.0754ZM86.2865 53.7745L86.6613 57.7569C88.0497 57.6263 89.8294 57.7126 92.0542 58.1049L92.7488 54.1656L93.4434 50.2264C90.7416 49.75 88.213 49.5755 85.9118 49.7921L86.2865 53.7745ZM92.7488 54.1656L92.0542 58.1049C96.4005 58.8712 98.6014 60.1446 99.5961 61.3031L102.631 58.6975L105.666 56.0918C102.898 52.8677 98.5106 51.1199 93.4434 50.2264L92.7488 54.1656ZM102.631 58.6975L99.6215 61.3324C100.644 62.4998 101.249 64.1738 100.943 66.8853L104.918 67.3329L108.893 67.7804C109.389 63.3763 108.469 59.2934 105.64 56.0626L102.631 58.6975ZM104.918 67.3329L105.613 63.3936L97.365 61.9393L96.6705 65.8786L95.9759 69.8178L104.224 71.2721L104.918 67.3329ZM124.198 94.068L120.354 95.1735L121.044 97.5735L123.504 98.0072L124.198 94.068ZM119.643 78.2294L123.487 77.1239L121.913 71.649L117.298 74.989L119.643 78.2294ZM114.73 81.7853L112.385 78.5449L111.072 79.4949L110.791 81.0907L114.73 81.7853ZM112.915 92.0785L112.221 96.0177L116.16 96.7123L116.854 92.7731L112.915 92.0785ZM104.272 90.5544L100.332 89.8598L99.6377 93.799L103.577 94.4936L104.272 90.5544ZM112.09 46.2144L112.784 42.2751L108.845 41.5805L108.151 45.5198L112.09 46.2144ZM120.734 47.7385L124.673 48.4331L125.367 44.4938L121.428 43.7992L120.734 47.7385ZM116.464 71.9539L112.524 71.2593L110.662 81.8226L118.986 75.0582L116.464 71.9539ZM129.328 61.5L130.023 57.5608L128.224 57.2436L126.806 58.3957L129.328 61.5ZM139.82 63.3499L142.263 66.517L149.436 60.9838L140.514 59.4107L139.82 63.3499ZM126.827 73.373L124.384 70.2059L122.177 71.9078L123.009 74.5672L126.827 73.373ZM133.832 95.7666L133.137 99.7058L139.612 100.848L137.649 94.5724L133.832 95.7666ZM124.198 94.068L128.042 92.9624L123.487 77.1239L119.643 78.2294L115.799 79.3349L120.354 95.1735L124.198 94.068ZM119.643 78.2294L117.298 74.989L112.385 78.5449L114.73 81.7853L117.075 85.0256L121.989 81.4697L119.643 78.2294ZM114.73 81.7853L110.791 81.0907L108.976 91.3839L112.915 92.0785L116.854 92.7731L118.669 82.4798L114.73 81.7853ZM112.915 92.0785L113.61 88.1392L104.966 86.6151L104.272 90.5544L103.577 94.4936L112.221 96.0177L112.915 92.0785ZM104.272 90.5544L108.211 91.2489L116.029 46.909L112.09 46.2144L108.151 45.5198L100.332 89.8598L104.272 90.5544ZM112.09 46.2144L111.395 50.1536L120.039 51.6777L120.734 47.7385L121.428 43.7992L112.784 42.2751L112.09 46.2144ZM120.734 47.7385L116.794 47.0439L112.524 71.2593L116.464 71.9539L120.403 72.6485L124.673 48.4331L120.734 47.7385ZM116.464 71.9539L118.986 75.0582L131.851 64.6043L129.328 61.5L126.806 58.3957L113.941 68.8496L116.464 71.9539ZM129.328 61.5L128.634 65.4393L139.125 67.2891L139.82 63.3499L140.514 59.4107L130.023 57.5608L129.328 61.5ZM139.82 63.3499L137.376 60.1828L124.384 70.2059L126.827 73.373L129.27 76.5401L142.263 66.517L139.82 63.3499ZM126.827 73.373L123.009 74.5672L130.014 96.9607L133.832 95.7666L137.649 94.5724L130.644 72.1788L126.827 73.373ZM133.832 95.7666L134.526 91.8273L124.893 90.1287L124.198 94.068L123.504 98.0072L133.137 99.7058L133.832 95.7666ZM136.365 96.2133L132.426 95.5187L131.731 99.458L135.671 100.153L136.365 96.2133ZM142.089 63.7501L142.784 59.8109L138.845 59.1163L138.15 63.0555L142.089 63.7501ZM150.667 65.2626L154.606 65.9572L155.301 62.018L151.362 61.3234L150.667 65.2626ZM144.943 97.7258L144.248 101.665L148.187 102.36L148.882 98.4204L144.943 97.7258ZM142.776 59.8572L138.836 59.1626L138.142 63.1018L142.081 63.7964L142.776 59.8572ZM144.183 51.8733L144.878 47.9341L140.939 47.2395L140.244 51.1787L144.183 51.8733ZM152.761 53.3858L156.7 54.0804L157.395 50.1412L153.456 49.4466L152.761 53.3858ZM151.353 61.3697L150.659 65.3089L154.598 66.0035L155.293 62.0642L151.353 61.3697ZM136.365 96.2133L140.304 96.9079L146.029 64.4447L142.089 63.7501L138.15 63.0555L132.426 95.5187L136.365 96.2133ZM142.089 63.7501L141.395 67.6893L149.972 69.2018L150.667 65.2626L151.362 61.3234L142.784 59.8109L142.089 63.7501ZM150.667 65.2626L146.728 64.568L141.004 97.0312L144.943 97.7258L148.882 98.4204L154.606 65.9572L150.667 65.2626ZM144.943 97.7258L145.637 93.7866L137.06 92.2741L136.365 96.2133L135.671 100.153L144.248 101.665L144.943 97.7258ZM142.776 59.8572L146.715 60.5518L148.123 52.5679L144.183 51.8733L140.244 51.1787L138.836 59.1626L142.776 59.8572ZM144.183 51.8733L143.489 55.8126L152.067 57.325L152.761 53.3858L153.456 49.4466L144.878 47.9341L144.183 51.8733ZM152.761 53.3858L148.822 52.6912L147.414 60.6751L151.353 61.3697L155.293 62.0642L156.7 54.0804L152.761 53.3858ZM151.353 61.3697L152.048 57.4304L143.47 55.9179L142.776 59.8572L142.081 63.7964L150.659 65.3089L151.353 61.3697ZM148.861 98.4167L144.922 97.7221L144.227 101.661L148.166 102.356L148.861 98.4167ZM156.679 54.0767L157.374 50.1375L153.435 49.4429L152.74 53.3821L156.679 54.0767ZM165.257 55.5892L169.196 56.2838L169.891 52.3445L165.952 51.6499L165.257 55.5892ZM157.439 99.9292L156.744 103.868L160.683 104.563L161.378 100.624L157.439 99.9292ZM148.861 98.4167L152.8 99.1113L160.619 54.7713L156.679 54.0767L152.74 53.3821L144.922 97.7221L148.861 98.4167ZM156.679 54.0767L155.985 58.0159L164.562 59.5284L165.257 55.5892L165.952 51.6499L157.374 50.1375L156.679 54.0767ZM165.257 55.5892L161.318 54.8946L153.499 99.2346L157.439 99.9292L161.378 100.624L169.196 56.2838L165.257 55.5892ZM157.439 99.9292L158.133 95.9899L149.556 94.4775L148.861 98.4167L148.166 102.356L156.744 103.868L157.439 99.9292ZM161.039 100.564L157.1 99.8695L156.406 103.809L160.345 104.503L161.039 100.564ZM168.858 56.2241L169.552 52.2848L165.613 51.5902L164.918 55.5295L168.858 56.2241ZM177.435 57.7365L181.375 58.4311L182.069 54.4919L178.13 53.7973L177.435 57.7365ZM169.617 102.077L168.922 106.016L172.862 106.71L173.556 102.771L169.617 102.077ZM161.039 100.564L164.979 101.259L172.797 56.9187L168.858 56.2241L164.918 55.5295L157.1 99.8695L161.039 100.564ZM168.858 56.2241L168.163 60.1633L176.741 61.6758L177.435 57.7365L178.13 53.7973L169.552 52.2848L168.858 56.2241ZM177.435 57.7365L173.496 57.0419L165.678 101.382L169.617 102.077L173.556 102.771L181.375 58.4311L177.435 57.7365ZM169.617 102.077L170.312 98.1373L161.734 96.6248L161.039 100.564L160.345 104.503L168.922 106.016L169.617 102.077Z" fill="white" mask="url(#path-4-outside-2_5_48)"/>
</g>
</g>
<defs>
<filter id="filter0_d_5_48" x="4.49492" y="4.976" width="261.304" height="61.895" filterUnits="userSpaceOnUse" color-interpolation-filters="sRGB">
<feFlood flood-opacity="0" result="BackgroundImageFix"/>
<feColorMatrix in="SourceAlpha" type="matrix" values="0 0 0 0 0 0 0 0 0 0 0 0 0 0 0 0 0 0 127 0" result="hardAlpha"/>
<feOffset dy="4"/>
<feGaussianBlur stdDeviation="2"/>
<feComposite in2="hardAlpha" operator="out"/>
<feColorMatrix type="matrix" values="0 0 0 0 0 0 0 0 0 0 0 0 0 0 0 0 0 0 0.25 0"/>
<feBlend mode="normal" in2="BackgroundImageFix" result="effect1_dropShadow_5_48"/>
<feBlend mode="normal" in="SourceGraphic" in2="effect1_dropShadow_5_48" result="shape"/>
</filter>
<filter id="filter1_d_5_48" x="65.7332" y="41.5805" width="120.336" height="73.1298" filterUnits="userSpaceOnUse" color-interpolation-filters="sRGB">
<feFlood flood-opacity="0" result="BackgroundImageFix"/>
<feColorMatrix in="SourceAlpha" type="matrix" values="0 0 0 0 0 0 0 0 0 0 0 0 0 0 0 0 0 0 127 0" result="hardAlpha"/>
<feOffset dy="4"/>
<feGaussianBlur stdDeviation="2"/>
<feComposite in2="hardAlpha" operator="out"/>
<feColorMatrix type="matrix" values="0 0 0 0 0 0 0 0 0 0 0 0 0 0 0 0 0 0 0.25 0"/>
<feBlend mode="normal" in2="BackgroundImageFix" result="effect1_dropShadow_5_48"/>
<feBlend mode="normal" in="SourceGraphic" in2="effect1_dropShadow_5_48" result="shape"/>
</filter>
<linearGradient id="paint0_linear_5_48" x1="-0.273291" y1="-11" x2="97.874" y2="153.139" gradientUnits="userSpaceOnUse">
<stop stop-color="#3AB9FF"/>
<stop offset="1" stop-color="#1C66C9"/>
</linearGradient>
<linearGradient id="paint1_linear_5_48" x1="77.7294" y1="19.8715" x2="167.844" y2="108.828" gradientUnits="userSpaceOnUse">
<stop stop-color="#3AB9FF"/>
<stop offset="1" stop-color="#1C66C9"/>
</linearGradient>
</defs>
</svg>
