<svg width="286" height="63" viewBox="0 0 286 63" fill="none" xmlns="http://www.w3.org/2000/svg">
<g filter="url(#filter0_d_12_85)">
<mask id="path-1-outside-1_12_85" maskUnits="userSpaceOnUse" x="4" y="0" width="278" height="55" fill="black">
<rect fill="white" x="4" width="278" height="55"/>
<path d="M21.668 50V13.284H8.268V5.512H44.448V13.284H30.981V50H21.668ZM61.6131 30.302C61.5684 29.096 61.3451 28.0463 60.9431 27.153C60.5858 26.215 60.0944 25.4557 59.4691 24.875C58.8438 24.2497 58.1291 23.803 57.3251 23.535C56.5211 23.2223 55.6948 23.066 54.8461 23.066C53.1041 23.066 51.5854 23.7137 50.2901 25.009C49.0394 26.2597 48.3248 28.024 48.1461 30.302H61.6131ZM47.8781 35.796C48.0121 38.2973 48.7268 40.285 50.0221 41.759C51.3621 43.233 53.1041 43.97 55.2481 43.97C56.6774 43.97 57.9281 43.6573 59.0001 43.032C60.1168 42.362 60.8314 41.4463 61.1441 40.285H70.1221C69.0948 43.6797 67.3081 46.2927 64.7621 48.124C62.2161 49.9553 59.1788 50.871 55.6501 50.871C44.6621 50.871 39.1681 44.8857 39.1681 32.915C39.1681 30.369 39.5254 28.0687 40.2401 26.014C40.9548 23.9593 41.9821 22.195 43.3221 20.721C44.7068 19.247 46.3818 18.1303 48.3471 17.371C50.3124 16.567 52.5681 16.165 55.1141 16.165C60.2061 16.165 64.0474 17.7953 66.6381 21.056C69.2734 24.3167 70.5911 29.23 70.5911 35.796H47.8781ZM93.4334 27.019C93.21 25.411 92.6294 24.2943 91.6914 23.669C90.7534 22.999 89.2794 22.664 87.2694 22.664C85.6167 22.664 84.3437 22.8873 83.4504 23.334C82.557 23.736 82.1104 24.4283 82.1104 25.411C82.1104 26.3937 82.557 27.153 83.4504 27.689C84.3437 28.1803 85.6837 28.6717 87.4704 29.163C89.3464 29.699 91.133 30.1903 92.8304 30.637C94.5277 31.039 96.024 31.4857 97.3194 31.977C99.0614 32.6917 100.401 33.6743 101.339 34.925C102.277 36.131 102.746 37.806 102.746 39.95C102.746 43.3893 101.518 46.0693 99.0614 47.99C96.6494 49.9107 93.076 50.871 88.3414 50.871C83.2494 50.871 79.341 49.799 76.6164 47.655C73.9364 45.511 72.5517 42.764 72.4624 39.414H81.4404C81.4404 40.9773 82.0434 42.1833 83.2494 43.032C84.4554 43.8807 86.1304 44.305 88.2744 44.305C89.8377 44.305 91.2 44.0593 92.3614 43.568C93.5227 43.032 94.1034 42.1387 94.1034 40.888C94.1034 39.7267 93.5674 38.9003 92.4954 38.409C91.468 37.9177 90.2397 37.4933 88.8104 37.136C86.041 36.466 83.8077 35.863 82.1104 35.327C80.413 34.791 78.9837 34.1433 77.8224 33.384C76.259 32.4013 75.1647 31.2847 74.5394 30.034C73.9587 28.7833 73.6684 27.421 73.6684 25.947C73.6684 24.5623 73.914 23.267 74.4054 22.061C74.8967 20.855 75.7007 19.8277 76.8174 18.979C77.934 18.0857 79.3634 17.3933 81.1054 16.902C82.892 16.4107 85.036 16.165 87.5374 16.165C92.3167 16.165 95.823 17.0807 98.0564 18.912C100.334 20.7433 101.585 23.4457 101.808 27.019H93.4334ZM123.504 28.292H131.611V37.672C131.611 39.414 131.343 41.089 130.807 42.697C130.316 44.2603 129.512 45.6673 128.395 46.918C127.323 48.124 125.939 49.0843 124.241 49.799C122.589 50.5137 120.601 50.871 118.278 50.871C115.866 50.871 113.812 50.5137 112.114 49.799C110.417 49.0843 109.01 48.124 107.893 46.918C106.821 45.712 106.04 44.305 105.548 42.697C105.057 41.089 104.811 39.3917 104.811 37.605V8.125H113.387V17.036H131.611V23.2H113.387V36.734C113.387 38.8333 113.767 40.4637 114.526 41.625C115.33 42.7417 116.626 43.3 118.412 43.3C120.154 43.3 121.427 42.7417 122.231 41.625C123.08 40.5083 123.504 38.9227 123.504 36.868V28.292ZM135.372 50V17.036H144.082V50H135.372ZM135.372 13.083V4.976H144.082V13.083H135.372ZM186.719 50V30.034C186.719 28.024 186.25 26.3937 185.312 25.143C184.374 23.8923 183.124 23.267 181.56 23.267C179.952 23.267 178.612 23.937 177.54 25.277C176.513 26.617 175.999 28.292 175.999 30.302V50H167.289V30.168C167.289 28.828 167.2 27.7337 167.021 26.885C166.843 26.0363 166.53 25.3663 166.083 24.875C165.681 24.3837 165.145 24.0487 164.475 23.87C163.805 23.6467 163.001 23.535 162.063 23.535C158.535 23.535 156.77 25.679 156.77 29.967V50H148.06V17.036H156.234V21.86C157.351 19.6713 158.691 18.175 160.254 17.371C161.818 16.567 163.694 16.165 165.882 16.165C166.999 16.165 167.982 16.2543 168.83 16.433C169.724 16.6117 170.505 16.9243 171.175 17.371C171.89 17.773 172.56 18.309 173.185 18.979C173.811 19.649 174.436 20.453 175.061 21.391C175.955 19.5597 177.138 18.242 178.612 17.438C180.086 16.5893 181.873 16.165 183.972 16.165C185.625 16.165 187.144 16.4553 188.528 17.036C189.913 17.572 191.097 18.3537 192.079 19.381C193.062 20.3637 193.821 21.525 194.357 22.865C194.938 24.205 195.228 25.6343 195.228 27.153V50H186.719ZM214.786 43.568C220.101 43.568 222.759 40.218 222.759 33.518C222.759 26.8627 220.101 23.535 214.786 23.535C209.471 23.535 206.813 26.8627 206.813 33.518C206.813 40.218 209.471 43.568 214.786 43.568ZM214.786 50.871C212.106 50.871 209.716 50.4467 207.617 49.598C205.518 48.7493 203.731 47.5657 202.257 46.047C200.828 44.5283 199.733 42.697 198.974 40.553C198.215 38.409 197.835 36.064 197.835 33.518C197.835 30.9273 198.215 28.56 198.974 26.416C199.778 24.272 200.917 22.4407 202.391 20.922C203.865 19.4033 205.629 18.242 207.684 17.438C209.783 16.5893 212.151 16.165 214.786 16.165C217.377 16.165 219.699 16.5893 221.754 17.438C223.809 18.242 225.551 19.4033 226.98 20.922C228.454 22.396 229.571 24.205 230.33 26.349C231.134 28.493 231.536 30.8827 231.536 33.518C231.536 36.1533 231.134 38.543 230.33 40.687C229.571 42.7863 228.454 44.5953 226.98 46.114C225.551 47.6327 223.786 48.8163 221.687 49.665C219.632 50.469 217.332 50.871 214.786 50.871ZM255.794 50V30.034C255.794 27.488 255.37 25.7683 254.521 24.875C253.673 23.9817 252.221 23.535 250.166 23.535C245.655 23.535 243.399 26.0587 243.399 31.106V50H234.689V17.036H242.997V21.86C244.025 19.984 245.387 18.577 247.084 17.639C248.782 16.6563 250.97 16.165 253.65 16.165C255.214 16.165 256.665 16.4107 258.005 16.902C259.345 17.3487 260.484 18.041 261.422 18.979C262.405 19.917 263.164 21.0783 263.7 22.463C264.281 23.803 264.571 25.3663 264.571 27.153V50H255.794ZM268.587 50V17.036H277.297V50H268.587ZM268.587 13.083V4.976H277.297V13.083H268.587Z"/>
</mask>
<path d="M21.668 50V13.284H8.268V5.512H44.448V13.284H30.981V50H21.668ZM61.6131 30.302C61.5684 29.096 61.3451 28.0463 60.9431 27.153C60.5858 26.215 60.0944 25.4557 59.4691 24.875C58.8438 24.2497 58.1291 23.803 57.3251 23.535C56.5211 23.2223 55.6948 23.066 54.8461 23.066C53.1041 23.066 51.5854 23.7137 50.2901 25.009C49.0394 26.2597 48.3248 28.024 48.1461 30.302H61.6131ZM47.8781 35.796C48.0121 38.2973 48.7268 40.285 50.0221 41.759C51.3621 43.233 53.1041 43.97 55.2481 43.97C56.6774 43.97 57.9281 43.6573 59.0001 43.032C60.1168 42.362 60.8314 41.4463 61.1441 40.285H70.1221C69.0948 43.6797 67.3081 46.2927 64.7621 48.124C62.2161 49.9553 59.1788 50.871 55.6501 50.871C44.6621 50.871 39.1681 44.8857 39.1681 32.915C39.1681 30.369 39.5254 28.0687 40.2401 26.014C40.9548 23.9593 41.9821 22.195 43.3221 20.721C44.7068 19.247 46.3818 18.1303 48.3471 17.371C50.3124 16.567 52.5681 16.165 55.1141 16.165C60.2061 16.165 64.0474 17.7953 66.6381 21.056C69.2734 24.3167 70.5911 29.23 70.5911 35.796H47.8781ZM93.4334 27.019C93.21 25.411 92.6294 24.2943 91.6914 23.669C90.7534 22.999 89.2794 22.664 87.2694 22.664C85.6167 22.664 84.3437 22.8873 83.4504 23.334C82.557 23.736 82.1104 24.4283 82.1104 25.411C82.1104 26.3937 82.557 27.153 83.4504 27.689C84.3437 28.1803 85.6837 28.6717 87.4704 29.163C89.3464 29.699 91.133 30.1903 92.8304 30.637C94.5277 31.039 96.024 31.4857 97.3194 31.977C99.0614 32.6917 100.401 33.6743 101.339 34.925C102.277 36.131 102.746 37.806 102.746 39.95C102.746 43.3893 101.518 46.0693 99.0614 47.99C96.6494 49.9107 93.076 50.871 88.3414 50.871C83.2494 50.871 79.341 49.799 76.6164 47.655C73.9364 45.511 72.5517 42.764 72.4624 39.414H81.4404C81.4404 40.9773 82.0434 42.1833 83.2494 43.032C84.4554 43.8807 86.1304 44.305 88.2744 44.305C89.8377 44.305 91.2 44.0593 92.3614 43.568C93.5227 43.032 94.1034 42.1387 94.1034 40.888C94.1034 39.7267 93.5674 38.9003 92.4954 38.409C91.468 37.9177 90.2397 37.4933 88.8104 37.136C86.041 36.466 83.8077 35.863 82.1104 35.327C80.413 34.791 78.9837 34.1433 77.8224 33.384C76.259 32.4013 75.1647 31.2847 74.5394 30.034C73.9587 28.7833 73.6684 27.421 73.6684 25.947C73.6684 24.5623 73.914 23.267 74.4054 22.061C74.8967 20.855 75.7007 19.8277 76.8174 18.979C77.934 18.0857 79.3634 17.3933 81.1054 16.902C82.892 16.4107 85.036 16.165 87.5374 16.165C92.3167 16.165 95.823 17.0807 98.0564 18.912C100.334 20.7433 101.585 23.4457 101.808 27.019H93.4334ZM123.504 28.292H131.611V37.672C131.611 39.414 131.343 41.089 130.807 42.697C130.316 44.2603 129.512 45.6673 128.395 46.918C127.323 48.124 125.939 49.0843 124.241 49.799C122.589 50.5137 120.601 50.871 118.278 50.871C115.866 50.871 113.812 50.5137 112.114 49.799C110.417 49.0843 109.01 48.124 107.893 46.918C106.821 45.712 106.04 44.305 105.548 42.697C105.057 41.089 104.811 39.3917 104.811 37.605V8.125H113.387V17.036H131.611V23.2H113.387V36.734C113.387 38.8333 113.767 40.4637 114.526 41.625C115.33 42.7417 116.626 43.3 118.412 43.3C120.154 43.3 121.427 42.7417 122.231 41.625C123.08 40.5083 123.504 38.9227 123.504 36.868V28.292ZM135.372 50V17.036H144.082V50H135.372ZM135.372 13.083V4.976H144.082V13.083H135.372ZM186.719 50V30.034C186.719 28.024 186.25 26.3937 185.312 25.143C184.374 23.8923 183.124 23.267 181.56 23.267C179.952 23.267 178.612 23.937 177.54 25.277C176.513 26.617 175.999 28.292 175.999 30.302V50H167.289V30.168C167.289 28.828 167.2 27.7337 167.021 26.885C166.843 26.0363 166.53 25.3663 166.083 24.875C165.681 24.3837 165.145 24.0487 164.475 23.87C163.805 23.6467 163.001 23.535 162.063 23.535C158.535 23.535 156.77 25.679 156.77 29.967V50H148.06V17.036H156.234V21.86C157.351 19.6713 158.691 18.175 160.254 17.371C161.818 16.567 163.694 16.165 165.882 16.165C166.999 16.165 167.982 16.2543 168.83 16.433C169.724 16.6117 170.505 16.9243 171.175 17.371C171.89 17.773 172.56 18.309 173.185 18.979C173.811 19.649 174.436 20.453 175.061 21.391C175.955 19.5597 177.138 18.242 178.612 17.438C180.086 16.5893 181.873 16.165 183.972 16.165C185.625 16.165 187.144 16.4553 188.528 17.036C189.913 17.572 191.097 18.3537 192.079 19.381C193.062 20.3637 193.821 21.525 194.357 22.865C194.938 24.205 195.228 25.6343 195.228 27.153V50H186.719ZM214.786 43.568C220.101 43.568 222.759 40.218 222.759 33.518C222.759 26.8627 220.101 23.535 214.786 23.535C209.471 23.535 206.813 26.8627 206.813 33.518C206.813 40.218 209.471 43.568 214.786 43.568ZM214.786 50.871C212.106 50.871 209.716 50.4467 207.617 49.598C205.518 48.7493 203.731 47.5657 202.257 46.047C200.828 44.5283 199.733 42.697 198.974 40.553C198.215 38.409 197.835 36.064 197.835 33.518C197.835 30.9273 198.215 28.56 198.974 26.416C199.778 24.272 200.917 22.4407 202.391 20.922C203.865 19.4033 205.629 18.242 207.684 17.438C209.783 16.5893 212.151 16.165 214.786 16.165C217.377 16.165 219.699 16.5893 221.754 17.438C223.809 18.242 225.551 19.4033 226.98 20.922C228.454 22.396 229.571 24.205 230.33 26.349C231.134 28.493 231.536 30.8827 231.536 33.518C231.536 36.1533 231.134 38.543 230.33 40.687C229.571 42.7863 228.454 44.5953 226.98 46.114C225.551 47.6327 223.786 48.8163 221.687 49.665C219.632 50.469 217.332 50.871 214.786 50.871ZM255.794 50V30.034C255.794 27.488 255.37 25.7683 254.521 24.875C253.673 23.9817 252.221 23.535 250.166 23.535C245.655 23.535 243.399 26.0587 243.399 31.106V50H234.689V17.036H242.997V21.86C244.025 19.984 245.387 18.577 247.084 17.639C248.782 16.6563 250.97 16.165 253.65 16.165C255.214 16.165 256.665 16.4107 258.005 16.902C259.345 17.3487 260.484 18.041 261.422 18.979C262.405 19.917 263.164 21.0783 263.7 22.463C264.281 23.803 264.571 25.3663 264.571 27.153V50H255.794ZM268.587 50V17.036H277.297V50H268.587ZM268.587 13.083V4.976H277.297V13.083H268.587Z" fill="white"/>
<path d="M21.668 50H17.668V54H21.668V50ZM21.668 13.284H25.668V9.284H21.668V13.284ZM8.268 13.284H4.268V17.284H8.268V13.284ZM8.268 5.512V1.512H4.268V5.512H8.268ZM44.448 5.512H48.448V1.512H44.448V5.512ZM44.448 13.284V17.284H48.448V13.284H44.448ZM30.981 13.284V9.284H26.981V13.284H30.981ZM30.981 50V54H34.981V50H30.981ZM21.668 50H25.668V13.284H21.668H17.668V50H21.668ZM21.668 13.284V9.284H8.268V13.284V17.284H21.668V13.284ZM8.268 13.284H12.268V5.512H8.268H4.268V13.284H8.268ZM8.268 5.512V9.512H44.448V5.512V1.512H8.268V5.512ZM44.448 5.512H40.448V13.284H44.448H48.448V5.512H44.448ZM44.448 13.284V9.284H30.981V13.284V17.284H44.448V13.284ZM30.981 13.284H26.981V50H30.981H34.981V13.284H30.981ZM30.981 50V46H21.668V50V54H30.981V50ZM61.6131 30.302V34.302H65.764L65.6103 30.154L61.6131 30.302ZM60.9431 27.153L57.2051 28.577L57.2471 28.687L57.2954 28.7945L60.9431 27.153ZM59.4691 24.875L56.6407 27.7034L56.693 27.7558L56.7473 27.8062L59.4691 24.875ZM57.3251 23.535L55.8753 27.263L55.9669 27.2986L56.0602 27.3297L57.3251 23.535ZM50.2901 25.009L47.4617 22.1806L47.4617 22.1806L50.2901 25.009ZM48.1461 30.302L44.1583 29.9892L43.8201 34.302H48.1461V30.302ZM47.8781 35.796V31.796H43.6581L43.8838 36.01L47.8781 35.796ZM50.0221 41.759L47.0174 44.3995L47.0397 44.4248L47.0623 44.4497L50.0221 41.759ZM59.0001 43.032L61.0156 46.4871L61.0369 46.4747L61.0581 46.462L59.0001 43.032ZM61.1441 40.285V36.285H58.0786L57.2816 39.2451L61.1441 40.285ZM70.1221 40.285L73.9506 41.4436L75.5118 36.285H70.1221V40.285ZM64.7621 48.124L67.0978 51.3712L67.0978 51.3712L64.7621 48.124ZM43.3221 20.721L40.4067 17.9823L40.3843 18.0061L40.3623 18.0303L43.3221 20.721ZM48.3471 17.371L49.7887 21.1022L49.8253 21.088L49.8616 21.0732L48.3471 17.371ZM66.6381 21.056L63.5063 23.5443L63.5166 23.5574L63.5271 23.5703L66.6381 21.056ZM70.5911 35.796V39.796H74.5911V35.796H70.5911ZM61.6131 30.302L65.6103 30.154C65.5509 28.5482 65.2474 26.9708 64.5908 25.5115L60.9431 27.153L57.2954 28.7945C57.4427 29.1218 57.586 29.6438 57.6158 30.45L61.6131 30.302ZM60.9431 27.153L64.681 25.729C64.1435 24.3179 63.3389 23.0098 62.1909 21.9438L59.4691 24.875L56.7473 27.8062C56.85 27.9015 57.028 28.1121 57.2051 28.577L60.9431 27.153ZM59.4691 24.875L62.2975 22.0466C61.2528 21.0018 60.009 20.2133 58.59 19.7403L57.3251 23.535L56.0602 27.3297C56.2492 27.3927 56.4347 27.4975 56.6407 27.7034L59.4691 24.875ZM57.3251 23.535L58.7749 19.807C57.5164 19.3176 56.199 19.066 54.8461 19.066V23.066V27.066C55.1905 27.066 55.5257 27.1271 55.8753 27.263L57.3251 23.535ZM54.8461 23.066V19.066C51.9838 19.066 49.4641 20.1781 47.4617 22.1806L50.2901 25.009L53.1185 27.8374C53.7068 27.2492 54.2243 27.066 54.8461 27.066V23.066ZM50.2901 25.009L47.4617 22.1806C45.3605 24.2817 44.3893 27.0444 44.1583 29.9892L48.1461 30.302L52.1338 30.6148C52.2602 29.0036 52.7183 28.2376 53.1185 27.8374L50.2901 25.009ZM48.1461 30.302V34.302H61.6131V30.302V26.302H48.1461V30.302ZM47.8781 35.796L43.8838 36.01C44.0524 39.1567 44.9819 42.0831 47.0174 44.3995L50.0221 41.759L53.0267 39.1185C52.4716 38.4869 51.9718 37.4379 51.8724 35.582L47.8781 35.796ZM50.0221 41.759L47.0623 44.4497C49.223 46.8264 52.0736 47.97 55.2481 47.97V43.97V39.97C54.1346 39.97 53.5012 39.6396 52.9818 39.0683L50.0221 41.759ZM55.2481 43.97V47.97C57.2766 47.97 59.2441 47.5205 61.0156 46.4871L59.0001 43.032L56.9846 39.5769C56.6121 39.7942 56.0782 39.97 55.2481 39.97V43.97ZM59.0001 43.032L61.0581 46.462C62.9823 45.3074 64.4011 43.5739 65.0066 41.3249L61.1441 40.285L57.2816 39.2451C57.2593 39.3281 57.2369 39.3604 57.2203 39.3817C57.1999 39.4079 57.1297 39.4895 56.9421 39.602L59.0001 43.032ZM61.1441 40.285V44.285H70.1221V40.285V36.285H61.1441V40.285ZM70.1221 40.285L66.2936 39.1264C65.4859 41.7953 64.1666 43.625 62.4264 44.8768L64.7621 48.124L67.0978 51.3712C70.4496 48.9603 72.7037 45.564 73.9506 41.4436L70.1221 40.285ZM64.7621 48.124L62.4264 44.8768C60.6446 46.1584 58.45 46.871 55.6501 46.871V50.871V54.871C59.9075 54.871 63.7876 53.7523 67.0978 51.3712L64.7621 48.124ZM55.6501 50.871V46.871C50.865 46.871 47.9853 45.5836 46.2354 43.6771C44.4259 41.7058 43.1681 38.3646 43.1681 32.915H39.1681H35.1681C35.1681 39.436 36.6573 45.0729 40.3418 49.0869C44.0858 53.1658 49.4472 54.871 55.6501 54.871V50.871ZM39.1681 32.915H43.1681C43.1681 30.7418 43.473 28.8951 44.0181 27.3281L40.2401 26.014L36.4621 24.6999C35.5778 27.2422 35.1681 29.9962 35.1681 32.915H39.1681ZM40.2401 26.014L44.0181 27.3281C44.572 25.7355 45.3368 24.4513 46.2818 23.4117L43.3221 20.721L40.3623 18.0303C38.6274 19.9387 37.3375 22.1831 36.4621 24.6999L40.2401 26.014ZM43.3221 20.721L46.2375 23.4597C47.1942 22.4412 48.3588 21.6547 49.7887 21.1022L48.3471 17.371L46.9055 13.6398C44.4047 14.606 42.2193 16.0528 40.4067 17.9823L43.3221 20.721ZM48.3471 17.371L49.8616 21.0732C51.2608 20.5008 52.9864 20.165 55.1141 20.165V16.165V12.165C52.1498 12.165 49.3641 12.6332 46.8326 13.6688L48.3471 17.371ZM55.1141 16.165V20.165C59.2866 20.165 61.8435 21.4515 63.5063 23.5443L66.6381 21.056L69.7699 18.5677C66.2514 14.1392 61.1255 12.165 55.1141 12.165V16.165ZM66.6381 21.056L63.5271 23.5703C65.3411 25.8148 66.5911 29.6567 66.5911 35.796H70.5911H74.5911C74.5911 28.8033 73.2057 22.8185 69.749 18.5417L66.6381 21.056ZM70.5911 35.796V31.796H47.8781V35.796V39.796H70.5911V35.796ZM93.4334 27.019L89.4714 27.5693L89.9505 31.019H93.4334V27.019ZM91.6914 23.669L89.3664 26.9239L89.4189 26.9614L89.4726 26.9972L91.6914 23.669ZM83.4504 23.334L85.0918 26.9817L85.1662 26.9482L85.2392 26.9117L83.4504 23.334ZM83.4504 27.689L81.3924 31.119L81.4568 31.1576L81.5227 31.1939L83.4504 27.689ZM87.4704 29.163L88.5693 25.3169L88.5502 25.3114L88.531 25.3062L87.4704 29.163ZM92.8304 30.637L91.8124 34.5053L91.8603 34.5179L91.9085 34.5293L92.8304 30.637ZM97.3194 31.977L98.8376 28.2763L98.7881 28.256L98.738 28.237L97.3194 31.977ZM101.339 34.925L98.1394 37.325L98.1604 37.3531L98.182 37.3808L101.339 34.925ZM99.0614 47.99L96.5977 44.8388L96.5836 44.8498L96.5697 44.8609L99.0614 47.99ZM76.6164 47.655L74.1176 50.7785L74.1302 50.7885L74.1428 50.7985L76.6164 47.655ZM72.4624 39.414V35.414H68.3543L68.4638 39.5206L72.4624 39.414ZM81.4404 39.414H85.4404V35.414H81.4404V39.414ZM83.2494 43.032L80.9474 46.3032L80.9474 46.3032L83.2494 43.032ZM92.3614 43.568L93.9199 47.2519L93.9792 47.2268L94.0376 47.1998L92.3614 43.568ZM92.4954 38.409L90.7696 42.0175L90.799 42.0316L90.8288 42.0453L92.4954 38.409ZM88.8104 37.136L89.7805 33.2554L89.7658 33.2517L89.751 33.2482L88.8104 37.136ZM82.1104 35.327L83.3149 31.5127L83.3149 31.5127L82.1104 35.327ZM77.8224 33.384L80.0114 30.0361L79.9814 30.0165L79.9511 29.9975L77.8224 33.384ZM74.5394 30.034L70.9113 31.7184L70.9357 31.771L70.9617 31.8229L74.5394 30.034ZM74.4054 22.061L78.1097 23.5702L78.1097 23.5702L74.4054 22.061ZM76.8174 18.979L79.2377 22.1636L79.2773 22.1335L79.3162 22.1025L76.8174 18.979ZM81.1054 16.902L80.0448 13.0452L80.0321 13.0486L80.0195 13.0522L81.1054 16.902ZM98.0564 18.912L95.5201 22.0051L95.535 22.0174L95.5501 22.0295L98.0564 18.912ZM101.808 27.019V31.019H106.066L105.801 26.7695L101.808 27.019ZM93.4334 27.019L97.3953 26.4687C97.0855 24.2382 96.1573 21.8389 93.9102 20.3408L91.6914 23.669L89.4726 26.9972C89.4044 26.9518 89.3503 26.9017 89.3128 26.8587C89.2767 26.8173 89.2697 26.7982 89.2815 26.8209C89.3102 26.8761 89.4053 27.093 89.4714 27.5693L93.4334 27.019ZM91.6914 23.669L94.0163 20.4141C92.0589 19.0159 89.5628 18.664 87.2694 18.664V22.664V26.664C88.0673 26.664 88.627 26.7319 88.9959 26.8158C89.3686 26.9005 89.4411 26.9773 89.3664 26.9239L91.6914 23.669ZM87.2694 22.664V18.664C85.3535 18.664 83.36 18.907 81.6615 19.7563L83.4504 23.334L85.2392 26.9117C85.3274 26.8676 85.88 26.664 87.2694 26.664V22.664ZM83.4504 23.334L81.8089 19.6863C80.7933 20.1433 79.7996 20.8773 79.0842 21.9862C78.3693 23.0944 78.1104 24.3006 78.1104 25.411H82.1104H86.1104C86.1104 25.5387 86.0748 25.9075 85.8066 26.3233C85.5378 26.7399 85.2141 26.9267 85.0918 26.9817L83.4504 23.334ZM82.1104 25.411H78.1104C78.1104 27.8986 79.3824 29.913 81.3924 31.119L83.4504 27.689L85.5084 24.259C85.5301 24.2721 85.7207 24.3962 85.8931 24.6894C86.0719 24.9933 86.1104 25.2735 86.1104 25.411H82.1104ZM83.4504 27.689L81.5227 31.1939C82.8277 31.9116 84.5238 32.5012 86.4097 33.0198L87.4704 29.163L88.531 25.3062C86.8436 24.8422 85.8597 24.4491 85.378 24.1841L83.4504 27.689ZM87.4704 29.163L86.3715 33.0091C88.2715 33.5519 90.0852 34.0508 91.8124 34.5053L92.8304 30.637L93.8484 26.7687C92.1808 26.3299 90.4213 25.8461 88.5693 25.3169L87.4704 29.163ZM92.8304 30.637L91.9085 34.5293C93.4782 34.9011 94.8027 35.3005 95.9008 35.717L97.3194 31.977L98.738 28.237C97.2454 27.6709 95.5772 27.1769 93.7522 26.7447L92.8304 30.637ZM97.3194 31.977L95.8012 35.6777C97.0124 36.1746 97.7153 36.7595 98.1394 37.325L101.339 34.925L104.539 32.525C103.087 30.5891 101.11 29.2088 98.8376 28.2763L97.3194 31.977ZM101.339 34.925L98.182 37.3808C98.3916 37.6502 98.7464 38.3442 98.7464 39.95H102.746H106.746C106.746 37.2678 106.163 34.6118 104.497 32.4692L101.339 34.925ZM102.746 39.95H98.7464C98.7464 42.3035 97.9759 43.7612 96.5977 44.8388L99.0614 47.99L101.525 51.1412C105.06 48.3774 106.746 44.4752 106.746 39.95H102.746ZM99.0614 47.99L96.5697 44.8609C95.1569 45.9859 92.6307 46.871 88.3414 46.871V50.871V54.871C93.5214 54.871 98.1419 53.8354 101.553 51.1191L99.0614 47.99ZM88.3414 50.871V46.871C83.7413 46.871 80.8461 45.8934 79.0899 44.5115L76.6164 47.655L74.1428 50.7985C77.836 53.7046 82.7575 54.871 88.3414 54.871V50.871ZM76.6164 47.655L79.1152 44.5315C77.3293 43.1028 76.518 41.4476 76.461 39.3074L72.4624 39.414L68.4638 39.5206C68.5854 44.0804 70.5435 47.9192 74.1176 50.7785L76.6164 47.655ZM72.4624 39.414V43.414H81.4404V39.414V35.414H72.4624V39.414ZM81.4404 39.414H77.4404C77.4404 42.1867 78.6035 44.6538 80.9474 46.3032L83.2494 43.032L85.5513 39.7608C85.4874 39.7158 85.463 39.6885 85.4601 39.6853C85.4584 39.6833 85.4645 39.6906 85.4703 39.7021C85.4758 39.7131 85.47 39.7061 85.4619 39.6685C85.4532 39.6289 85.4404 39.5477 85.4404 39.414H81.4404ZM83.2494 43.032L80.9474 46.3032C83.0701 47.797 85.6635 48.305 88.2744 48.305V44.305V40.305C86.5972 40.305 85.8407 39.9644 85.5513 39.7608L83.2494 43.032ZM88.2744 44.305V48.305C90.2487 48.305 92.1625 47.9954 93.9199 47.2519L92.3614 43.568L90.8028 39.8841C90.2376 40.1233 89.4267 40.305 88.2744 40.305V44.305ZM92.3614 43.568L94.0376 47.1998C95.1646 46.6797 96.2443 45.8719 97.0217 44.676C97.8027 43.4743 98.1034 42.1501 98.1034 40.888H94.1034H90.1034C90.1034 40.8912 90.1031 40.826 90.1336 40.7133C90.1653 40.5963 90.2227 40.4567 90.3141 40.316C90.5108 40.0135 90.7194 39.9203 90.6851 39.9362L92.3614 43.568ZM94.1034 40.888H98.1034C98.1034 39.6755 97.8162 38.3906 97.0572 37.2205C96.3008 36.0543 95.2506 35.2717 94.162 34.7727L92.4954 38.409L90.8288 42.0453C90.8122 42.0377 90.566 41.9139 90.3455 41.574C90.1225 41.2302 90.1034 40.9391 90.1034 40.888H94.1034ZM92.4954 38.409L94.2212 34.8005C92.8932 34.1654 91.3987 33.66 89.7805 33.2554L88.8104 37.136L87.8402 41.0166C89.0807 41.3267 90.0428 41.67 90.7696 42.0175L92.4954 38.409ZM88.8104 37.136L89.751 33.2482C87.0246 32.5886 84.8895 32.0099 83.3149 31.5127L82.1104 35.327L80.9059 39.1413C82.7259 39.7161 85.0574 40.3434 87.8698 41.0238L88.8104 37.136ZM82.1104 35.327L83.3149 31.5127C81.8726 31.0572 80.7954 30.5487 80.0114 30.0361L77.8224 33.384L75.6334 36.7319C77.172 37.7379 78.9534 38.5248 80.9059 39.1413L82.1104 35.327ZM77.8224 33.384L79.9511 29.9975C78.8142 29.2828 78.3257 28.6624 78.1171 28.2451L74.5394 30.034L70.9617 31.8229C72.0037 33.907 73.7039 35.5198 75.6937 36.7705L77.8224 33.384ZM74.5394 30.034L78.1674 28.3496C77.8484 27.6625 77.6684 26.88 77.6684 25.947H73.6684H69.6684C69.6684 27.962 70.069 29.9042 70.9113 31.7184L74.5394 30.034ZM73.6684 25.947H77.6684C77.6684 25.0466 77.8258 24.2672 78.1097 23.5702L74.4054 22.061L70.701 20.5518C70.0023 22.2668 69.6684 24.078 69.6684 25.947H73.6684ZM74.4054 22.061L78.1097 23.5702C78.31 23.0786 78.6459 22.6134 79.2377 22.1636L76.8174 18.979L74.397 15.7943C72.7556 17.0419 71.4834 18.6314 70.701 20.5518L74.4054 22.061ZM76.8174 18.979L79.3162 22.1025C79.9201 21.6193 80.8323 21.1351 82.1912 20.7518L81.1054 16.902L80.0195 13.0522C77.8944 13.6516 75.948 14.552 74.3186 15.8555L76.8174 18.979ZM81.1054 16.902L82.166 20.7588C83.5106 20.3891 85.2782 20.165 87.5374 20.165V16.165V12.165C84.7939 12.165 82.2735 12.4323 80.0448 13.0452L81.1054 16.902ZM87.5374 16.165V20.165C91.9507 20.165 94.3393 21.0369 95.5201 22.0051L98.0564 18.912L100.593 15.8189C97.3068 13.1245 92.6827 12.165 87.5374 12.165V16.165ZM98.0564 18.912L95.5501 22.0295C96.7594 23.0016 97.646 24.5451 97.8162 27.2685L101.808 27.019L105.801 26.7695C105.524 22.3462 103.909 18.485 100.563 15.7945L98.0564 18.912ZM101.808 27.019V23.019H93.4334V27.019V31.019H101.808V27.019ZM123.504 28.292V24.292H119.504V28.292H123.504ZM131.611 28.292H135.611V24.292H131.611V28.292ZM130.807 42.697L127.013 41.4321L127.002 41.4648L126.991 41.4977L130.807 42.697ZM128.395 46.918L125.412 44.2539L125.406 44.2605L128.395 46.918ZM124.241 49.799L122.689 46.1125L122.671 46.1199L122.654 46.1276L124.241 49.799ZM112.114 49.799L110.562 53.4855L112.114 49.799ZM107.893 46.918L104.904 49.5755L104.931 49.6058L104.958 49.6356L107.893 46.918ZM105.548 42.697L101.723 43.8659L101.723 43.8659L105.548 42.697ZM104.811 8.125V4.125H100.811V8.125H104.811ZM113.387 8.125H117.387V4.125H113.387V8.125ZM113.387 17.036H109.387V21.036H113.387V17.036ZM131.611 17.036H135.611V13.036H131.611V17.036ZM131.611 23.2V27.2H135.611V23.2H131.611ZM113.387 23.2V19.2H109.387V23.2H113.387ZM114.526 41.625L111.178 43.814L111.228 43.8893L111.28 43.9622L114.526 41.625ZM122.231 41.625L119.047 39.2047L119.015 39.2458L118.985 39.2878L122.231 41.625ZM123.504 28.292V32.292H131.611V28.292V24.292H123.504V28.292ZM131.611 28.292H127.611V37.672H131.611H135.611V28.292H131.611ZM131.611 37.672H127.611C127.611 38.9961 127.409 40.2433 127.013 41.4321L130.807 42.697L134.602 43.9619C135.278 41.9347 135.611 39.8319 135.611 37.672H131.611ZM130.807 42.697L126.991 41.4977C126.674 42.5065 126.159 43.4168 125.412 44.2539L128.395 46.918L131.379 49.5821C132.865 47.9178 133.958 46.0142 134.623 43.8963L130.807 42.697ZM128.395 46.918L125.406 44.2605C124.783 44.9615 123.914 45.5965 122.689 46.1125L124.241 49.799L125.794 53.4855C127.963 52.5721 129.864 51.2865 131.385 49.5755L128.395 46.918ZM124.241 49.799L122.654 46.1276C121.625 46.5724 120.207 46.871 118.278 46.871V50.871V54.871C120.995 54.871 123.552 54.4549 125.829 53.4704L124.241 49.799ZM118.278 50.871V46.871C116.242 46.871 114.746 46.5669 113.667 46.1125L112.114 49.799L110.562 53.4855C112.877 54.4604 115.49 54.871 118.278 54.871V50.871ZM112.114 49.799L113.667 46.1125C112.43 45.592 111.514 44.941 110.828 44.2004L107.893 46.918L104.958 49.6356C106.506 51.307 108.404 52.5767 110.562 53.4855L112.114 49.799ZM107.893 46.918L110.883 44.2605C110.21 43.503 109.704 42.6093 109.374 41.5281L105.548 42.697L101.723 43.8659C102.375 46.0007 103.433 47.921 104.904 49.5755L107.893 46.918ZM105.548 42.697L109.374 41.5281C109.005 40.322 108.811 39.0204 108.811 37.605H104.811H100.811C100.811 39.763 101.109 41.856 101.723 43.8659L105.548 42.697ZM104.811 37.605H108.811V8.125H104.811H100.811V37.605H104.811ZM104.811 8.125V12.125H113.387V8.125V4.125H104.811V8.125ZM113.387 8.125H109.387V17.036H113.387H117.387V8.125H113.387ZM113.387 17.036V21.036H131.611V17.036V13.036H113.387V17.036ZM131.611 17.036H127.611V23.2H131.611H135.611V17.036H131.611ZM131.611 23.2V19.2H113.387V23.2V27.2H131.611V23.2ZM113.387 23.2H109.387V36.734H113.387H117.387V23.2H113.387ZM113.387 36.734H109.387C109.387 39.2386 109.828 41.748 111.178 43.814L114.526 41.625L117.874 39.436C117.706 39.1793 117.387 38.428 117.387 36.734H113.387ZM114.526 41.625L111.28 43.9622C113.053 46.4247 115.763 47.3 118.412 47.3V43.3V39.3C117.924 39.3 117.718 39.2224 117.684 39.208C117.671 39.2021 117.687 39.2076 117.716 39.2311C117.746 39.255 117.766 39.2781 117.772 39.2878L114.526 41.625ZM118.412 43.3V47.3C121.06 47.3 123.724 46.3977 125.477 43.9622L122.231 41.625L118.985 39.2878C118.985 39.288 118.989 39.2826 118.997 39.2735C119.006 39.2644 119.017 39.2542 119.029 39.2442C119.057 39.222 119.074 39.2148 119.067 39.2181C119.048 39.2265 118.866 39.3 118.412 39.3V43.3ZM122.231 41.625L125.416 44.0453C126.989 41.9753 127.504 39.4064 127.504 36.868H123.504H119.504C119.504 38.439 119.171 39.0414 119.047 39.2047L122.231 41.625ZM123.504 36.868H127.504V28.292H123.504H119.504V36.868H123.504ZM135.372 50H131.372V54H135.372V50ZM135.372 17.036V13.036H131.372V17.036H135.372ZM144.082 17.036H148.082V13.036H144.082V17.036ZM144.082 50V54H148.082V50H144.082ZM135.372 13.083H131.372V17.083H135.372V13.083ZM135.372 4.976V0.975997H131.372V4.976H135.372ZM144.082 4.976H148.082V0.975997H144.082V4.976ZM144.082 13.083V17.083H148.082V13.083H144.082ZM135.372 50H139.372V17.036H135.372H131.372V50H135.372ZM135.372 17.036V21.036H144.082V17.036V13.036H135.372V17.036ZM144.082 17.036H140.082V50H144.082H148.082V17.036H144.082ZM144.082 50V46H135.372V50V54H144.082V50ZM135.372 13.083H139.372V4.976H135.372H131.372V13.083H135.372ZM135.372 4.976V8.976H144.082V4.976V0.975997H135.372V4.976ZM144.082 4.976H140.082V13.083H144.082H148.082V4.976H144.082ZM144.082 13.083V9.083H135.372V13.083V17.083H144.082V13.083ZM186.719 50H182.719V54H186.719V50ZM185.312 25.143L182.112 27.543L182.112 27.543L185.312 25.143ZM177.54 25.277L174.417 22.7782L174.391 22.8105L174.366 22.8433L177.54 25.277ZM175.999 50V54H179.999V50H175.999ZM167.289 50H163.289V54H167.289V50ZM167.021 26.885L170.936 26.061L170.936 26.061L167.021 26.885ZM166.083 24.875L162.988 27.408L163.054 27.4886L163.124 27.5657L166.083 24.875ZM164.475 23.87L163.21 27.6647L163.327 27.7034L163.445 27.7349L164.475 23.87ZM156.77 50V54H160.77V50H156.77ZM148.06 50H144.06V54H148.06V50ZM148.06 17.036V13.036H144.06V17.036H148.06ZM156.234 17.036H160.234V13.036H156.234V17.036ZM156.234 21.86H152.234L159.797 23.6779L156.234 21.86ZM160.254 17.371L158.425 13.8138L158.425 13.8138L160.254 17.371ZM168.83 16.433L168.006 20.3472L168.026 20.3514L168.046 20.3553L168.83 16.433ZM171.175 17.371L168.957 20.6992L169.082 20.7831L169.214 20.8573L171.175 17.371ZM173.185 18.979L176.11 16.2497L176.11 16.2497L173.185 18.979ZM175.061 21.391L171.733 23.6098L175.6 29.4102L178.656 23.1447L175.061 21.391ZM178.612 17.438L180.528 20.9496L180.568 20.9275L180.608 20.9045L178.612 17.438ZM188.528 17.036L186.981 20.7248L187.033 20.7462L187.084 20.7663L188.528 17.036ZM192.079 19.381L189.189 22.1459L189.22 22.178L189.251 22.2094L192.079 19.381ZM194.357 22.865L190.643 24.3506L190.665 24.4033L190.687 24.4554L194.357 22.865ZM195.228 50V54H199.228V50H195.228ZM186.719 50H190.719V30.034H186.719H182.719V50H186.719ZM186.719 30.034H190.719C190.719 27.4072 190.101 24.8616 188.512 22.743L185.312 25.143L182.112 27.543C182.399 27.9257 182.719 28.6408 182.719 30.034H186.719ZM185.312 25.143L188.512 22.743C186.819 20.4851 184.383 19.267 181.56 19.267V23.267V27.267C181.795 27.267 181.875 27.3101 181.882 27.3137C181.889 27.3173 181.971 27.3552 182.112 27.543L185.312 25.143ZM181.56 23.267V19.267C178.646 19.267 176.189 20.5627 174.417 22.7782L177.54 25.277L180.664 27.7758C181.035 27.3113 181.258 27.267 181.56 27.267V23.267ZM177.54 25.277L174.366 22.8433C172.707 25.0076 171.999 27.5852 171.999 30.302H175.999H179.999C179.999 28.9988 180.319 28.2264 180.715 27.7107L177.54 25.277ZM175.999 30.302H171.999V50H175.999H179.999V30.302H175.999ZM175.999 50V46H167.289V50V54H175.999V50ZM167.289 50H171.289V30.168H167.289H163.289V50H167.289ZM167.289 30.168H171.289C171.289 28.6834 171.193 27.285 170.936 26.061L167.021 26.885L163.107 27.709C163.207 28.1823 163.289 28.9726 163.289 30.168H167.289ZM167.021 26.885L170.936 26.061C170.654 24.724 170.093 23.3395 169.043 22.1843L166.083 24.875L163.124 27.5657C163.048 27.482 163.023 27.4262 163.028 27.4375C163.035 27.4526 163.07 27.534 163.107 27.709L167.021 26.885ZM166.083 24.875L169.179 22.342C168.196 21.1406 166.908 20.379 165.506 20.0051L164.475 23.87L163.445 27.7349C163.432 27.7316 163.36 27.7101 163.26 27.6472C163.156 27.5825 163.062 27.4984 162.988 27.408L166.083 24.875ZM164.475 23.87L165.74 20.0753C164.553 19.6797 163.299 19.535 162.063 19.535V23.535V27.535C162.704 27.535 163.057 27.6137 163.21 27.6647L164.475 23.87ZM162.063 23.535V19.535C159.455 19.535 156.845 20.3652 155.005 22.6013C153.288 24.6882 152.77 27.3754 152.77 29.967H156.77H160.77C160.77 28.2706 161.135 27.7418 161.182 27.6847C161.187 27.6784 161.187 27.6695 161.249 27.6444C161.336 27.6093 161.578 27.535 162.063 27.535V23.535ZM156.77 29.967H152.77V50H156.77H160.77V29.967H156.77ZM156.77 50V46H148.06V50V54H156.77V50ZM148.06 50H152.06V17.036H148.06H144.06V50H148.06ZM148.06 17.036V21.036H156.234V17.036V13.036H148.06V17.036ZM156.234 17.036H152.234V21.86H156.234H160.234V17.036H156.234ZM156.234 21.86L159.797 23.6779C160.68 21.9477 161.511 21.2229 162.084 20.9281L160.254 17.371L158.425 13.8138C155.872 15.1271 154.022 17.395 152.671 20.0421L156.234 21.86ZM160.254 17.371L162.084 20.9282C162.959 20.4778 164.177 20.165 165.882 20.165V16.165V12.165C163.21 12.165 160.676 12.6562 158.425 13.8138L160.254 17.371ZM165.882 16.165V20.165C166.797 20.165 167.493 20.2391 168.006 20.3472L168.83 16.433L169.654 12.5188C168.47 12.2695 167.201 12.165 165.882 12.165V16.165ZM168.83 16.433L168.046 20.3553C168.494 20.4449 168.775 20.578 168.957 20.6992L171.175 17.371L173.394 14.0428C172.236 13.2707 170.953 12.7784 169.615 12.5107L168.83 16.433ZM171.175 17.371L169.214 20.8573C169.532 21.0358 169.883 21.3037 170.261 21.7083L173.185 18.979L176.11 16.2497C175.237 15.3143 174.248 14.5102 173.136 13.8847L171.175 17.371ZM173.185 18.979L170.261 21.7083C170.709 22.1881 171.202 22.8132 171.733 23.6098L175.061 21.391L178.39 19.1722C177.67 18.0928 176.912 17.1099 176.11 16.2497L173.185 18.979ZM175.061 21.391L178.656 23.1447C179.265 21.8972 179.926 21.2776 180.528 20.9496L178.612 17.438L176.697 13.9264C174.35 15.2064 172.644 17.2222 171.466 19.6373L175.061 21.391ZM178.612 17.438L180.608 20.9045C181.348 20.4785 182.411 20.165 183.972 20.165V16.165V12.165C181.335 12.165 178.825 12.7002 176.617 13.9715L178.612 17.438ZM183.972 16.165V20.165C185.148 20.165 186.134 20.3693 186.981 20.7248L188.528 17.036L190.075 13.3472C188.154 12.5413 186.102 12.165 183.972 12.165V16.165ZM188.528 17.036L187.084 20.7663C187.947 21.1001 188.63 21.5614 189.189 22.1459L192.079 19.381L194.97 16.6161C193.564 15.1459 191.879 14.0439 189.972 13.3057L188.528 17.036ZM192.079 19.381L189.251 22.2094C189.836 22.7943 190.301 23.4937 190.643 24.3506L194.357 22.865L198.071 21.3794C197.342 19.5563 196.288 17.9331 194.908 16.5526L192.079 19.381ZM194.357 22.865L190.687 24.4554C191.042 25.2733 191.228 26.1591 191.228 27.153H195.228H199.228C199.228 25.1095 198.834 23.1366 198.028 21.2746L194.357 22.865ZM195.228 27.153H191.228V50H195.228H199.228V27.153H195.228ZM195.228 50V46H186.719V50V54H195.228V50ZM207.617 49.598L209.116 45.8896L209.116 45.8896L207.617 49.598ZM202.257 46.047L199.344 48.7885L199.365 48.8108L199.387 48.8329L202.257 46.047ZM198.974 40.553L195.204 41.8884L195.204 41.8884L198.974 40.553ZM198.974 26.416L195.229 25.0115L195.216 25.0459L195.204 25.0806L198.974 26.416ZM202.391 20.922L205.261 23.7079L205.261 23.7079L202.391 20.922ZM207.684 17.438L209.142 21.163L209.163 21.1548L209.183 21.1464L207.684 17.438ZM221.754 17.438L220.227 21.135L220.262 21.1493L220.296 21.163L221.754 17.438ZM226.98 20.922L224.067 23.6635L224.109 23.7076L224.152 23.7504L226.98 20.922ZM230.33 26.349L226.56 27.6844L226.572 27.7191L226.585 27.7535L230.33 26.349ZM230.33 40.687L226.585 39.2825L226.577 39.3044L226.569 39.3265L230.33 40.687ZM226.98 46.114L224.11 43.3281L224.088 43.3502L224.067 43.3725L226.98 46.114ZM221.687 49.665L223.145 53.39L223.166 53.3818L223.186 53.3734L221.687 49.665ZM214.786 43.568V47.568C218.338 47.568 221.63 46.4024 223.899 43.5415C226.029 40.8573 226.759 37.2896 226.759 33.518H222.759H218.759C218.759 36.4464 218.16 37.9037 217.632 38.5695C217.244 39.0586 216.549 39.568 214.786 39.568V43.568ZM222.759 33.518H226.759C226.759 29.7641 226.027 26.2088 223.891 23.5345C221.618 20.6886 218.329 19.535 214.786 19.535V23.535V27.535C216.559 27.535 217.256 28.0452 217.64 28.527C218.162 29.1804 218.759 30.6165 218.759 33.518H222.759ZM214.786 23.535V19.535C211.243 19.535 207.954 20.6886 205.681 23.5345C203.545 26.2088 202.813 29.7641 202.813 33.518H206.813H210.813C210.813 30.6165 211.41 29.1804 211.932 28.527C212.317 28.0452 213.014 27.535 214.786 27.535V23.535ZM206.813 33.518H202.813C202.813 37.2896 203.543 40.8573 205.673 43.5415C207.942 46.4024 211.234 47.568 214.786 47.568V43.568V39.568C213.023 39.568 212.328 39.0586 211.94 38.5695C211.412 37.9037 210.813 36.4464 210.813 33.518H206.813ZM214.786 50.871V46.871C212.527 46.871 210.66 46.5138 209.116 45.8896L207.617 49.598L206.118 53.3064C208.772 54.3796 211.685 54.871 214.786 54.871V50.871ZM207.617 49.598L209.116 45.8896C207.497 45.2348 206.187 44.3527 205.127 43.2611L202.257 46.047L199.387 48.8329C201.275 50.7786 203.539 52.2639 206.118 53.3064L207.617 49.598ZM202.257 46.047L205.17 43.3055C204.154 42.2264 203.336 40.8864 202.745 39.2176L198.974 40.553L195.204 41.8884C196.131 44.5076 197.501 46.8303 199.344 48.7885L202.257 46.047ZM198.974 40.553L202.745 39.2176C202.154 37.5504 201.835 35.6629 201.835 33.518H197.835H193.835C193.835 36.4651 194.275 39.2676 195.204 41.8884L198.974 40.553ZM197.835 33.518H201.835C201.835 31.3199 202.157 29.4114 202.745 27.7514L198.974 26.416L195.204 25.0806C194.273 27.7086 193.835 30.5348 193.835 33.518H197.835ZM198.974 26.416L202.719 27.8205C203.346 26.1496 204.202 24.7998 205.261 23.7079L202.391 20.922L199.521 18.1361C197.633 20.0816 196.21 22.3944 195.229 25.0115L198.974 26.416ZM202.391 20.922L205.261 23.7079C206.32 22.6172 207.596 21.7676 209.142 21.163L207.684 17.438L206.226 13.713C203.662 14.7164 201.41 16.1895 199.521 18.1361L202.391 20.922ZM207.684 17.438L209.183 21.1464C210.735 20.5192 212.582 20.165 214.786 20.165V16.165V12.165C211.72 12.165 208.832 12.6595 206.185 13.7296L207.684 17.438ZM214.786 16.165V20.165C216.938 20.165 218.73 20.5166 220.227 21.135L221.754 17.438L223.281 13.741C220.669 12.662 217.815 12.165 214.786 12.165V16.165ZM221.754 17.438L220.296 21.163C221.832 21.7638 223.068 22.6013 224.067 23.6635L226.98 20.922L229.893 18.1805C228.034 16.2054 225.786 14.7202 223.212 13.713L221.754 17.438ZM226.98 20.922L224.152 23.7504C225.167 24.7658 225.981 26.0501 226.56 27.6844L230.33 26.349L234.101 25.0136C233.161 22.3599 231.741 20.0262 229.809 18.0936L226.98 20.922ZM230.33 26.349L226.585 27.7535C227.197 29.3861 227.536 31.2909 227.536 33.518H231.536H235.536C235.536 30.4744 235.071 27.5999 234.075 24.9445L230.33 26.349ZM231.536 33.518H227.536C227.536 35.7451 227.197 37.6499 226.585 39.2825L230.33 40.687L234.075 42.0915C235.071 39.4361 235.536 36.5616 235.536 33.518H231.536ZM230.33 40.687L226.569 39.3265C225.991 40.9227 225.168 42.2382 224.11 43.3281L226.98 46.114L229.85 48.8999C231.741 46.9524 233.15 44.6499 234.092 42.0475L230.33 40.687ZM226.98 46.114L224.067 43.3725C223.067 44.4355 221.798 45.3056 220.188 45.9566L221.687 49.665L223.186 53.3734C225.775 52.3271 228.035 50.8298 229.893 48.8555L226.98 46.114ZM221.687 49.665L220.229 45.94C218.705 46.5366 216.909 46.871 214.786 46.871V50.871V54.871C217.755 54.871 220.56 54.4014 223.145 53.39L221.687 49.665ZM255.794 50H251.794V54H255.794V50ZM254.521 24.875L257.421 22.12L257.421 22.12L254.521 24.875ZM243.399 50V54H247.399V50H243.399ZM234.689 50H230.689V54H234.689V50ZM234.689 17.036V13.036H230.689V17.036H234.689ZM242.997 17.036H246.997V13.036H242.997V17.036ZM242.997 21.86H238.997L246.506 23.7813L242.997 21.86ZM247.084 17.639L249.019 21.14L249.054 21.1207L249.088 21.1007L247.084 17.639ZM258.005 16.902L256.628 20.6575L256.684 20.678L256.74 20.6967L258.005 16.902ZM261.422 18.979L258.594 21.8074L258.627 21.8403L258.66 21.8724L261.422 18.979ZM263.7 22.463L259.97 23.907L259.999 23.9808L260.03 24.0534L263.7 22.463ZM264.571 50V54H268.571V50H264.571ZM255.794 50H259.794V30.034H255.794H251.794V50H255.794ZM255.794 30.034H259.794C259.794 28.5657 259.675 27.1534 259.36 25.8765C259.049 24.6197 258.488 23.243 257.421 22.12L254.521 24.875L251.621 27.63C251.403 27.4004 251.478 27.3301 251.592 27.793C251.702 28.2358 251.794 28.9563 251.794 30.034H255.794ZM254.521 24.875L257.421 22.12C255.444 20.0384 252.62 19.535 250.166 19.535V23.535V27.535C250.926 27.535 251.382 27.6201 251.62 27.6931C251.84 27.7609 251.768 27.7849 251.621 27.63L254.521 24.875ZM250.166 23.535V19.535C247.171 19.535 244.226 20.3935 242.109 22.7621C240.068 25.0452 239.399 28.0696 239.399 31.106H243.399H247.399C247.399 29.0951 247.858 28.334 248.073 28.0934C248.212 27.9383 248.651 27.535 250.166 27.535V23.535ZM243.399 31.106H239.399V50H243.399H247.399V31.106H243.399ZM243.399 50V46H234.689V50V54H243.399V50ZM234.689 50H238.689V17.036H234.689H230.689V50H234.689ZM234.689 17.036V21.036H242.997V17.036V13.036H234.689V17.036ZM242.997 17.036H238.997V21.86H242.997H246.997V17.036H242.997ZM242.997 21.86L246.506 23.7813C247.208 22.4995 248.053 21.674 249.019 21.14L247.084 17.639L245.15 14.138C242.721 15.48 240.842 17.4685 239.489 19.9387L242.997 21.86ZM247.084 17.639L249.088 21.1007C249.993 20.5767 251.427 20.165 253.65 20.165V16.165V12.165C250.514 12.165 247.57 12.7359 245.08 14.1773L247.084 17.639ZM253.65 16.165V20.165C254.789 20.165 255.769 20.3426 256.628 20.6575L258.005 16.902L259.382 13.1465C257.561 12.4787 255.639 12.165 253.65 12.165V16.165ZM258.005 16.902L256.74 20.6967C257.53 20.9601 258.123 21.3368 258.594 21.8074L261.422 18.979L264.251 16.1506C262.845 14.7452 261.16 13.7373 259.27 13.1073L258.005 16.902ZM261.422 18.979L258.66 21.8724C259.179 22.3677 259.626 23.0191 259.97 23.907L263.7 22.463L267.431 21.019C266.702 19.1376 265.631 17.4662 264.184 16.0856L261.422 18.979ZM263.7 22.463L260.03 24.0534C260.35 24.7925 260.571 25.7943 260.571 27.153H264.571H268.571C268.571 24.9384 268.212 22.8135 267.37 20.8726L263.7 22.463ZM264.571 27.153H260.571V50H264.571H268.571V27.153H264.571ZM264.571 50V46H255.794V50V54H264.571V50ZM268.587 50H264.587V54H268.587V50ZM268.587 17.036V13.036H264.587V17.036H268.587ZM277.297 17.036H281.297V13.036H277.297V17.036ZM277.297 50V54H281.297V50H277.297ZM268.587 13.083H264.587V17.083H268.587V13.083ZM268.587 4.976V0.975997H264.587V4.976H268.587ZM277.297 4.976H281.297V0.975997H277.297V4.976ZM277.297 13.083V17.083H281.297V13.083H277.297ZM268.587 50H272.587V17.036H268.587H264.587V50H268.587ZM268.587 17.036V21.036H277.297V17.036V13.036H268.587V17.036ZM277.297 17.036H273.297V50H277.297H281.297V17.036H277.297ZM277.297 50V46H268.587V50V54H277.297V50ZM268.587 13.083H272.587V4.976H268.587H264.587V13.083H268.587ZM268.587 4.976V8.976H277.297V4.976V0.975997H268.587V4.976ZM277.297 4.976H273.297V13.083H277.297H281.297V4.976H277.297ZM277.297 13.083V9.083H268.587V13.083V17.083H277.297V13.083Z" fill="url(#paint0_linear_12_85)" mask="url(#path-1-outside-1_12_85)"/>
</g>
<defs>
<filter id="filter0_d_12_85" x="0.267998" y="0.975983" width="285.029" height="61.895" filterUnits="userSpaceOnUse" color-interpolation-filters="sRGB">
<feFlood flood-opacity="0" result="BackgroundImageFix"/>
<feColorMatrix in="SourceAlpha" type="matrix" values="0 0 0 0 0 0 0 0 0 0 0 0 0 0 0 0 0 0 127 0" result="hardAlpha"/>
<feOffset dy="4"/>
<feGaussianBlur stdDeviation="2"/>
<feComposite in2="hardAlpha" operator="out"/>
<feColorMatrix type="matrix" values="0 0 0 0 0 0 0 0 0 0 0 0 0 0 0 0 0 0 0.25 0"/>
<feBlend mode="normal" in2="BackgroundImageFix" result="effect1_dropShadow_12_85"/>
<feBlend mode="normal" in="SourceGraphic" in2="effect1_dropShadow_12_85" result="shape"/>
</filter>
<linearGradient id="paint0_linear_12_85" x1="-5.51553" y1="-15" x2="87.927" y2="157.088" gradientUnits="userSpaceOnUse">
<stop stop-color="#3AB9FF"/>
<stop offset="1" stop-color="#1C66C9"/>
</linearGradient>
</defs>
</svg>
