<svg width="283" height="82" viewBox="0 0 283 82" fill="none" xmlns="http://www.w3.org/2000/svg">
<mask id="mask0_31_9" style="mask-type:alpha" maskUnits="userSpaceOnUse" x="0" y="0" width="283" height="82">
<rect width="283" height="82" fill="#D9D9D9"/>
</mask>
<g mask="url(#mask0_31_9)">
<g filter="url(#filter0_d_31_9)">
<mask id="path-2-outside-1_31_9" maskUnits="userSpaceOnUse" x="18" y="11" width="152" height="49" fill="black">
<rect fill="white" x="18" y="11" width="152" height="49"/>
<path d="M39.08 35.856H45.856V43.696C45.856 45.152 45.632 46.552 45.184 47.896C44.7733 49.2027 44.1013 50.3787 43.168 51.424C42.272 52.432 41.1147 53.2347 39.696 53.832C38.3147 54.4293 36.6533 54.728 34.712 54.728C32.696 54.728 30.9787 54.4293 29.56 53.832C28.1413 53.2347 26.9653 52.432 26.032 51.424C25.136 50.416 24.4827 49.24 24.072 47.896C23.6613 46.552 23.456 45.1333 23.456 43.64V19H30.624V26.448H45.856V31.6H30.624V42.912C30.624 44.6667 30.9413 46.0293 31.576 47C32.248 47.9333 33.3307 48.4 34.824 48.4C36.28 48.4 37.344 47.9333 38.016 47C38.7253 46.0667 39.08 44.7413 39.08 43.024V35.856ZM66.471 54V36.92C66.471 34.8293 66.0977 33.4107 65.351 32.664C64.6417 31.88 63.447 31.488 61.767 31.488C60.871 31.488 60.0683 31.6747 59.359 32.048C58.6497 32.384 58.0523 32.8693 57.567 33.504C57.0817 34.1013 56.7083 34.8107 56.447 35.632C56.223 36.416 56.111 37.2747 56.111 38.208V54H48.831V16.368H56.111V30.032C56.3723 29.4347 56.7643 28.8747 57.287 28.352C57.847 27.792 58.4817 27.3253 59.191 26.952C59.9003 26.5787 60.6843 26.28 61.543 26.056C62.4017 25.832 63.2977 25.72 64.231 25.72C67.0683 25.72 69.3643 26.504 71.119 28.072C72.911 29.6027 73.807 31.7493 73.807 34.512V54H66.471ZM93.7391 40.504C93.3657 40.8773 92.8244 41.176 92.1151 41.4C91.4057 41.624 90.3791 41.8667 89.0351 42.128C86.9444 42.5387 85.5071 43.0613 84.7231 43.696C83.9391 44.3307 83.5471 45.2453 83.5471 46.44C83.5471 48.4933 84.7231 49.52 87.0751 49.52C88.0084 49.52 88.8671 49.3707 89.6511 49.072C90.4724 48.736 91.1631 48.3067 91.7231 47.784C92.3204 47.224 92.7871 46.5893 93.1231 45.88C93.4964 45.1333 93.6831 44.3493 93.6831 43.528L93.7391 40.504ZM94.2431 54C94.0191 53.2907 93.8697 52.4693 93.7951 51.536C92.9364 52.5067 91.7977 53.2907 90.3791 53.888C88.9604 54.448 87.3177 54.728 85.4511 54.728C82.2777 54.728 79.9444 54.0373 78.4511 52.656C76.9951 51.2373 76.2671 49.408 76.2671 47.168C76.2671 45.1893 76.5844 43.6213 77.2191 42.464C77.8537 41.2693 78.7311 40.336 79.8511 39.664C80.9711 38.992 82.2964 38.5067 83.8271 38.208C85.3951 37.872 87.0937 37.5733 88.9231 37.312C90.7524 37.0507 91.9844 36.7147 92.6191 36.304C93.2537 35.856 93.5711 35.1467 93.5711 34.176C93.5711 33.28 93.1417 32.5893 92.2831 32.104C91.4617 31.5813 90.3417 31.32 88.9231 31.32C87.2431 31.32 86.0297 31.6933 85.2831 32.44C84.5737 33.1867 84.1257 34.176 83.9391 35.408H77.1631C77.2004 33.9893 77.4244 32.6827 77.8351 31.488C78.2831 30.2933 78.9737 29.2667 79.9071 28.408C80.8777 27.5493 82.1284 26.896 83.6591 26.448C85.1897 25.9627 87.0564 25.72 89.2591 25.72C91.4244 25.72 93.2537 25.9627 94.7471 26.448C96.2777 26.9333 97.4911 27.6427 98.3871 28.576C99.3204 29.472 99.9924 30.6107 100.403 31.992C100.814 33.336 101.019 34.8667 101.019 36.584V54H94.2431ZM121.869 54V37.312C121.869 35.184 121.515 33.7467 120.805 33C120.096 32.2533 118.883 31.88 117.165 31.88C113.395 31.88 111.509 33.9893 111.509 38.208V54H104.229V26.448H111.173V30.48C112.032 28.912 113.171 27.736 114.589 26.952C116.008 26.1307 117.837 25.72 120.077 25.72C121.384 25.72 122.597 25.9253 123.717 26.336C124.837 26.7093 125.789 27.288 126.573 28.072C127.395 28.856 128.029 29.8267 128.477 30.984C128.963 32.104 129.205 33.4107 129.205 34.904V54H121.869ZM149.306 54L143.258 41.624L139.73 45.264V54H132.394V16.368H139.73V36.92L148.802 26.448H157.706L148.466 36.584L157.482 54H149.306Z"/>
</mask>
<path d="M39.08 35.856H45.856V43.696C45.856 45.152 45.632 46.552 45.184 47.896C44.7733 49.2027 44.1013 50.3787 43.168 51.424C42.272 52.432 41.1147 53.2347 39.696 53.832C38.3147 54.4293 36.6533 54.728 34.712 54.728C32.696 54.728 30.9787 54.4293 29.56 53.832C28.1413 53.2347 26.9653 52.432 26.032 51.424C25.136 50.416 24.4827 49.24 24.072 47.896C23.6613 46.552 23.456 45.1333 23.456 43.64V19H30.624V26.448H45.856V31.6H30.624V42.912C30.624 44.6667 30.9413 46.0293 31.576 47C32.248 47.9333 33.3307 48.4 34.824 48.4C36.28 48.4 37.344 47.9333 38.016 47C38.7253 46.0667 39.08 44.7413 39.08 43.024V35.856ZM66.471 54V36.92C66.471 34.8293 66.0977 33.4107 65.351 32.664C64.6417 31.88 63.447 31.488 61.767 31.488C60.871 31.488 60.0683 31.6747 59.359 32.048C58.6497 32.384 58.0523 32.8693 57.567 33.504C57.0817 34.1013 56.7083 34.8107 56.447 35.632C56.223 36.416 56.111 37.2747 56.111 38.208V54H48.831V16.368H56.111V30.032C56.3723 29.4347 56.7643 28.8747 57.287 28.352C57.847 27.792 58.4817 27.3253 59.191 26.952C59.9003 26.5787 60.6843 26.28 61.543 26.056C62.4017 25.832 63.2977 25.72 64.231 25.72C67.0683 25.72 69.3643 26.504 71.119 28.072C72.911 29.6027 73.807 31.7493 73.807 34.512V54H66.471ZM93.7391 40.504C93.3657 40.8773 92.8244 41.176 92.1151 41.4C91.4057 41.624 90.3791 41.8667 89.0351 42.128C86.9444 42.5387 85.5071 43.0613 84.7231 43.696C83.9391 44.3307 83.5471 45.2453 83.5471 46.44C83.5471 48.4933 84.7231 49.52 87.0751 49.52C88.0084 49.52 88.8671 49.3707 89.6511 49.072C90.4724 48.736 91.1631 48.3067 91.7231 47.784C92.3204 47.224 92.7871 46.5893 93.1231 45.88C93.4964 45.1333 93.6831 44.3493 93.6831 43.528L93.7391 40.504ZM94.2431 54C94.0191 53.2907 93.8697 52.4693 93.7951 51.536C92.9364 52.5067 91.7977 53.2907 90.3791 53.888C88.9604 54.448 87.3177 54.728 85.4511 54.728C82.2777 54.728 79.9444 54.0373 78.4511 52.656C76.9951 51.2373 76.2671 49.408 76.2671 47.168C76.2671 45.1893 76.5844 43.6213 77.2191 42.464C77.8537 41.2693 78.7311 40.336 79.8511 39.664C80.9711 38.992 82.2964 38.5067 83.8271 38.208C85.3951 37.872 87.0937 37.5733 88.9231 37.312C90.7524 37.0507 91.9844 36.7147 92.6191 36.304C93.2537 35.856 93.5711 35.1467 93.5711 34.176C93.5711 33.28 93.1417 32.5893 92.2831 32.104C91.4617 31.5813 90.3417 31.32 88.9231 31.32C87.2431 31.32 86.0297 31.6933 85.2831 32.44C84.5737 33.1867 84.1257 34.176 83.9391 35.408H77.1631C77.2004 33.9893 77.4244 32.6827 77.8351 31.488C78.2831 30.2933 78.9737 29.2667 79.9071 28.408C80.8777 27.5493 82.1284 26.896 83.6591 26.448C85.1897 25.9627 87.0564 25.72 89.2591 25.72C91.4244 25.72 93.2537 25.9627 94.7471 26.448C96.2777 26.9333 97.4911 27.6427 98.3871 28.576C99.3204 29.472 99.9924 30.6107 100.403 31.992C100.814 33.336 101.019 34.8667 101.019 36.584V54H94.2431ZM121.869 54V37.312C121.869 35.184 121.515 33.7467 120.805 33C120.096 32.2533 118.883 31.88 117.165 31.88C113.395 31.88 111.509 33.9893 111.509 38.208V54H104.229V26.448H111.173V30.48C112.032 28.912 113.171 27.736 114.589 26.952C116.008 26.1307 117.837 25.72 120.077 25.72C121.384 25.72 122.597 25.9253 123.717 26.336C124.837 26.7093 125.789 27.288 126.573 28.072C127.395 28.856 128.029 29.8267 128.477 30.984C128.963 32.104 129.205 33.4107 129.205 34.904V54H121.869ZM149.306 54L143.258 41.624L139.73 45.264V54H132.394V16.368H139.73V36.92L148.802 26.448H157.706L148.466 36.584L157.482 54H149.306Z" fill="white"/>
<path d="M39.08 35.856V30.856H34.08V35.856H39.08ZM45.856 35.856H50.856V30.856H45.856V35.856ZM45.184 47.896L40.4406 46.3149L40.427 46.3557L40.414 46.3969L45.184 47.896ZM43.168 51.424L39.4383 48.0939L39.431 48.1022L43.168 51.424ZM39.696 53.832L37.7557 49.2238L37.7335 49.2332L37.7114 49.2427L39.696 53.832ZM29.56 53.832L27.6197 58.4402L27.6197 58.4402L29.56 53.832ZM26.032 51.424L22.295 54.7458L22.3287 54.7838L22.3632 54.821L26.032 51.424ZM24.072 47.896L19.2902 49.3571L19.2902 49.3571L24.072 47.896ZM23.456 19V14H18.456V19H23.456ZM30.624 19H35.624V14H30.624V19ZM30.624 26.448H25.624V31.448H30.624V26.448ZM45.856 26.448H50.856V21.448H45.856V26.448ZM45.856 31.6V36.6H50.856V31.6H45.856ZM30.624 31.6V26.6H25.624V31.6H30.624ZM31.576 47L27.3912 49.7362L27.4527 49.8303L27.5183 49.9215L31.576 47ZM38.016 47L34.0352 43.9746L33.9961 44.026L33.9583 44.0785L38.016 47ZM39.08 35.856V40.856H45.856V35.856V30.856H39.08V35.856ZM45.856 35.856H40.856V43.696H45.856H50.856V35.856H45.856ZM45.856 43.696H40.856C40.856 44.6297 40.7139 45.4948 40.4406 46.3149L45.184 47.896L49.9274 49.4771C50.5501 47.6092 50.856 45.6743 50.856 43.696H45.856ZM45.184 47.896L40.414 46.3969C40.2212 47.0104 39.9101 47.5655 39.4383 48.0939L43.168 51.424L46.8977 54.7541C48.2926 53.1918 49.3254 51.395 49.954 49.3951L45.184 47.896ZM43.168 51.424L39.431 48.1022C39.0961 48.4789 38.5843 48.8749 37.7557 49.2238L39.696 53.832L41.6363 58.4402C43.645 57.5944 45.4479 56.3851 46.905 54.7458L43.168 51.424ZM39.696 53.832L37.7114 49.2427C37.11 49.5028 36.1603 49.728 34.712 49.728V54.728V59.728C37.1463 59.728 39.5193 59.3559 41.6806 58.4213L39.696 53.832ZM34.712 54.728V49.728C33.166 49.728 32.1465 49.4959 31.5003 49.2238L29.56 53.832L27.6197 58.4402C29.8109 59.3628 32.226 59.728 34.712 59.728V54.728ZM29.56 53.832L31.5003 49.2238C30.6581 48.8692 30.0955 48.4532 29.7008 48.027L26.032 51.424L22.3632 54.821C23.8352 56.4108 25.6246 57.6001 27.6197 58.4402L29.56 53.832ZM26.032 51.424L29.769 48.1022C29.3713 47.6547 29.0632 47.1204 28.8538 46.4349L24.072 47.896L19.2902 49.3571C19.9021 51.3596 20.9007 53.1773 22.295 54.7458L26.032 51.424ZM24.072 47.896L28.8538 46.4349C28.5966 45.5932 28.456 44.6692 28.456 43.64H23.456H18.456C18.456 45.5975 18.7261 47.5108 19.2902 49.3571L24.072 47.896ZM23.456 43.64H28.456V19H23.456H18.456V43.64H23.456ZM23.456 19V24H30.624V19V14H23.456V19ZM30.624 19H25.624V26.448H30.624H35.624V19H30.624ZM30.624 26.448V31.448H45.856V26.448V21.448H30.624V26.448ZM45.856 26.448H40.856V31.6H45.856H50.856V26.448H45.856ZM45.856 31.6V26.6H30.624V31.6V36.6H45.856V31.6ZM30.624 31.6H25.624V42.912H30.624H35.624V31.6H30.624ZM30.624 42.912H25.624C25.624 45.1733 26.0171 47.6347 27.3912 49.7362L31.576 47L35.7608 44.2638C35.8223 44.3577 35.7842 44.3415 35.7317 44.116C35.6782 43.8863 35.624 43.4994 35.624 42.912H30.624ZM31.576 47L27.5183 49.9215C29.4016 52.5371 32.2519 53.4 34.824 53.4V48.4V43.4C34.5831 43.4 34.6447 43.3608 34.8711 43.4584C34.9883 43.5089 35.1299 43.588 35.2754 43.7041C35.4215 43.8207 35.5417 43.9508 35.6337 44.0785L31.576 47ZM34.824 48.4V53.4C37.4122 53.4 40.2148 52.5033 42.0737 49.9215L38.016 47L33.9583 44.0785C34.0436 43.9601 34.1576 43.8351 34.2997 43.7204C34.4417 43.606 34.5832 43.5248 34.7057 43.4711C34.9455 43.3659 35.0301 43.4 34.824 43.4V48.4ZM38.016 47L41.9968 50.0254C43.6118 47.9004 44.08 45.3459 44.08 43.024H39.08H34.08C34.08 43.5506 34.0244 43.8625 33.984 44.0135C33.9463 44.1541 33.936 44.1051 34.0352 43.9746L38.016 47ZM39.08 43.024H44.08V35.856H39.08H34.08V43.024H39.08ZM66.471 54H61.471V59H66.471V54ZM65.351 32.664L61.6433 36.0186L61.7271 36.1112L61.8155 36.1995L65.351 32.664ZM59.359 32.048L61.4994 36.5667L61.5946 36.5216L61.6877 36.4726L59.359 32.048ZM57.567 33.504L61.4476 36.657L61.494 36.5998L61.5388 36.5412L57.567 33.504ZM56.447 35.632L51.6824 34.116L51.6598 34.1869L51.6394 34.2584L56.447 35.632ZM56.111 54V59H61.111V54H56.111ZM48.831 54H43.831V59H48.831V54ZM48.831 16.368V11.368H43.831V16.368H48.831ZM56.111 16.368H61.111V11.368H56.111V16.368ZM56.111 30.032H51.111L60.6918 32.0361L56.111 30.032ZM57.287 28.352L53.7515 24.8165L53.7515 24.8165L57.287 28.352ZM59.191 26.952L61.5197 31.3766L61.5197 31.3766L59.191 26.952ZM61.543 26.056L62.8051 30.8941L62.8051 30.8941L61.543 26.056ZM71.119 28.072L67.7873 31.8003L67.829 31.8375L67.8716 31.8739L71.119 28.072ZM73.807 54V59H78.807V54H73.807ZM66.471 54H71.471V36.92H66.471H61.471V54H66.471ZM66.471 36.92H71.471C71.471 34.6365 71.1468 31.3887 68.8865 29.1285L65.351 32.664L61.8155 36.1995C61.3654 35.7495 61.3106 35.3895 61.3556 35.5605C61.3734 35.628 61.4039 35.7706 61.4291 36.0069C61.454 36.2414 61.471 36.5428 61.471 36.92H66.471ZM65.351 32.664L69.0587 29.3094C66.9657 26.9961 64.0441 26.488 61.767 26.488V31.488V36.488C61.9955 36.488 62.1567 36.5015 62.2604 36.5157C62.3644 36.5298 62.393 36.5423 62.3641 36.5328C62.3336 36.5228 62.2362 36.4873 62.1005 36.4035C61.9613 36.3175 61.7998 36.1916 61.6433 36.0186L65.351 32.664ZM61.767 31.488V26.488C60.1566 26.488 58.5388 26.8294 57.0303 27.6234L59.359 32.048L61.6877 36.4726C61.6725 36.4806 61.6578 36.487 61.6451 36.4917C61.6324 36.4964 61.6253 36.4981 61.6256 36.498C61.626 36.4979 61.6364 36.4955 61.6587 36.4931C61.6811 36.4906 61.7167 36.488 61.767 36.488V31.488ZM59.359 32.048L57.2186 27.5293C55.7762 28.2125 54.5553 29.2113 53.5952 30.4667L57.567 33.504L61.5388 36.5412C61.5461 36.5317 61.549 36.529 61.5469 36.5311C61.5449 36.5333 61.5398 36.5382 61.532 36.5446C61.5241 36.5509 61.5161 36.5566 61.5089 36.5612C61.5017 36.5657 61.498 36.5674 61.4994 36.5667L59.359 32.048ZM57.567 33.504L53.6864 30.351C52.7621 31.4887 52.1107 32.7697 51.6824 34.116L56.447 35.632L61.2116 37.148C61.3059 36.8517 61.4013 36.714 61.4476 36.657L57.567 33.504ZM56.447 35.632L51.6394 34.2584C51.2709 35.5482 51.111 36.8758 51.111 38.208H56.111H61.111C61.111 37.6735 61.1751 37.2838 61.2546 37.0056L56.447 35.632ZM56.111 38.208H51.111V54H56.111H61.111V38.208H56.111ZM56.111 54V49H48.831V54V59H56.111V54ZM48.831 54H53.831V16.368H48.831H43.831V54H48.831ZM48.831 16.368V21.368H56.111V16.368V11.368H48.831V16.368ZM56.111 16.368H51.111V30.032H56.111H61.111V16.368H56.111ZM56.111 30.032L60.6918 32.0361C60.6836 32.0547 60.6817 32.0534 60.6972 32.0313C60.7132 32.0083 60.7507 31.9594 60.8225 31.8875L57.287 28.352L53.7515 24.8165C52.8464 25.7215 52.0726 26.7882 51.5302 28.0279L56.111 30.032ZM57.287 28.352L60.8225 31.8875C61.0229 31.6872 61.2496 31.5188 61.5197 31.3766L59.191 26.952L56.8623 22.5274C55.7138 23.1319 54.6711 23.8968 53.7515 24.8165L57.287 28.352ZM59.191 26.952L61.5197 31.3766C61.8567 31.1993 62.2777 31.0317 62.8051 30.8941L61.543 26.056L60.2809 21.2179C59.091 21.5283 57.944 21.9581 56.8623 22.5274L59.191 26.952ZM61.543 26.056L62.8051 30.8941C63.2309 30.783 63.7015 30.72 64.231 30.72V25.72V20.72C62.8938 20.72 61.5724 20.881 60.2809 21.2179L61.543 26.056ZM64.231 25.72V30.72C66.105 30.72 67.1297 31.2126 67.7873 31.8003L71.119 28.072L74.4507 24.3437C71.599 21.7954 68.0317 20.72 64.231 20.72V25.72ZM71.119 28.072L67.8716 31.8739C68.3556 32.2873 68.807 32.9332 68.807 34.512H73.807H78.807C78.807 30.5655 77.4664 26.918 74.3664 24.2701L71.119 28.072ZM73.807 34.512H68.807V54H73.807H78.807V34.512H73.807ZM73.807 54V49H66.471V54V59H73.807V54ZM93.7391 40.504L98.7382 40.5966L98.9677 28.2043L90.2035 36.9685L93.7391 40.504ZM92.1151 41.4L90.6094 36.6321L90.6094 36.6321L92.1151 41.4ZM89.0351 42.128L88.0807 37.2199L88.0713 37.2218L89.0351 42.128ZM84.7231 43.696L81.5771 39.8098L81.5771 39.8098L84.7231 43.696ZM89.6511 49.072L91.431 53.7444L91.4879 53.7228L91.5442 53.6997L89.6511 49.072ZM91.7231 47.784L95.1347 51.4393L95.1428 51.4317L91.7231 47.784ZM93.1231 45.88L88.6509 43.6439L88.6271 43.6915L88.6044 43.7396L93.1231 45.88ZM93.6831 43.528L88.6839 43.4354L88.6831 43.4817V43.528H93.6831ZM94.2431 54L89.4752 55.5057L90.5786 59H94.2431V54ZM93.7951 51.536L98.7791 51.1373L97.8414 39.4156L90.0501 48.2231L93.7951 51.536ZM90.3791 53.888L92.2149 58.5388L92.2674 58.5181L92.3193 58.4962L90.3791 53.888ZM78.4511 52.656L74.9617 56.2371L75.0082 56.2824L75.0559 56.3265L78.4511 52.656ZM77.2191 42.464L81.6031 44.8682L81.6191 44.8391L81.6346 44.8098L77.2191 42.464ZM79.8511 39.664L82.4235 43.9515L82.4235 43.9515L79.8511 39.664ZM83.8271 38.208L84.7846 43.1155L84.8297 43.1066L84.8747 43.097L83.8271 38.208ZM88.9231 37.312L88.216 32.3623L88.216 32.3623L88.9231 37.312ZM92.6191 36.304L95.3353 40.5018L95.42 40.447L95.5025 40.3888L92.6191 36.304ZM92.2831 32.104L89.5987 36.3223L89.709 36.3925L89.8228 36.4568L92.2831 32.104ZM85.2831 32.44L81.7475 28.9045L81.7022 28.9498L81.6581 28.9963L85.2831 32.44ZM83.9391 35.408V40.408H88.2386L88.8826 36.157L83.9391 35.408ZM77.1631 35.408L72.1648 35.2765L72.0298 40.408H77.1631V35.408ZM77.8351 31.488L73.1534 29.7324L73.1291 29.7972L73.1066 29.8626L77.8351 31.488ZM79.9071 28.408L76.5942 24.663L76.5577 24.6953L76.5218 24.7283L79.9071 28.408ZM83.6591 26.448L85.0636 31.2467L85.1171 31.231L85.1703 31.2142L83.6591 26.448ZM94.7471 26.448L93.2016 31.2032L93.2187 31.2087L93.2358 31.2142L94.7471 26.448ZM98.3871 28.576L94.7801 32.0387L94.8508 32.1123L94.9244 32.1829L98.3871 28.576ZM100.403 31.992L95.6104 33.4169L95.6158 33.435L95.6213 33.4531L100.403 31.992ZM101.019 54V59H106.019V54H101.019ZM93.7391 40.504L90.2035 36.9685C90.3998 36.7722 90.5656 36.6699 90.6377 36.6301C90.7079 36.5914 90.71 36.6003 90.6094 36.6321L92.1151 41.4L93.6207 46.1679C94.8015 45.795 96.1493 45.1648 97.2746 44.0395L93.7391 40.504ZM92.1151 41.4L90.6094 36.6321C90.1725 36.7701 89.3653 36.9701 88.0807 37.2199L89.0351 42.128L89.9894 47.0361C91.3928 46.7632 92.639 46.4779 93.6207 46.1679L92.1151 41.4ZM89.0351 42.128L88.0713 37.2218C85.8827 37.6517 83.3821 38.3486 81.5771 39.8098L84.7231 43.696L87.8691 47.5822C87.6685 47.7446 87.6595 47.6863 88.0978 47.527C88.5004 47.3806 89.1163 47.2076 89.9988 47.0342L89.0351 42.128ZM84.7231 43.696L81.5771 39.8098C79.3991 41.5729 78.5471 44.0463 78.5471 46.44H83.5471H88.5471C88.5471 46.3867 88.5554 46.5509 88.4368 46.8276C88.308 47.128 88.1 47.3953 87.8691 47.5822L84.7231 43.696ZM83.5471 46.44H78.5471C78.5471 48.4273 79.1476 50.7765 81.1408 52.5166C83.0042 54.1434 85.2825 54.52 87.0751 54.52V49.52V44.52C86.5157 44.52 87.0299 44.3833 87.7174 44.9834C88.0742 45.2949 88.3107 45.6689 88.4387 46.004C88.5552 46.3092 88.5471 46.4879 88.5471 46.44H83.5471ZM87.0751 49.52V54.52C88.5485 54.52 90.0182 54.2827 91.431 53.7444L89.6511 49.072L87.8711 44.3996C87.716 44.4587 87.4683 44.52 87.0751 44.52V49.52ZM89.6511 49.072L91.5442 53.6997C92.8389 53.1701 94.0674 52.4354 95.1347 51.4393L91.7231 47.784L88.3115 44.1287C88.2587 44.1779 88.1059 44.3019 87.7579 44.4443L89.6511 49.072ZM91.7231 47.784L95.1428 51.4317C96.1777 50.4615 97.0257 49.321 97.6418 48.0204L93.1231 45.88L88.6044 43.7396C88.5484 43.8576 88.4631 43.9865 88.3034 44.1363L91.7231 47.784ZM93.1231 45.88L97.5952 48.1161C98.3098 46.6869 98.6831 45.1387 98.6831 43.528H93.6831H88.6831C88.6831 43.5562 88.6803 43.5685 88.679 43.5739C88.6777 43.5796 88.6722 43.6014 88.6509 43.6439L93.1231 45.88ZM93.6831 43.528L98.6822 43.6206L98.7382 40.5966L93.7391 40.504L88.7399 40.4114L88.6839 43.4354L93.6831 43.528ZM94.2431 54L99.011 52.4943C98.9253 52.2231 98.8311 51.7866 98.7791 51.1373L93.7951 51.536L88.811 51.9347C88.9084 53.1521 89.1128 54.3583 89.4752 55.5057L94.2431 54ZM93.7951 51.536L90.0501 48.2231C89.773 48.5363 89.2948 48.9194 88.4388 49.2798L90.3791 53.888L92.3193 58.4962C94.3006 57.662 96.0998 56.477 97.54 54.8489L93.7951 51.536ZM90.3791 53.888L88.5432 49.2372C87.8239 49.5212 86.8258 49.728 85.4511 49.728V54.728V59.728C87.8097 59.728 90.0969 59.3748 92.2149 58.5388L90.3791 53.888ZM85.4511 54.728V49.728C82.8588 49.728 82.016 49.1425 81.8463 48.9855L78.4511 52.656L75.0559 56.3265C77.8728 58.9322 81.6967 59.728 85.4511 59.728V54.728ZM78.4511 52.656L81.9404 49.0749C81.5537 48.6981 81.2671 48.2109 81.2671 47.168H76.2671H71.2671C71.2671 50.6051 72.4364 53.7766 74.9617 56.2371L78.4511 52.656ZM76.2671 47.168H81.2671C81.2671 45.643 81.5248 45.0111 81.6031 44.8682L77.2191 42.464L72.835 40.0598C71.644 42.2316 71.2671 44.7356 71.2671 47.168H76.2671ZM77.2191 42.464L81.6346 44.8098C81.8588 44.3878 82.1117 44.1386 82.4235 43.9515L79.8511 39.664L77.2786 35.3765C75.3505 36.5334 73.8486 38.1509 72.8035 40.1182L77.2191 42.464ZM79.8511 39.664L82.4235 43.9515C82.9592 43.6301 83.7165 43.3239 84.7846 43.1155L83.8271 38.208L82.8695 33.3005C80.8763 33.6895 78.9829 34.3539 77.2786 35.3765L79.8511 39.664ZM83.8271 38.208L84.8747 43.097C86.3145 42.7885 87.8983 42.5092 89.6302 42.2617L88.9231 37.312L88.216 32.3623C86.2892 32.6375 84.4756 32.9555 82.7794 33.319L83.8271 38.208ZM88.9231 37.312L89.6302 42.2617C91.4263 42.0052 93.6776 41.5745 95.3353 40.5018L92.6191 36.304L89.9028 32.1061C90.0874 31.9867 90.1989 31.9457 90.1741 31.9556C90.1573 31.9623 90.0742 31.9936 89.9035 32.0402C89.5541 32.1355 89.0075 32.2492 88.216 32.3623L88.9231 37.312ZM92.6191 36.304L95.5025 40.3888C97.7968 38.7693 98.5711 36.3166 98.5711 34.176H93.5711H88.5711C88.5711 34.1277 88.5781 33.8208 88.769 33.3942C88.9768 32.9295 89.3193 32.5131 89.7357 32.2192L92.6191 36.304ZM93.5711 34.176H98.5711C98.5711 31.2665 96.9788 29.0147 94.7434 27.7512L92.2831 32.104L89.8228 36.4568C89.6768 36.3743 89.3153 36.1287 89.0026 35.6257C88.6754 35.0992 88.5711 34.5628 88.5711 34.176H93.5711ZM92.2831 32.104L94.9674 27.8857C93.0564 26.6696 90.882 26.32 88.9231 26.32V31.32V36.32C89.3349 36.32 89.5779 36.3588 89.6909 36.3852C89.799 36.4104 89.7412 36.413 89.5987 36.3223L92.2831 32.104ZM88.9231 31.32V26.32C86.673 26.32 83.8572 26.7948 81.7475 28.9045L85.2831 32.44L88.8186 35.9755C88.6702 36.124 88.5256 36.2259 88.4113 36.2912C88.2999 36.3549 88.2291 36.3772 88.2235 36.3789C88.2191 36.3803 88.2696 36.3645 88.3904 36.3489C88.5109 36.3333 88.6857 36.32 88.9231 36.32V31.32ZM85.2831 32.44L81.6581 28.9963C80.1068 30.6291 79.3027 32.631 78.9955 34.659L83.9391 35.408L88.8826 36.157C88.9171 35.9293 88.9605 35.8251 88.9698 35.8045C88.9759 35.791 88.9589 35.8302 88.9081 35.8837L85.2831 32.44ZM83.9391 35.408V30.408H77.1631V35.408V40.408H83.9391V35.408ZM77.1631 35.408L82.1613 35.5395C82.1869 34.5677 82.3373 33.7715 82.5635 33.1134L77.8351 31.488L73.1066 29.8626C72.5115 31.5939 72.2139 33.4109 72.1648 35.2765L77.1631 35.408ZM77.8351 31.488L82.5167 33.2436C82.6911 32.7784 82.9396 32.4122 83.2923 32.0877L79.9071 28.408L76.5218 24.7283C75.0078 26.1212 73.875 27.8082 73.1534 29.7324L77.8351 31.488ZM79.9071 28.408L83.2199 32.153C83.5277 31.8807 84.0796 31.5347 85.0636 31.2467L83.6591 26.448L82.2546 21.6493C80.1772 22.2573 78.2278 23.2179 76.5942 24.663L79.9071 28.408ZM83.6591 26.448L85.1703 31.2142C86.0685 30.9294 87.3928 30.72 89.2591 30.72V25.72V20.72C86.72 20.72 84.311 20.996 82.1478 21.6818L83.6591 26.448ZM89.2591 25.72V30.72C91.0835 30.72 92.3565 30.9285 93.2016 31.2032L94.7471 26.448L96.2925 21.6928C94.151 20.9968 91.7653 20.72 89.2591 20.72V25.72ZM94.7471 26.448L93.2358 31.2142C94.1593 31.5069 94.5863 31.8367 94.7801 32.0387L98.3871 28.576L101.994 25.1133C100.396 23.4486 98.3962 22.3597 96.2583 21.6818L94.7471 26.448ZM98.3871 28.576L94.9244 32.1829C95.164 32.4129 95.4178 32.7692 95.6104 33.4169L100.403 31.992L105.196 30.5671C104.567 28.4521 103.477 26.5311 101.85 24.9691L98.3871 28.576ZM100.403 31.992L95.6213 33.4531C95.8594 34.2322 96.0191 35.2562 96.0191 36.584H101.019H106.019C106.019 34.4771 105.768 32.4398 105.185 30.5309L100.403 31.992ZM101.019 36.584H96.0191V54H101.019H106.019V36.584H101.019ZM101.019 54V49H94.2431V54V59H101.019V54ZM121.869 54H116.869V59H121.869V54ZM120.805 33L124.43 29.5563L124.43 29.5562L120.805 33ZM111.509 54V59H116.509V54H111.509ZM104.229 54H99.2294V59H104.229V54ZM104.229 26.448V21.448H99.2294V26.448H104.229ZM111.173 26.448H116.173V21.448H111.173V26.448ZM111.173 30.48H106.173L115.559 32.8816L111.173 30.48ZM114.589 26.952L117.008 31.3282L117.051 31.3041L117.095 31.2791L114.589 26.952ZM123.717 26.336L121.996 31.0304L122.066 31.0559L122.136 31.0794L123.717 26.336ZM126.573 28.072L123.038 31.6075L123.079 31.6486L123.121 31.6888L126.573 28.072ZM128.477 30.984L123.815 32.789L123.85 32.8812L123.89 32.972L128.477 30.984ZM129.205 54V59H134.205V54H129.205ZM121.869 54H126.869V37.312H121.869H116.869V54H121.869ZM121.869 37.312H126.869C126.869 36.0039 126.764 34.6802 126.458 33.4402C126.158 32.2253 125.588 30.775 124.43 29.5563L120.805 33L117.18 36.4437C116.949 36.1998 116.828 35.9861 116.776 35.8793C116.725 35.7753 116.727 35.7475 116.749 35.8358C116.798 36.0331 116.869 36.4921 116.869 37.312H121.869ZM120.805 33L124.43 29.5562C122.31 27.3242 119.382 26.88 117.165 26.88V31.88V36.88C117.417 36.88 117.601 36.8938 117.727 36.9099C117.854 36.9261 117.904 36.9421 117.893 36.9389C117.868 36.9312 117.54 36.8224 117.18 36.4437L120.805 33ZM117.165 31.88V26.88C114.355 26.88 111.375 27.6918 109.196 30.13C107.112 32.4612 106.509 35.4577 106.509 38.208H111.509H116.509C116.509 36.7396 116.85 36.5721 116.651 36.794C116.608 36.8428 116.557 36.887 116.506 36.9213C116.456 36.9546 116.428 36.9642 116.438 36.9603C116.466 36.9498 116.676 36.88 117.165 36.88V31.88ZM111.509 38.208H106.509V54H111.509H116.509V38.208H111.509ZM111.509 54V49H104.229V54V59H111.509V54ZM104.229 54H109.229V26.448H104.229H99.2294V54H104.229ZM104.229 26.448V31.448H111.173V26.448V21.448H104.229V26.448ZM111.173 26.448H106.173V30.48H111.173H116.173V26.448H111.173ZM111.173 30.48L115.559 32.8816C116.011 32.0563 116.503 31.6072 117.008 31.3282L114.589 26.952L112.171 22.5758C109.839 23.8648 108.053 25.7677 106.788 28.0784L111.173 30.48ZM114.589 26.952L117.095 31.2791C117.523 31.0312 118.408 30.72 120.077 30.72V25.72V20.72C117.267 20.72 114.493 21.2302 112.084 22.6249L114.589 26.952ZM120.077 25.72V30.72C120.853 30.72 121.478 30.8403 121.996 31.0304L123.717 26.336L125.439 21.6416C123.717 21.0104 121.915 20.72 120.077 20.72V25.72ZM123.717 26.336L122.136 31.0794C122.569 31.2236 122.838 31.4077 123.038 31.6075L126.573 28.072L130.109 24.5365C128.741 23.1683 127.106 22.1951 125.299 21.5926L123.717 26.336ZM126.573 28.072L123.121 31.6888C123.363 31.9194 123.607 32.2526 123.815 32.789L128.477 30.984L133.14 29.179C132.452 27.4007 131.427 25.7926 130.026 24.4552L126.573 28.072ZM128.477 30.984L123.89 32.972C124.05 33.3409 124.205 33.9456 124.205 34.904H129.205H134.205C134.205 32.8757 133.876 30.8671 133.065 28.996L128.477 30.984ZM129.205 34.904H124.205V54H129.205H134.205V34.904H129.205ZM129.205 54V49H121.869V54V59H129.205V54ZM149.306 54L144.813 56.1953L146.184 59H149.306V54ZM143.258 41.624L147.75 39.4287L144.623 33.0308L139.667 38.1441L143.258 41.624ZM139.73 45.264L136.139 41.7841L134.73 43.2385V45.264H139.73ZM139.73 54V59H144.73V54H139.73ZM132.394 54H127.394V59H132.394V54ZM132.394 16.368V11.368H127.394V16.368H132.394ZM139.73 16.368H144.73V11.368H139.73V16.368ZM139.73 36.92H134.73V50.3278L143.509 40.1939L139.73 36.92ZM148.802 26.448V21.448H146.518L145.022 23.1741L148.802 26.448ZM157.706 26.448L161.401 29.8164L169.029 21.448H157.706V26.448ZM148.466 36.584L144.77 33.2156L142.424 35.7896L144.025 38.8827L148.466 36.584ZM157.482 54V59H165.7L161.922 51.7013L157.482 54ZM149.306 54L153.798 51.8047L147.75 39.4287L143.258 41.624L138.765 43.8193L144.813 56.1953L149.306 54ZM143.258 41.624L139.667 38.1441L136.139 41.7841L139.73 45.264L143.32 48.7439L146.848 45.1039L143.258 41.624ZM139.73 45.264H134.73V54H139.73H144.73V45.264H139.73ZM139.73 54V49H132.394V54V59H139.73V54ZM132.394 54H137.394V16.368H132.394H127.394V54H132.394ZM132.394 16.368V21.368H139.73V16.368V11.368H132.394V16.368ZM139.73 16.368H134.73V36.92H139.73H144.73V16.368H139.73ZM139.73 36.92L143.509 40.1939L152.581 29.7219L148.802 26.448L145.022 23.1741L135.95 33.6461L139.73 36.92ZM148.802 26.448V31.448H157.706V26.448V21.448H148.802V26.448ZM157.706 26.448L154.01 23.0796L144.77 33.2156L148.466 36.584L152.161 39.9524L161.401 29.8164L157.706 26.448ZM148.466 36.584L144.025 38.8827L153.041 56.2987L157.482 54L161.922 51.7013L152.906 34.2853L148.466 36.584ZM157.482 54V49H149.306V54V59H157.482V54Z" fill="url(#paint0_linear_31_9)" mask="url(#path-2-outside-1_31_9)"/>
</g>
<g filter="url(#filter1_d_31_9)">
<mask id="path-4-outside-2_31_9" maskUnits="userSpaceOnUse" x="170" y="19" width="96" height="55" fill="black">
<rect fill="white" x="170" y="19" width="96" height="55"/>
<path d="M193.984 50.36C193.461 51.592 192.509 52.5627 191.128 53.272C189.784 53.944 188.253 54.28 186.536 54.28C185.08 54.28 183.736 54.056 182.504 53.608C181.272 53.1227 180.208 52.4507 179.312 51.592C178.416 50.696 177.707 49.6507 177.184 48.456C176.699 47.224 176.456 45.8427 176.456 44.312V26.448H183.736V43.248C183.736 46.6827 185.285 48.4 188.384 48.4C190.064 48.4 191.408 47.9147 192.416 46.944C193.461 45.9733 193.984 44.7413 193.984 43.248V26.448H201.264V54.728C201.264 56.6693 200.928 58.4053 200.256 59.936C199.621 61.4667 198.725 62.7547 197.568 63.8C196.448 64.8453 195.104 65.648 193.536 66.208C192.005 66.768 190.363 67.048 188.608 67.048C184.539 67.048 181.496 66.0213 179.48 63.968C177.464 61.9147 176.456 59.096 176.456 55.512H183.232C183.232 57.1547 183.699 58.4427 184.632 59.376C185.603 60.3093 187.04 60.776 188.944 60.776C189.616 60.776 190.251 60.6267 190.848 60.328C191.445 60.0667 191.968 59.6747 192.416 59.152C192.901 58.6667 193.275 58.0507 193.536 57.304C193.835 56.5573 193.984 55.736 193.984 54.84V50.36ZM218.117 48.624C222.56 48.624 224.781 45.824 224.781 40.224C224.781 34.6613 222.56 31.88 218.117 31.88C213.675 31.88 211.453 34.6613 211.453 40.224C211.453 45.824 213.675 48.624 218.117 48.624ZM218.117 54.728C215.877 54.728 213.88 54.3733 212.125 53.664C210.371 52.9547 208.877 51.9653 207.645 50.696C206.451 49.4267 205.536 47.896 204.901 46.104C204.267 44.312 203.949 42.352 203.949 40.224C203.949 38.0587 204.267 36.08 204.901 34.288C205.573 32.496 206.525 30.9653 207.757 29.696C208.989 28.4267 210.464 27.456 212.181 26.784C213.936 26.0747 215.915 25.72 218.117 25.72C220.283 25.72 222.224 26.0747 223.941 26.784C225.659 27.456 227.115 28.4267 228.309 29.696C229.541 30.928 230.475 32.44 231.109 34.232C231.781 36.024 232.117 38.0213 232.117 40.224C232.117 42.4267 231.781 44.424 231.109 46.216C230.475 47.9707 229.541 49.4827 228.309 50.752C227.115 52.0213 225.64 53.0107 223.885 53.72C222.168 54.392 220.245 54.728 218.117 54.728ZM252.673 54V50.136C250.806 53.1973 247.95 54.728 244.105 54.728C242.724 54.728 241.454 54.4853 240.297 54C239.177 53.5147 238.206 52.824 237.385 51.928C236.564 51.032 235.91 49.968 235.425 48.736C234.977 47.504 234.753 46.1227 234.753 44.592V26.448H242.033V43.472C242.033 46.9067 243.582 48.624 246.681 48.624C248.548 48.624 249.948 48.0453 250.881 46.888C251.852 45.6933 252.337 44.1813 252.337 42.352V26.448H259.561V54H252.673Z"/>
</mask>
<path d="M193.984 50.36C193.461 51.592 192.509 52.5627 191.128 53.272C189.784 53.944 188.253 54.28 186.536 54.28C185.08 54.28 183.736 54.056 182.504 53.608C181.272 53.1227 180.208 52.4507 179.312 51.592C178.416 50.696 177.707 49.6507 177.184 48.456C176.699 47.224 176.456 45.8427 176.456 44.312V26.448H183.736V43.248C183.736 46.6827 185.285 48.4 188.384 48.4C190.064 48.4 191.408 47.9147 192.416 46.944C193.461 45.9733 193.984 44.7413 193.984 43.248V26.448H201.264V54.728C201.264 56.6693 200.928 58.4053 200.256 59.936C199.621 61.4667 198.725 62.7547 197.568 63.8C196.448 64.8453 195.104 65.648 193.536 66.208C192.005 66.768 190.363 67.048 188.608 67.048C184.539 67.048 181.496 66.0213 179.48 63.968C177.464 61.9147 176.456 59.096 176.456 55.512H183.232C183.232 57.1547 183.699 58.4427 184.632 59.376C185.603 60.3093 187.04 60.776 188.944 60.776C189.616 60.776 190.251 60.6267 190.848 60.328C191.445 60.0667 191.968 59.6747 192.416 59.152C192.901 58.6667 193.275 58.0507 193.536 57.304C193.835 56.5573 193.984 55.736 193.984 54.84V50.36ZM218.117 48.624C222.56 48.624 224.781 45.824 224.781 40.224C224.781 34.6613 222.56 31.88 218.117 31.88C213.675 31.88 211.453 34.6613 211.453 40.224C211.453 45.824 213.675 48.624 218.117 48.624ZM218.117 54.728C215.877 54.728 213.88 54.3733 212.125 53.664C210.371 52.9547 208.877 51.9653 207.645 50.696C206.451 49.4267 205.536 47.896 204.901 46.104C204.267 44.312 203.949 42.352 203.949 40.224C203.949 38.0587 204.267 36.08 204.901 34.288C205.573 32.496 206.525 30.9653 207.757 29.696C208.989 28.4267 210.464 27.456 212.181 26.784C213.936 26.0747 215.915 25.72 218.117 25.72C220.283 25.72 222.224 26.0747 223.941 26.784C225.659 27.456 227.115 28.4267 228.309 29.696C229.541 30.928 230.475 32.44 231.109 34.232C231.781 36.024 232.117 38.0213 232.117 40.224C232.117 42.4267 231.781 44.424 231.109 46.216C230.475 47.9707 229.541 49.4827 228.309 50.752C227.115 52.0213 225.64 53.0107 223.885 53.72C222.168 54.392 220.245 54.728 218.117 54.728ZM252.673 54V50.136C250.806 53.1973 247.95 54.728 244.105 54.728C242.724 54.728 241.454 54.4853 240.297 54C239.177 53.5147 238.206 52.824 237.385 51.928C236.564 51.032 235.91 49.968 235.425 48.736C234.977 47.504 234.753 46.1227 234.753 44.592V26.448H242.033V43.472C242.033 46.9067 243.582 48.624 246.681 48.624C248.548 48.624 249.948 48.0453 250.881 46.888C251.852 45.6933 252.337 44.1813 252.337 42.352V26.448H259.561V54H252.673Z" fill="url(#paint1_linear_31_9)"/>
<path d="M193.984 50.36H199.984L188.461 48.0167L193.984 50.36ZM191.128 53.272L193.811 58.6386L193.84 58.6241L193.869 58.6094L191.128 53.272ZM182.504 53.608L180.305 59.1905L180.379 59.2196L180.454 59.2468L182.504 53.608ZM179.312 51.592L175.069 55.8346L175.114 55.8798L175.161 55.9239L179.312 51.592ZM177.184 48.456L171.602 50.6551L171.642 50.7588L171.687 50.8609L177.184 48.456ZM176.456 26.448V20.448H170.456V26.448H176.456ZM183.736 26.448H189.736V20.448H183.736V26.448ZM192.416 46.944L188.333 42.5472L188.293 42.5843L188.254 42.6221L192.416 46.944ZM193.984 26.448V20.448H187.984V26.448H193.984ZM201.264 26.448H207.264V20.448H201.264V26.448ZM200.256 59.936L194.762 57.5241L194.737 57.5807L194.714 57.6379L200.256 59.936ZM197.568 63.8L193.546 59.3474L193.51 59.3802L193.474 59.4137L197.568 63.8ZM193.536 66.208L191.518 60.5575L191.496 60.5653L191.475 60.5733L193.536 66.208ZM179.48 63.968L183.761 59.7645L183.761 59.7645L179.48 63.968ZM176.456 55.512V49.512H170.456V55.512H176.456ZM183.232 55.512H189.232V49.512H183.232V55.512ZM184.632 59.376L180.389 63.6186L180.431 63.6602L180.473 63.701L184.632 59.376ZM190.848 60.328L188.443 54.8311L188.302 54.8927L188.165 54.9614L190.848 60.328ZM192.416 59.152L188.173 54.9094L188.01 55.0723L187.86 55.2473L192.416 59.152ZM193.536 57.304L187.965 55.0757L187.916 55.1978L187.873 55.3219L193.536 57.304ZM193.984 50.36L188.461 48.0167C188.476 47.9804 188.498 47.9387 188.526 47.8971C188.553 47.8556 188.579 47.8266 188.594 47.8107C188.627 47.7771 188.586 47.8325 188.387 47.9346L191.128 53.272L193.869 58.6094C196.289 57.3668 198.35 55.431 199.507 52.7033L193.984 50.36ZM191.128 53.272L188.445 47.9054C188.046 48.1049 187.456 48.28 186.536 48.28V54.28V60.28C189.051 60.28 191.522 59.7831 193.811 58.6386L191.128 53.272ZM186.536 54.28V48.28C185.702 48.28 185.061 48.1533 184.554 47.9692L182.504 53.608L180.454 59.2468C182.411 59.9587 184.458 60.28 186.536 60.28V54.28ZM182.504 53.608L184.703 48.0255C184.148 47.8068 183.759 47.5435 183.463 47.2601L179.312 51.592L175.161 55.9239C176.657 57.3578 178.396 58.4385 180.305 59.1905L182.504 53.608ZM179.312 51.592L183.555 47.3494C183.203 46.9978 182.913 46.5807 182.681 46.0511L177.184 48.456L171.687 50.8609C172.501 52.7207 173.629 54.3942 175.069 55.8346L179.312 51.592ZM177.184 48.456L182.766 46.2569C182.597 45.8255 182.456 45.2058 182.456 44.312H176.456H170.456C170.456 46.4795 170.801 48.6225 171.602 50.6551L177.184 48.456ZM176.456 44.312H182.456V26.448H176.456H170.456V44.312H176.456ZM176.456 26.448V32.448H183.736V26.448V20.448H176.456V26.448ZM183.736 26.448H177.736V43.248H183.736H189.736V26.448H183.736ZM183.736 43.248H177.736C177.736 45.7464 178.286 48.7404 180.443 51.1311C182.706 53.6393 185.741 54.4 188.384 54.4V48.4V42.4C188.148 42.4 188.202 42.3656 188.43 42.4499C188.693 42.547 189.044 42.7508 189.353 43.0929C189.649 43.4216 189.752 43.7062 189.772 43.7741C189.786 43.8207 189.736 43.6748 189.736 43.248H183.736ZM188.384 48.4V54.4C191.285 54.4 194.234 53.5229 196.578 51.2659L192.416 46.944L188.254 42.6221C188.305 42.5735 188.367 42.5237 188.439 42.4794C188.51 42.4354 188.572 42.4079 188.614 42.3927C188.699 42.3619 188.649 42.4 188.384 42.4V48.4ZM192.416 46.944L196.499 51.3408C198.83 49.1762 199.984 46.3216 199.984 43.248H193.984H187.984C187.984 43.2829 187.981 43.1553 188.069 42.9487C188.159 42.7358 188.278 42.5987 188.333 42.5472L192.416 46.944ZM193.984 43.248H199.984V26.448H193.984H187.984V43.248H193.984ZM193.984 26.448V32.448H201.264V26.448V20.448H193.984V26.448ZM201.264 26.448H195.264V54.728H201.264H207.264V26.448H201.264ZM201.264 54.728H195.264C195.264 55.9718 195.051 56.8665 194.762 57.5241L200.256 59.936L205.75 62.3479C206.805 59.9441 207.264 57.3669 207.264 54.728H201.264ZM200.256 59.936L194.714 57.6379C194.398 58.399 194.002 58.9355 193.546 59.3474L197.568 63.8L201.59 68.2526C203.448 66.5738 204.845 64.5343 205.798 62.2341L200.256 59.936ZM197.568 63.8L193.474 59.4137C193.003 59.8535 192.383 60.2488 191.518 60.5575L193.536 66.208L195.554 71.8585C197.825 71.0472 199.893 69.8372 201.662 68.1863L197.568 63.8ZM193.536 66.208L191.475 60.5733C190.653 60.8737 189.713 61.048 188.608 61.048V67.048V73.048C191.012 73.048 193.357 72.6623 195.597 71.8427L193.536 66.208ZM188.608 67.048V61.048C185.473 61.048 184.25 60.2623 183.761 59.7645L179.48 63.968L175.199 68.1715C178.742 71.7804 183.605 73.048 188.608 73.048V67.048ZM179.48 63.968L183.761 59.7645C183.102 59.0934 182.456 57.9308 182.456 55.512H176.456H170.456C170.456 60.2612 171.826 64.736 175.199 68.1715L179.48 63.968ZM176.456 55.512V61.512H183.232V55.512V49.512H176.456V55.512ZM183.232 55.512H177.232C177.232 58.3344 178.07 61.2991 180.389 63.6186L184.632 59.376L188.875 55.1334C188.955 55.214 189.031 55.3082 189.095 55.4104C189.159 55.5119 189.2 55.6014 189.223 55.6661C189.269 55.7933 189.232 55.7713 189.232 55.512H183.232ZM184.632 59.376L180.473 63.701C182.953 66.0857 186.135 66.776 188.944 66.776V60.776V54.776C188.711 54.776 188.544 54.7616 188.433 54.7462C188.324 54.7308 188.281 54.716 188.291 54.7193C188.302 54.723 188.366 54.7452 188.463 54.8015C188.562 54.8589 188.676 54.9412 188.791 55.051L184.632 59.376ZM188.944 60.776V66.776C190.541 66.776 192.095 66.4125 193.531 65.6946L190.848 60.328L188.165 54.9614C188.272 54.9076 188.403 54.8581 188.55 54.8235C188.696 54.789 188.832 54.776 188.944 54.776V60.776ZM190.848 60.328L193.253 65.8249C194.724 65.1814 195.969 64.226 196.972 63.0567L192.416 59.152L187.86 55.2473C187.906 55.194 187.981 55.1183 188.088 55.038C188.196 54.957 188.317 54.8862 188.443 54.8311L190.848 60.328ZM192.416 59.152L196.659 63.3946C197.872 62.1815 198.685 60.7537 199.199 59.2861L193.536 57.304L187.873 55.3219C187.867 55.3399 187.88 55.2975 187.929 55.2162C187.979 55.1326 188.059 55.0237 188.173 54.9094L192.416 59.152ZM193.536 57.304L199.107 59.5323C199.72 58.0004 199.984 56.4123 199.984 54.84H193.984H187.984C187.984 54.9541 187.975 55.0229 187.969 55.0547C187.963 55.0852 187.96 55.0891 187.965 55.0757L193.536 57.304ZM193.984 54.84H199.984V50.36H193.984H187.984V54.84H193.984ZM212.125 53.664L214.374 48.1013L214.374 48.1013L212.125 53.664ZM207.645 50.696L203.276 54.8082L203.308 54.8418L203.34 54.8749L207.645 50.696ZM204.901 46.104L199.246 48.1071L199.246 48.1071L204.901 46.104ZM204.901 34.288L199.283 32.1813L199.264 32.2329L199.246 32.2849L204.901 34.288ZM207.757 29.696L212.063 33.8749L212.063 33.8749L207.757 29.696ZM212.181 26.784L214.368 32.3715L214.399 32.3592L214.43 32.3467L212.181 26.784ZM223.941 26.784L221.651 32.3296L221.703 32.351L221.755 32.3715L223.941 26.784ZM228.309 29.696L223.94 33.8082L224.002 33.8744L224.067 33.9386L228.309 29.696ZM231.109 34.232L225.454 36.2351L225.472 36.2871L225.491 36.3387L231.109 34.232ZM231.109 46.216L225.491 44.1093L225.479 44.1421L225.467 44.1752L231.109 46.216ZM228.309 50.752L224.004 46.5731L223.972 46.6062L223.94 46.6398L228.309 50.752ZM223.885 53.72L226.072 59.3075L226.103 59.2952L226.134 59.2827L223.885 53.72ZM218.117 48.624V54.624C221.68 54.624 225.294 53.4318 227.816 50.253C230.128 47.3392 230.781 43.6563 230.781 40.224H224.781H218.781C218.781 41.247 218.678 41.9355 218.564 42.3651C218.454 42.7838 218.358 42.8668 218.415 42.795C218.495 42.6945 218.621 42.6041 218.709 42.5674C218.759 42.5461 218.608 42.624 218.117 42.624V48.624ZM224.781 40.224H230.781C230.781 36.8034 230.125 33.1279 227.804 30.2217C225.277 27.0579 221.666 25.88 218.117 25.88V31.88V37.88C218.612 37.88 218.769 37.9582 218.722 37.9386C218.638 37.9037 218.51 37.8146 218.427 37.7103C218.366 37.634 218.458 37.7094 218.567 38.1171C218.678 38.536 218.781 39.213 218.781 40.224H224.781ZM218.117 31.88V25.88C214.568 25.88 210.958 27.0579 208.431 30.2217C206.11 33.1279 205.453 36.8034 205.453 40.224H211.453H217.453C217.453 39.213 217.556 38.536 217.668 38.1171C217.776 37.7094 217.869 37.634 217.808 37.7103C217.724 37.8146 217.596 37.9037 217.513 37.9386C217.466 37.9582 217.623 37.88 218.117 37.88V31.88ZM211.453 40.224H205.453C205.453 43.6563 206.107 47.3392 208.419 50.253C210.941 53.4318 214.554 54.624 218.117 54.624V48.624V42.624C217.627 42.624 217.475 42.5461 217.526 42.5674C217.613 42.6041 217.74 42.6945 217.82 42.795C217.877 42.8668 217.781 42.7838 217.67 42.3651C217.557 41.9355 217.453 41.247 217.453 40.224H211.453ZM218.117 54.728V48.728C216.509 48.728 215.296 48.474 214.374 48.1013L212.125 53.664L209.877 59.2267C212.464 60.2727 215.245 60.728 218.117 60.728V54.728ZM212.125 53.664L214.374 48.1013C213.339 47.6828 212.561 47.1459 211.951 46.5171L207.645 50.696L203.34 54.8749C205.194 56.7847 207.403 58.2265 209.877 59.2267L212.125 53.664ZM207.645 50.696L212.015 46.5838C211.44 45.9738 210.939 45.18 210.557 44.1009L204.901 46.104L199.246 48.1071C200.133 50.612 201.461 52.8796 203.276 54.8082L207.645 50.696ZM204.901 46.104L210.557 44.1009C210.176 43.0241 209.949 41.7504 209.949 40.224H203.949H197.949C197.949 42.9536 198.358 45.5998 199.246 48.1071L204.901 46.104ZM203.949 40.224H209.949C209.949 38.6475 210.18 37.3571 210.557 36.2911L204.901 34.288L199.246 32.2849C198.354 34.8028 197.949 37.4698 197.949 40.224H203.949ZM204.901 34.288L210.519 36.3947C210.925 35.3123 211.452 34.504 212.063 33.8749L207.757 29.696L203.452 25.5171C201.599 27.4267 200.221 29.6797 199.283 32.1813L204.901 34.288ZM207.757 29.696L212.063 33.8749C212.672 33.2474 213.415 32.7444 214.368 32.3715L212.181 26.784L209.995 21.1965C207.513 22.1676 205.307 23.6059 203.452 25.5171L207.757 29.696ZM212.181 26.784L214.43 32.3467C215.363 31.9694 216.561 31.72 218.117 31.72V25.72V19.72C215.269 19.72 212.509 20.1799 209.933 21.2213L212.181 26.784ZM218.117 25.72V31.72C219.625 31.72 220.77 31.9656 221.651 32.3296L223.941 26.784L226.232 21.2384C223.678 20.1837 220.94 19.72 218.117 19.72V25.72ZM223.941 26.784L221.755 32.3715C222.693 32.7387 223.39 33.2236 223.94 33.8082L228.309 29.696L232.679 25.5838C230.839 23.6298 228.624 22.1733 226.128 21.1965L223.941 26.784ZM228.309 29.696L224.067 33.9386C224.611 34.4827 225.09 35.2076 225.454 36.2351L231.109 34.232L236.765 32.2289C235.86 29.6724 234.472 27.3732 232.552 25.4534L228.309 29.696ZM231.109 34.232L225.491 36.3387C225.876 37.3636 226.117 38.6337 226.117 40.224H232.117H238.117C238.117 37.4089 237.687 34.6844 236.727 32.1253L231.109 34.232ZM232.117 40.224H226.117C226.117 41.8143 225.876 43.0844 225.491 44.1093L231.109 46.216L236.727 48.3227C237.687 45.7636 238.117 43.0391 238.117 40.224H232.117ZM231.109 46.216L225.467 44.1752C225.105 45.1753 224.612 45.947 224.004 46.5731L228.309 50.752L232.615 54.9309C234.471 53.0183 235.844 50.7661 236.752 48.2568L231.109 46.216ZM228.309 50.752L223.94 46.6398C223.389 47.2256 222.658 47.7445 221.637 48.1573L223.885 53.72L226.134 59.2827C228.622 58.2768 230.841 56.8171 232.679 54.8642L228.309 50.752ZM223.885 53.72L221.699 48.1325C220.777 48.4933 219.611 48.728 218.117 48.728V54.728V60.728C220.88 60.728 223.559 60.2907 226.072 59.3075L223.885 53.72ZM252.673 54H246.673V60H252.673V54ZM252.673 50.136H258.673V28.771L247.55 47.0124L252.673 50.136ZM240.297 54L237.911 59.5053L237.944 59.5194L237.977 59.5332L240.297 54ZM237.385 51.928L241.808 47.8737L237.385 51.928ZM235.425 48.736L229.786 50.7865L229.813 50.8612L229.842 50.9351L235.425 48.736ZM234.753 26.448V20.448H228.753V26.448H234.753ZM242.033 26.448H248.033V20.448H242.033V26.448ZM250.881 46.888L246.224 43.1044L246.217 43.113L246.21 43.1215L250.881 46.888ZM252.337 26.448V20.448H246.337V26.448H252.337ZM259.561 26.448H265.561V20.448H259.561V26.448ZM259.561 54V60H265.561V54H259.561ZM252.673 54H258.673V50.136H252.673H246.673V54H252.673ZM252.673 50.136L247.55 47.0124C246.865 48.1362 246.041 48.728 244.105 48.728V54.728V60.728C249.859 60.728 254.748 58.2584 257.796 53.2596L252.673 50.136ZM244.105 54.728V48.728C243.44 48.728 242.969 48.6143 242.617 48.4668L240.297 54L237.977 59.5332C239.939 60.3563 242.007 60.728 244.105 60.728V54.728ZM240.297 54L242.683 48.4947C242.333 48.343 242.057 48.1455 241.808 47.8737L237.385 51.928L232.962 55.9823C234.355 57.5025 236.021 58.6863 237.911 59.5053L240.297 54ZM237.385 51.928L241.808 47.8737C241.526 47.5663 241.247 47.146 241.007 46.5369L235.425 48.736L229.842 50.9351C230.573 52.79 231.601 54.4977 232.962 55.9823L237.385 51.928ZM235.425 48.736L241.064 46.6855C240.891 46.2107 240.753 45.5383 240.753 44.592H234.753H228.753C228.753 46.707 229.063 48.7973 229.786 50.7865L235.425 48.736ZM234.753 44.592H240.753V26.448H234.753H228.753V44.592H234.753ZM234.753 26.448V32.448H242.033V26.448V20.448H234.753V26.448ZM242.033 26.448H236.033V43.472H242.033H248.033V26.448H242.033ZM242.033 43.472H236.033C236.033 45.9704 236.583 48.9644 238.74 51.3551C241.003 53.8633 244.038 54.624 246.681 54.624V48.624V42.624C246.445 42.624 246.499 42.5896 246.727 42.6739C246.99 42.771 247.341 42.9748 247.65 43.3169C247.946 43.6456 248.049 43.9302 248.069 43.9981C248.083 44.0447 248.033 43.8988 248.033 43.472H242.033ZM246.681 48.624V54.624C249.855 54.624 253.195 53.5765 255.551 50.6545L250.881 46.888L246.21 43.1215C246.287 43.0261 246.389 42.9252 246.512 42.8337C246.634 42.7424 246.75 42.6819 246.839 42.645C247.013 42.5729 247.005 42.624 246.681 42.624V48.624ZM250.881 46.888L255.538 50.6716C257.534 48.2147 258.337 45.2888 258.337 42.352H252.337H246.337C246.337 42.7369 246.286 42.9431 246.26 43.0242C246.238 43.0932 246.224 43.1041 246.224 43.1044L250.881 46.888ZM252.337 42.352H258.337V26.448H252.337H246.337V42.352H252.337ZM252.337 26.448V32.448H259.561V26.448V20.448H252.337V26.448ZM259.561 26.448H253.561V54H259.561H265.561V26.448H259.561ZM259.561 54V48H252.673V54V60H259.561V54Z" fill="white" mask="url(#path-4-outside-2_31_9)"/>
</g>
</g>
<defs>
<filter id="filter0_d_31_9" x="14.4561" y="11.368" width="158.573" height="56.36" filterUnits="userSpaceOnUse" color-interpolation-filters="sRGB">
<feFlood flood-opacity="0" result="BackgroundImageFix"/>
<feColorMatrix in="SourceAlpha" type="matrix" values="0 0 0 0 0 0 0 0 0 0 0 0 0 0 0 0 0 0 127 0" result="hardAlpha"/>
<feOffset dy="4"/>
<feGaussianBlur stdDeviation="2"/>
<feComposite in2="hardAlpha" operator="out"/>
<feColorMatrix type="matrix" values="0 0 0 0 0 0 0 0 0 0 0 0 0 0 0 0 0 0 0.25 0"/>
<feBlend mode="normal" in2="BackgroundImageFix" result="effect1_dropShadow_31_9"/>
<feBlend mode="normal" in="SourceGraphic" in2="effect1_dropShadow_31_9" result="shape"/>
</filter>
<filter id="filter1_d_31_9" x="166.456" y="19.72" width="103.105" height="61.328" filterUnits="userSpaceOnUse" color-interpolation-filters="sRGB">
<feFlood flood-opacity="0" result="BackgroundImageFix"/>
<feColorMatrix in="SourceAlpha" type="matrix" values="0 0 0 0 0 0 0 0 0 0 0 0 0 0 0 0 0 0 127 0" result="hardAlpha"/>
<feOffset dy="4"/>
<feGaussianBlur stdDeviation="2"/>
<feComposite in2="hardAlpha" operator="out"/>
<feColorMatrix type="matrix" values="0 0 0 0 0 0 0 0 0 0 0 0 0 0 0 0 0 0 0.25 0"/>
<feBlend mode="normal" in2="BackgroundImageFix" result="effect1_dropShadow_31_9"/>
<feBlend mode="normal" in="SourceGraphic" in2="effect1_dropShadow_31_9" result="shape"/>
</filter>
<linearGradient id="paint0_linear_31_9" x1="65.9434" y1="14.07" x2="85.996" y2="59.5216" gradientUnits="userSpaceOnUse">
<stop stop-color="#2CA6E9"/>
<stop offset="1" stop-color="#1C66C9"/>
</linearGradient>
<linearGradient id="paint1_linear_31_9" x1="202.906" y1="14.07" x2="228.349" y2="50.6922" gradientUnits="userSpaceOnUse">
<stop stop-color="#2CA6E9"/>
<stop offset="1" stop-color="#1C66C9"/>
</linearGradient>
</defs>
</svg>
